M48
; DRILL file {KiCad 9.0.4} date 2026-03-24T17:38:18-0500
; FORMAT={-:-/ absolute / metric / decimal}
; #@! TF.CreationDate,2026-03-24T17:38:18-05:00
; #@! TF.GenerationSoftware,Kicad,Pcbnew,9.0.4
; #@! TF.FileFunction,Plated,1,4,PTH
FMAT,2
METRIC
; #@! TA.AperFunction,Plated,PTH,ViaDrill
T1C0.300
; #@! TA.AperFunction,Plated,PTH,ViaDrill
T2C0.500
; #@! TA.AperFunction,Plated,PTH,ComponentDrill
T3C0.500
; #@! TA.AperFunction,Plated,PTH,ComponentDrill
T4C0.800
; #@! TA.AperFunction,Plated,PTH,ComponentDrill
T5C1.000
; #@! TA.AperFunction,Plated,PTH,ComponentDrill
T6C1.200
; #@! TA.AperFunction,Plated,PTH,ComponentDrill
T7C1.600
; #@! TA.AperFunction,Plated,PTH,ComponentDrill
T8C3.200
%
G90
G05
T1
X62.4Y-74.025
X62.425Y-78.0
X71.075Y-52.1
X71.1Y-55.35
X71.5Y-74.0
X74.425Y-52.075
X74.475Y-55.4
X74.525Y-58.525
X76.35Y-77.025
X76.35Y-78.95
X77.325Y-52.125
X77.325Y-55.35
X77.35Y-58.525
X80.075Y-66.725
X80.125Y-69.425
X82.1Y-66.75
X82.175Y-69.4
X84.375Y-73.5
X84.475Y-66.8
X84.5Y-69.3
X84.55Y-71.325
X86.225Y-73.475
X86.375Y-66.775
X86.4Y-69.3
X86.45Y-71.375
X87.1Y-72.3
X88.3Y-66.775
X91.4Y-66.6
X91.4Y-67.3
X95.97Y-62.405
X97.1Y-67.35
X98.5Y-67.7
X101.092Y-68.843
X101.092Y-70.875
X101.275Y-53.025
X101.325Y-57.625
X101.35Y-55.375
X101.35Y-61.75
X101.4Y-63.75
X104.85Y-53.0
X104.875Y-55.375
X104.875Y-57.65
X104.925Y-61.8
X104.975Y-63.725
X108.225Y-53.025
X108.3Y-55.425
X108.375Y-57.65
X108.4Y-61.725
X108.425Y-63.75
X112.2Y-79.5
X114.2Y-73.6
X131.275Y-77.875
X132.9Y-64.35
X133.3Y-67.225
X139.175Y-64.7
X142.725Y-65.8
X143.764Y-60.452
X147.725Y-74.9
X149.352Y-60.452
T2
X105.65Y-65.575
X106.7Y-65.6
X107.7Y-65.6
T3
X58.097Y-66.772
X58.8Y-65.075
X58.8Y-68.469
X60.497Y-64.372
X60.497Y-69.172
X62.194Y-65.075
X62.194Y-68.469
X62.897Y-66.772
X145.288Y-66.823
X145.991Y-65.126
X145.991Y-68.52
X147.688Y-64.423
X147.688Y-69.223
X149.385Y-65.126
X149.385Y-68.52
X150.088Y-66.823
T4
X104.15Y-73.275
X109.15Y-73.275
X118.045Y-70.65
X118.045Y-73.19
X118.045Y-75.73
X118.045Y-78.27
X125.665Y-70.65
X125.665Y-73.19
X125.665Y-75.73
X125.665Y-78.27
X136.355Y-70.65
X136.355Y-73.19
X136.355Y-75.73
X136.355Y-78.27
X143.975Y-70.65
X143.975Y-73.19
X143.975Y-75.73
X143.975Y-78.27
T5
X67.375Y-58.45
X72.375Y-58.45
X105.085Y-80.425
X107.625Y-80.425
X110.165Y-80.425
X135.94Y-52.6
X138.48Y-52.6
X141.02Y-52.6
X143.56Y-52.6
X146.1Y-52.6
T6
X109.467Y-59.182
X116.967Y-59.182
T7
X125.262Y-61.271
X130.262Y-61.271
T8
X60.497Y-66.772
X147.688Y-66.823
M30
