%TF.GenerationSoftware,KiCad,Pcbnew,9.0.4*%
%TF.CreationDate,2026-03-24T17:38:09-05:00*%
%TF.ProjectId,Servo_Breakout,53657276-6f5f-4427-9265-616b6f75742e,A*%
%TF.SameCoordinates,Original*%
%TF.FileFunction,Soldermask,Bot*%
%TF.FilePolarity,Negative*%
%FSLAX46Y46*%
G04 Gerber Fmt 4.6, Leading zero omitted, Abs format (unit mm)*
G04 Created by KiCad (PCBNEW 9.0.4) date 2026-03-24 17:38:09*
%MOMM*%
%LPD*%
G01*
G04 APERTURE LIST*
G04 Aperture macros list*
%AMRoundRect*
0 Rectangle with rounded corners*
0 $1 Rounding radius*
0 $2 $3 $4 $5 $6 $7 $8 $9 X,Y pos of 4 corners*
0 Add a 4 corners polygon primitive as box body*
4,1,4,$2,$3,$4,$5,$6,$7,$8,$9,$2,$3,0*
0 Add four circle primitives for the rounded corners*
1,1,$1+$1,$2,$3*
1,1,$1+$1,$4,$5*
1,1,$1+$1,$6,$7*
1,1,$1+$1,$8,$9*
0 Add four rect primitives between the rounded corners*
20,1,$1+$1,$2,$3,$4,$5,0*
20,1,$1+$1,$4,$5,$6,$7,0*
20,1,$1+$1,$6,$7,$8,$9,0*
20,1,$1+$1,$8,$9,$2,$3,0*%
G04 Aperture macros list end*
%ADD10RoundRect,0.250001X0.949999X0.949999X-0.949999X0.949999X-0.949999X-0.949999X0.949999X-0.949999X0*%
%ADD11C,2.400000*%
%ADD12RoundRect,0.250000X-0.550000X-0.550000X0.550000X-0.550000X0.550000X0.550000X-0.550000X0.550000X0*%
%ADD13C,1.600000*%
%ADD14C,0.800000*%
%ADD15C,6.400000*%
%ADD16RoundRect,0.250000X0.750000X0.750000X-0.750000X0.750000X-0.750000X-0.750000X0.750000X-0.750000X0*%
%ADD17C,2.000000*%
%ADD18R,1.700000X1.700000*%
%ADD19C,1.700000*%
%ADD20RoundRect,0.250000X0.804100X0.804100X-0.804100X0.804100X-0.804100X-0.804100X0.804100X-0.804100X0*%
%ADD21C,2.108200*%
G04 APERTURE END LIST*
D10*
%TO.C,C208*%
X116967000Y-59182000D03*
D11*
X109467000Y-59182000D03*
%TD*%
D12*
%TO.C,U403*%
X118045000Y-70650000D03*
D13*
X118045000Y-73190000D03*
X118045000Y-75730000D03*
X118045000Y-78270000D03*
X125665000Y-78270000D03*
X125665000Y-75730000D03*
X125665000Y-73190000D03*
X125665000Y-70650000D03*
%TD*%
D14*
%TO.C,H101*%
X58097056Y-66772056D03*
X58800000Y-65075000D03*
X58800000Y-68469112D03*
X60497056Y-64372056D03*
D15*
X60497056Y-66772056D03*
D14*
X60497056Y-69172056D03*
X62194112Y-65075000D03*
X62194112Y-68469112D03*
X62897056Y-66772056D03*
%TD*%
%TO.C,H102*%
X145288000Y-66822656D03*
X145990944Y-65125600D03*
X145990944Y-68519712D03*
X147688000Y-64422656D03*
D15*
X147688000Y-66822656D03*
D14*
X147688000Y-69222656D03*
X149385056Y-65125600D03*
X149385056Y-68519712D03*
X150088000Y-66822656D03*
%TD*%
D16*
%TO.C,C201*%
X72375000Y-58450000D03*
D17*
X67375000Y-58450000D03*
%TD*%
D12*
%TO.C,U401*%
X136355000Y-70650000D03*
D13*
X136355000Y-73190000D03*
X136355000Y-75730000D03*
X136355000Y-78270000D03*
X143975000Y-78270000D03*
X143975000Y-75730000D03*
X143975000Y-73190000D03*
X143975000Y-70650000D03*
%TD*%
D18*
%TO.C,J103*%
X110165000Y-80425000D03*
D19*
X107625000Y-80425000D03*
X105085000Y-80425000D03*
%TD*%
D13*
%TO.C,C101*%
X109150000Y-73275000D03*
X104150000Y-73275000D03*
%TD*%
D18*
%TO.C,J102*%
X146100000Y-52600000D03*
D19*
X143560000Y-52600000D03*
X141020000Y-52600000D03*
X138480000Y-52600000D03*
X135940000Y-52600000D03*
%TD*%
D20*
%TO.C,J101*%
X130262000Y-61271400D03*
D21*
X125262000Y-61271400D03*
%TD*%
M02*
