%TF.GenerationSoftware,KiCad,Pcbnew,9.0.4*%
%TF.CreationDate,2026-03-24T17:38:09-05:00*%
%TF.ProjectId,Servo_Breakout,53657276-6f5f-4427-9265-616b6f75742e,A*%
%TF.SameCoordinates,Original*%
%TF.FileFunction,Copper,L4,Bot*%
%TF.FilePolarity,Positive*%
%FSLAX46Y46*%
G04 Gerber Fmt 4.6, Leading zero omitted, Abs format (unit mm)*
G04 Created by KiCad (PCBNEW 9.0.4) date 2026-03-24 17:38:09*
%MOMM*%
%LPD*%
G01*
G04 APERTURE LIST*
G04 Aperture macros list*
%AMRoundRect*
0 Rectangle with rounded corners*
0 $1 Rounding radius*
0 $2 $3 $4 $5 $6 $7 $8 $9 X,Y pos of 4 corners*
0 Add a 4 corners polygon primitive as box body*
4,1,4,$2,$3,$4,$5,$6,$7,$8,$9,$2,$3,0*
0 Add four circle primitives for the rounded corners*
1,1,$1+$1,$2,$3*
1,1,$1+$1,$4,$5*
1,1,$1+$1,$6,$7*
1,1,$1+$1,$8,$9*
0 Add four rect primitives between the rounded corners*
20,1,$1+$1,$2,$3,$4,$5,0*
20,1,$1+$1,$4,$5,$6,$7,0*
20,1,$1+$1,$6,$7,$8,$9,0*
20,1,$1+$1,$8,$9,$2,$3,0*%
G04 Aperture macros list end*
%TA.AperFunction,ComponentPad*%
%ADD10RoundRect,0.250001X0.949999X0.949999X-0.949999X0.949999X-0.949999X-0.949999X0.949999X-0.949999X0*%
%TD*%
%TA.AperFunction,ComponentPad*%
%ADD11C,2.400000*%
%TD*%
%TA.AperFunction,ComponentPad*%
%ADD12RoundRect,0.250000X-0.550000X-0.550000X0.550000X-0.550000X0.550000X0.550000X-0.550000X0.550000X0*%
%TD*%
%TA.AperFunction,ComponentPad*%
%ADD13C,1.600000*%
%TD*%
%TA.AperFunction,ComponentPad*%
%ADD14C,0.800000*%
%TD*%
%TA.AperFunction,ComponentPad*%
%ADD15C,6.400000*%
%TD*%
%TA.AperFunction,ComponentPad*%
%ADD16RoundRect,0.250000X0.750000X0.750000X-0.750000X0.750000X-0.750000X-0.750000X0.750000X-0.750000X0*%
%TD*%
%TA.AperFunction,ComponentPad*%
%ADD17C,2.000000*%
%TD*%
%TA.AperFunction,ComponentPad*%
%ADD18R,1.700000X1.700000*%
%TD*%
%TA.AperFunction,ComponentPad*%
%ADD19C,1.700000*%
%TD*%
%TA.AperFunction,ComponentPad*%
%ADD20RoundRect,0.250000X0.804100X0.804100X-0.804100X0.804100X-0.804100X-0.804100X0.804100X-0.804100X0*%
%TD*%
%TA.AperFunction,ComponentPad*%
%ADD21C,2.108200*%
%TD*%
%TA.AperFunction,ViaPad*%
%ADD22C,1.000000*%
%TD*%
%TA.AperFunction,ViaPad*%
%ADD23C,0.600000*%
%TD*%
%TA.AperFunction,Conductor*%
%ADD24C,0.200000*%
%TD*%
G04 APERTURE END LIST*
D10*
%TO.P,C208,1*%
%TO.N,+36V*%
X116967000Y-59182000D03*
D11*
%TO.P,C208,2*%
%TO.N,GND*%
X109467000Y-59182000D03*
%TD*%
D12*
%TO.P,U403,1,GND*%
%TO.N,GND*%
X118045000Y-70650000D03*
D13*
%TO.P,U403,2,TRIG*%
%TO.N,/Timer/TIM1_OUT*%
X118045000Y-73190000D03*
%TO.P,U403,3,OUT*%
%TO.N,Net-(U403-OUT)*%
X118045000Y-75730000D03*
%TO.P,U403,4,~{RST}*%
%TO.N,/VBUCK*%
X118045000Y-78270000D03*
%TO.P,U403,5,CONT*%
%TO.N,Net-(U403-CONT)*%
X125665000Y-78270000D03*
%TO.P,U403,6,THRES*%
%TO.N,Net-(U402-W)*%
X125665000Y-75730000D03*
%TO.P,U403,7,DISCH*%
X125665000Y-73190000D03*
%TO.P,U403,8,VCC*%
%TO.N,/VBUCK*%
X125665000Y-70650000D03*
%TD*%
D14*
%TO.P,H101,1,1*%
%TO.N,unconnected-(H101-Pad1)_6*%
X58097056Y-66772056D03*
%TO.N,unconnected-(H101-Pad1)_4*%
X58800000Y-65075000D03*
%TO.N,unconnected-(H101-Pad1)_1*%
X58800000Y-68469112D03*
%TO.N,unconnected-(H101-Pad1)_3*%
X60497056Y-64372056D03*
D15*
%TO.N,unconnected-(H101-Pad1)_8*%
X60497056Y-66772056D03*
D14*
%TO.N,unconnected-(H101-Pad1)*%
X60497056Y-69172056D03*
%TO.N,unconnected-(H101-Pad1)_5*%
X62194112Y-65075000D03*
%TO.N,unconnected-(H101-Pad1)_2*%
X62194112Y-68469112D03*
%TO.N,unconnected-(H101-Pad1)_7*%
X62897056Y-66772056D03*
%TD*%
%TO.P,H102,1,1*%
%TO.N,unconnected-(H102-Pad1)_2*%
X145288000Y-66822656D03*
%TO.N,unconnected-(H102-Pad1)_4*%
X145990944Y-65125600D03*
%TO.N,unconnected-(H102-Pad1)_8*%
X145990944Y-68519712D03*
%TO.N,unconnected-(H102-Pad1)_5*%
X147688000Y-64422656D03*
D15*
%TO.N,unconnected-(H102-Pad1)_7*%
X147688000Y-66822656D03*
D14*
%TO.N,unconnected-(H102-Pad1)_6*%
X147688000Y-69222656D03*
%TO.N,unconnected-(H102-Pad1)*%
X149385056Y-65125600D03*
%TO.N,unconnected-(H102-Pad1)_3*%
X149385056Y-68519712D03*
%TO.N,unconnected-(H102-Pad1)_1*%
X150088000Y-66822656D03*
%TD*%
D16*
%TO.P,C201,1*%
%TO.N,/VBUCK*%
X72375000Y-58450000D03*
D17*
%TO.P,C201,2*%
%TO.N,GND*%
X67375000Y-58450000D03*
%TD*%
D12*
%TO.P,U401,1,GND*%
%TO.N,GND*%
X136355000Y-70650000D03*
D13*
%TO.P,U401,2,TRIG*%
%TO.N,Net-(U401-THRES)*%
X136355000Y-73190000D03*
%TO.P,U401,3,OUT*%
%TO.N,/Timer/TIM1_OUT*%
X136355000Y-75730000D03*
%TO.P,U401,4,~{RST}*%
%TO.N,/VBUCK*%
X136355000Y-78270000D03*
%TO.P,U401,5,CONT*%
%TO.N,Net-(U401-CONT)*%
X143975000Y-78270000D03*
%TO.P,U401,6,THRES*%
%TO.N,Net-(U401-THRES)*%
X143975000Y-75730000D03*
%TO.P,U401,7,DISCH*%
%TO.N,unconnected-(U401-DISCH-Pad7)*%
X143975000Y-73190000D03*
%TO.P,U401,8,VCC*%
%TO.N,/VBUCK*%
X143975000Y-70650000D03*
%TD*%
D18*
%TO.P,J103,1,Pin_1*%
%TO.N,/PWM_A1*%
X110165000Y-80425000D03*
D19*
%TO.P,J103,2,Pin_2*%
%TO.N,/VBUCK*%
X107625000Y-80425000D03*
%TO.P,J103,3,Pin_3*%
%TO.N,GND*%
X105085000Y-80425000D03*
%TD*%
D13*
%TO.P,C101,1*%
%TO.N,/VBUCK*%
X109150000Y-73275000D03*
%TO.P,C101,2*%
%TO.N,GND*%
X104150000Y-73275000D03*
%TD*%
D18*
%TO.P,J102,1,Pin_1*%
%TO.N,/SW_EN*%
X146100000Y-52600000D03*
D19*
%TO.P,J102,2,Pin_2*%
%TO.N,/CONN_I2C1_SCL*%
X143560000Y-52600000D03*
%TO.P,J102,3,Pin_3*%
%TO.N,/CONN_I2C1_SDA*%
X141020000Y-52600000D03*
%TO.P,J102,4,Pin_4*%
%TO.N,/I2C1_VCC*%
X138480000Y-52600000D03*
%TO.P,J102,5,Pin_5*%
%TO.N,GND*%
X135940000Y-52600000D03*
%TD*%
D20*
%TO.P,J101,1,Pin_1*%
%TO.N,+36V*%
X130262000Y-61271400D03*
D21*
%TO.P,J101,2,Pin_2*%
%TO.N,GND*%
X125262000Y-61271400D03*
%TD*%
D22*
%TO.N,+36V*%
X107700000Y-65600000D03*
X106700000Y-65600000D03*
D23*
%TO.N,GND*%
X101400000Y-63750000D03*
X104925000Y-61800000D03*
X86375000Y-66775000D03*
X108400000Y-61725000D03*
X132900000Y-64350000D03*
X104850000Y-53000000D03*
X101350000Y-55375000D03*
X131275000Y-77875000D03*
X86450000Y-71375000D03*
X101092000Y-70875000D03*
X101325000Y-57625000D03*
X86400000Y-69300000D03*
X84375000Y-73500000D03*
X84550000Y-71325000D03*
X91400000Y-66600000D03*
X88300000Y-66775000D03*
X104875000Y-57650000D03*
X76350000Y-77025000D03*
X104975000Y-63725000D03*
X108425000Y-63750000D03*
X101275000Y-53025000D03*
X91400000Y-67300000D03*
X71500000Y-74000000D03*
X84475000Y-66800000D03*
X108375000Y-57650000D03*
X147725000Y-74900000D03*
X104875000Y-55375000D03*
X101350000Y-61750000D03*
X87100000Y-72300000D03*
X114200000Y-73600000D03*
X149352000Y-60452000D03*
X108300000Y-55425000D03*
X101092000Y-68843000D03*
X86225000Y-73475000D03*
X84500000Y-69300000D03*
X108225000Y-53025000D03*
X112200000Y-79500000D03*
%TO.N,/VBUCK*%
X77350000Y-58525000D03*
X74475000Y-55400000D03*
X80125000Y-69425000D03*
X62400000Y-74025000D03*
X82175000Y-69400000D03*
X142725000Y-65800000D03*
X139175000Y-64700000D03*
X133300000Y-67225000D03*
X82100000Y-66750000D03*
X71100000Y-55350000D03*
X74525000Y-58525000D03*
X74425000Y-52075000D03*
X62425000Y-78000000D03*
X143764000Y-60452000D03*
X80075000Y-66725000D03*
X77325000Y-55350000D03*
X71075000Y-52100000D03*
X77325000Y-52125000D03*
D22*
%TO.N,+36V*%
X105650000Y-65575000D03*
D23*
%TO.N,/PWM_A1*%
X76350000Y-78950000D03*
%TO.N,/SW_EN*%
X98500000Y-67700000D03*
%TO.N,Net-(U202-BOOT)*%
X97100000Y-67350000D03*
X95970000Y-62405000D03*
%TD*%
D24*
%TO.N,/Timer/TIM1_OUT*%
X135085000Y-77000000D02*
X121855000Y-77000000D01*
X136355000Y-75730000D02*
X135085000Y-77000000D01*
X121855000Y-77000000D02*
X118045000Y-73190000D01*
%TO.N,/PWM_A1*%
X76350000Y-78950000D02*
X108690000Y-78950000D01*
X108690000Y-78950000D02*
X110165000Y-80425000D01*
%TO.N,/SW_EN*%
X98600000Y-67600000D02*
X98500000Y-67700000D01*
X131100000Y-67600000D02*
X98600000Y-67600000D01*
X146100000Y-52600000D02*
X131100000Y-67600000D01*
%TO.N,Net-(U202-BOOT)*%
X97100000Y-67350000D02*
X97100000Y-63535000D01*
X97100000Y-63535000D02*
X95970000Y-62405000D01*
%TD*%
M02*
