%TF.GenerationSoftware,KiCad,Pcbnew,9.0.4*%
%TF.CreationDate,2026-03-24T17:38:09-05:00*%
%TF.ProjectId,Servo_Breakout,53657276-6f5f-4427-9265-616b6f75742e,A*%
%TF.SameCoordinates,Original*%
%TF.FileFunction,Copper,L3,Inr*%
%TF.FilePolarity,Positive*%
%FSLAX46Y46*%
G04 Gerber Fmt 4.6, Leading zero omitted, Abs format (unit mm)*
G04 Created by KiCad (PCBNEW 9.0.4) date 2026-03-24 17:38:09*
%MOMM*%
%LPD*%
G01*
G04 APERTURE LIST*
G04 Aperture macros list*
%AMRoundRect*
0 Rectangle with rounded corners*
0 $1 Rounding radius*
0 $2 $3 $4 $5 $6 $7 $8 $9 X,Y pos of 4 corners*
0 Add a 4 corners polygon primitive as box body*
4,1,4,$2,$3,$4,$5,$6,$7,$8,$9,$2,$3,0*
0 Add four circle primitives for the rounded corners*
1,1,$1+$1,$2,$3*
1,1,$1+$1,$4,$5*
1,1,$1+$1,$6,$7*
1,1,$1+$1,$8,$9*
0 Add four rect primitives between the rounded corners*
20,1,$1+$1,$2,$3,$4,$5,0*
20,1,$1+$1,$4,$5,$6,$7,0*
20,1,$1+$1,$6,$7,$8,$9,0*
20,1,$1+$1,$8,$9,$2,$3,0*%
G04 Aperture macros list end*
%TA.AperFunction,ComponentPad*%
%ADD10RoundRect,0.250001X0.949999X0.949999X-0.949999X0.949999X-0.949999X-0.949999X0.949999X-0.949999X0*%
%TD*%
%TA.AperFunction,ComponentPad*%
%ADD11C,2.400000*%
%TD*%
%TA.AperFunction,ComponentPad*%
%ADD12RoundRect,0.250000X-0.550000X-0.550000X0.550000X-0.550000X0.550000X0.550000X-0.550000X0.550000X0*%
%TD*%
%TA.AperFunction,ComponentPad*%
%ADD13C,1.600000*%
%TD*%
%TA.AperFunction,ComponentPad*%
%ADD14C,0.800000*%
%TD*%
%TA.AperFunction,ComponentPad*%
%ADD15C,6.400000*%
%TD*%
%TA.AperFunction,ComponentPad*%
%ADD16RoundRect,0.250000X0.750000X0.750000X-0.750000X0.750000X-0.750000X-0.750000X0.750000X-0.750000X0*%
%TD*%
%TA.AperFunction,ComponentPad*%
%ADD17C,2.000000*%
%TD*%
%TA.AperFunction,ComponentPad*%
%ADD18R,1.700000X1.700000*%
%TD*%
%TA.AperFunction,ComponentPad*%
%ADD19C,1.700000*%
%TD*%
%TA.AperFunction,ComponentPad*%
%ADD20RoundRect,0.250000X0.804100X0.804100X-0.804100X0.804100X-0.804100X-0.804100X0.804100X-0.804100X0*%
%TD*%
%TA.AperFunction,ComponentPad*%
%ADD21C,2.108200*%
%TD*%
%TA.AperFunction,ViaPad*%
%ADD22C,1.000000*%
%TD*%
%TA.AperFunction,ViaPad*%
%ADD23C,0.600000*%
%TD*%
%TA.AperFunction,Conductor*%
%ADD24C,1.000000*%
%TD*%
G04 APERTURE END LIST*
D10*
%TO.N,+36V*%
%TO.C,C208*%
X116967000Y-59182000D03*
D11*
%TO.N,GND*%
X109467000Y-59182000D03*
%TD*%
D12*
%TO.N,GND*%
%TO.C,U403*%
X118045000Y-70650000D03*
D13*
%TO.N,/Timer/TIM1_OUT*%
X118045000Y-73190000D03*
%TO.N,Net-(U403-OUT)*%
X118045000Y-75730000D03*
%TO.N,/VBUCK*%
X118045000Y-78270000D03*
%TO.N,Net-(U403-CONT)*%
X125665000Y-78270000D03*
%TO.N,Net-(U402-W)*%
X125665000Y-75730000D03*
X125665000Y-73190000D03*
%TO.N,/VBUCK*%
X125665000Y-70650000D03*
%TD*%
D14*
%TO.N,unconnected-(H101-Pad1)_6*%
%TO.C,H101*%
X58097056Y-66772056D03*
%TO.N,unconnected-(H101-Pad1)_4*%
X58800000Y-65075000D03*
%TO.N,unconnected-(H101-Pad1)_1*%
X58800000Y-68469112D03*
%TO.N,unconnected-(H101-Pad1)_3*%
X60497056Y-64372056D03*
D15*
%TO.N,unconnected-(H101-Pad1)_8*%
X60497056Y-66772056D03*
D14*
%TO.N,unconnected-(H101-Pad1)*%
X60497056Y-69172056D03*
%TO.N,unconnected-(H101-Pad1)_5*%
X62194112Y-65075000D03*
%TO.N,unconnected-(H101-Pad1)_2*%
X62194112Y-68469112D03*
%TO.N,unconnected-(H101-Pad1)_7*%
X62897056Y-66772056D03*
%TD*%
%TO.N,unconnected-(H102-Pad1)_2*%
%TO.C,H102*%
X145288000Y-66822656D03*
%TO.N,unconnected-(H102-Pad1)_4*%
X145990944Y-65125600D03*
%TO.N,unconnected-(H102-Pad1)_8*%
X145990944Y-68519712D03*
%TO.N,unconnected-(H102-Pad1)_5*%
X147688000Y-64422656D03*
D15*
%TO.N,unconnected-(H102-Pad1)_7*%
X147688000Y-66822656D03*
D14*
%TO.N,unconnected-(H102-Pad1)_6*%
X147688000Y-69222656D03*
%TO.N,unconnected-(H102-Pad1)*%
X149385056Y-65125600D03*
%TO.N,unconnected-(H102-Pad1)_3*%
X149385056Y-68519712D03*
%TO.N,unconnected-(H102-Pad1)_1*%
X150088000Y-66822656D03*
%TD*%
D16*
%TO.N,/VBUCK*%
%TO.C,C201*%
X72375000Y-58450000D03*
D17*
%TO.N,GND*%
X67375000Y-58450000D03*
%TD*%
D12*
%TO.N,GND*%
%TO.C,U401*%
X136355000Y-70650000D03*
D13*
%TO.N,Net-(U401-THRES)*%
X136355000Y-73190000D03*
%TO.N,/Timer/TIM1_OUT*%
X136355000Y-75730000D03*
%TO.N,/VBUCK*%
X136355000Y-78270000D03*
%TO.N,Net-(U401-CONT)*%
X143975000Y-78270000D03*
%TO.N,Net-(U401-THRES)*%
X143975000Y-75730000D03*
%TO.N,unconnected-(U401-DISCH-Pad7)*%
X143975000Y-73190000D03*
%TO.N,/VBUCK*%
X143975000Y-70650000D03*
%TD*%
D18*
%TO.N,/PWM_A1*%
%TO.C,J103*%
X110165000Y-80425000D03*
D19*
%TO.N,/VBUCK*%
X107625000Y-80425000D03*
%TO.N,GND*%
X105085000Y-80425000D03*
%TD*%
D13*
%TO.N,/VBUCK*%
%TO.C,C101*%
X109150000Y-73275000D03*
%TO.N,GND*%
X104150000Y-73275000D03*
%TD*%
D18*
%TO.N,/SW_EN*%
%TO.C,J102*%
X146100000Y-52600000D03*
D19*
%TO.N,/CONN_I2C1_SCL*%
X143560000Y-52600000D03*
%TO.N,/CONN_I2C1_SDA*%
X141020000Y-52600000D03*
%TO.N,/I2C1_VCC*%
X138480000Y-52600000D03*
%TO.N,GND*%
X135940000Y-52600000D03*
%TD*%
D20*
%TO.N,+36V*%
%TO.C,J101*%
X130262000Y-61271400D03*
D21*
%TO.N,GND*%
X125262000Y-61271400D03*
%TD*%
D22*
%TO.N,+36V*%
X107700000Y-65600000D03*
X106700000Y-65600000D03*
D23*
%TO.N,GND*%
X101400000Y-63750000D03*
X104925000Y-61800000D03*
X86375000Y-66775000D03*
X108400000Y-61725000D03*
X132900000Y-64350000D03*
X104850000Y-53000000D03*
X101350000Y-55375000D03*
X131275000Y-77875000D03*
X86450000Y-71375000D03*
X101092000Y-70875000D03*
X101325000Y-57625000D03*
X86400000Y-69300000D03*
X84375000Y-73500000D03*
X84550000Y-71325000D03*
X91400000Y-66600000D03*
X88300000Y-66775000D03*
X104875000Y-57650000D03*
X76350000Y-77025000D03*
X104975000Y-63725000D03*
X108425000Y-63750000D03*
X101275000Y-53025000D03*
X91400000Y-67300000D03*
X71500000Y-74000000D03*
X84475000Y-66800000D03*
X108375000Y-57650000D03*
X147725000Y-74900000D03*
X104875000Y-55375000D03*
X101350000Y-61750000D03*
X87100000Y-72300000D03*
X114200000Y-73600000D03*
X149352000Y-60452000D03*
X108300000Y-55425000D03*
X101092000Y-68843000D03*
X86225000Y-73475000D03*
X84500000Y-69300000D03*
X108225000Y-53025000D03*
X112200000Y-79500000D03*
%TO.N,/VBUCK*%
X77350000Y-58525000D03*
X74475000Y-55400000D03*
X80125000Y-69425000D03*
X62400000Y-74025000D03*
X82175000Y-69400000D03*
X142725000Y-65800000D03*
X139175000Y-64700000D03*
X133300000Y-67225000D03*
X82100000Y-66750000D03*
X71100000Y-55350000D03*
X74525000Y-58525000D03*
X74425000Y-52075000D03*
X62425000Y-78000000D03*
X143764000Y-60452000D03*
X80075000Y-66725000D03*
X77325000Y-55350000D03*
X71075000Y-52100000D03*
X77325000Y-52125000D03*
D22*
%TO.N,+36V*%
X105650000Y-65575000D03*
D23*
%TO.N,/PWM_A1*%
X76350000Y-78950000D03*
%TO.N,/SW_EN*%
X98500000Y-67700000D03*
%TO.N,Net-(U202-BOOT)*%
X97100000Y-67350000D03*
X95970000Y-62405000D03*
%TD*%
D24*
%TO.N,+36V*%
X116967000Y-59182000D02*
X110574000Y-65575000D01*
X110574000Y-65575000D02*
X105650000Y-65575000D01*
%TD*%
%TA.AperFunction,Conductor*%
%TO.N,/VBUCK*%
G36*
X113169255Y-51499185D02*
G01*
X113215010Y-51551989D01*
X113226216Y-51603250D01*
X113246752Y-61789266D01*
X113227202Y-61856345D01*
X113210433Y-61877197D01*
X110299451Y-64788181D01*
X110238128Y-64821666D01*
X110211770Y-64824500D01*
X105576080Y-64824500D01*
X105431092Y-64853340D01*
X105431082Y-64853343D01*
X105294511Y-64909912D01*
X105294498Y-64909919D01*
X105171584Y-64992048D01*
X105171580Y-64992051D01*
X105067051Y-65096580D01*
X105067048Y-65096584D01*
X104984919Y-65219498D01*
X104984912Y-65219511D01*
X104928343Y-65356082D01*
X104928340Y-65356092D01*
X104899500Y-65501079D01*
X104899500Y-65501082D01*
X104899500Y-65648918D01*
X104899500Y-65648920D01*
X104899499Y-65648920D01*
X104928340Y-65793907D01*
X104928343Y-65793917D01*
X104984912Y-65930488D01*
X104984919Y-65930501D01*
X105067048Y-66053415D01*
X105067051Y-66053419D01*
X105171580Y-66157948D01*
X105171584Y-66157951D01*
X105294498Y-66240080D01*
X105294511Y-66240087D01*
X105431082Y-66296656D01*
X105431087Y-66296658D01*
X105431091Y-66296658D01*
X105431092Y-66296659D01*
X105576079Y-66325500D01*
X105576082Y-66325500D01*
X106488190Y-66325500D01*
X106512382Y-66327883D01*
X106626080Y-66350500D01*
X106626082Y-66350500D01*
X106773919Y-66350500D01*
X106887618Y-66327883D01*
X106911810Y-66325500D01*
X107488190Y-66325500D01*
X107512382Y-66327883D01*
X107626080Y-66350500D01*
X107626082Y-66350500D01*
X107773919Y-66350500D01*
X107887618Y-66327883D01*
X107911810Y-66325500D01*
X110647920Y-66325500D01*
X110745462Y-66306096D01*
X110792913Y-66296658D01*
X110929495Y-66240084D01*
X110978729Y-66207186D01*
X111052416Y-66157952D01*
X112932843Y-64277525D01*
X132349500Y-64277525D01*
X132349500Y-64422475D01*
X132387016Y-64562485D01*
X132387017Y-64562488D01*
X132459488Y-64688011D01*
X132459490Y-64688013D01*
X132459491Y-64688015D01*
X132561985Y-64790509D01*
X132561986Y-64790510D01*
X132561988Y-64790511D01*
X132687511Y-64862982D01*
X132687512Y-64862982D01*
X132687515Y-64862984D01*
X132827525Y-64900500D01*
X132827528Y-64900500D01*
X132972472Y-64900500D01*
X132972475Y-64900500D01*
X133112485Y-64862984D01*
X133238015Y-64790509D01*
X133340509Y-64688015D01*
X133412984Y-64562485D01*
X133450500Y-64422475D01*
X133450500Y-64277525D01*
X133412984Y-64137515D01*
X133384406Y-64088017D01*
X133340511Y-64011988D01*
X133340506Y-64011982D01*
X133238017Y-63909493D01*
X133238011Y-63909488D01*
X133112488Y-63837017D01*
X133112489Y-63837017D01*
X133101006Y-63833940D01*
X132972475Y-63799500D01*
X132827525Y-63799500D01*
X132698993Y-63833940D01*
X132687511Y-63837017D01*
X132561988Y-63909488D01*
X132561982Y-63909493D01*
X132459493Y-64011982D01*
X132459488Y-64011988D01*
X132387017Y-64137511D01*
X132387016Y-64137515D01*
X132349500Y-64277525D01*
X112932843Y-64277525D01*
X113774049Y-63436319D01*
X113835372Y-63402834D01*
X113861730Y-63400000D01*
X133825000Y-63400000D01*
X133825000Y-60379525D01*
X148801500Y-60379525D01*
X148801500Y-60524475D01*
X148830446Y-60632500D01*
X148839017Y-60664488D01*
X148911488Y-60790011D01*
X148911490Y-60790013D01*
X148911491Y-60790015D01*
X149013985Y-60892509D01*
X149013986Y-60892510D01*
X149013988Y-60892511D01*
X149139511Y-60964982D01*
X149139512Y-60964982D01*
X149139515Y-60964984D01*
X149279525Y-61002500D01*
X149279528Y-61002500D01*
X149424472Y-61002500D01*
X149424475Y-61002500D01*
X149564485Y-60964984D01*
X149690015Y-60892509D01*
X149792509Y-60790015D01*
X149864984Y-60664485D01*
X149902500Y-60524475D01*
X149902500Y-60379525D01*
X149864984Y-60239515D01*
X149799987Y-60126938D01*
X149792511Y-60113988D01*
X149792506Y-60113982D01*
X149690017Y-60011493D01*
X149690011Y-60011488D01*
X149564488Y-59939017D01*
X149564489Y-59939017D01*
X149553006Y-59935940D01*
X149424475Y-59901500D01*
X149279525Y-59901500D01*
X149150993Y-59935940D01*
X149139511Y-59939017D01*
X149013988Y-60011488D01*
X149013982Y-60011493D01*
X148911493Y-60113982D01*
X148911488Y-60113988D01*
X148839017Y-60239511D01*
X148839016Y-60239515D01*
X148801500Y-60379525D01*
X133825000Y-60379525D01*
X133825000Y-51603500D01*
X133844685Y-51536461D01*
X133897489Y-51490706D01*
X133949000Y-51479500D01*
X135228321Y-51479500D01*
X135295360Y-51499185D01*
X135341115Y-51551989D01*
X135351059Y-51621147D01*
X135322034Y-51684703D01*
X135301210Y-51703815D01*
X135223072Y-51760586D01*
X135223070Y-51760588D01*
X135223069Y-51760588D01*
X135100588Y-51883069D01*
X135100588Y-51883070D01*
X135100586Y-51883072D01*
X135090058Y-51897563D01*
X134998768Y-52023211D01*
X134920128Y-52177552D01*
X134866597Y-52342302D01*
X134839500Y-52513389D01*
X134839500Y-52686610D01*
X134859440Y-52812511D01*
X134866598Y-52857701D01*
X134920127Y-53022445D01*
X134998768Y-53176788D01*
X135100586Y-53316928D01*
X135223072Y-53439414D01*
X135363212Y-53541232D01*
X135517555Y-53619873D01*
X135682299Y-53673402D01*
X135853389Y-53700500D01*
X135853390Y-53700500D01*
X136026610Y-53700500D01*
X136026611Y-53700500D01*
X136197701Y-53673402D01*
X136362445Y-53619873D01*
X136516788Y-53541232D01*
X136656928Y-53439414D01*
X136779414Y-53316928D01*
X136881232Y-53176788D01*
X136959873Y-53022445D01*
X137013402Y-52857701D01*
X137040500Y-52686611D01*
X137040500Y-52513389D01*
X137013402Y-52342299D01*
X136959873Y-52177555D01*
X136881232Y-52023212D01*
X136779414Y-51883072D01*
X136656928Y-51760586D01*
X136578791Y-51703816D01*
X136536128Y-51648488D01*
X136530149Y-51578874D01*
X136562755Y-51517080D01*
X136623594Y-51482722D01*
X136651679Y-51479500D01*
X137768321Y-51479500D01*
X137835360Y-51499185D01*
X137881115Y-51551989D01*
X137891059Y-51621147D01*
X137862034Y-51684703D01*
X137841210Y-51703815D01*
X137763072Y-51760586D01*
X137763070Y-51760588D01*
X137763069Y-51760588D01*
X137640588Y-51883069D01*
X137640588Y-51883070D01*
X137640586Y-51883072D01*
X137630058Y-51897563D01*
X137538768Y-52023211D01*
X137460128Y-52177552D01*
X137406597Y-52342302D01*
X137379500Y-52513389D01*
X137379500Y-52686610D01*
X137399440Y-52812511D01*
X137406598Y-52857701D01*
X137460127Y-53022445D01*
X137538768Y-53176788D01*
X137640586Y-53316928D01*
X137763072Y-53439414D01*
X137903212Y-53541232D01*
X138057555Y-53619873D01*
X138222299Y-53673402D01*
X138393389Y-53700500D01*
X138393390Y-53700500D01*
X138566610Y-53700500D01*
X138566611Y-53700500D01*
X138737701Y-53673402D01*
X138902445Y-53619873D01*
X139056788Y-53541232D01*
X139196928Y-53439414D01*
X139319414Y-53316928D01*
X139421232Y-53176788D01*
X139499873Y-53022445D01*
X139553402Y-52857701D01*
X139580500Y-52686611D01*
X139580500Y-52513389D01*
X139553402Y-52342299D01*
X139499873Y-52177555D01*
X139421232Y-52023212D01*
X139319414Y-51883072D01*
X139196928Y-51760586D01*
X139118791Y-51703816D01*
X139076128Y-51648488D01*
X139070149Y-51578874D01*
X139102755Y-51517080D01*
X139163594Y-51482722D01*
X139191679Y-51479500D01*
X140308321Y-51479500D01*
X140375360Y-51499185D01*
X140421115Y-51551989D01*
X140431059Y-51621147D01*
X140402034Y-51684703D01*
X140381210Y-51703815D01*
X140303072Y-51760586D01*
X140303070Y-51760588D01*
X140303069Y-51760588D01*
X140180588Y-51883069D01*
X140180588Y-51883070D01*
X140180586Y-51883072D01*
X140170058Y-51897563D01*
X140078768Y-52023211D01*
X140000128Y-52177552D01*
X139946597Y-52342302D01*
X139919500Y-52513389D01*
X139919500Y-52686610D01*
X139939440Y-52812511D01*
X139946598Y-52857701D01*
X140000127Y-53022445D01*
X140078768Y-53176788D01*
X140180586Y-53316928D01*
X140303072Y-53439414D01*
X140443212Y-53541232D01*
X140597555Y-53619873D01*
X140762299Y-53673402D01*
X140933389Y-53700500D01*
X140933390Y-53700500D01*
X141106610Y-53700500D01*
X141106611Y-53700500D01*
X141277701Y-53673402D01*
X141442445Y-53619873D01*
X141596788Y-53541232D01*
X141736928Y-53439414D01*
X141859414Y-53316928D01*
X141961232Y-53176788D01*
X142039873Y-53022445D01*
X142093402Y-52857701D01*
X142120500Y-52686611D01*
X142120500Y-52513389D01*
X142093402Y-52342299D01*
X142039873Y-52177555D01*
X141961232Y-52023212D01*
X141859414Y-51883072D01*
X141736928Y-51760586D01*
X141658791Y-51703816D01*
X141616128Y-51648488D01*
X141610149Y-51578874D01*
X141642755Y-51517080D01*
X141703594Y-51482722D01*
X141731679Y-51479500D01*
X142848321Y-51479500D01*
X142915360Y-51499185D01*
X142961115Y-51551989D01*
X142971059Y-51621147D01*
X142942034Y-51684703D01*
X142921210Y-51703815D01*
X142843072Y-51760586D01*
X142843070Y-51760588D01*
X142843069Y-51760588D01*
X142720588Y-51883069D01*
X142720588Y-51883070D01*
X142720586Y-51883072D01*
X142710058Y-51897563D01*
X142618768Y-52023211D01*
X142540128Y-52177552D01*
X142486597Y-52342302D01*
X142459500Y-52513389D01*
X142459500Y-52686610D01*
X142479440Y-52812511D01*
X142486598Y-52857701D01*
X142540127Y-53022445D01*
X142618768Y-53176788D01*
X142720586Y-53316928D01*
X142843072Y-53439414D01*
X142983212Y-53541232D01*
X143137555Y-53619873D01*
X143302299Y-53673402D01*
X143473389Y-53700500D01*
X143473390Y-53700500D01*
X143646610Y-53700500D01*
X143646611Y-53700500D01*
X143817701Y-53673402D01*
X143982445Y-53619873D01*
X144136788Y-53541232D01*
X144276928Y-53439414D01*
X144399414Y-53316928D01*
X144501232Y-53176788D01*
X144579873Y-53022445D01*
X144633402Y-52857701D01*
X144660500Y-52686611D01*
X144660500Y-52513389D01*
X144633402Y-52342299D01*
X144579873Y-52177555D01*
X144501232Y-52023212D01*
X144399414Y-51883072D01*
X144276928Y-51760586D01*
X144198791Y-51703816D01*
X144156128Y-51648488D01*
X144150149Y-51578874D01*
X144182755Y-51517080D01*
X144243594Y-51482722D01*
X144271679Y-51479500D01*
X144900014Y-51479500D01*
X144967053Y-51499185D01*
X145012808Y-51551989D01*
X145022752Y-51621147D01*
X145014575Y-51650953D01*
X145014032Y-51652261D01*
X144999500Y-51725321D01*
X144999500Y-53474678D01*
X145014032Y-53547735D01*
X145014033Y-53547739D01*
X145014034Y-53547740D01*
X145069399Y-53630601D01*
X145140374Y-53678024D01*
X145152260Y-53685966D01*
X145152264Y-53685967D01*
X145225321Y-53700499D01*
X145225324Y-53700500D01*
X145225326Y-53700500D01*
X146974676Y-53700500D01*
X146974677Y-53700499D01*
X147047740Y-53685966D01*
X147130601Y-53630601D01*
X147185966Y-53547740D01*
X147200500Y-53474674D01*
X147200500Y-51725326D01*
X147200500Y-51725323D01*
X147200499Y-51725321D01*
X147185967Y-51652261D01*
X147185425Y-51650953D01*
X147185093Y-51647869D01*
X147183584Y-51640281D01*
X147184263Y-51640145D01*
X147177956Y-51581484D01*
X147209231Y-51519004D01*
X147269320Y-51483352D01*
X147299986Y-51479500D01*
X148884108Y-51479500D01*
X148946519Y-51479500D01*
X148953471Y-51479695D01*
X148994188Y-51481981D01*
X149250900Y-51496397D01*
X149264703Y-51497953D01*
X149554953Y-51547269D01*
X149568510Y-51550363D01*
X149851413Y-51631866D01*
X149864537Y-51636459D01*
X150136527Y-51749120D01*
X150149049Y-51755149D01*
X150347673Y-51864925D01*
X150406726Y-51897563D01*
X150418500Y-51904961D01*
X150658604Y-52075323D01*
X150669476Y-52083993D01*
X150774168Y-52177552D01*
X150888997Y-52280169D01*
X150898830Y-52290002D01*
X151095006Y-52509523D01*
X151103676Y-52520395D01*
X151274038Y-52760499D01*
X151281436Y-52772273D01*
X151423846Y-53029943D01*
X151429879Y-53042472D01*
X151542540Y-53314462D01*
X151547133Y-53327586D01*
X151628636Y-53610489D01*
X151631730Y-53624046D01*
X151681045Y-53914288D01*
X151682602Y-53928106D01*
X151699305Y-54225527D01*
X151699500Y-54232480D01*
X151699500Y-77688251D01*
X151699497Y-78709106D01*
X151699497Y-78771519D01*
X151699302Y-78778472D01*
X151682599Y-79075893D01*
X151681042Y-79089711D01*
X151631727Y-79379953D01*
X151628633Y-79393510D01*
X151547130Y-79676413D01*
X151542537Y-79689537D01*
X151429876Y-79961527D01*
X151423842Y-79974057D01*
X151281432Y-80231726D01*
X151274035Y-80243499D01*
X151103673Y-80483603D01*
X151095003Y-80494475D01*
X150898827Y-80713996D01*
X150888994Y-80723829D01*
X150669468Y-80920009D01*
X150658596Y-80928678D01*
X150418504Y-81099033D01*
X150406730Y-81106432D01*
X150149053Y-81248844D01*
X150136524Y-81254877D01*
X149864534Y-81367538D01*
X149851410Y-81372131D01*
X149568508Y-81453634D01*
X149554951Y-81456728D01*
X149264710Y-81506042D01*
X149250892Y-81507599D01*
X148953412Y-81524305D01*
X148946459Y-81524500D01*
X111371874Y-81524500D01*
X111304835Y-81504815D01*
X111259080Y-81452011D01*
X111249136Y-81382853D01*
X111250257Y-81376309D01*
X111265499Y-81299678D01*
X111265500Y-81299676D01*
X111265500Y-79550323D01*
X111265499Y-79550321D01*
X111250967Y-79477262D01*
X111241427Y-79462984D01*
X111217735Y-79427525D01*
X111649500Y-79427525D01*
X111649500Y-79572475D01*
X111680867Y-79689537D01*
X111687017Y-79712488D01*
X111759488Y-79838011D01*
X111759490Y-79838013D01*
X111759491Y-79838015D01*
X111861985Y-79940509D01*
X111861986Y-79940510D01*
X111861988Y-79940511D01*
X111987511Y-80012982D01*
X111987512Y-80012982D01*
X111987515Y-80012984D01*
X112127525Y-80050500D01*
X112127528Y-80050500D01*
X112272472Y-80050500D01*
X112272475Y-80050500D01*
X112412485Y-80012984D01*
X112538015Y-79940509D01*
X112640509Y-79838015D01*
X112712984Y-79712485D01*
X112750500Y-79572475D01*
X112750500Y-79427525D01*
X112712984Y-79287515D01*
X112708720Y-79280130D01*
X112640511Y-79161988D01*
X112640506Y-79161982D01*
X112538017Y-79059493D01*
X112538011Y-79059488D01*
X112412488Y-78987017D01*
X112412489Y-78987017D01*
X112401006Y-78983940D01*
X112272475Y-78949500D01*
X112127525Y-78949500D01*
X111998993Y-78983940D01*
X111987511Y-78987017D01*
X111861988Y-79059488D01*
X111861982Y-79059493D01*
X111759493Y-79161982D01*
X111759488Y-79161988D01*
X111687017Y-79287511D01*
X111687016Y-79287515D01*
X111649500Y-79427525D01*
X111217735Y-79427525D01*
X111195601Y-79394399D01*
X111112740Y-79339034D01*
X111112739Y-79339033D01*
X111112735Y-79339032D01*
X111039677Y-79324500D01*
X111039674Y-79324500D01*
X109290326Y-79324500D01*
X109290323Y-79324500D01*
X109217264Y-79339032D01*
X109217260Y-79339033D01*
X109134399Y-79394399D01*
X109079033Y-79477260D01*
X109079032Y-79477264D01*
X109064500Y-79550321D01*
X109064500Y-81299678D01*
X109079743Y-81376309D01*
X109073516Y-81445900D01*
X109030653Y-81501078D01*
X108964763Y-81524322D01*
X108958126Y-81524500D01*
X105825583Y-81524500D01*
X105758544Y-81504815D01*
X105712789Y-81452011D01*
X105702845Y-81382853D01*
X105731870Y-81319297D01*
X105752694Y-81300184D01*
X105801928Y-81264414D01*
X105924414Y-81141928D01*
X106026232Y-81001788D01*
X106104873Y-80847445D01*
X106158402Y-80682701D01*
X106185500Y-80511611D01*
X106185500Y-80338389D01*
X106158402Y-80167299D01*
X106104873Y-80002555D01*
X106026232Y-79848212D01*
X105924414Y-79708072D01*
X105801928Y-79585586D01*
X105661788Y-79483768D01*
X105507445Y-79405127D01*
X105342701Y-79351598D01*
X105342699Y-79351597D01*
X105342698Y-79351597D01*
X105211271Y-79330781D01*
X105171611Y-79324500D01*
X104998389Y-79324500D01*
X104958728Y-79330781D01*
X104827302Y-79351597D01*
X104662552Y-79405128D01*
X104508211Y-79483768D01*
X104485182Y-79500500D01*
X104368072Y-79585586D01*
X104368070Y-79585588D01*
X104368069Y-79585588D01*
X104245588Y-79708069D01*
X104245588Y-79708070D01*
X104245586Y-79708072D01*
X104242380Y-79712485D01*
X104143768Y-79848211D01*
X104065128Y-80002552D01*
X104011597Y-80167302D01*
X104000428Y-80237821D01*
X103984500Y-80338389D01*
X103984500Y-80511611D01*
X104011598Y-80682701D01*
X104065127Y-80847445D01*
X104143768Y-81001788D01*
X104245586Y-81141928D01*
X104368072Y-81264414D01*
X104417303Y-81300183D01*
X104459968Y-81355512D01*
X104465947Y-81425126D01*
X104433341Y-81486921D01*
X104372502Y-81521278D01*
X104344417Y-81524500D01*
X58931478Y-81524500D01*
X58924525Y-81524305D01*
X58627103Y-81507601D01*
X58613285Y-81506044D01*
X58323044Y-81456730D01*
X58309487Y-81453636D01*
X58026584Y-81372133D01*
X58013459Y-81367540D01*
X57741469Y-81254878D01*
X57728941Y-81248845D01*
X57471271Y-81106435D01*
X57459497Y-81099037D01*
X57219394Y-80928675D01*
X57208522Y-80920005D01*
X56989001Y-80723829D01*
X56979168Y-80713996D01*
X56951198Y-80682697D01*
X56782984Y-80494465D01*
X56774323Y-80483603D01*
X56603958Y-80243496D01*
X56596571Y-80231741D01*
X56454149Y-79974049D01*
X56448120Y-79961527D01*
X56335459Y-79689537D01*
X56330866Y-79676413D01*
X56249363Y-79393510D01*
X56246269Y-79379953D01*
X56241451Y-79351597D01*
X56196952Y-79089701D01*
X56195398Y-79075902D01*
X56184257Y-78877525D01*
X75799500Y-78877525D01*
X75799500Y-79022475D01*
X75836881Y-79161982D01*
X75837017Y-79162488D01*
X75909488Y-79288011D01*
X75909490Y-79288013D01*
X75909491Y-79288015D01*
X76011985Y-79390509D01*
X76011986Y-79390510D01*
X76011988Y-79390511D01*
X76137511Y-79462982D01*
X76137512Y-79462982D01*
X76137515Y-79462984D01*
X76277525Y-79500500D01*
X76277528Y-79500500D01*
X76422472Y-79500500D01*
X76422475Y-79500500D01*
X76562485Y-79462984D01*
X76688015Y-79390509D01*
X76790509Y-79288015D01*
X76862984Y-79162485D01*
X76900500Y-79022475D01*
X76900500Y-78877525D01*
X76862984Y-78737515D01*
X76790509Y-78611985D01*
X76688015Y-78509491D01*
X76688013Y-78509490D01*
X76688011Y-78509488D01*
X76562488Y-78437017D01*
X76562489Y-78437017D01*
X76551006Y-78433940D01*
X76422475Y-78399500D01*
X76277525Y-78399500D01*
X76148993Y-78433940D01*
X76137511Y-78437017D01*
X76011988Y-78509488D01*
X76011982Y-78509493D01*
X75909493Y-78611982D01*
X75909488Y-78611988D01*
X75837017Y-78737511D01*
X75837016Y-78737515D01*
X75799500Y-78877525D01*
X56184257Y-78877525D01*
X56182200Y-78840892D01*
X56178692Y-78778414D01*
X56178497Y-78771461D01*
X56178497Y-78166530D01*
X124614500Y-78166530D01*
X124614500Y-78373469D01*
X124654868Y-78576412D01*
X124654870Y-78576420D01*
X124709831Y-78709108D01*
X124734059Y-78767598D01*
X124791541Y-78853626D01*
X124849024Y-78939657D01*
X124995342Y-79085975D01*
X124995345Y-79085977D01*
X125167402Y-79200941D01*
X125358580Y-79280130D01*
X125561530Y-79320499D01*
X125561534Y-79320500D01*
X125561535Y-79320500D01*
X125768466Y-79320500D01*
X125768467Y-79320499D01*
X125971420Y-79280130D01*
X126162598Y-79200941D01*
X126334655Y-79085977D01*
X126480977Y-78939655D01*
X126595941Y-78767598D01*
X126675130Y-78576420D01*
X126715500Y-78373465D01*
X126715500Y-78166535D01*
X126675130Y-77963580D01*
X126624708Y-77841851D01*
X126608419Y-77802525D01*
X130724500Y-77802525D01*
X130724500Y-77947475D01*
X130762016Y-78087485D01*
X130762017Y-78087488D01*
X130834488Y-78213011D01*
X130834490Y-78213013D01*
X130834491Y-78213015D01*
X130936985Y-78315509D01*
X130936986Y-78315510D01*
X130936988Y-78315511D01*
X131062511Y-78387982D01*
X131062512Y-78387982D01*
X131062515Y-78387984D01*
X131202525Y-78425500D01*
X131202528Y-78425500D01*
X131347472Y-78425500D01*
X131347475Y-78425500D01*
X131487485Y-78387984D01*
X131613015Y-78315509D01*
X131715509Y-78213015D01*
X131742347Y-78166530D01*
X142924500Y-78166530D01*
X142924500Y-78373469D01*
X142964868Y-78576412D01*
X142964870Y-78576420D01*
X143019831Y-78709108D01*
X143044059Y-78767598D01*
X143101541Y-78853626D01*
X143159024Y-78939657D01*
X143305342Y-79085975D01*
X143305345Y-79085977D01*
X143477402Y-79200941D01*
X143668580Y-79280130D01*
X143871530Y-79320499D01*
X143871534Y-79320500D01*
X143871535Y-79320500D01*
X144078466Y-79320500D01*
X144078467Y-79320499D01*
X144281420Y-79280130D01*
X144472598Y-79200941D01*
X144644655Y-79085977D01*
X144790977Y-78939655D01*
X144905941Y-78767598D01*
X144985130Y-78576420D01*
X145025500Y-78373465D01*
X145025500Y-78166535D01*
X144985130Y-77963580D01*
X144905941Y-77772402D01*
X144790977Y-77600345D01*
X144790975Y-77600342D01*
X144644657Y-77454024D01*
X144506956Y-77362016D01*
X144472598Y-77339059D01*
X144281420Y-77259870D01*
X144281412Y-77259868D01*
X144078469Y-77219500D01*
X144078465Y-77219500D01*
X143871535Y-77219500D01*
X143871530Y-77219500D01*
X143668587Y-77259868D01*
X143668579Y-77259870D01*
X143477403Y-77339058D01*
X143305342Y-77454024D01*
X143159024Y-77600342D01*
X143044058Y-77772403D01*
X142964870Y-77963579D01*
X142964868Y-77963587D01*
X142924500Y-78166530D01*
X131742347Y-78166530D01*
X131787984Y-78087485D01*
X131825500Y-77947475D01*
X131825500Y-77802525D01*
X131787984Y-77662515D01*
X131752088Y-77600342D01*
X131715511Y-77536988D01*
X131715506Y-77536982D01*
X131613017Y-77434493D01*
X131613011Y-77434488D01*
X131487488Y-77362017D01*
X131487489Y-77362017D01*
X131476006Y-77358940D01*
X131347475Y-77324500D01*
X131202525Y-77324500D01*
X131073993Y-77358940D01*
X131062511Y-77362017D01*
X130936988Y-77434488D01*
X130936982Y-77434493D01*
X130834493Y-77536982D01*
X130834488Y-77536988D01*
X130762017Y-77662511D01*
X130762016Y-77662515D01*
X130724500Y-77802525D01*
X126608419Y-77802525D01*
X126595942Y-77772403D01*
X126480975Y-77600342D01*
X126334657Y-77454024D01*
X126196956Y-77362016D01*
X126162598Y-77339059D01*
X125971420Y-77259870D01*
X125971412Y-77259868D01*
X125768469Y-77219500D01*
X125768465Y-77219500D01*
X125561535Y-77219500D01*
X125561530Y-77219500D01*
X125358587Y-77259868D01*
X125358579Y-77259870D01*
X125167403Y-77339058D01*
X124995342Y-77454024D01*
X124849024Y-77600342D01*
X124734058Y-77772403D01*
X124654870Y-77963579D01*
X124654868Y-77963587D01*
X124614500Y-78166530D01*
X56178497Y-78166530D01*
X56178497Y-76952525D01*
X75799500Y-76952525D01*
X75799500Y-77097475D01*
X75832197Y-77219500D01*
X75837017Y-77237488D01*
X75909488Y-77363011D01*
X75909490Y-77363013D01*
X75909491Y-77363015D01*
X76011985Y-77465509D01*
X76011986Y-77465510D01*
X76011988Y-77465511D01*
X76137511Y-77537982D01*
X76137512Y-77537982D01*
X76137515Y-77537984D01*
X76277525Y-77575500D01*
X76277528Y-77575500D01*
X76422472Y-77575500D01*
X76422475Y-77575500D01*
X76562485Y-77537984D01*
X76688015Y-77465509D01*
X76790509Y-77363015D01*
X76862984Y-77237485D01*
X76900500Y-77097475D01*
X76900500Y-76952525D01*
X76862984Y-76812515D01*
X76844499Y-76780499D01*
X76790511Y-76686988D01*
X76790506Y-76686982D01*
X76688017Y-76584493D01*
X76688011Y-76584488D01*
X76562488Y-76512017D01*
X76562489Y-76512017D01*
X76551006Y-76508940D01*
X76422475Y-76474500D01*
X76277525Y-76474500D01*
X76148993Y-76508940D01*
X76137511Y-76512017D01*
X76011988Y-76584488D01*
X76011982Y-76584493D01*
X75909493Y-76686982D01*
X75909488Y-76686988D01*
X75837017Y-76812511D01*
X75837016Y-76812515D01*
X75799500Y-76952525D01*
X56178497Y-76952525D01*
X56178497Y-75626530D01*
X116994500Y-75626530D01*
X116994500Y-75833469D01*
X117034868Y-76036412D01*
X117034870Y-76036420D01*
X117114058Y-76227596D01*
X117229024Y-76399657D01*
X117375342Y-76545975D01*
X117375345Y-76545977D01*
X117547402Y-76660941D01*
X117738580Y-76740130D01*
X117941530Y-76780499D01*
X117941534Y-76780500D01*
X117941535Y-76780500D01*
X118148466Y-76780500D01*
X118148467Y-76780499D01*
X118351420Y-76740130D01*
X118542598Y-76660941D01*
X118714655Y-76545977D01*
X118860977Y-76399655D01*
X118975941Y-76227598D01*
X119055130Y-76036420D01*
X119095500Y-75833465D01*
X119095500Y-75626535D01*
X119095499Y-75626530D01*
X124614500Y-75626530D01*
X124614500Y-75833469D01*
X124654868Y-76036412D01*
X124654870Y-76036420D01*
X124734058Y-76227596D01*
X124849024Y-76399657D01*
X124995342Y-76545975D01*
X124995345Y-76545977D01*
X125167402Y-76660941D01*
X125358580Y-76740130D01*
X125561530Y-76780499D01*
X125561534Y-76780500D01*
X125561535Y-76780500D01*
X125768466Y-76780500D01*
X125768467Y-76780499D01*
X125971420Y-76740130D01*
X126162598Y-76660941D01*
X126334655Y-76545977D01*
X126480977Y-76399655D01*
X126595941Y-76227598D01*
X126675130Y-76036420D01*
X126715500Y-75833465D01*
X126715500Y-75626535D01*
X126715499Y-75626530D01*
X135304500Y-75626530D01*
X135304500Y-75833469D01*
X135344868Y-76036412D01*
X135344870Y-76036420D01*
X135424058Y-76227596D01*
X135539024Y-76399657D01*
X135685342Y-76545975D01*
X135685345Y-76545977D01*
X135857402Y-76660941D01*
X136048580Y-76740130D01*
X136251530Y-76780499D01*
X136251534Y-76780500D01*
X136251535Y-76780500D01*
X136458466Y-76780500D01*
X136458467Y-76780499D01*
X136661420Y-76740130D01*
X136852598Y-76660941D01*
X137024655Y-76545977D01*
X137170977Y-76399655D01*
X137285941Y-76227598D01*
X137365130Y-76036420D01*
X137405500Y-75833465D01*
X137405500Y-75626535D01*
X137405499Y-75626530D01*
X142924500Y-75626530D01*
X142924500Y-75833469D01*
X142964868Y-76036412D01*
X142964870Y-76036420D01*
X143044058Y-76227596D01*
X143159024Y-76399657D01*
X143305342Y-76545975D01*
X143305345Y-76545977D01*
X143477402Y-76660941D01*
X143668580Y-76740130D01*
X143871530Y-76780499D01*
X143871534Y-76780500D01*
X143871535Y-76780500D01*
X144078466Y-76780500D01*
X144078467Y-76780499D01*
X144281420Y-76740130D01*
X144472598Y-76660941D01*
X144644655Y-76545977D01*
X144790977Y-76399655D01*
X144905941Y-76227598D01*
X144985130Y-76036420D01*
X145025500Y-75833465D01*
X145025500Y-75626535D01*
X144985130Y-75423580D01*
X144905941Y-75232402D01*
X144790977Y-75060345D01*
X144790975Y-75060342D01*
X144644657Y-74914024D01*
X144558626Y-74856541D01*
X144515200Y-74827525D01*
X147174500Y-74827525D01*
X147174500Y-74972475D01*
X147198045Y-75060345D01*
X147212017Y-75112488D01*
X147284488Y-75238011D01*
X147284490Y-75238013D01*
X147284491Y-75238015D01*
X147386985Y-75340509D01*
X147386986Y-75340510D01*
X147386988Y-75340511D01*
X147512511Y-75412982D01*
X147512512Y-75412982D01*
X147512515Y-75412984D01*
X147652525Y-75450500D01*
X147652528Y-75450500D01*
X147797472Y-75450500D01*
X147797475Y-75450500D01*
X147937485Y-75412984D01*
X148063015Y-75340509D01*
X148165509Y-75238015D01*
X148237984Y-75112485D01*
X148275500Y-74972475D01*
X148275500Y-74827525D01*
X148237984Y-74687515D01*
X148165509Y-74561985D01*
X148063015Y-74459491D01*
X148063013Y-74459490D01*
X148063011Y-74459488D01*
X147937488Y-74387017D01*
X147937489Y-74387017D01*
X147926006Y-74383940D01*
X147797475Y-74349500D01*
X147652525Y-74349500D01*
X147523993Y-74383940D01*
X147512511Y-74387017D01*
X147386988Y-74459488D01*
X147386982Y-74459493D01*
X147284493Y-74561982D01*
X147284488Y-74561988D01*
X147212017Y-74687511D01*
X147212016Y-74687515D01*
X147174500Y-74827525D01*
X144515200Y-74827525D01*
X144472598Y-74799059D01*
X144281420Y-74719870D01*
X144281412Y-74719868D01*
X144078469Y-74679500D01*
X144078465Y-74679500D01*
X143871535Y-74679500D01*
X143871530Y-74679500D01*
X143668587Y-74719868D01*
X143668579Y-74719870D01*
X143477403Y-74799058D01*
X143305342Y-74914024D01*
X143159024Y-75060342D01*
X143044058Y-75232403D01*
X142964870Y-75423579D01*
X142964868Y-75423587D01*
X142924500Y-75626530D01*
X137405499Y-75626530D01*
X137365130Y-75423580D01*
X137285941Y-75232402D01*
X137170977Y-75060345D01*
X137170975Y-75060342D01*
X137024657Y-74914024D01*
X136938626Y-74856541D01*
X136852598Y-74799059D01*
X136661420Y-74719870D01*
X136661412Y-74719868D01*
X136458469Y-74679500D01*
X136458465Y-74679500D01*
X136251535Y-74679500D01*
X136251530Y-74679500D01*
X136048587Y-74719868D01*
X136048579Y-74719870D01*
X135857403Y-74799058D01*
X135685342Y-74914024D01*
X135539024Y-75060342D01*
X135424058Y-75232403D01*
X135344870Y-75423579D01*
X135344868Y-75423587D01*
X135304500Y-75626530D01*
X126715499Y-75626530D01*
X126675130Y-75423580D01*
X126595941Y-75232402D01*
X126480977Y-75060345D01*
X126480975Y-75060342D01*
X126334657Y-74914024D01*
X126248626Y-74856541D01*
X126162598Y-74799059D01*
X125971420Y-74719870D01*
X125971412Y-74719868D01*
X125768469Y-74679500D01*
X125768465Y-74679500D01*
X125561535Y-74679500D01*
X125561530Y-74679500D01*
X125358587Y-74719868D01*
X125358579Y-74719870D01*
X125167403Y-74799058D01*
X124995342Y-74914024D01*
X124849024Y-75060342D01*
X124734058Y-75232403D01*
X124654870Y-75423579D01*
X124654868Y-75423587D01*
X124614500Y-75626530D01*
X119095499Y-75626530D01*
X119055130Y-75423580D01*
X118975941Y-75232402D01*
X118860977Y-75060345D01*
X118860975Y-75060342D01*
X118714657Y-74914024D01*
X118628626Y-74856541D01*
X118542598Y-74799059D01*
X118351420Y-74719870D01*
X118351412Y-74719868D01*
X118148469Y-74679500D01*
X118148465Y-74679500D01*
X117941535Y-74679500D01*
X117941530Y-74679500D01*
X117738587Y-74719868D01*
X117738579Y-74719870D01*
X117547403Y-74799058D01*
X117375342Y-74914024D01*
X117229024Y-75060342D01*
X117114058Y-75232403D01*
X117034870Y-75423579D01*
X117034868Y-75423587D01*
X116994500Y-75626530D01*
X56178497Y-75626530D01*
X56178497Y-73927525D01*
X70949500Y-73927525D01*
X70949500Y-74072475D01*
X70983706Y-74200131D01*
X70987017Y-74212488D01*
X71059488Y-74338011D01*
X71059490Y-74338013D01*
X71059491Y-74338015D01*
X71161985Y-74440509D01*
X71161986Y-74440510D01*
X71161988Y-74440511D01*
X71287511Y-74512982D01*
X71287512Y-74512982D01*
X71287515Y-74512984D01*
X71427525Y-74550500D01*
X71427528Y-74550500D01*
X71572472Y-74550500D01*
X71572475Y-74550500D01*
X71712485Y-74512984D01*
X71838015Y-74440509D01*
X71940509Y-74338015D01*
X72012984Y-74212485D01*
X72050500Y-74072475D01*
X72050500Y-73927525D01*
X72012984Y-73787515D01*
X72004370Y-73772596D01*
X71940511Y-73661988D01*
X71940506Y-73661982D01*
X71838017Y-73559493D01*
X71838015Y-73559491D01*
X71782652Y-73527527D01*
X71781367Y-73526785D01*
X71712485Y-73487016D01*
X71572475Y-73449500D01*
X71427525Y-73449500D01*
X71298993Y-73483940D01*
X71287511Y-73487017D01*
X71161988Y-73559488D01*
X71161982Y-73559493D01*
X71059493Y-73661982D01*
X71059488Y-73661988D01*
X70987017Y-73787511D01*
X70987016Y-73787515D01*
X70949500Y-73927525D01*
X56178497Y-73927525D01*
X56178497Y-73787511D01*
X56178497Y-73427525D01*
X83824500Y-73427525D01*
X83824500Y-73572475D01*
X83862016Y-73712485D01*
X83862017Y-73712488D01*
X83934488Y-73838011D01*
X83934490Y-73838013D01*
X83934491Y-73838015D01*
X84036985Y-73940509D01*
X84036986Y-73940510D01*
X84036988Y-73940511D01*
X84162511Y-74012982D01*
X84162512Y-74012982D01*
X84162515Y-74012984D01*
X84302525Y-74050500D01*
X84302528Y-74050500D01*
X84447472Y-74050500D01*
X84447475Y-74050500D01*
X84587485Y-74012984D01*
X84713015Y-73940509D01*
X84815509Y-73838015D01*
X84887984Y-73712485D01*
X84925500Y-73572475D01*
X84925500Y-73427525D01*
X84918801Y-73402525D01*
X85674500Y-73402525D01*
X85674500Y-73547475D01*
X85705184Y-73661988D01*
X85712017Y-73687488D01*
X85784488Y-73813011D01*
X85784490Y-73813013D01*
X85784491Y-73813015D01*
X85886985Y-73915509D01*
X85886986Y-73915510D01*
X85886988Y-73915511D01*
X86012511Y-73987982D01*
X86012512Y-73987982D01*
X86012515Y-73987984D01*
X86152525Y-74025500D01*
X86152528Y-74025500D01*
X86297472Y-74025500D01*
X86297475Y-74025500D01*
X86437485Y-73987984D01*
X86563015Y-73915509D01*
X86665509Y-73813015D01*
X86737984Y-73687485D01*
X86775500Y-73547475D01*
X86775500Y-73402525D01*
X86737984Y-73262515D01*
X86737678Y-73261985D01*
X86717737Y-73227445D01*
X86717736Y-73227444D01*
X86705287Y-73205882D01*
X86685454Y-73171530D01*
X103099500Y-73171530D01*
X103099500Y-73378469D01*
X103139868Y-73581412D01*
X103139870Y-73581420D01*
X103173242Y-73661988D01*
X103219059Y-73772598D01*
X103246062Y-73813011D01*
X103334024Y-73944657D01*
X103480342Y-74090975D01*
X103480345Y-74090977D01*
X103652402Y-74205941D01*
X103843580Y-74285130D01*
X104046530Y-74325499D01*
X104046534Y-74325500D01*
X104046535Y-74325500D01*
X104253466Y-74325500D01*
X104253467Y-74325499D01*
X104456420Y-74285130D01*
X104647598Y-74205941D01*
X104819655Y-74090977D01*
X104965977Y-73944655D01*
X105080941Y-73772598D01*
X105160130Y-73581420D01*
X105170849Y-73527525D01*
X113649500Y-73527525D01*
X113649500Y-73672475D01*
X113687016Y-73812485D01*
X113687017Y-73812488D01*
X113759488Y-73938011D01*
X113759490Y-73938013D01*
X113759491Y-73938015D01*
X113861985Y-74040509D01*
X113861986Y-74040510D01*
X113861988Y-74040511D01*
X113987511Y-74112982D01*
X113987512Y-74112982D01*
X113987515Y-74112984D01*
X114127525Y-74150500D01*
X114127528Y-74150500D01*
X114272472Y-74150500D01*
X114272475Y-74150500D01*
X114412485Y-74112984D01*
X114538015Y-74040509D01*
X114640509Y-73938015D01*
X114712984Y-73812485D01*
X114750500Y-73672475D01*
X114750500Y-73527525D01*
X114712984Y-73387515D01*
X114707761Y-73378469D01*
X114640511Y-73261988D01*
X114640506Y-73261982D01*
X114538017Y-73159493D01*
X114538011Y-73159488D01*
X114412488Y-73087017D01*
X114412489Y-73087017D01*
X114410672Y-73086530D01*
X116994500Y-73086530D01*
X116994500Y-73293469D01*
X117034868Y-73496412D01*
X117034870Y-73496420D01*
X117114058Y-73687596D01*
X117229024Y-73859657D01*
X117375342Y-74005975D01*
X117375345Y-74005977D01*
X117547402Y-74120941D01*
X117738580Y-74200130D01*
X117941530Y-74240499D01*
X117941534Y-74240500D01*
X117941535Y-74240500D01*
X118148466Y-74240500D01*
X118148467Y-74240499D01*
X118351420Y-74200130D01*
X118542598Y-74120941D01*
X118714655Y-74005977D01*
X118860977Y-73859655D01*
X118975941Y-73687598D01*
X119055130Y-73496420D01*
X119095500Y-73293465D01*
X119095500Y-73086535D01*
X119095499Y-73086530D01*
X124614500Y-73086530D01*
X124614500Y-73293469D01*
X124654868Y-73496412D01*
X124654870Y-73496420D01*
X124734058Y-73687596D01*
X124849024Y-73859657D01*
X124995342Y-74005975D01*
X124995345Y-74005977D01*
X125167402Y-74120941D01*
X125358580Y-74200130D01*
X125561530Y-74240499D01*
X125561534Y-74240500D01*
X125561535Y-74240500D01*
X125768466Y-74240500D01*
X125768467Y-74240499D01*
X125971420Y-74200130D01*
X126162598Y-74120941D01*
X126334655Y-74005977D01*
X126480977Y-73859655D01*
X126595941Y-73687598D01*
X126675130Y-73496420D01*
X126715500Y-73293465D01*
X126715500Y-73086535D01*
X126715499Y-73086530D01*
X135304500Y-73086530D01*
X135304500Y-73293469D01*
X135344868Y-73496412D01*
X135344870Y-73496420D01*
X135424058Y-73687596D01*
X135539024Y-73859657D01*
X135685342Y-74005975D01*
X135685345Y-74005977D01*
X135857402Y-74120941D01*
X136048580Y-74200130D01*
X136251530Y-74240499D01*
X136251534Y-74240500D01*
X136251535Y-74240500D01*
X136458466Y-74240500D01*
X136458467Y-74240499D01*
X136661420Y-74200130D01*
X136852598Y-74120941D01*
X137024655Y-74005977D01*
X137170977Y-73859655D01*
X137285941Y-73687598D01*
X137365130Y-73496420D01*
X137405500Y-73293465D01*
X137405500Y-73086535D01*
X137405499Y-73086530D01*
X142924500Y-73086530D01*
X142924500Y-73293469D01*
X142964868Y-73496412D01*
X142964870Y-73496420D01*
X143044058Y-73687596D01*
X143159024Y-73859657D01*
X143305342Y-74005975D01*
X143305345Y-74005977D01*
X143477402Y-74120941D01*
X143668580Y-74200130D01*
X143871530Y-74240499D01*
X143871534Y-74240500D01*
X143871535Y-74240500D01*
X144078466Y-74240500D01*
X144078467Y-74240499D01*
X144281420Y-74200130D01*
X144472598Y-74120941D01*
X144644655Y-74005977D01*
X144790977Y-73859655D01*
X144905941Y-73687598D01*
X144985130Y-73496420D01*
X145025500Y-73293465D01*
X145025500Y-73086535D01*
X144985130Y-72883580D01*
X144905941Y-72692402D01*
X144790977Y-72520345D01*
X144790975Y-72520342D01*
X144644657Y-72374024D01*
X144558626Y-72316541D01*
X144472598Y-72259059D01*
X144396473Y-72227527D01*
X144281420Y-72179870D01*
X144281412Y-72179868D01*
X144078469Y-72139500D01*
X144078465Y-72139500D01*
X143871535Y-72139500D01*
X143871530Y-72139500D01*
X143668587Y-72179868D01*
X143668579Y-72179870D01*
X143477403Y-72259058D01*
X143305342Y-72374024D01*
X143159024Y-72520342D01*
X143044058Y-72692403D01*
X142964870Y-72883579D01*
X142964868Y-72883587D01*
X142924500Y-73086530D01*
X137405499Y-73086530D01*
X137365130Y-72883580D01*
X137285941Y-72692402D01*
X137170977Y-72520345D01*
X137170975Y-72520342D01*
X137024657Y-72374024D01*
X136938626Y-72316541D01*
X136852598Y-72259059D01*
X136776473Y-72227527D01*
X136661420Y-72179870D01*
X136661412Y-72179868D01*
X136458469Y-72139500D01*
X136458465Y-72139500D01*
X136251535Y-72139500D01*
X136251530Y-72139500D01*
X136048587Y-72179868D01*
X136048579Y-72179870D01*
X135857403Y-72259058D01*
X135685342Y-72374024D01*
X135539024Y-72520342D01*
X135424058Y-72692403D01*
X135344870Y-72883579D01*
X135344868Y-72883587D01*
X135304500Y-73086530D01*
X126715499Y-73086530D01*
X126675130Y-72883580D01*
X126595941Y-72692402D01*
X126480977Y-72520345D01*
X126480975Y-72520342D01*
X126334657Y-72374024D01*
X126248626Y-72316541D01*
X126162598Y-72259059D01*
X126086473Y-72227527D01*
X125971420Y-72179870D01*
X125971412Y-72179868D01*
X125768469Y-72139500D01*
X125768465Y-72139500D01*
X125561535Y-72139500D01*
X125561530Y-72139500D01*
X125358587Y-72179868D01*
X125358579Y-72179870D01*
X125167403Y-72259058D01*
X124995342Y-72374024D01*
X124849024Y-72520342D01*
X124734058Y-72692403D01*
X124654870Y-72883579D01*
X124654868Y-72883587D01*
X124614500Y-73086530D01*
X119095499Y-73086530D01*
X119055130Y-72883580D01*
X118975941Y-72692402D01*
X118860977Y-72520345D01*
X118860975Y-72520342D01*
X118714657Y-72374024D01*
X118628626Y-72316541D01*
X118542598Y-72259059D01*
X118466473Y-72227527D01*
X118351420Y-72179870D01*
X118351412Y-72179868D01*
X118148469Y-72139500D01*
X118148465Y-72139500D01*
X117941535Y-72139500D01*
X117941530Y-72139500D01*
X117738587Y-72179868D01*
X117738579Y-72179870D01*
X117547403Y-72259058D01*
X117375342Y-72374024D01*
X117229024Y-72520342D01*
X117114058Y-72692403D01*
X117034870Y-72883579D01*
X117034868Y-72883587D01*
X116994500Y-73086530D01*
X114410672Y-73086530D01*
X114401006Y-73083940D01*
X114272475Y-73049500D01*
X114127525Y-73049500D01*
X113998993Y-73083940D01*
X113987511Y-73087017D01*
X113861988Y-73159488D01*
X113861982Y-73159493D01*
X113759493Y-73261982D01*
X113759488Y-73261988D01*
X113687017Y-73387511D01*
X113682583Y-73404055D01*
X113649500Y-73527525D01*
X105170849Y-73527525D01*
X105171790Y-73522796D01*
X105177279Y-73495207D01*
X105198700Y-73387515D01*
X105200500Y-73378465D01*
X105200500Y-73171535D01*
X105160130Y-72968580D01*
X105080941Y-72777402D01*
X104965977Y-72605345D01*
X104965975Y-72605342D01*
X104819657Y-72459024D01*
X104692444Y-72374024D01*
X104647598Y-72344059D01*
X104456420Y-72264870D01*
X104456412Y-72264868D01*
X104253469Y-72224500D01*
X104253465Y-72224500D01*
X104046535Y-72224500D01*
X104046530Y-72224500D01*
X103843587Y-72264868D01*
X103843579Y-72264870D01*
X103652403Y-72344058D01*
X103480342Y-72459024D01*
X103334024Y-72605342D01*
X103219058Y-72777403D01*
X103139870Y-72968579D01*
X103139868Y-72968587D01*
X103099500Y-73171530D01*
X86685454Y-73171530D01*
X86665509Y-73136985D01*
X86563015Y-73034491D01*
X86563013Y-73034490D01*
X86563011Y-73034488D01*
X86437488Y-72962017D01*
X86437489Y-72962017D01*
X86426006Y-72958940D01*
X86297475Y-72924500D01*
X86152525Y-72924500D01*
X86023993Y-72958940D01*
X86012511Y-72962017D01*
X85886988Y-73034488D01*
X85886982Y-73034493D01*
X85784493Y-73136982D01*
X85784488Y-73136988D01*
X85712017Y-73262511D01*
X85712016Y-73262515D01*
X85674500Y-73402525D01*
X84918801Y-73402525D01*
X84887984Y-73287515D01*
X84873550Y-73262515D01*
X84815511Y-73161988D01*
X84815506Y-73161982D01*
X84713017Y-73059493D01*
X84713011Y-73059488D01*
X84587488Y-72987017D01*
X84587489Y-72987017D01*
X84576006Y-72983940D01*
X84447475Y-72949500D01*
X84302525Y-72949500D01*
X84173993Y-72983940D01*
X84162511Y-72987017D01*
X84036988Y-73059488D01*
X84036982Y-73059493D01*
X83934493Y-73161982D01*
X83934488Y-73161988D01*
X83862017Y-73287511D01*
X83862016Y-73287515D01*
X83824500Y-73427525D01*
X56178497Y-73427525D01*
X56178497Y-71252525D01*
X83999500Y-71252525D01*
X83999500Y-71397475D01*
X84012897Y-71447472D01*
X84037017Y-71537488D01*
X84109488Y-71663011D01*
X84109490Y-71663013D01*
X84109491Y-71663015D01*
X84211985Y-71765509D01*
X84211986Y-71765510D01*
X84211988Y-71765511D01*
X84337511Y-71837982D01*
X84337512Y-71837982D01*
X84337515Y-71837984D01*
X84477525Y-71875500D01*
X84477528Y-71875500D01*
X84622472Y-71875500D01*
X84622475Y-71875500D01*
X84762485Y-71837984D01*
X84888015Y-71765509D01*
X84990509Y-71663015D01*
X85062984Y-71537485D01*
X85100500Y-71397475D01*
X85100500Y-71302525D01*
X85899500Y-71302525D01*
X85899500Y-71447475D01*
X85928994Y-71557546D01*
X85937017Y-71587488D01*
X86009488Y-71713011D01*
X86009490Y-71713013D01*
X86009491Y-71713015D01*
X86111985Y-71815509D01*
X86111986Y-71815510D01*
X86111988Y-71815511D01*
X86237511Y-71887982D01*
X86237512Y-71887982D01*
X86237515Y-71887984D01*
X86377525Y-71925500D01*
X86377528Y-71925500D01*
X86468828Y-71925500D01*
X86535867Y-71945185D01*
X86581622Y-71997989D01*
X86591566Y-72067147D01*
X86588603Y-72081594D01*
X86587018Y-72087511D01*
X86587016Y-72087515D01*
X86549500Y-72227525D01*
X86549500Y-72372475D01*
X86572691Y-72459023D01*
X86587017Y-72512488D01*
X86659488Y-72638011D01*
X86659490Y-72638013D01*
X86659491Y-72638015D01*
X86761985Y-72740509D01*
X86761986Y-72740510D01*
X86761988Y-72740511D01*
X86887511Y-72812982D01*
X86887512Y-72812982D01*
X86887515Y-72812984D01*
X87027525Y-72850500D01*
X87027528Y-72850500D01*
X87172472Y-72850500D01*
X87172475Y-72850500D01*
X87312485Y-72812984D01*
X87438015Y-72740509D01*
X87540509Y-72638015D01*
X87612984Y-72512485D01*
X87650500Y-72372475D01*
X87650500Y-72227525D01*
X87612984Y-72087515D01*
X87609565Y-72081594D01*
X87540511Y-71961988D01*
X87540506Y-71961982D01*
X87438017Y-71859493D01*
X87438011Y-71859488D01*
X87312488Y-71787017D01*
X87312489Y-71787017D01*
X87301006Y-71783940D01*
X87172475Y-71749500D01*
X87081172Y-71749500D01*
X87014133Y-71729815D01*
X86968378Y-71677011D01*
X86958434Y-71607853D01*
X86961397Y-71593406D01*
X86962984Y-71587485D01*
X87000500Y-71447475D01*
X87000500Y-71302525D01*
X86962984Y-71162515D01*
X86934116Y-71112515D01*
X86890511Y-71036988D01*
X86890506Y-71036982D01*
X86788017Y-70934493D01*
X86788015Y-70934491D01*
X86662485Y-70862016D01*
X86522475Y-70824500D01*
X86377525Y-70824500D01*
X86248993Y-70858940D01*
X86237511Y-70862017D01*
X86111988Y-70934488D01*
X86111982Y-70934493D01*
X86009493Y-71036982D01*
X86009488Y-71036988D01*
X85937017Y-71162511D01*
X85937016Y-71162515D01*
X85899500Y-71302525D01*
X85100500Y-71302525D01*
X85100500Y-71252525D01*
X85062984Y-71112515D01*
X85019378Y-71036988D01*
X84990511Y-70986988D01*
X84990506Y-70986982D01*
X84888017Y-70884493D01*
X84888011Y-70884488D01*
X84762488Y-70812017D01*
X84762489Y-70812017D01*
X84751006Y-70808940D01*
X84727065Y-70802525D01*
X100541500Y-70802525D01*
X100541500Y-70947475D01*
X100579016Y-71087485D01*
X100579017Y-71087488D01*
X100651488Y-71213011D01*
X100651490Y-71213013D01*
X100651491Y-71213015D01*
X100753985Y-71315509D01*
X100753986Y-71315510D01*
X100753988Y-71315511D01*
X100879511Y-71387982D01*
X100879512Y-71387982D01*
X100879515Y-71387984D01*
X101019525Y-71425500D01*
X101019528Y-71425500D01*
X101164472Y-71425500D01*
X101164475Y-71425500D01*
X101304485Y-71387984D01*
X101430015Y-71315509D01*
X101532509Y-71213015D01*
X101604984Y-71087485D01*
X101642500Y-70947475D01*
X101642500Y-70802525D01*
X101604984Y-70662515D01*
X101532509Y-70536985D01*
X101430015Y-70434491D01*
X101430013Y-70434490D01*
X101430011Y-70434488D01*
X101304488Y-70362017D01*
X101304489Y-70362017D01*
X101293006Y-70358940D01*
X101164475Y-70324500D01*
X101019525Y-70324500D01*
X100890993Y-70358940D01*
X100879511Y-70362017D01*
X100753988Y-70434488D01*
X100753982Y-70434493D01*
X100651493Y-70536982D01*
X100651488Y-70536988D01*
X100579017Y-70662511D01*
X100579016Y-70662515D01*
X100541500Y-70802525D01*
X84727065Y-70802525D01*
X84622475Y-70774500D01*
X84477525Y-70774500D01*
X84348993Y-70808940D01*
X84337511Y-70812017D01*
X84211988Y-70884488D01*
X84211982Y-70884493D01*
X84109493Y-70986982D01*
X84109488Y-70986988D01*
X84037017Y-71112511D01*
X84037016Y-71112515D01*
X83999500Y-71252525D01*
X56178497Y-71252525D01*
X56178498Y-66602544D01*
X57046556Y-66602544D01*
X57046556Y-66941568D01*
X57053492Y-67011988D01*
X57079785Y-67278957D01*
X57145926Y-67611466D01*
X57244340Y-67935897D01*
X57286637Y-68038011D01*
X57359113Y-68212984D01*
X57374080Y-68249116D01*
X57374082Y-68249121D01*
X57533887Y-68548095D01*
X57533898Y-68548113D01*
X57722240Y-68829986D01*
X57722250Y-68830000D01*
X57937325Y-69092070D01*
X58177041Y-69331786D01*
X58177046Y-69331790D01*
X58177047Y-69331791D01*
X58439117Y-69546866D01*
X58721005Y-69735218D01*
X58721014Y-69735223D01*
X58721016Y-69735224D01*
X59019990Y-69895029D01*
X59019992Y-69895029D01*
X59019998Y-69895033D01*
X59333216Y-70024772D01*
X59657642Y-70123185D01*
X59990152Y-70189326D01*
X60327544Y-70222556D01*
X60327547Y-70222556D01*
X60666565Y-70222556D01*
X60666568Y-70222556D01*
X61003960Y-70189326D01*
X61336470Y-70123185D01*
X61570692Y-70052135D01*
X116994500Y-70052135D01*
X116994500Y-71247870D01*
X116994501Y-71247876D01*
X117000908Y-71307483D01*
X117051202Y-71442328D01*
X117051206Y-71442335D01*
X117137452Y-71557544D01*
X117137455Y-71557547D01*
X117252664Y-71643793D01*
X117252671Y-71643797D01*
X117387517Y-71694091D01*
X117387516Y-71694091D01*
X117394444Y-71694835D01*
X117447127Y-71700500D01*
X118642872Y-71700499D01*
X118702483Y-71694091D01*
X118837331Y-71643796D01*
X118952546Y-71557546D01*
X119038796Y-71442331D01*
X119089091Y-71307483D01*
X119095500Y-71247873D01*
X119095499Y-70052135D01*
X135304500Y-70052135D01*
X135304500Y-71247870D01*
X135304501Y-71247876D01*
X135310908Y-71307483D01*
X135361202Y-71442328D01*
X135361206Y-71442335D01*
X135447452Y-71557544D01*
X135447455Y-71557547D01*
X135562664Y-71643793D01*
X135562671Y-71643797D01*
X135697517Y-71694091D01*
X135697516Y-71694091D01*
X135704444Y-71694835D01*
X135757127Y-71700500D01*
X136952872Y-71700499D01*
X137012483Y-71694091D01*
X137147331Y-71643796D01*
X137262546Y-71557546D01*
X137348796Y-71442331D01*
X137399091Y-71307483D01*
X137405500Y-71247873D01*
X137405499Y-70052128D01*
X137399091Y-69992517D01*
X137381604Y-69945633D01*
X137348797Y-69857671D01*
X137348793Y-69857664D01*
X137262547Y-69742455D01*
X137262544Y-69742452D01*
X137147335Y-69656206D01*
X137147328Y-69656202D01*
X137012482Y-69605908D01*
X137012483Y-69605908D01*
X136952883Y-69599501D01*
X136952881Y-69599500D01*
X136952873Y-69599500D01*
X136952864Y-69599500D01*
X135757129Y-69599500D01*
X135757123Y-69599501D01*
X135697516Y-69605908D01*
X135562671Y-69656202D01*
X135562664Y-69656206D01*
X135447455Y-69742452D01*
X135447452Y-69742455D01*
X135361206Y-69857664D01*
X135361202Y-69857671D01*
X135310908Y-69992517D01*
X135307441Y-70024771D01*
X135304501Y-70052123D01*
X135304500Y-70052135D01*
X119095499Y-70052135D01*
X119095499Y-70052128D01*
X119089091Y-69992517D01*
X119071604Y-69945633D01*
X119038797Y-69857671D01*
X119038793Y-69857664D01*
X118952547Y-69742455D01*
X118952544Y-69742452D01*
X118837335Y-69656206D01*
X118837328Y-69656202D01*
X118702482Y-69605908D01*
X118702483Y-69605908D01*
X118642883Y-69599501D01*
X118642881Y-69599500D01*
X118642873Y-69599500D01*
X118642864Y-69599500D01*
X117447129Y-69599500D01*
X117447123Y-69599501D01*
X117387516Y-69605908D01*
X117252671Y-69656202D01*
X117252664Y-69656206D01*
X117137455Y-69742452D01*
X117137452Y-69742455D01*
X117051206Y-69857664D01*
X117051202Y-69857671D01*
X117000908Y-69992517D01*
X116997441Y-70024771D01*
X116994501Y-70052123D01*
X116994500Y-70052135D01*
X61570692Y-70052135D01*
X61660896Y-70024772D01*
X61974114Y-69895033D01*
X62273107Y-69735218D01*
X62554995Y-69546866D01*
X62817065Y-69331791D01*
X62865350Y-69283506D01*
X62921331Y-69227525D01*
X83949500Y-69227525D01*
X83949500Y-69372475D01*
X83955134Y-69393500D01*
X83987017Y-69512488D01*
X84059488Y-69638011D01*
X84059490Y-69638013D01*
X84059491Y-69638015D01*
X84161985Y-69740509D01*
X84161986Y-69740510D01*
X84161988Y-69740511D01*
X84287511Y-69812982D01*
X84287512Y-69812982D01*
X84287515Y-69812984D01*
X84427525Y-69850500D01*
X84427528Y-69850500D01*
X84572472Y-69850500D01*
X84572475Y-69850500D01*
X84712485Y-69812984D01*
X84838015Y-69740509D01*
X84940509Y-69638015D01*
X85012984Y-69512485D01*
X85050500Y-69372475D01*
X85050500Y-69227525D01*
X85849500Y-69227525D01*
X85849500Y-69372475D01*
X85855134Y-69393500D01*
X85887017Y-69512488D01*
X85959488Y-69638011D01*
X85959490Y-69638013D01*
X85959491Y-69638015D01*
X86061985Y-69740509D01*
X86061986Y-69740510D01*
X86061988Y-69740511D01*
X86187511Y-69812982D01*
X86187512Y-69812982D01*
X86187515Y-69812984D01*
X86327525Y-69850500D01*
X86327528Y-69850500D01*
X86472472Y-69850500D01*
X86472475Y-69850500D01*
X86612485Y-69812984D01*
X86738015Y-69740509D01*
X86840509Y-69638015D01*
X86912984Y-69512485D01*
X86950500Y-69372475D01*
X86950500Y-69227525D01*
X86912984Y-69087515D01*
X86894491Y-69055485D01*
X86840511Y-68961988D01*
X86840506Y-68961982D01*
X86738014Y-68859490D01*
X86612488Y-68787017D01*
X86612489Y-68787017D01*
X86601006Y-68783940D01*
X86550941Y-68770525D01*
X100541500Y-68770525D01*
X100541500Y-68915475D01*
X100579016Y-69055485D01*
X100579017Y-69055488D01*
X100651488Y-69181011D01*
X100651490Y-69181013D01*
X100651491Y-69181015D01*
X100753985Y-69283509D01*
X100753986Y-69283510D01*
X100753988Y-69283511D01*
X100879511Y-69355982D01*
X100879512Y-69355982D01*
X100879515Y-69355984D01*
X101019525Y-69393500D01*
X101019528Y-69393500D01*
X101164472Y-69393500D01*
X101164475Y-69393500D01*
X101304485Y-69355984D01*
X101430015Y-69283509D01*
X101532509Y-69181015D01*
X101604984Y-69055485D01*
X101642500Y-68915475D01*
X101642500Y-68770525D01*
X101604984Y-68630515D01*
X101532509Y-68504985D01*
X101430015Y-68402491D01*
X101430013Y-68402490D01*
X101430011Y-68402488D01*
X101304488Y-68330017D01*
X101304489Y-68330017D01*
X101293006Y-68326940D01*
X101164475Y-68292500D01*
X101019525Y-68292500D01*
X100890993Y-68326940D01*
X100879511Y-68330017D01*
X100753988Y-68402488D01*
X100753982Y-68402493D01*
X100651493Y-68504982D01*
X100651488Y-68504988D01*
X100579017Y-68630511D01*
X100579016Y-68630515D01*
X100541500Y-68770525D01*
X86550941Y-68770525D01*
X86472475Y-68749500D01*
X86327525Y-68749500D01*
X86198993Y-68783940D01*
X86187511Y-68787017D01*
X86061988Y-68859488D01*
X86061982Y-68859493D01*
X85959493Y-68961982D01*
X85959488Y-68961988D01*
X85887017Y-69087511D01*
X85887016Y-69087515D01*
X85849500Y-69227525D01*
X85050500Y-69227525D01*
X85012984Y-69087515D01*
X84994491Y-69055485D01*
X84940511Y-68961988D01*
X84940506Y-68961982D01*
X84838017Y-68859493D01*
X84838011Y-68859488D01*
X84712488Y-68787017D01*
X84712489Y-68787017D01*
X84701006Y-68783940D01*
X84572475Y-68749500D01*
X84427525Y-68749500D01*
X84298993Y-68783940D01*
X84287511Y-68787017D01*
X84161988Y-68859488D01*
X84161982Y-68859493D01*
X84059493Y-68961982D01*
X84059488Y-68961988D01*
X83987017Y-69087511D01*
X83987016Y-69087515D01*
X83949500Y-69227525D01*
X62921331Y-69227525D01*
X63017140Y-69131717D01*
X63056786Y-69092070D01*
X63056791Y-69092065D01*
X63271866Y-68829995D01*
X63460218Y-68548107D01*
X63620033Y-68249114D01*
X63749772Y-67935896D01*
X63848185Y-67611470D01*
X63914326Y-67278960D01*
X63947556Y-66941568D01*
X63947556Y-66727525D01*
X83924500Y-66727525D01*
X83924500Y-66872475D01*
X83962016Y-67012485D01*
X83962017Y-67012488D01*
X84034488Y-67138011D01*
X84034490Y-67138013D01*
X84034491Y-67138015D01*
X84136985Y-67240509D01*
X84136986Y-67240510D01*
X84136988Y-67240511D01*
X84262511Y-67312982D01*
X84262512Y-67312982D01*
X84262515Y-67312984D01*
X84402525Y-67350500D01*
X84402528Y-67350500D01*
X84547472Y-67350500D01*
X84547475Y-67350500D01*
X84687485Y-67312984D01*
X84813015Y-67240509D01*
X84915509Y-67138015D01*
X84987984Y-67012485D01*
X85025500Y-66872475D01*
X85025500Y-66727525D01*
X85018801Y-66702525D01*
X85824500Y-66702525D01*
X85824500Y-66847475D01*
X85862016Y-66987485D01*
X85862017Y-66987488D01*
X85934488Y-67113011D01*
X85934490Y-67113013D01*
X85934491Y-67113015D01*
X86036985Y-67215509D01*
X86036986Y-67215510D01*
X86036988Y-67215511D01*
X86162511Y-67287982D01*
X86162512Y-67287982D01*
X86162515Y-67287984D01*
X86302525Y-67325500D01*
X86302528Y-67325500D01*
X86447472Y-67325500D01*
X86447475Y-67325500D01*
X86587485Y-67287984D01*
X86713015Y-67215509D01*
X86815509Y-67113015D01*
X86887984Y-66987485D01*
X86925500Y-66847475D01*
X86925500Y-66702525D01*
X87749500Y-66702525D01*
X87749500Y-66847475D01*
X87787016Y-66987485D01*
X87787017Y-66987488D01*
X87859488Y-67113011D01*
X87859490Y-67113013D01*
X87859491Y-67113015D01*
X87961985Y-67215509D01*
X87961986Y-67215510D01*
X87961988Y-67215511D01*
X88087511Y-67287982D01*
X88087512Y-67287982D01*
X88087515Y-67287984D01*
X88227525Y-67325500D01*
X88227528Y-67325500D01*
X88372472Y-67325500D01*
X88372475Y-67325500D01*
X88512485Y-67287984D01*
X88638015Y-67215509D01*
X88740509Y-67113015D01*
X88812984Y-66987485D01*
X88850500Y-66847475D01*
X88850500Y-66702525D01*
X88812984Y-66562515D01*
X88792782Y-66527525D01*
X90849500Y-66527525D01*
X90849500Y-66672475D01*
X90883537Y-66799500D01*
X90887017Y-66812488D01*
X90930614Y-66888000D01*
X90947087Y-66955900D01*
X90930614Y-67012000D01*
X90887017Y-67087511D01*
X90887016Y-67087515D01*
X90849500Y-67227525D01*
X90849500Y-67372475D01*
X90887016Y-67512485D01*
X90887017Y-67512488D01*
X90959488Y-67638011D01*
X90959490Y-67638013D01*
X90959491Y-67638015D01*
X91061985Y-67740509D01*
X91061986Y-67740510D01*
X91061988Y-67740511D01*
X91187511Y-67812982D01*
X91187512Y-67812982D01*
X91187515Y-67812984D01*
X91327525Y-67850500D01*
X91327528Y-67850500D01*
X91472472Y-67850500D01*
X91472475Y-67850500D01*
X91612485Y-67812984D01*
X91738015Y-67740509D01*
X91840509Y-67638015D01*
X91912984Y-67512485D01*
X91950500Y-67372475D01*
X91950500Y-67277525D01*
X96549500Y-67277525D01*
X96549500Y-67422475D01*
X96587016Y-67562485D01*
X96587017Y-67562488D01*
X96659488Y-67688011D01*
X96659490Y-67688013D01*
X96659491Y-67688015D01*
X96761985Y-67790509D01*
X96761986Y-67790510D01*
X96761988Y-67790511D01*
X96887511Y-67862982D01*
X96887512Y-67862982D01*
X96887515Y-67862984D01*
X97027525Y-67900500D01*
X97027528Y-67900500D01*
X97172472Y-67900500D01*
X97172475Y-67900500D01*
X97312485Y-67862984D01*
X97438015Y-67790509D01*
X97540509Y-67688015D01*
X97575433Y-67627525D01*
X97949500Y-67627525D01*
X97949500Y-67772475D01*
X97983805Y-67900500D01*
X97987017Y-67912488D01*
X98059488Y-68038011D01*
X98059490Y-68038013D01*
X98059491Y-68038015D01*
X98161985Y-68140509D01*
X98161986Y-68140510D01*
X98161988Y-68140511D01*
X98287511Y-68212982D01*
X98287512Y-68212982D01*
X98287515Y-68212984D01*
X98427525Y-68250500D01*
X98427528Y-68250500D01*
X98572472Y-68250500D01*
X98572475Y-68250500D01*
X98712485Y-68212984D01*
X98838015Y-68140509D01*
X98940509Y-68038015D01*
X99012984Y-67912485D01*
X99050500Y-67772475D01*
X99050500Y-67627525D01*
X99012984Y-67487515D01*
X98975431Y-67422472D01*
X98940511Y-67361988D01*
X98940506Y-67361982D01*
X98838017Y-67259493D01*
X98838011Y-67259488D01*
X98712488Y-67187017D01*
X98712489Y-67187017D01*
X98701006Y-67183940D01*
X98572475Y-67149500D01*
X98427525Y-67149500D01*
X98298993Y-67183940D01*
X98287511Y-67187017D01*
X98161988Y-67259488D01*
X98161982Y-67259493D01*
X98059493Y-67361982D01*
X98059488Y-67361988D01*
X97987017Y-67487511D01*
X97987016Y-67487515D01*
X97949500Y-67627525D01*
X97575433Y-67627525D01*
X97612984Y-67562485D01*
X97650500Y-67422475D01*
X97650500Y-67277525D01*
X97612984Y-67137515D01*
X97584116Y-67087515D01*
X97540511Y-67011988D01*
X97540506Y-67011982D01*
X97438017Y-66909493D01*
X97438011Y-66909488D01*
X97312488Y-66837017D01*
X97312489Y-66837017D01*
X97301006Y-66833940D01*
X97172475Y-66799500D01*
X97027525Y-66799500D01*
X96898993Y-66833940D01*
X96887511Y-66837017D01*
X96761988Y-66909488D01*
X96761982Y-66909493D01*
X96659493Y-67011982D01*
X96659488Y-67011988D01*
X96587017Y-67137511D01*
X96587016Y-67137515D01*
X96549500Y-67277525D01*
X91950500Y-67277525D01*
X91950500Y-67227525D01*
X91912984Y-67087515D01*
X91869384Y-67011998D01*
X91852912Y-66944101D01*
X91869385Y-66888000D01*
X91912984Y-66812485D01*
X91950500Y-66672475D01*
X91950500Y-66653144D01*
X144237500Y-66653144D01*
X144237500Y-66992168D01*
X144246890Y-67087511D01*
X144270729Y-67329557D01*
X144336870Y-67662066D01*
X144435284Y-67986497D01*
X144565024Y-68299716D01*
X144565026Y-68299721D01*
X144724831Y-68598695D01*
X144724842Y-68598713D01*
X144913184Y-68880586D01*
X144913194Y-68880600D01*
X145128269Y-69142670D01*
X145367985Y-69382386D01*
X145367990Y-69382390D01*
X145367991Y-69382391D01*
X145630061Y-69597466D01*
X145911949Y-69785818D01*
X145911958Y-69785823D01*
X145911960Y-69785824D01*
X146210934Y-69945629D01*
X146210936Y-69945629D01*
X146210942Y-69945633D01*
X146524160Y-70075372D01*
X146848586Y-70173785D01*
X147181096Y-70239926D01*
X147518488Y-70273156D01*
X147518491Y-70273156D01*
X147857509Y-70273156D01*
X147857512Y-70273156D01*
X148194904Y-70239926D01*
X148527414Y-70173785D01*
X148851840Y-70075372D01*
X149165058Y-69945633D01*
X149464051Y-69785818D01*
X149745939Y-69597466D01*
X150008009Y-69382391D01*
X150247735Y-69142665D01*
X150462810Y-68880595D01*
X150651162Y-68598707D01*
X150810977Y-68299714D01*
X150940716Y-67986496D01*
X151039129Y-67662070D01*
X151105270Y-67329560D01*
X151138500Y-66992168D01*
X151138500Y-66653144D01*
X151105270Y-66315752D01*
X151039129Y-65983242D01*
X150940716Y-65658816D01*
X150810977Y-65345598D01*
X150783926Y-65294990D01*
X150651168Y-65046616D01*
X150651167Y-65046614D01*
X150651162Y-65046605D01*
X150462810Y-64764717D01*
X150247735Y-64502647D01*
X150247734Y-64502646D01*
X150247730Y-64502641D01*
X150008014Y-64262925D01*
X149745944Y-64047850D01*
X149745943Y-64047849D01*
X149745939Y-64047846D01*
X149464051Y-63859494D01*
X149464046Y-63859491D01*
X149464039Y-63859487D01*
X149165065Y-63699682D01*
X149165060Y-63699680D01*
X149109079Y-63676492D01*
X149042899Y-63649079D01*
X148851841Y-63569940D01*
X148661382Y-63512165D01*
X148527414Y-63471527D01*
X148527411Y-63471526D01*
X148527410Y-63471526D01*
X148194901Y-63405385D01*
X147957199Y-63381974D01*
X147857512Y-63372156D01*
X147518488Y-63372156D01*
X147427738Y-63381093D01*
X147181098Y-63405385D01*
X146848589Y-63471526D01*
X146524158Y-63569940D01*
X146210939Y-63699680D01*
X146210934Y-63699682D01*
X145911960Y-63859487D01*
X145911942Y-63859498D01*
X145630069Y-64047840D01*
X145630055Y-64047850D01*
X145367985Y-64262925D01*
X145128269Y-64502641D01*
X144913194Y-64764711D01*
X144913184Y-64764725D01*
X144724842Y-65046598D01*
X144724831Y-65046616D01*
X144565026Y-65345590D01*
X144565024Y-65345595D01*
X144435284Y-65658814D01*
X144336870Y-65983245D01*
X144270729Y-66315754D01*
X144256327Y-66461985D01*
X144237500Y-66653144D01*
X91950500Y-66653144D01*
X91950500Y-66527525D01*
X91912984Y-66387515D01*
X91896805Y-66359493D01*
X91840511Y-66261988D01*
X91840506Y-66261982D01*
X91738017Y-66159493D01*
X91738011Y-66159488D01*
X91612488Y-66087017D01*
X91612489Y-66087017D01*
X91601006Y-66083940D01*
X91472475Y-66049500D01*
X91327525Y-66049500D01*
X91198993Y-66083940D01*
X91187511Y-66087017D01*
X91061988Y-66159488D01*
X91061982Y-66159493D01*
X90959493Y-66261982D01*
X90959488Y-66261988D01*
X90887017Y-66387511D01*
X90887016Y-66387515D01*
X90849500Y-66527525D01*
X88792782Y-66527525D01*
X88740511Y-66436988D01*
X88740506Y-66436982D01*
X88638017Y-66334493D01*
X88638011Y-66334488D01*
X88512488Y-66262017D01*
X88512489Y-66262017D01*
X88501006Y-66258940D01*
X88372475Y-66224500D01*
X88227525Y-66224500D01*
X88098993Y-66258940D01*
X88087511Y-66262017D01*
X87961988Y-66334488D01*
X87961982Y-66334493D01*
X87859493Y-66436982D01*
X87859488Y-66436988D01*
X87787017Y-66562511D01*
X87787016Y-66562515D01*
X87749500Y-66702525D01*
X86925500Y-66702525D01*
X86887984Y-66562515D01*
X86867782Y-66527525D01*
X86815511Y-66436988D01*
X86815506Y-66436982D01*
X86713017Y-66334493D01*
X86713011Y-66334488D01*
X86587488Y-66262017D01*
X86587489Y-66262017D01*
X86576006Y-66258940D01*
X86447475Y-66224500D01*
X86302525Y-66224500D01*
X86173993Y-66258940D01*
X86162511Y-66262017D01*
X86036988Y-66334488D01*
X86036982Y-66334493D01*
X85934493Y-66436982D01*
X85934488Y-66436988D01*
X85862017Y-66562511D01*
X85862016Y-66562515D01*
X85824500Y-66702525D01*
X85018801Y-66702525D01*
X84987984Y-66587515D01*
X84973550Y-66562515D01*
X84915511Y-66461988D01*
X84915506Y-66461982D01*
X84813017Y-66359493D01*
X84813011Y-66359488D01*
X84687488Y-66287017D01*
X84687489Y-66287017D01*
X84676006Y-66283940D01*
X84547475Y-66249500D01*
X84402525Y-66249500D01*
X84273993Y-66283940D01*
X84262511Y-66287017D01*
X84136988Y-66359488D01*
X84136982Y-66359493D01*
X84034493Y-66461982D01*
X84034488Y-66461988D01*
X83962017Y-66587511D01*
X83962016Y-66587515D01*
X83924500Y-66727525D01*
X63947556Y-66727525D01*
X63947556Y-66602544D01*
X63914326Y-66265152D01*
X63848185Y-65932642D01*
X63749772Y-65608216D01*
X63620033Y-65294998D01*
X63579684Y-65219511D01*
X63460224Y-64996016D01*
X63460223Y-64996014D01*
X63460218Y-64996005D01*
X63271866Y-64714117D01*
X63056791Y-64452047D01*
X63056790Y-64452046D01*
X63056786Y-64452041D01*
X62817070Y-64212325D01*
X62555000Y-63997250D01*
X62554999Y-63997249D01*
X62554995Y-63997246D01*
X62273107Y-63808894D01*
X62273102Y-63808891D01*
X62273095Y-63808887D01*
X62216723Y-63778756D01*
X62027334Y-63677525D01*
X100849500Y-63677525D01*
X100849500Y-63822475D01*
X100872817Y-63909493D01*
X100887017Y-63962488D01*
X100959488Y-64088011D01*
X100959490Y-64088013D01*
X100959491Y-64088015D01*
X101061985Y-64190509D01*
X101061986Y-64190510D01*
X101061988Y-64190511D01*
X101187511Y-64262982D01*
X101187512Y-64262982D01*
X101187515Y-64262984D01*
X101327525Y-64300500D01*
X101327528Y-64300500D01*
X101472472Y-64300500D01*
X101472475Y-64300500D01*
X101612485Y-64262984D01*
X101738015Y-64190509D01*
X101840509Y-64088015D01*
X101912984Y-63962485D01*
X101950500Y-63822475D01*
X101950500Y-63677525D01*
X101943801Y-63652525D01*
X104424500Y-63652525D01*
X104424500Y-63797475D01*
X104462016Y-63937485D01*
X104462017Y-63937488D01*
X104534488Y-64063011D01*
X104534490Y-64063013D01*
X104534491Y-64063015D01*
X104636985Y-64165509D01*
X104636986Y-64165510D01*
X104636988Y-64165511D01*
X104762511Y-64237982D01*
X104762512Y-64237982D01*
X104762515Y-64237984D01*
X104902525Y-64275500D01*
X104902528Y-64275500D01*
X105047472Y-64275500D01*
X105047475Y-64275500D01*
X105187485Y-64237984D01*
X105313015Y-64165509D01*
X105415509Y-64063015D01*
X105487984Y-63937485D01*
X105525500Y-63797475D01*
X105525500Y-63677525D01*
X107874500Y-63677525D01*
X107874500Y-63822475D01*
X107897817Y-63909493D01*
X107912017Y-63962488D01*
X107984488Y-64088011D01*
X107984490Y-64088013D01*
X107984491Y-64088015D01*
X108086985Y-64190509D01*
X108086986Y-64190510D01*
X108086988Y-64190511D01*
X108212511Y-64262982D01*
X108212512Y-64262982D01*
X108212515Y-64262984D01*
X108352525Y-64300500D01*
X108352528Y-64300500D01*
X108497472Y-64300500D01*
X108497475Y-64300500D01*
X108637485Y-64262984D01*
X108763015Y-64190509D01*
X108865509Y-64088015D01*
X108937984Y-63962485D01*
X108975500Y-63822475D01*
X108975500Y-63677525D01*
X108937984Y-63537515D01*
X108923550Y-63512515D01*
X108865511Y-63411988D01*
X108865506Y-63411982D01*
X108763017Y-63309493D01*
X108763011Y-63309488D01*
X108637488Y-63237017D01*
X108637489Y-63237017D01*
X108626006Y-63233940D01*
X108497475Y-63199500D01*
X108352525Y-63199500D01*
X108223993Y-63233940D01*
X108212511Y-63237017D01*
X108086988Y-63309488D01*
X108086982Y-63309493D01*
X107984493Y-63411982D01*
X107984488Y-63411988D01*
X107912017Y-63537511D01*
X107912016Y-63537515D01*
X107874500Y-63677525D01*
X105525500Y-63677525D01*
X105525500Y-63652525D01*
X105487984Y-63512515D01*
X105464319Y-63471527D01*
X105415511Y-63386988D01*
X105415506Y-63386982D01*
X105313017Y-63284493D01*
X105313011Y-63284488D01*
X105187488Y-63212017D01*
X105187489Y-63212017D01*
X105176006Y-63208940D01*
X105047475Y-63174500D01*
X104902525Y-63174500D01*
X104773993Y-63208940D01*
X104762511Y-63212017D01*
X104636988Y-63284488D01*
X104636982Y-63284493D01*
X104534493Y-63386982D01*
X104534488Y-63386988D01*
X104462017Y-63512511D01*
X104462016Y-63512515D01*
X104424500Y-63652525D01*
X101943801Y-63652525D01*
X101912984Y-63537515D01*
X101898550Y-63512515D01*
X101840511Y-63411988D01*
X101840506Y-63411982D01*
X101738017Y-63309493D01*
X101738011Y-63309488D01*
X101612488Y-63237017D01*
X101612489Y-63237017D01*
X101601006Y-63233940D01*
X101472475Y-63199500D01*
X101327525Y-63199500D01*
X101198993Y-63233940D01*
X101187511Y-63237017D01*
X101061988Y-63309488D01*
X101061982Y-63309493D01*
X100959493Y-63411982D01*
X100959488Y-63411988D01*
X100887017Y-63537511D01*
X100887016Y-63537515D01*
X100849500Y-63677525D01*
X62027334Y-63677525D01*
X61974121Y-63649082D01*
X61974116Y-63649080D01*
X61660897Y-63519340D01*
X61470438Y-63461565D01*
X61336470Y-63420927D01*
X61336467Y-63420926D01*
X61336466Y-63420926D01*
X61003957Y-63354785D01*
X60766255Y-63331374D01*
X60666568Y-63321556D01*
X60327544Y-63321556D01*
X60236794Y-63330493D01*
X59990154Y-63354785D01*
X59657645Y-63420926D01*
X59333214Y-63519340D01*
X59019995Y-63649080D01*
X59019990Y-63649082D01*
X58721016Y-63808887D01*
X58720998Y-63808898D01*
X58439125Y-63997240D01*
X58439111Y-63997250D01*
X58177041Y-64212325D01*
X57937325Y-64452041D01*
X57722250Y-64714111D01*
X57722240Y-64714125D01*
X57533898Y-64995998D01*
X57533887Y-64996016D01*
X57374082Y-65294990D01*
X57374080Y-65294995D01*
X57244340Y-65608214D01*
X57145926Y-65932645D01*
X57079785Y-66265154D01*
X57060400Y-66461982D01*
X57046556Y-66602544D01*
X56178498Y-66602544D01*
X56178499Y-62332525D01*
X95419500Y-62332525D01*
X95419500Y-62477475D01*
X95444183Y-62569591D01*
X95457017Y-62617488D01*
X95529488Y-62743011D01*
X95529490Y-62743013D01*
X95529491Y-62743015D01*
X95631985Y-62845509D01*
X95631986Y-62845510D01*
X95631988Y-62845511D01*
X95757511Y-62917982D01*
X95757512Y-62917982D01*
X95757515Y-62917984D01*
X95897525Y-62955500D01*
X95897528Y-62955500D01*
X96042472Y-62955500D01*
X96042475Y-62955500D01*
X96182485Y-62917984D01*
X96308015Y-62845509D01*
X96410509Y-62743015D01*
X96482984Y-62617485D01*
X96520500Y-62477475D01*
X96520500Y-62332525D01*
X96482984Y-62192515D01*
X96467390Y-62165506D01*
X96410511Y-62066988D01*
X96410506Y-62066982D01*
X96308017Y-61964493D01*
X96308011Y-61964488D01*
X96182488Y-61892017D01*
X96182489Y-61892017D01*
X96171006Y-61888940D01*
X96042475Y-61854500D01*
X95897525Y-61854500D01*
X95768993Y-61888940D01*
X95757511Y-61892017D01*
X95631988Y-61964488D01*
X95631982Y-61964493D01*
X95529493Y-62066982D01*
X95529488Y-62066988D01*
X95457017Y-62192511D01*
X95457016Y-62192515D01*
X95419500Y-62332525D01*
X56178499Y-62332525D01*
X56178499Y-61677525D01*
X100799500Y-61677525D01*
X100799500Y-61822475D01*
X100808576Y-61856345D01*
X100837017Y-61962488D01*
X100909488Y-62088011D01*
X100909490Y-62088013D01*
X100909491Y-62088015D01*
X101011985Y-62190509D01*
X101011986Y-62190510D01*
X101011988Y-62190511D01*
X101137511Y-62262982D01*
X101137512Y-62262982D01*
X101137515Y-62262984D01*
X101277525Y-62300500D01*
X101277528Y-62300500D01*
X101422472Y-62300500D01*
X101422475Y-62300500D01*
X101562485Y-62262984D01*
X101688015Y-62190509D01*
X101790509Y-62088015D01*
X101862984Y-61962485D01*
X101900500Y-61822475D01*
X101900500Y-61727525D01*
X104374500Y-61727525D01*
X104374500Y-61872475D01*
X104412016Y-62012485D01*
X104412017Y-62012488D01*
X104484488Y-62138011D01*
X104484490Y-62138013D01*
X104484491Y-62138015D01*
X104586985Y-62240509D01*
X104586986Y-62240510D01*
X104586988Y-62240511D01*
X104712511Y-62312982D01*
X104712512Y-62312982D01*
X104712515Y-62312984D01*
X104852525Y-62350500D01*
X104852528Y-62350500D01*
X104997472Y-62350500D01*
X104997475Y-62350500D01*
X105137485Y-62312984D01*
X105263015Y-62240509D01*
X105365509Y-62138015D01*
X105437984Y-62012485D01*
X105475500Y-61872475D01*
X105475500Y-61727525D01*
X105455404Y-61652525D01*
X107849500Y-61652525D01*
X107849500Y-61797475D01*
X107874833Y-61892017D01*
X107887017Y-61937488D01*
X107959488Y-62063011D01*
X107959490Y-62063013D01*
X107959491Y-62063015D01*
X108061985Y-62165509D01*
X108061986Y-62165510D01*
X108061988Y-62165511D01*
X108187511Y-62237982D01*
X108187512Y-62237982D01*
X108187515Y-62237984D01*
X108327525Y-62275500D01*
X108327528Y-62275500D01*
X108472472Y-62275500D01*
X108472475Y-62275500D01*
X108612485Y-62237984D01*
X108738015Y-62165509D01*
X108840509Y-62063015D01*
X108912984Y-61937485D01*
X108950500Y-61797475D01*
X108950500Y-61652525D01*
X108912984Y-61512515D01*
X108883810Y-61461985D01*
X108840511Y-61386988D01*
X108840506Y-61386982D01*
X108738017Y-61284493D01*
X108738011Y-61284488D01*
X108612488Y-61212017D01*
X108612489Y-61212017D01*
X108601006Y-61208940D01*
X108472475Y-61174500D01*
X108327525Y-61174500D01*
X108198993Y-61208940D01*
X108187511Y-61212017D01*
X108061988Y-61284488D01*
X108061982Y-61284493D01*
X107959493Y-61386982D01*
X107959488Y-61386988D01*
X107887017Y-61512511D01*
X107887016Y-61512515D01*
X107849500Y-61652525D01*
X105455404Y-61652525D01*
X105437984Y-61587515D01*
X105409116Y-61537515D01*
X105365511Y-61461988D01*
X105365506Y-61461982D01*
X105263017Y-61359493D01*
X105263011Y-61359488D01*
X105137488Y-61287017D01*
X105137489Y-61287017D01*
X105126006Y-61283940D01*
X104997475Y-61249500D01*
X104852525Y-61249500D01*
X104723993Y-61283940D01*
X104712511Y-61287017D01*
X104586988Y-61359488D01*
X104586982Y-61359493D01*
X104484493Y-61461982D01*
X104484488Y-61461988D01*
X104412017Y-61587511D01*
X104412016Y-61587515D01*
X104374500Y-61727525D01*
X101900500Y-61727525D01*
X101900500Y-61677525D01*
X101862984Y-61537515D01*
X101848550Y-61512515D01*
X101790511Y-61411988D01*
X101790506Y-61411982D01*
X101688017Y-61309493D01*
X101688011Y-61309488D01*
X101562488Y-61237017D01*
X101562489Y-61237017D01*
X101551006Y-61233940D01*
X101422475Y-61199500D01*
X101277525Y-61199500D01*
X101148993Y-61233940D01*
X101137511Y-61237017D01*
X101011988Y-61309488D01*
X101011982Y-61309493D01*
X100909493Y-61411982D01*
X100909488Y-61411988D01*
X100837017Y-61537511D01*
X100837016Y-61537515D01*
X100799500Y-61677525D01*
X56178499Y-61677525D01*
X56178499Y-58351577D01*
X66124500Y-58351577D01*
X66124500Y-58548422D01*
X66155290Y-58742826D01*
X66216117Y-58930029D01*
X66286334Y-59067837D01*
X66305476Y-59105405D01*
X66421172Y-59264646D01*
X66560354Y-59403828D01*
X66719595Y-59519524D01*
X66802455Y-59561743D01*
X66894970Y-59608882D01*
X66894972Y-59608882D01*
X66894975Y-59608884D01*
X66995317Y-59641487D01*
X67082173Y-59669709D01*
X67276578Y-59700500D01*
X67276583Y-59700500D01*
X67473422Y-59700500D01*
X67667826Y-59669709D01*
X67855025Y-59608884D01*
X68030405Y-59519524D01*
X68189646Y-59403828D01*
X68328828Y-59264646D01*
X68444524Y-59105405D01*
X68533884Y-58930025D01*
X68594709Y-58742826D01*
X68613340Y-58625196D01*
X68625500Y-58548422D01*
X68625500Y-58351577D01*
X68594709Y-58157173D01*
X68539746Y-57988017D01*
X68533884Y-57969975D01*
X68533882Y-57969972D01*
X68533882Y-57969970D01*
X68471211Y-57846971D01*
X68444524Y-57794595D01*
X68328828Y-57635354D01*
X68245999Y-57552525D01*
X100774500Y-57552525D01*
X100774500Y-57697475D01*
X100800524Y-57794595D01*
X100812017Y-57837488D01*
X100884488Y-57963011D01*
X100884490Y-57963013D01*
X100884491Y-57963015D01*
X100986985Y-58065509D01*
X100986986Y-58065510D01*
X100986988Y-58065511D01*
X101112511Y-58137982D01*
X101112512Y-58137982D01*
X101112515Y-58137984D01*
X101252525Y-58175500D01*
X101252528Y-58175500D01*
X101397472Y-58175500D01*
X101397475Y-58175500D01*
X101537485Y-58137984D01*
X101663015Y-58065509D01*
X101765509Y-57963015D01*
X101837984Y-57837485D01*
X101875500Y-57697475D01*
X101875500Y-57577525D01*
X104324500Y-57577525D01*
X104324500Y-57722475D01*
X104355394Y-57837770D01*
X104362017Y-57862488D01*
X104434488Y-57988011D01*
X104434490Y-57988013D01*
X104434491Y-57988015D01*
X104536985Y-58090509D01*
X104536986Y-58090510D01*
X104536988Y-58090511D01*
X104662511Y-58162982D01*
X104662512Y-58162982D01*
X104662515Y-58162984D01*
X104802525Y-58200500D01*
X104802528Y-58200500D01*
X104947472Y-58200500D01*
X104947475Y-58200500D01*
X105087485Y-58162984D01*
X105213015Y-58090509D01*
X105315509Y-57988015D01*
X105387984Y-57862485D01*
X105425500Y-57722475D01*
X105425500Y-57577525D01*
X107824500Y-57577525D01*
X107824500Y-57722475D01*
X107855394Y-57837770D01*
X107862017Y-57862488D01*
X107934488Y-57988011D01*
X107934490Y-57988013D01*
X107934491Y-57988015D01*
X108036985Y-58090509D01*
X108036986Y-58090510D01*
X108036988Y-58090511D01*
X108162511Y-58162982D01*
X108162513Y-58162983D01*
X108162515Y-58162984D01*
X108199116Y-58172791D01*
X108258775Y-58209154D01*
X108289305Y-58272001D01*
X108281011Y-58341376D01*
X108267341Y-58365450D01*
X108226420Y-58421772D01*
X108122770Y-58625196D01*
X108052215Y-58842339D01*
X108016500Y-59067837D01*
X108016500Y-59296162D01*
X108052215Y-59521660D01*
X108122770Y-59738803D01*
X108205669Y-59901500D01*
X108226421Y-59942228D01*
X108360621Y-60126937D01*
X108522063Y-60288379D01*
X108706772Y-60422579D01*
X108802884Y-60471550D01*
X108910196Y-60526229D01*
X108910198Y-60526229D01*
X108910201Y-60526231D01*
X109026592Y-60564049D01*
X109127339Y-60596784D01*
X109352838Y-60632500D01*
X109352843Y-60632500D01*
X109581162Y-60632500D01*
X109806660Y-60596784D01*
X109871254Y-60575796D01*
X110023799Y-60526231D01*
X110227228Y-60422579D01*
X110411937Y-60288379D01*
X110573379Y-60126937D01*
X110707579Y-59942228D01*
X110811231Y-59738799D01*
X110881784Y-59521660D01*
X110900447Y-59403828D01*
X110917500Y-59296162D01*
X110917500Y-59067837D01*
X110881784Y-58842339D01*
X110811229Y-58625196D01*
X110707578Y-58421771D01*
X110598763Y-58272001D01*
X110573379Y-58237063D01*
X110411937Y-58075621D01*
X110227228Y-57941421D01*
X110023803Y-57837770D01*
X109806660Y-57767215D01*
X109581162Y-57731500D01*
X109581157Y-57731500D01*
X109352843Y-57731500D01*
X109352838Y-57731500D01*
X109127339Y-57767215D01*
X109087819Y-57780057D01*
X109017977Y-57782052D01*
X108958144Y-57745972D01*
X108927316Y-57683271D01*
X108925500Y-57662126D01*
X108925500Y-57577527D01*
X108925500Y-57577525D01*
X108887984Y-57437515D01*
X108873550Y-57412515D01*
X108815511Y-57311988D01*
X108815506Y-57311982D01*
X108713017Y-57209493D01*
X108713011Y-57209488D01*
X108587488Y-57137017D01*
X108587489Y-57137017D01*
X108576006Y-57133940D01*
X108447475Y-57099500D01*
X108302525Y-57099500D01*
X108173993Y-57133940D01*
X108162511Y-57137017D01*
X108036988Y-57209488D01*
X108036982Y-57209493D01*
X107934493Y-57311982D01*
X107934488Y-57311988D01*
X107862017Y-57437511D01*
X107862016Y-57437515D01*
X107824500Y-57577525D01*
X105425500Y-57577525D01*
X105387984Y-57437515D01*
X105373550Y-57412515D01*
X105315511Y-57311988D01*
X105315506Y-57311982D01*
X105213017Y-57209493D01*
X105213011Y-57209488D01*
X105087488Y-57137017D01*
X105087489Y-57137017D01*
X105076006Y-57133940D01*
X104947475Y-57099500D01*
X104802525Y-57099500D01*
X104673993Y-57133940D01*
X104662511Y-57137017D01*
X104536988Y-57209488D01*
X104536982Y-57209493D01*
X104434493Y-57311982D01*
X104434488Y-57311988D01*
X104362017Y-57437511D01*
X104362016Y-57437515D01*
X104324500Y-57577525D01*
X101875500Y-57577525D01*
X101875500Y-57552525D01*
X101837984Y-57412515D01*
X101819486Y-57380476D01*
X101765511Y-57286988D01*
X101765506Y-57286982D01*
X101663017Y-57184493D01*
X101663011Y-57184488D01*
X101537488Y-57112017D01*
X101537489Y-57112017D01*
X101526006Y-57108940D01*
X101397475Y-57074500D01*
X101252525Y-57074500D01*
X101123993Y-57108940D01*
X101112511Y-57112017D01*
X100986988Y-57184488D01*
X100986982Y-57184493D01*
X100884493Y-57286982D01*
X100884488Y-57286988D01*
X100812017Y-57412511D01*
X100812016Y-57412515D01*
X100774500Y-57552525D01*
X68245999Y-57552525D01*
X68189646Y-57496172D01*
X68030405Y-57380476D01*
X67855029Y-57291117D01*
X67667826Y-57230290D01*
X67473422Y-57199500D01*
X67473417Y-57199500D01*
X67276583Y-57199500D01*
X67276578Y-57199500D01*
X67082173Y-57230290D01*
X66894970Y-57291117D01*
X66719594Y-57380476D01*
X66675497Y-57412515D01*
X66560354Y-57496172D01*
X66560352Y-57496174D01*
X66560351Y-57496174D01*
X66421174Y-57635351D01*
X66421174Y-57635352D01*
X66421172Y-57635354D01*
X66401721Y-57662126D01*
X66305476Y-57794594D01*
X66216117Y-57969970D01*
X66155290Y-58157173D01*
X66124500Y-58351577D01*
X56178499Y-58351577D01*
X56178499Y-55302525D01*
X100799500Y-55302525D01*
X100799500Y-55447475D01*
X100812897Y-55497472D01*
X100837017Y-55587488D01*
X100909488Y-55713011D01*
X100909490Y-55713013D01*
X100909491Y-55713015D01*
X101011985Y-55815509D01*
X101011986Y-55815510D01*
X101011988Y-55815511D01*
X101137511Y-55887982D01*
X101137512Y-55887982D01*
X101137515Y-55887984D01*
X101277525Y-55925500D01*
X101277528Y-55925500D01*
X101422472Y-55925500D01*
X101422475Y-55925500D01*
X101562485Y-55887984D01*
X101688015Y-55815509D01*
X101790509Y-55713015D01*
X101862984Y-55587485D01*
X101900500Y-55447475D01*
X101900500Y-55302525D01*
X104324500Y-55302525D01*
X104324500Y-55447475D01*
X104337897Y-55497472D01*
X104362017Y-55587488D01*
X104434488Y-55713011D01*
X104434490Y-55713013D01*
X104434491Y-55713015D01*
X104536985Y-55815509D01*
X104536986Y-55815510D01*
X104536988Y-55815511D01*
X104662511Y-55887982D01*
X104662512Y-55887982D01*
X104662515Y-55887984D01*
X104802525Y-55925500D01*
X104802528Y-55925500D01*
X104947472Y-55925500D01*
X104947475Y-55925500D01*
X105087485Y-55887984D01*
X105213015Y-55815509D01*
X105315509Y-55713015D01*
X105387984Y-55587485D01*
X105425500Y-55447475D01*
X105425500Y-55352525D01*
X107749500Y-55352525D01*
X107749500Y-55497475D01*
X107787016Y-55637485D01*
X107787017Y-55637488D01*
X107859488Y-55763011D01*
X107859490Y-55763013D01*
X107859491Y-55763015D01*
X107961985Y-55865509D01*
X107961986Y-55865510D01*
X107961988Y-55865511D01*
X108087511Y-55937982D01*
X108087512Y-55937982D01*
X108087515Y-55937984D01*
X108227525Y-55975500D01*
X108227528Y-55975500D01*
X108372472Y-55975500D01*
X108372475Y-55975500D01*
X108512485Y-55937984D01*
X108638015Y-55865509D01*
X108740509Y-55763015D01*
X108812984Y-55637485D01*
X108850500Y-55497475D01*
X108850500Y-55352525D01*
X108812984Y-55212515D01*
X108784116Y-55162515D01*
X108740511Y-55086988D01*
X108740506Y-55086982D01*
X108638017Y-54984493D01*
X108638011Y-54984488D01*
X108512488Y-54912017D01*
X108512489Y-54912017D01*
X108501006Y-54908940D01*
X108372475Y-54874500D01*
X108227525Y-54874500D01*
X108098993Y-54908940D01*
X108087511Y-54912017D01*
X107961988Y-54984488D01*
X107961982Y-54984493D01*
X107859493Y-55086982D01*
X107859488Y-55086988D01*
X107787017Y-55212511D01*
X107787016Y-55212515D01*
X107749500Y-55352525D01*
X105425500Y-55352525D01*
X105425500Y-55302525D01*
X105387984Y-55162515D01*
X105344378Y-55086988D01*
X105315511Y-55036988D01*
X105315506Y-55036982D01*
X105213017Y-54934493D01*
X105213011Y-54934488D01*
X105087488Y-54862017D01*
X105087489Y-54862017D01*
X105076006Y-54858940D01*
X104947475Y-54824500D01*
X104802525Y-54824500D01*
X104673993Y-54858940D01*
X104662511Y-54862017D01*
X104536988Y-54934488D01*
X104536982Y-54934493D01*
X104434493Y-55036982D01*
X104434488Y-55036988D01*
X104362017Y-55162511D01*
X104362016Y-55162515D01*
X104324500Y-55302525D01*
X101900500Y-55302525D01*
X101862984Y-55162515D01*
X101819378Y-55086988D01*
X101790511Y-55036988D01*
X101790506Y-55036982D01*
X101688017Y-54934493D01*
X101688011Y-54934488D01*
X101562488Y-54862017D01*
X101562489Y-54862017D01*
X101551006Y-54858940D01*
X101422475Y-54824500D01*
X101277525Y-54824500D01*
X101148993Y-54858940D01*
X101137511Y-54862017D01*
X101011988Y-54934488D01*
X101011982Y-54934493D01*
X100909493Y-55036982D01*
X100909488Y-55036988D01*
X100837017Y-55162511D01*
X100837016Y-55162515D01*
X100799500Y-55302525D01*
X56178499Y-55302525D01*
X56178499Y-54232444D01*
X56178692Y-54225563D01*
X56195398Y-53928095D01*
X56196952Y-53914298D01*
X56246269Y-53624041D01*
X56249363Y-53610489D01*
X56259444Y-53575500D01*
X56330867Y-53327582D01*
X56335459Y-53314462D01*
X56392485Y-53176788D01*
X56448123Y-53042463D01*
X56454145Y-53029957D01*
X56496940Y-52952525D01*
X100724500Y-52952525D01*
X100724500Y-53097475D01*
X100755317Y-53212485D01*
X100762017Y-53237488D01*
X100834488Y-53363011D01*
X100834490Y-53363013D01*
X100834491Y-53363015D01*
X100936985Y-53465509D01*
X100936986Y-53465510D01*
X100936988Y-53465511D01*
X101062511Y-53537982D01*
X101062512Y-53537982D01*
X101062515Y-53537984D01*
X101202525Y-53575500D01*
X101202528Y-53575500D01*
X101347472Y-53575500D01*
X101347475Y-53575500D01*
X101487485Y-53537984D01*
X101613015Y-53465509D01*
X101715509Y-53363015D01*
X101787984Y-53237485D01*
X101825500Y-53097475D01*
X101825500Y-52952525D01*
X101818801Y-52927525D01*
X104299500Y-52927525D01*
X104299500Y-53072475D01*
X104327451Y-53176788D01*
X104337017Y-53212488D01*
X104409488Y-53338011D01*
X104409490Y-53338013D01*
X104409491Y-53338015D01*
X104511985Y-53440509D01*
X104511986Y-53440510D01*
X104511988Y-53440511D01*
X104637511Y-53512982D01*
X104637512Y-53512982D01*
X104637515Y-53512984D01*
X104777525Y-53550500D01*
X104777528Y-53550500D01*
X104922472Y-53550500D01*
X104922475Y-53550500D01*
X105062485Y-53512984D01*
X105188015Y-53440509D01*
X105290509Y-53338015D01*
X105362984Y-53212485D01*
X105400500Y-53072475D01*
X105400500Y-52952525D01*
X107674500Y-52952525D01*
X107674500Y-53097475D01*
X107705317Y-53212485D01*
X107712017Y-53237488D01*
X107784488Y-53363011D01*
X107784490Y-53363013D01*
X107784491Y-53363015D01*
X107886985Y-53465509D01*
X107886986Y-53465510D01*
X107886988Y-53465511D01*
X108012511Y-53537982D01*
X108012512Y-53537982D01*
X108012515Y-53537984D01*
X108152525Y-53575500D01*
X108152528Y-53575500D01*
X108297472Y-53575500D01*
X108297475Y-53575500D01*
X108437485Y-53537984D01*
X108563015Y-53465509D01*
X108665509Y-53363015D01*
X108737984Y-53237485D01*
X108775500Y-53097475D01*
X108775500Y-52952525D01*
X108737984Y-52812515D01*
X108723550Y-52787515D01*
X108665511Y-52686988D01*
X108665506Y-52686982D01*
X108563017Y-52584493D01*
X108563011Y-52584488D01*
X108437488Y-52512017D01*
X108437489Y-52512017D01*
X108426006Y-52508940D01*
X108297475Y-52474500D01*
X108152525Y-52474500D01*
X108023993Y-52508940D01*
X108012511Y-52512017D01*
X107886988Y-52584488D01*
X107886982Y-52584493D01*
X107784493Y-52686982D01*
X107784488Y-52686988D01*
X107712017Y-52812511D01*
X107712016Y-52812515D01*
X107674500Y-52952525D01*
X105400500Y-52952525D01*
X105400500Y-52927525D01*
X105362984Y-52787515D01*
X105347386Y-52760499D01*
X105290511Y-52661988D01*
X105290506Y-52661982D01*
X105188017Y-52559493D01*
X105188011Y-52559488D01*
X105062488Y-52487017D01*
X105062489Y-52487017D01*
X105051006Y-52483940D01*
X104922475Y-52449500D01*
X104777525Y-52449500D01*
X104648993Y-52483940D01*
X104637511Y-52487017D01*
X104511988Y-52559488D01*
X104511982Y-52559493D01*
X104409493Y-52661982D01*
X104409488Y-52661988D01*
X104337017Y-52787511D01*
X104337016Y-52787515D01*
X104299500Y-52927525D01*
X101818801Y-52927525D01*
X101787984Y-52812515D01*
X101773550Y-52787515D01*
X101715511Y-52686988D01*
X101715506Y-52686982D01*
X101613017Y-52584493D01*
X101613011Y-52584488D01*
X101487488Y-52512017D01*
X101487489Y-52512017D01*
X101476006Y-52508940D01*
X101347475Y-52474500D01*
X101202525Y-52474500D01*
X101073993Y-52508940D01*
X101062511Y-52512017D01*
X100936988Y-52584488D01*
X100936982Y-52584493D01*
X100834493Y-52686982D01*
X100834488Y-52686988D01*
X100762017Y-52812511D01*
X100762016Y-52812515D01*
X100724500Y-52952525D01*
X56496940Y-52952525D01*
X56596566Y-52772267D01*
X56603961Y-52760499D01*
X56656124Y-52686982D01*
X56774330Y-52520385D01*
X56782985Y-52509531D01*
X56979179Y-52289991D01*
X56988991Y-52280179D01*
X57208531Y-52083985D01*
X57219385Y-52075330D01*
X57459504Y-51904957D01*
X57471267Y-51897566D01*
X57728957Y-51755145D01*
X57741463Y-51749123D01*
X57984421Y-51648488D01*
X58013462Y-51636459D01*
X58026582Y-51631867D01*
X58309494Y-51550361D01*
X58323041Y-51547269D01*
X58613298Y-51497952D01*
X58627097Y-51496398D01*
X58887562Y-51481770D01*
X58924529Y-51479695D01*
X58931481Y-51479500D01*
X58993892Y-51479500D01*
X113102216Y-51479500D01*
X113169255Y-51499185D01*
G37*
%TD.AperFunction*%
%TD*%
%TA.AperFunction,Conductor*%
%TO.N,+36V*%
G36*
X133512539Y-55019685D02*
G01*
X133558294Y-55072489D01*
X133569500Y-55124000D01*
X133569500Y-63020500D01*
X133549815Y-63087539D01*
X133497011Y-63133294D01*
X133445500Y-63144500D01*
X113861729Y-63144500D01*
X113834433Y-63145963D01*
X113834428Y-63145963D01*
X113834416Y-63145964D01*
X113834408Y-63145964D01*
X113834379Y-63145967D01*
X113808057Y-63148797D01*
X113808055Y-63148798D01*
X113712926Y-63178586D01*
X113712916Y-63178590D01*
X113651606Y-63212068D01*
X113651598Y-63212073D01*
X113593387Y-63255649D01*
X113593377Y-63255658D01*
X113539366Y-63309669D01*
X113485353Y-63363682D01*
X113458422Y-63378388D01*
X113432609Y-63394977D01*
X113426409Y-63395868D01*
X113424033Y-63397166D01*
X113397674Y-63400000D01*
X113374000Y-63400000D01*
X113306961Y-63380315D01*
X113261206Y-63327511D01*
X113250000Y-63276000D01*
X113250000Y-62250324D01*
X113269685Y-62183285D01*
X113286314Y-62162647D01*
X113391099Y-62057863D01*
X113409537Y-62037315D01*
X113426306Y-62016463D01*
X113426466Y-62016264D01*
X113472496Y-61927835D01*
X113472496Y-61927832D01*
X113472498Y-61927830D01*
X113491138Y-61863870D01*
X113492046Y-61860756D01*
X113502251Y-61788751D01*
X113501909Y-61618869D01*
X113501001Y-61168726D01*
X123957400Y-61168726D01*
X123957400Y-61374073D01*
X123989524Y-61576896D01*
X123989524Y-61576899D01*
X124052978Y-61772190D01*
X124098105Y-61860756D01*
X124146206Y-61955159D01*
X124266907Y-62121290D01*
X124412110Y-62266493D01*
X124578241Y-62387194D01*
X124689407Y-62443836D01*
X124761209Y-62480421D01*
X124956501Y-62543875D01*
X124956502Y-62543875D01*
X124956505Y-62543876D01*
X125159326Y-62576000D01*
X125159327Y-62576000D01*
X125364673Y-62576000D01*
X125364674Y-62576000D01*
X125567495Y-62543876D01*
X125567498Y-62543875D01*
X125567499Y-62543875D01*
X125762790Y-62480421D01*
X125762790Y-62480420D01*
X125762793Y-62480420D01*
X125945759Y-62387194D01*
X126111890Y-62266493D01*
X126257093Y-62121290D01*
X126377794Y-61955159D01*
X126471020Y-61772193D01*
X126488416Y-61718653D01*
X126534475Y-61576899D01*
X126534475Y-61576898D01*
X126534476Y-61576895D01*
X126566600Y-61374074D01*
X126566600Y-61168726D01*
X126534476Y-60965905D01*
X126534475Y-60965901D01*
X126534475Y-60965900D01*
X126471021Y-60770609D01*
X126448748Y-60726896D01*
X126377794Y-60587641D01*
X126257093Y-60421510D01*
X126111890Y-60276307D01*
X125945759Y-60155606D01*
X125762790Y-60062378D01*
X125567498Y-59998924D01*
X125415379Y-59974831D01*
X125364674Y-59966800D01*
X125159326Y-59966800D01*
X125091719Y-59977508D01*
X124956503Y-59998924D01*
X124956500Y-59998924D01*
X124761209Y-60062378D01*
X124578240Y-60155606D01*
X124412107Y-60276309D01*
X124266909Y-60421507D01*
X124146206Y-60587640D01*
X124052978Y-60770609D01*
X123989524Y-60965900D01*
X123989524Y-60965903D01*
X123957400Y-61168726D01*
X113501001Y-61168726D01*
X113500992Y-61164104D01*
X113488815Y-55124250D01*
X113508365Y-55057171D01*
X113561076Y-55011310D01*
X113612815Y-55000000D01*
X133445500Y-55000000D01*
X133512539Y-55019685D01*
G37*
%TD.AperFunction*%
%TD*%
M02*
