%TF.GenerationSoftware,KiCad,Pcbnew,9.0.4*%
%TF.CreationDate,2026-03-24T17:38:09-05:00*%
%TF.ProjectId,Servo_Breakout,53657276-6f5f-4427-9265-616b6f75742e,A*%
%TF.SameCoordinates,Original*%
%TF.FileFunction,Paste,Top*%
%TF.FilePolarity,Positive*%
%FSLAX46Y46*%
G04 Gerber Fmt 4.6, Leading zero omitted, Abs format (unit mm)*
G04 Created by KiCad (PCBNEW 9.0.4) date 2026-03-24 17:38:09*
%MOMM*%
%LPD*%
G01*
G04 APERTURE LIST*
G04 Aperture macros list*
%AMRoundRect*
0 Rectangle with rounded corners*
0 $1 Rounding radius*
0 $2 $3 $4 $5 $6 $7 $8 $9 X,Y pos of 4 corners*
0 Add a 4 corners polygon primitive as box body*
4,1,4,$2,$3,$4,$5,$6,$7,$8,$9,$2,$3,0*
0 Add four circle primitives for the rounded corners*
1,1,$1+$1,$2,$3*
1,1,$1+$1,$4,$5*
1,1,$1+$1,$6,$7*
1,1,$1+$1,$8,$9*
0 Add four rect primitives between the rounded corners*
20,1,$1+$1,$2,$3,$4,$5,0*
20,1,$1+$1,$4,$5,$6,$7,0*
20,1,$1+$1,$6,$7,$8,$9,0*
20,1,$1+$1,$8,$9,$2,$3,0*%
G04 Aperture macros list end*
%ADD10C,0.000000*%
%ADD11RoundRect,0.250000X-0.475000X0.337500X-0.475000X-0.337500X0.475000X-0.337500X0.475000X0.337500X0*%
%ADD12RoundRect,0.250000X-0.450000X0.350000X-0.450000X-0.350000X0.450000X-0.350000X0.450000X0.350000X0*%
%ADD13RoundRect,0.218750X0.218750X0.256250X-0.218750X0.256250X-0.218750X-0.256250X0.218750X-0.256250X0*%
%ADD14RoundRect,0.250000X0.337500X0.475000X-0.337500X0.475000X-0.337500X-0.475000X0.337500X-0.475000X0*%
%ADD15RoundRect,0.250000X0.475000X-0.337500X0.475000X0.337500X-0.475000X0.337500X-0.475000X-0.337500X0*%
%ADD16R,2.413000X5.334000*%
%ADD17RoundRect,0.250000X0.350000X0.450000X-0.350000X0.450000X-0.350000X-0.450000X0.350000X-0.450000X0*%
%ADD18RoundRect,0.250000X-0.350000X-0.450000X0.350000X-0.450000X0.350000X0.450000X-0.350000X0.450000X0*%
%ADD19RoundRect,0.249999X-0.737501X-2.450001X0.737501X-2.450001X0.737501X2.450001X-0.737501X2.450001X0*%
%ADD20RoundRect,0.250000X0.450000X-0.350000X0.450000X0.350000X-0.450000X0.350000X-0.450000X-0.350000X0*%
%ADD21RoundRect,0.150000X0.587500X0.150000X-0.587500X0.150000X-0.587500X-0.150000X0.587500X-0.150000X0*%
%ADD22RoundRect,0.150000X-0.150000X0.512500X-0.150000X-0.512500X0.150000X-0.512500X0.150000X0.512500X0*%
%ADD23RoundRect,0.160000X-0.160000X0.245000X-0.160000X-0.245000X0.160000X-0.245000X0.160000X0.245000X0*%
%ADD24RoundRect,0.093750X-0.106250X0.093750X-0.106250X-0.093750X0.106250X-0.093750X0.106250X0.093750X0*%
%ADD25R,1.600000X0.300000*%
%ADD26RoundRect,0.249999X2.450001X-0.737501X2.450001X0.737501X-2.450001X0.737501X-2.450001X-0.737501X0*%
%ADD27R,2.209800X0.939800*%
%ADD28R,5.816600X5.461000*%
%ADD29RoundRect,0.100000X0.562500X0.100000X-0.562500X0.100000X-0.562500X-0.100000X0.562500X-0.100000X0*%
%ADD30R,1.461700X0.533400*%
G04 APERTURE END LIST*
D10*
%TO.C,U202*%
G36*
X94088800Y-67379000D02*
G01*
X91901200Y-67379000D01*
X91901200Y-65978800D01*
X94088800Y-65978800D01*
X94088800Y-67379000D01*
G37*
G36*
X94088800Y-68979200D02*
G01*
X91901200Y-68979200D01*
X91901200Y-67579000D01*
X94088800Y-67579000D01*
X94088800Y-68979200D01*
G37*
%TD*%
D11*
%TO.C,C205*%
X94095000Y-59716500D03*
X94095000Y-61791500D03*
%TD*%
D12*
%TO.C,R203*%
X84245000Y-74879000D03*
X84245000Y-76879000D03*
%TD*%
D13*
%TO.C,D101*%
X70137500Y-74025000D03*
X68562500Y-74025000D03*
%TD*%
D14*
%TO.C,C406*%
X115437500Y-79000000D03*
X113362500Y-79000000D03*
%TD*%
D15*
%TO.C,C206*%
X97870000Y-65541500D03*
X97870000Y-63466500D03*
%TD*%
D16*
%TO.C,L201*%
X79581000Y-55354000D03*
X86820000Y-55354000D03*
%TD*%
D17*
%TO.C,R206*%
X91745000Y-60129000D03*
X89745000Y-60129000D03*
%TD*%
D18*
%TO.C,R101*%
X63907500Y-74025000D03*
X65907500Y-74025000D03*
%TD*%
D15*
%TO.C,C405*%
X129600000Y-79557500D03*
X129600000Y-77482500D03*
%TD*%
%TO.C,C302*%
X139700000Y-57312500D03*
X139700000Y-55237500D03*
%TD*%
D18*
%TO.C,R207*%
X93970000Y-63654000D03*
X95970000Y-63654000D03*
%TD*%
D19*
%TO.C,C202*%
X81182500Y-62992000D03*
X86457500Y-62992000D03*
%TD*%
D17*
%TO.C,R209*%
X99675000Y-68825000D03*
X97675000Y-68825000D03*
%TD*%
D20*
%TO.C,R401*%
X132900000Y-77475000D03*
X132900000Y-75475000D03*
%TD*%
D12*
%TO.C,R204*%
X82320000Y-74854000D03*
X82320000Y-76854000D03*
%TD*%
%TO.C,R202*%
X86220000Y-74879000D03*
X86220000Y-76879000D03*
%TD*%
%TO.C,R205*%
X88200000Y-73100000D03*
X88200000Y-75100000D03*
%TD*%
D21*
%TO.C,Q101*%
X74725000Y-78950000D03*
X74725000Y-77050000D03*
X72850000Y-78000000D03*
%TD*%
D20*
%TO.C,R402*%
X137675000Y-64700000D03*
X137675000Y-62700000D03*
%TD*%
D22*
%TO.C,U404*%
X115150000Y-74662500D03*
X114200000Y-74662500D03*
X113250000Y-74662500D03*
X113250000Y-76937500D03*
X114200000Y-76937500D03*
X115150000Y-76937500D03*
%TD*%
D23*
%TO.C,U101*%
X137702000Y-56262500D03*
X136902000Y-56262500D03*
D24*
X137952000Y-55375000D03*
X137302000Y-55375000D03*
X136652000Y-55375000D03*
X136652000Y-57150000D03*
X137302000Y-57150000D03*
X137952000Y-57150000D03*
%TD*%
D20*
%TO.C,R404*%
X129575000Y-71435000D03*
X129575000Y-69435000D03*
%TD*%
D15*
%TO.C,C203*%
X90170000Y-76737500D03*
X90170000Y-74662500D03*
%TD*%
D12*
%TO.C,R201*%
X82320000Y-71079000D03*
X82320000Y-73079000D03*
%TD*%
D15*
%TO.C,C403*%
X131925000Y-67212500D03*
X131925000Y-65137500D03*
%TD*%
D25*
%TO.C,U301*%
X145880000Y-61122500D03*
X145880000Y-60472500D03*
X145880000Y-59822500D03*
X145880000Y-59172500D03*
X142480000Y-59172500D03*
X142480000Y-59822500D03*
X142480000Y-60472500D03*
X142480000Y-61122500D03*
%TD*%
D15*
%TO.C,C402*%
X132900000Y-73437500D03*
X132900000Y-71362500D03*
%TD*%
D13*
%TO.C,D102*%
X70137500Y-78000000D03*
X68562500Y-78000000D03*
%TD*%
D20*
%TO.C,R403*%
X141175000Y-65750000D03*
X141175000Y-63750000D03*
%TD*%
D18*
%TO.C,R208*%
X97675000Y-70800000D03*
X99675000Y-70800000D03*
%TD*%
D15*
%TO.C,C301*%
X147955000Y-60960000D03*
X147955000Y-58885000D03*
%TD*%
D11*
%TO.C,C204*%
X89645000Y-62004000D03*
X89645000Y-64079000D03*
%TD*%
D18*
%TO.C,R102*%
X63907500Y-78000000D03*
X65907500Y-78000000D03*
%TD*%
D26*
%TO.C,C207*%
X101920000Y-65491500D03*
X101920000Y-60216500D03*
%TD*%
D27*
%TO.C,U201*%
X98852512Y-57588557D03*
D28*
X91715112Y-55308556D03*
D27*
X98852512Y-53028555D03*
%TD*%
D29*
%TO.C,U402*%
X129887500Y-66050000D03*
X129887500Y-65400000D03*
X129887500Y-64750000D03*
X128112500Y-64750000D03*
X128112500Y-65400000D03*
X128112500Y-66050000D03*
%TD*%
D15*
%TO.C,C404*%
X129575000Y-75500000D03*
X129575000Y-73425000D03*
%TD*%
%TO.C,C401*%
X147725000Y-78262500D03*
X147725000Y-76187500D03*
%TD*%
D30*
%TO.C,U202*%
X90270248Y-65574000D03*
X90270248Y-66844000D03*
X90270248Y-68114000D03*
X90270248Y-69384000D03*
X95719752Y-69384000D03*
X95719752Y-68114000D03*
X95719752Y-66844000D03*
X95719752Y-65574000D03*
%TD*%
M02*
