M48
; DRILL file {KiCad 9.0.4} date 2026-04-15T22:03:55-0500
; FORMAT={-:-/ absolute / metric / decimal}
; #@! TF.CreationDate,2026-04-15T22:03:55-05:00
; #@! TF.GenerationSoftware,Kicad,Pcbnew,9.0.4
; #@! TF.FileFunction,Plated,1,4,PTH
FMAT,2
METRIC
; #@! TA.AperFunction,Plated,PTH,ViaDrill
T1C0.300
; #@! TA.AperFunction,Plated,PTH,ComponentDrill
T2C0.400
; #@! TA.AperFunction,Plated,PTH,ComponentDrill
T3C0.460
; #@! TA.AperFunction,Plated,PTH,ComponentDrill
T4C1.000
; #@! TA.AperFunction,Plated,PTH,ComponentDrill
T5C2.200
%
G90
G05
T1
X125.0Y-87.5
X125.0Y-90.0
X125.0Y-102.5
X125.0Y-105.0
X127.5Y-87.5
X127.5Y-90.0
X127.5Y-92.5
X127.5Y-95.0
X127.5Y-97.5
X127.5Y-100.0
X127.5Y-102.5
X129.5Y-82.0
X129.5Y-83.0
X129.5Y-84.0
X129.5Y-85.0
X130.0Y-87.5
X130.0Y-90.0
X130.0Y-92.5
X130.0Y-95.0
X130.5Y-85.5
X130.6Y-97.5
X130.6Y-99.6
X130.6Y-100.6
X131.2Y-95.1
X131.9Y-93.8
X131.9Y-96.4
X132.1Y-98.0
X132.2Y-99.6
X132.5Y-87.5
X132.5Y-92.5
X132.6Y-89.4
X132.9Y-93.8
X133.1Y-92.3
X133.3Y-88.6
X133.3Y-90.2
X133.3Y-97.4
X133.4Y-100.7
X133.8Y-93.1
X135.037Y-99.0
X135.8Y-103.3
X136.5Y-95.9
X136.6Y-96.8
X136.8Y-100.7
X136.8Y-103.2
X137.1Y-90.8
X137.1Y-94.1
X137.6Y-97.5
X137.7Y-103.4
X138.2Y-94.6
X138.5Y-91.3
X138.5Y-99.0
X138.8Y-97.1
X139.5Y-85.5
X140.0Y-87.5
X140.0Y-90.0
X140.0Y-92.5
X140.4Y-99.0
X140.5Y-82.0
X140.5Y-83.0
X140.5Y-84.0
X140.5Y-85.0
X140.5Y-94.5
X141.4Y-94.5
X142.1Y-100.4
X142.2Y-94.5
X142.5Y-87.5
X142.5Y-90.0
X142.5Y-92.5
X142.5Y-102.5
X142.6Y-95.7
X142.6Y-96.4
X142.6Y-99.0
X145.0Y-87.5
X145.0Y-90.0
X145.0Y-102.5
X145.0Y-105.0
T2
X123.85Y-83.5
X124.333Y-82.333
X124.333Y-84.667
X125.5Y-81.85
X125.5Y-85.15
X126.667Y-82.333
X126.667Y-84.667
X127.15Y-83.5
X142.85Y-83.5
X143.333Y-82.333
X143.333Y-84.667
X144.5Y-81.85
X144.5Y-85.15
X145.667Y-82.333
X145.667Y-84.667
X146.15Y-83.5
T3
X131.507Y-85.885
X138.493Y-85.885
T4
X125.0Y-92.38
X125.0Y-94.92
X125.0Y-97.46
X125.0Y-100.0
X128.65Y-105.0
X131.19Y-105.0
X133.73Y-105.0
X136.27Y-105.0
X138.81Y-105.0
X141.35Y-105.0
X145.0Y-92.38
X145.0Y-94.92
X145.0Y-97.46
X145.0Y-100.0
T5
X125.5Y-83.5
X144.5Y-83.5
M30
