%TF.GenerationSoftware,KiCad,Pcbnew,9.0.4*%
%TF.CreationDate,2026-04-15T22:03:50-05:00*%
%TF.ProjectId,cc1101,63633131-3031-42e6-9b69-6361645f7063,A*%
%TF.SameCoordinates,Original*%
%TF.FileFunction,Soldermask,Top*%
%TF.FilePolarity,Negative*%
%FSLAX46Y46*%
G04 Gerber Fmt 4.6, Leading zero omitted, Abs format (unit mm)*
G04 Created by KiCad (PCBNEW 9.0.4) date 2026-04-15 22:03:50*
%MOMM*%
%LPD*%
G01*
G04 APERTURE LIST*
G04 Aperture macros list*
%AMRoundRect*
0 Rectangle with rounded corners*
0 $1 Rounding radius*
0 $2 $3 $4 $5 $6 $7 $8 $9 X,Y pos of 4 corners*
0 Add a 4 corners polygon primitive as box body*
4,1,4,$2,$3,$4,$5,$6,$7,$8,$9,$2,$3,0*
0 Add four circle primitives for the rounded corners*
1,1,$1+$1,$2,$3*
1,1,$1+$1,$4,$5*
1,1,$1+$1,$6,$7*
1,1,$1+$1,$8,$9*
0 Add four rect primitives between the rounded corners*
20,1,$1+$1,$2,$3,$4,$5,0*
20,1,$1+$1,$4,$5,$6,$7,0*
20,1,$1+$1,$6,$7,$8,$9,0*
20,1,$1+$1,$8,$9,$2,$3,0*%
%AMFreePoly0*
4,1,33,1.690671,1.313470,1.771777,1.259277,1.825970,1.178171,1.845000,1.082500,1.845000,-1.082500,1.825970,-1.178171,1.771777,-1.259277,1.690671,-1.313470,1.595000,-1.332500,-1.595000,-1.332500,-1.690671,-1.313470,-1.771777,-1.259277,-1.825970,-1.178171,-1.845000,-1.082500,-1.845000,-0.230000,-2.735000,-0.230000,-2.779871,-0.225581,-2.862781,-0.191238,-2.926238,-0.127781,-2.960581,-0.044871,
-2.960581,0.044871,-2.926238,0.127781,-2.862781,0.191238,-2.779871,0.225581,-2.735000,0.230000,-1.845000,0.230000,-1.845000,1.082500,-1.825970,1.178171,-1.771777,1.259277,-1.690671,1.313470,-1.595000,1.332500,1.595000,1.332500,1.690671,1.313470,1.690671,1.313470,$1*%
G04 Aperture macros list end*
%ADD10RoundRect,0.140000X0.140000X0.170000X-0.140000X0.170000X-0.140000X-0.170000X0.140000X-0.170000X0*%
%ADD11RoundRect,0.250000X0.350000X-0.450000X0.350000X0.450000X-0.350000X0.450000X-0.350000X-0.450000X0*%
%ADD12RoundRect,0.147500X0.172500X-0.147500X0.172500X0.147500X-0.172500X0.147500X-0.172500X-0.147500X0*%
%ADD13C,1.700000*%
%ADD14R,1.700000X1.700000*%
%ADD15RoundRect,0.147500X-0.147500X-0.172500X0.147500X-0.172500X0.147500X0.172500X-0.147500X0.172500X0*%
%ADD16RoundRect,0.140000X-0.170000X0.140000X-0.170000X-0.140000X0.170000X-0.140000X0.170000X0.140000X0*%
%ADD17C,0.700000*%
%ADD18C,4.400000*%
%ADD19RoundRect,0.140000X0.170000X-0.140000X0.170000X0.140000X-0.170000X0.140000X-0.170000X-0.140000X0*%
%ADD20RoundRect,0.140000X-0.140000X-0.170000X0.140000X-0.170000X0.140000X0.170000X-0.140000X0.170000X0*%
%ADD21RoundRect,0.250000X0.640000X-1.595000X0.640000X1.595000X-0.640000X1.595000X-0.640000X-1.595000X0*%
%ADD22FreePoly0,90.000000*%
%ADD23RoundRect,0.135000X0.185000X-0.135000X0.185000X0.135000X-0.185000X0.135000X-0.185000X-0.135000X0*%
%ADD24RoundRect,0.147500X0.147500X0.172500X-0.147500X0.172500X-0.147500X-0.172500X0.147500X-0.172500X0*%
%ADD25RoundRect,0.062500X0.062500X-0.350000X0.062500X0.350000X-0.062500X0.350000X-0.062500X-0.350000X0*%
%ADD26RoundRect,0.062500X0.350000X-0.062500X0.350000X0.062500X-0.350000X0.062500X-0.350000X-0.062500X0*%
%ADD27R,2.700000X2.700000*%
G04 APERTURE END LIST*
D10*
%TO.C,C116*%
X136780000Y-102500000D03*
X135820000Y-102500000D03*
%TD*%
D11*
%TO.C,Y101*%
X141350000Y-98100000D03*
X141350000Y-95900000D03*
X139650000Y-95900000D03*
X139650000Y-98100000D03*
%TD*%
D12*
%TO.C,L102*%
X135800000Y-95185000D03*
X135800000Y-94215000D03*
%TD*%
D13*
%TO.C,J102*%
X141350000Y-105000000D03*
X138810000Y-105000000D03*
X136270000Y-105000000D03*
X133730000Y-105000000D03*
X131190000Y-105000000D03*
D14*
X128650000Y-105000000D03*
%TD*%
D15*
%TO.C,L106*%
X135315000Y-88400000D03*
X136285000Y-88400000D03*
%TD*%
D16*
%TO.C,C114*%
X137100000Y-94820000D03*
X137100000Y-95780000D03*
%TD*%
D17*
%TO.C,H101*%
X123850000Y-83500000D03*
X124333274Y-82333274D03*
X124333274Y-84666726D03*
X125500000Y-81850000D03*
D18*
X125500000Y-83500000D03*
D17*
X125500000Y-85150000D03*
X126666726Y-82333274D03*
X126666726Y-84666726D03*
X127150000Y-83500000D03*
%TD*%
D12*
%TO.C,L101*%
X134800000Y-95185000D03*
X134800000Y-94215000D03*
%TD*%
%TO.C,L105*%
X135300000Y-90400000D03*
X135300000Y-89430000D03*
%TD*%
D19*
%TO.C,C111*%
X131400000Y-100380000D03*
X131400000Y-99420000D03*
%TD*%
D12*
%TO.C,L104*%
X134300000Y-91385000D03*
X134300000Y-90415000D03*
%TD*%
D16*
%TO.C,C101*%
X137700000Y-101820000D03*
X137700000Y-102780000D03*
%TD*%
D20*
%TO.C,C113*%
X131920000Y-94600000D03*
X132880000Y-94600000D03*
%TD*%
%TO.C,C109*%
X136320000Y-87400000D03*
X137280000Y-87400000D03*
%TD*%
D16*
%TO.C,C115*%
X138200000Y-97420000D03*
X138200000Y-98380000D03*
%TD*%
D21*
%TO.C,J101*%
X135000000Y-83150000D03*
D22*
X131507500Y-83150000D03*
X138492500Y-83150000D03*
%TD*%
D17*
%TO.C,H102*%
X142850000Y-83500000D03*
X143333274Y-82333274D03*
X143333274Y-84666726D03*
X144500000Y-81850000D03*
D18*
X144500000Y-83500000D03*
D17*
X144500000Y-85150000D03*
X145666726Y-82333274D03*
X145666726Y-84666726D03*
X146150000Y-83500000D03*
%TD*%
D20*
%TO.C,C112*%
X131920000Y-95600000D03*
X132880000Y-95600000D03*
%TD*%
%TO.C,C110*%
X136320000Y-89400000D03*
X137280000Y-89400000D03*
%TD*%
D10*
%TO.C,C106*%
X134780000Y-92300000D03*
X133820000Y-92300000D03*
%TD*%
D16*
%TO.C,C102*%
X138200000Y-95320000D03*
X138200000Y-96280000D03*
%TD*%
D14*
%TO.C,J104*%
X145000000Y-92380000D03*
D13*
X145000000Y-94920000D03*
X145000000Y-97460000D03*
X145000000Y-100000000D03*
%TD*%
D23*
%TO.C,R101*%
X131400000Y-98510000D03*
X131400000Y-97490000D03*
%TD*%
D24*
%TO.C,L103*%
X136800000Y-92300000D03*
X135830000Y-92300000D03*
%TD*%
D19*
%TO.C,C105*%
X136300000Y-91380000D03*
X136300000Y-90420000D03*
%TD*%
D10*
%TO.C,C103*%
X142080000Y-99600000D03*
X141120000Y-99600000D03*
%TD*%
D25*
%TO.C,U101*%
X134037500Y-100962500D03*
X134537500Y-100962500D03*
X135037500Y-100962500D03*
X135537500Y-100962500D03*
X136037500Y-100962500D03*
D26*
X137000000Y-100000000D03*
X137000000Y-99500000D03*
X137000000Y-99000000D03*
X137000000Y-98500000D03*
X137000000Y-98000000D03*
D25*
X136037500Y-97037500D03*
X135537500Y-97037500D03*
X135037500Y-97037500D03*
X134537500Y-97037500D03*
X134037500Y-97037500D03*
D26*
X133075000Y-98000000D03*
X133075000Y-98500000D03*
X133075000Y-99000000D03*
X133075000Y-99500000D03*
X133075000Y-100000000D03*
D27*
X135037500Y-99000000D03*
%TD*%
D20*
%TO.C,C107*%
X133320000Y-89400000D03*
X134280000Y-89400000D03*
%TD*%
D16*
%TO.C,C108*%
X137700000Y-91320000D03*
X137700000Y-92280000D03*
%TD*%
D12*
%TO.C,L107*%
X138200000Y-89385000D03*
X138200000Y-88415000D03*
%TD*%
D10*
%TO.C,C104*%
X135780000Y-93300000D03*
X134820000Y-93300000D03*
%TD*%
D14*
%TO.C,J103*%
X125000000Y-92380000D03*
D13*
X125000000Y-94920000D03*
X125000000Y-97460000D03*
X125000000Y-100000000D03*
%TD*%
M02*
