%TF.GenerationSoftware,KiCad,Pcbnew,9.0.4*%
%TF.CreationDate,2026-04-15T21:57:54-05:00*%
%TF.ProjectId,controller,636f6e74-726f-46c6-9c65-722e6b696361,A*%
%TF.SameCoordinates,Original*%
%TF.FileFunction,Legend,Bot*%
%TF.FilePolarity,Positive*%
%FSLAX46Y46*%
G04 Gerber Fmt 4.6, Leading zero omitted, Abs format (unit mm)*
G04 Created by KiCad (PCBNEW 9.0.4) date 2026-04-15 21:57:54*
%MOMM*%
%LPD*%
G01*
G04 APERTURE LIST*
G04 Aperture macros list*
%AMRoundRect*
0 Rectangle with rounded corners*
0 $1 Rounding radius*
0 $2 $3 $4 $5 $6 $7 $8 $9 X,Y pos of 4 corners*
0 Add a 4 corners polygon primitive as box body*
4,1,4,$2,$3,$4,$5,$6,$7,$8,$9,$2,$3,0*
0 Add four circle primitives for the rounded corners*
1,1,$1+$1,$2,$3*
1,1,$1+$1,$4,$5*
1,1,$1+$1,$6,$7*
1,1,$1+$1,$8,$9*
0 Add four rect primitives between the rounded corners*
20,1,$1+$1,$2,$3,$4,$5,0*
20,1,$1+$1,$4,$5,$6,$7,0*
20,1,$1+$1,$6,$7,$8,$9,0*
20,1,$1+$1,$8,$9,$2,$3,0*%
G04 Aperture macros list end*
%ADD10C,0.200000*%
%ADD11C,0.150000*%
%ADD12C,0.400000*%
%ADD13C,0.300000*%
%ADD14C,0.000000*%
%ADD15C,0.120000*%
%ADD16C,1.440000*%
%ADD17R,1.700000X1.700000*%
%ADD18C,1.700000*%
%ADD19RoundRect,0.225000X-0.225000X-0.250000X0.225000X-0.250000X0.225000X0.250000X-0.225000X0.250000X0*%
%ADD20RoundRect,0.200000X0.200000X0.275000X-0.200000X0.275000X-0.200000X-0.275000X0.200000X-0.275000X0*%
%ADD21RoundRect,0.200000X0.275000X-0.200000X0.275000X0.200000X-0.275000X0.200000X-0.275000X-0.200000X0*%
%ADD22RoundRect,0.200000X-0.275000X0.200000X-0.275000X-0.200000X0.275000X-0.200000X0.275000X0.200000X0*%
%ADD23RoundRect,0.225000X-0.250000X0.225000X-0.250000X-0.225000X0.250000X-0.225000X0.250000X0.225000X0*%
%ADD24RoundRect,0.050000X-0.325000X-0.050000X0.325000X-0.050000X0.325000X0.050000X-0.325000X0.050000X0*%
%ADD25R,0.900000X1.500000*%
%ADD26RoundRect,0.225000X0.225000X0.250000X-0.225000X0.250000X-0.225000X-0.250000X0.225000X-0.250000X0*%
%ADD27RoundRect,0.200000X-0.200000X-0.275000X0.200000X-0.275000X0.200000X0.275000X-0.200000X0.275000X0*%
%ADD28RoundRect,0.225000X0.250000X-0.225000X0.250000X0.225000X-0.250000X0.225000X-0.250000X-0.225000X0*%
%ADD29RoundRect,0.062500X-0.062500X0.350000X-0.062500X-0.350000X0.062500X-0.350000X0.062500X0.350000X0*%
%ADD30R,0.650000X0.350000*%
%ADD31R,1.550000X2.400000*%
%ADD32RoundRect,0.075000X-0.075000X0.662500X-0.075000X-0.662500X0.075000X-0.662500X0.075000X0.662500X0*%
%ADD33RoundRect,0.075000X-0.662500X0.075000X-0.662500X-0.075000X0.662500X-0.075000X0.662500X0.075000X0*%
%ADD34C,0.650000*%
%ADD35RoundRect,0.150000X0.150000X0.425000X-0.150000X0.425000X-0.150000X-0.425000X0.150000X-0.425000X0*%
%ADD36RoundRect,0.075000X0.075000X0.500000X-0.075000X0.500000X-0.075000X-0.500000X0.075000X-0.500000X0*%
%ADD37O,1.000000X1.800000*%
%ADD38O,1.000000X2.100000*%
%ADD39RoundRect,0.250000X0.350000X0.625000X-0.350000X0.625000X-0.350000X-0.625000X0.350000X-0.625000X0*%
%ADD40O,1.200000X1.750000*%
G04 APERTURE END LIST*
D10*
X157417292Y-122619838D02*
X157512530Y-122572219D01*
X157512530Y-122572219D02*
X157655387Y-122572219D01*
X157655387Y-122572219D02*
X157798244Y-122619838D01*
X157798244Y-122619838D02*
X157893482Y-122715076D01*
X157893482Y-122715076D02*
X157941101Y-122810314D01*
X157941101Y-122810314D02*
X157988720Y-123000790D01*
X157988720Y-123000790D02*
X157988720Y-123143647D01*
X157988720Y-123143647D02*
X157941101Y-123334123D01*
X157941101Y-123334123D02*
X157893482Y-123429361D01*
X157893482Y-123429361D02*
X157798244Y-123524600D01*
X157798244Y-123524600D02*
X157655387Y-123572219D01*
X157655387Y-123572219D02*
X157560149Y-123572219D01*
X157560149Y-123572219D02*
X157417292Y-123524600D01*
X157417292Y-123524600D02*
X157369673Y-123476980D01*
X157369673Y-123476980D02*
X157369673Y-123143647D01*
X157369673Y-123143647D02*
X157560149Y-123143647D01*
X156941101Y-123572219D02*
X156941101Y-122572219D01*
X156941101Y-122572219D02*
X156369673Y-123572219D01*
X156369673Y-123572219D02*
X156369673Y-122572219D01*
X155893482Y-123572219D02*
X155893482Y-122572219D01*
X155893482Y-122572219D02*
X155655387Y-122572219D01*
X155655387Y-122572219D02*
X155512530Y-122619838D01*
X155512530Y-122619838D02*
X155417292Y-122715076D01*
X155417292Y-122715076D02*
X155369673Y-122810314D01*
X155369673Y-122810314D02*
X155322054Y-123000790D01*
X155322054Y-123000790D02*
X155322054Y-123143647D01*
X155322054Y-123143647D02*
X155369673Y-123334123D01*
X155369673Y-123334123D02*
X155417292Y-123429361D01*
X155417292Y-123429361D02*
X155512530Y-123524600D01*
X155512530Y-123524600D02*
X155655387Y-123572219D01*
X155655387Y-123572219D02*
X155893482Y-123572219D01*
X157036340Y-121032219D02*
X157369673Y-120556028D01*
X157607768Y-121032219D02*
X157607768Y-120032219D01*
X157607768Y-120032219D02*
X157226816Y-120032219D01*
X157226816Y-120032219D02*
X157131578Y-120079838D01*
X157131578Y-120079838D02*
X157083959Y-120127457D01*
X157083959Y-120127457D02*
X157036340Y-120222695D01*
X157036340Y-120222695D02*
X157036340Y-120365552D01*
X157036340Y-120365552D02*
X157083959Y-120460790D01*
X157083959Y-120460790D02*
X157131578Y-120508409D01*
X157131578Y-120508409D02*
X157226816Y-120556028D01*
X157226816Y-120556028D02*
X157607768Y-120556028D01*
X156655387Y-120984600D02*
X156512530Y-121032219D01*
X156512530Y-121032219D02*
X156274435Y-121032219D01*
X156274435Y-121032219D02*
X156179197Y-120984600D01*
X156179197Y-120984600D02*
X156131578Y-120936980D01*
X156131578Y-120936980D02*
X156083959Y-120841742D01*
X156083959Y-120841742D02*
X156083959Y-120746504D01*
X156083959Y-120746504D02*
X156131578Y-120651266D01*
X156131578Y-120651266D02*
X156179197Y-120603647D01*
X156179197Y-120603647D02*
X156274435Y-120556028D01*
X156274435Y-120556028D02*
X156464911Y-120508409D01*
X156464911Y-120508409D02*
X156560149Y-120460790D01*
X156560149Y-120460790D02*
X156607768Y-120413171D01*
X156607768Y-120413171D02*
X156655387Y-120317933D01*
X156655387Y-120317933D02*
X156655387Y-120222695D01*
X156655387Y-120222695D02*
X156607768Y-120127457D01*
X156607768Y-120127457D02*
X156560149Y-120079838D01*
X156560149Y-120079838D02*
X156464911Y-120032219D01*
X156464911Y-120032219D02*
X156226816Y-120032219D01*
X156226816Y-120032219D02*
X156083959Y-120079838D01*
X155798244Y-120032219D02*
X155226816Y-120032219D01*
X155512530Y-121032219D02*
X155512530Y-120032219D01*
X157131578Y-118396980D02*
X157179197Y-118444600D01*
X157179197Y-118444600D02*
X157322054Y-118492219D01*
X157322054Y-118492219D02*
X157417292Y-118492219D01*
X157417292Y-118492219D02*
X157560149Y-118444600D01*
X157560149Y-118444600D02*
X157655387Y-118349361D01*
X157655387Y-118349361D02*
X157703006Y-118254123D01*
X157703006Y-118254123D02*
X157750625Y-118063647D01*
X157750625Y-118063647D02*
X157750625Y-117920790D01*
X157750625Y-117920790D02*
X157703006Y-117730314D01*
X157703006Y-117730314D02*
X157655387Y-117635076D01*
X157655387Y-117635076D02*
X157560149Y-117539838D01*
X157560149Y-117539838D02*
X157417292Y-117492219D01*
X157417292Y-117492219D02*
X157322054Y-117492219D01*
X157322054Y-117492219D02*
X157179197Y-117539838D01*
X157179197Y-117539838D02*
X157131578Y-117587457D01*
X156226816Y-118492219D02*
X156703006Y-118492219D01*
X156703006Y-118492219D02*
X156703006Y-117492219D01*
X155893482Y-118492219D02*
X155893482Y-117492219D01*
X155322054Y-118492219D02*
X155750625Y-117920790D01*
X155322054Y-117492219D02*
X155893482Y-118063647D01*
X157417291Y-115952219D02*
X157417291Y-114952219D01*
X157417291Y-114952219D02*
X157179196Y-114952219D01*
X157179196Y-114952219D02*
X157036339Y-114999838D01*
X157036339Y-114999838D02*
X156941101Y-115095076D01*
X156941101Y-115095076D02*
X156893482Y-115190314D01*
X156893482Y-115190314D02*
X156845863Y-115380790D01*
X156845863Y-115380790D02*
X156845863Y-115523647D01*
X156845863Y-115523647D02*
X156893482Y-115714123D01*
X156893482Y-115714123D02*
X156941101Y-115809361D01*
X156941101Y-115809361D02*
X157036339Y-115904600D01*
X157036339Y-115904600D02*
X157179196Y-115952219D01*
X157179196Y-115952219D02*
X157417291Y-115952219D01*
X156417291Y-115952219D02*
X156417291Y-114952219D01*
X155750625Y-114952219D02*
X155560149Y-114952219D01*
X155560149Y-114952219D02*
X155464911Y-114999838D01*
X155464911Y-114999838D02*
X155369673Y-115095076D01*
X155369673Y-115095076D02*
X155322054Y-115285552D01*
X155322054Y-115285552D02*
X155322054Y-115618885D01*
X155322054Y-115618885D02*
X155369673Y-115809361D01*
X155369673Y-115809361D02*
X155464911Y-115904600D01*
X155464911Y-115904600D02*
X155560149Y-115952219D01*
X155560149Y-115952219D02*
X155750625Y-115952219D01*
X155750625Y-115952219D02*
X155845863Y-115904600D01*
X155845863Y-115904600D02*
X155941101Y-115809361D01*
X155941101Y-115809361D02*
X155988720Y-115618885D01*
X155988720Y-115618885D02*
X155988720Y-115285552D01*
X155988720Y-115285552D02*
X155941101Y-115095076D01*
X155941101Y-115095076D02*
X155845863Y-114999838D01*
X155845863Y-114999838D02*
X155750625Y-114952219D01*
X157750625Y-112412219D02*
X157131578Y-112412219D01*
X157131578Y-112412219D02*
X157464911Y-112793171D01*
X157464911Y-112793171D02*
X157322054Y-112793171D01*
X157322054Y-112793171D02*
X157226816Y-112840790D01*
X157226816Y-112840790D02*
X157179197Y-112888409D01*
X157179197Y-112888409D02*
X157131578Y-112983647D01*
X157131578Y-112983647D02*
X157131578Y-113221742D01*
X157131578Y-113221742D02*
X157179197Y-113316980D01*
X157179197Y-113316980D02*
X157226816Y-113364600D01*
X157226816Y-113364600D02*
X157322054Y-113412219D01*
X157322054Y-113412219D02*
X157607768Y-113412219D01*
X157607768Y-113412219D02*
X157703006Y-113364600D01*
X157703006Y-113364600D02*
X157750625Y-113316980D01*
X156845863Y-112412219D02*
X156512530Y-113412219D01*
X156512530Y-113412219D02*
X156179197Y-112412219D01*
X155941101Y-112412219D02*
X155322054Y-112412219D01*
X155322054Y-112412219D02*
X155655387Y-112793171D01*
X155655387Y-112793171D02*
X155512530Y-112793171D01*
X155512530Y-112793171D02*
X155417292Y-112840790D01*
X155417292Y-112840790D02*
X155369673Y-112888409D01*
X155369673Y-112888409D02*
X155322054Y-112983647D01*
X155322054Y-112983647D02*
X155322054Y-113221742D01*
X155322054Y-113221742D02*
X155369673Y-113316980D01*
X155369673Y-113316980D02*
X155417292Y-113364600D01*
X155417292Y-113364600D02*
X155512530Y-113412219D01*
X155512530Y-113412219D02*
X155798244Y-113412219D01*
X155798244Y-113412219D02*
X155893482Y-113364600D01*
X155893482Y-113364600D02*
X155941101Y-113316980D01*
D11*
X151491666Y-98439866D02*
X151524999Y-98473200D01*
X151524999Y-98473200D02*
X151624999Y-98506533D01*
X151624999Y-98506533D02*
X151691666Y-98506533D01*
X151691666Y-98506533D02*
X151791666Y-98473200D01*
X151791666Y-98473200D02*
X151858333Y-98406533D01*
X151858333Y-98406533D02*
X151891666Y-98339866D01*
X151891666Y-98339866D02*
X151924999Y-98206533D01*
X151924999Y-98206533D02*
X151924999Y-98106533D01*
X151924999Y-98106533D02*
X151891666Y-97973200D01*
X151891666Y-97973200D02*
X151858333Y-97906533D01*
X151858333Y-97906533D02*
X151791666Y-97839866D01*
X151791666Y-97839866D02*
X151691666Y-97806533D01*
X151691666Y-97806533D02*
X151624999Y-97806533D01*
X151624999Y-97806533D02*
X151524999Y-97839866D01*
X151524999Y-97839866D02*
X151491666Y-97873200D01*
X151224999Y-98473200D02*
X151124999Y-98506533D01*
X151124999Y-98506533D02*
X150958333Y-98506533D01*
X150958333Y-98506533D02*
X150891666Y-98473200D01*
X150891666Y-98473200D02*
X150858333Y-98439866D01*
X150858333Y-98439866D02*
X150824999Y-98373200D01*
X150824999Y-98373200D02*
X150824999Y-98306533D01*
X150824999Y-98306533D02*
X150858333Y-98239866D01*
X150858333Y-98239866D02*
X150891666Y-98206533D01*
X150891666Y-98206533D02*
X150958333Y-98173200D01*
X150958333Y-98173200D02*
X151091666Y-98139866D01*
X151091666Y-98139866D02*
X151158333Y-98106533D01*
X151158333Y-98106533D02*
X151191666Y-98073200D01*
X151191666Y-98073200D02*
X151224999Y-98006533D01*
X151224999Y-98006533D02*
X151224999Y-97939866D01*
X151224999Y-97939866D02*
X151191666Y-97873200D01*
X151191666Y-97873200D02*
X151158333Y-97839866D01*
X151158333Y-97839866D02*
X151091666Y-97806533D01*
X151091666Y-97806533D02*
X150924999Y-97806533D01*
X150924999Y-97806533D02*
X150824999Y-97839866D01*
X149534999Y-98506533D02*
X149534999Y-97806533D01*
X149068333Y-97806533D02*
X148934999Y-97806533D01*
X148934999Y-97806533D02*
X148868333Y-97839866D01*
X148868333Y-97839866D02*
X148801666Y-97906533D01*
X148801666Y-97906533D02*
X148768333Y-98039866D01*
X148768333Y-98039866D02*
X148768333Y-98273200D01*
X148768333Y-98273200D02*
X148801666Y-98406533D01*
X148801666Y-98406533D02*
X148868333Y-98473200D01*
X148868333Y-98473200D02*
X148934999Y-98506533D01*
X148934999Y-98506533D02*
X149068333Y-98506533D01*
X149068333Y-98506533D02*
X149134999Y-98473200D01*
X149134999Y-98473200D02*
X149201666Y-98406533D01*
X149201666Y-98406533D02*
X149234999Y-98273200D01*
X149234999Y-98273200D02*
X149234999Y-98039866D01*
X149234999Y-98039866D02*
X149201666Y-97906533D01*
X149201666Y-97906533D02*
X149134999Y-97839866D01*
X149134999Y-97839866D02*
X149068333Y-97806533D01*
X148335000Y-97806533D02*
X148268333Y-97806533D01*
X148268333Y-97806533D02*
X148201666Y-97839866D01*
X148201666Y-97839866D02*
X148168333Y-97873200D01*
X148168333Y-97873200D02*
X148135000Y-97939866D01*
X148135000Y-97939866D02*
X148101666Y-98073200D01*
X148101666Y-98073200D02*
X148101666Y-98239866D01*
X148101666Y-98239866D02*
X148135000Y-98373200D01*
X148135000Y-98373200D02*
X148168333Y-98439866D01*
X148168333Y-98439866D02*
X148201666Y-98473200D01*
X148201666Y-98473200D02*
X148268333Y-98506533D01*
X148268333Y-98506533D02*
X148335000Y-98506533D01*
X148335000Y-98506533D02*
X148401666Y-98473200D01*
X148401666Y-98473200D02*
X148435000Y-98439866D01*
X148435000Y-98439866D02*
X148468333Y-98373200D01*
X148468333Y-98373200D02*
X148501666Y-98239866D01*
X148501666Y-98239866D02*
X148501666Y-98073200D01*
X148501666Y-98073200D02*
X148468333Y-97939866D01*
X148468333Y-97939866D02*
X148435000Y-97873200D01*
X148435000Y-97873200D02*
X148401666Y-97839866D01*
X148401666Y-97839866D02*
X148335000Y-97806533D01*
X146994999Y-98506533D02*
X146994999Y-97806533D01*
X146528333Y-97806533D02*
X146394999Y-97806533D01*
X146394999Y-97806533D02*
X146328333Y-97839866D01*
X146328333Y-97839866D02*
X146261666Y-97906533D01*
X146261666Y-97906533D02*
X146228333Y-98039866D01*
X146228333Y-98039866D02*
X146228333Y-98273200D01*
X146228333Y-98273200D02*
X146261666Y-98406533D01*
X146261666Y-98406533D02*
X146328333Y-98473200D01*
X146328333Y-98473200D02*
X146394999Y-98506533D01*
X146394999Y-98506533D02*
X146528333Y-98506533D01*
X146528333Y-98506533D02*
X146594999Y-98473200D01*
X146594999Y-98473200D02*
X146661666Y-98406533D01*
X146661666Y-98406533D02*
X146694999Y-98273200D01*
X146694999Y-98273200D02*
X146694999Y-98039866D01*
X146694999Y-98039866D02*
X146661666Y-97906533D01*
X146661666Y-97906533D02*
X146594999Y-97839866D01*
X146594999Y-97839866D02*
X146528333Y-97806533D01*
X145961666Y-97873200D02*
X145928333Y-97839866D01*
X145928333Y-97839866D02*
X145861666Y-97806533D01*
X145861666Y-97806533D02*
X145695000Y-97806533D01*
X145695000Y-97806533D02*
X145628333Y-97839866D01*
X145628333Y-97839866D02*
X145595000Y-97873200D01*
X145595000Y-97873200D02*
X145561666Y-97939866D01*
X145561666Y-97939866D02*
X145561666Y-98006533D01*
X145561666Y-98006533D02*
X145595000Y-98106533D01*
X145595000Y-98106533D02*
X145995000Y-98506533D01*
X145995000Y-98506533D02*
X145561666Y-98506533D01*
X144854999Y-98506533D02*
X144854999Y-97806533D01*
X144854999Y-97806533D02*
X144621666Y-98306533D01*
X144621666Y-98306533D02*
X144388332Y-97806533D01*
X144388332Y-97806533D02*
X144388332Y-98506533D01*
X144054999Y-98506533D02*
X144054999Y-97806533D01*
X143754999Y-98473200D02*
X143654999Y-98506533D01*
X143654999Y-98506533D02*
X143488333Y-98506533D01*
X143488333Y-98506533D02*
X143421666Y-98473200D01*
X143421666Y-98473200D02*
X143388333Y-98439866D01*
X143388333Y-98439866D02*
X143354999Y-98373200D01*
X143354999Y-98373200D02*
X143354999Y-98306533D01*
X143354999Y-98306533D02*
X143388333Y-98239866D01*
X143388333Y-98239866D02*
X143421666Y-98206533D01*
X143421666Y-98206533D02*
X143488333Y-98173200D01*
X143488333Y-98173200D02*
X143621666Y-98139866D01*
X143621666Y-98139866D02*
X143688333Y-98106533D01*
X143688333Y-98106533D02*
X143721666Y-98073200D01*
X143721666Y-98073200D02*
X143754999Y-98006533D01*
X143754999Y-98006533D02*
X143754999Y-97939866D01*
X143754999Y-97939866D02*
X143721666Y-97873200D01*
X143721666Y-97873200D02*
X143688333Y-97839866D01*
X143688333Y-97839866D02*
X143621666Y-97806533D01*
X143621666Y-97806533D02*
X143454999Y-97806533D01*
X143454999Y-97806533D02*
X143354999Y-97839866D01*
X142921666Y-97806533D02*
X142788332Y-97806533D01*
X142788332Y-97806533D02*
X142721666Y-97839866D01*
X142721666Y-97839866D02*
X142654999Y-97906533D01*
X142654999Y-97906533D02*
X142621666Y-98039866D01*
X142621666Y-98039866D02*
X142621666Y-98273200D01*
X142621666Y-98273200D02*
X142654999Y-98406533D01*
X142654999Y-98406533D02*
X142721666Y-98473200D01*
X142721666Y-98473200D02*
X142788332Y-98506533D01*
X142788332Y-98506533D02*
X142921666Y-98506533D01*
X142921666Y-98506533D02*
X142988332Y-98473200D01*
X142988332Y-98473200D02*
X143054999Y-98406533D01*
X143054999Y-98406533D02*
X143088332Y-98273200D01*
X143088332Y-98273200D02*
X143088332Y-98039866D01*
X143088332Y-98039866D02*
X143054999Y-97906533D01*
X143054999Y-97906533D02*
X142988332Y-97839866D01*
X142988332Y-97839866D02*
X142921666Y-97806533D01*
X142114999Y-98473200D02*
X142014999Y-98506533D01*
X142014999Y-98506533D02*
X141848333Y-98506533D01*
X141848333Y-98506533D02*
X141781666Y-98473200D01*
X141781666Y-98473200D02*
X141748333Y-98439866D01*
X141748333Y-98439866D02*
X141714999Y-98373200D01*
X141714999Y-98373200D02*
X141714999Y-98306533D01*
X141714999Y-98306533D02*
X141748333Y-98239866D01*
X141748333Y-98239866D02*
X141781666Y-98206533D01*
X141781666Y-98206533D02*
X141848333Y-98173200D01*
X141848333Y-98173200D02*
X141981666Y-98139866D01*
X141981666Y-98139866D02*
X142048333Y-98106533D01*
X142048333Y-98106533D02*
X142081666Y-98073200D01*
X142081666Y-98073200D02*
X142114999Y-98006533D01*
X142114999Y-98006533D02*
X142114999Y-97939866D01*
X142114999Y-97939866D02*
X142081666Y-97873200D01*
X142081666Y-97873200D02*
X142048333Y-97839866D01*
X142048333Y-97839866D02*
X141981666Y-97806533D01*
X141981666Y-97806533D02*
X141814999Y-97806533D01*
X141814999Y-97806533D02*
X141714999Y-97839866D01*
X141014999Y-98439866D02*
X141048332Y-98473200D01*
X141048332Y-98473200D02*
X141148332Y-98506533D01*
X141148332Y-98506533D02*
X141214999Y-98506533D01*
X141214999Y-98506533D02*
X141314999Y-98473200D01*
X141314999Y-98473200D02*
X141381666Y-98406533D01*
X141381666Y-98406533D02*
X141414999Y-98339866D01*
X141414999Y-98339866D02*
X141448332Y-98206533D01*
X141448332Y-98206533D02*
X141448332Y-98106533D01*
X141448332Y-98106533D02*
X141414999Y-97973200D01*
X141414999Y-97973200D02*
X141381666Y-97906533D01*
X141381666Y-97906533D02*
X141314999Y-97839866D01*
X141314999Y-97839866D02*
X141214999Y-97806533D01*
X141214999Y-97806533D02*
X141148332Y-97806533D01*
X141148332Y-97806533D02*
X141048332Y-97839866D01*
X141048332Y-97839866D02*
X141014999Y-97873200D01*
X140714999Y-98506533D02*
X140714999Y-97806533D01*
X140314999Y-98506533D02*
X140614999Y-98106533D01*
X140314999Y-97806533D02*
X140714999Y-98206533D01*
X139774999Y-98506533D02*
X139774999Y-97806533D01*
X139774999Y-97806533D02*
X139541666Y-98306533D01*
X139541666Y-98306533D02*
X139308332Y-97806533D01*
X139308332Y-97806533D02*
X139308332Y-98506533D01*
X138841666Y-97806533D02*
X138708332Y-97806533D01*
X138708332Y-97806533D02*
X138641666Y-97839866D01*
X138641666Y-97839866D02*
X138574999Y-97906533D01*
X138574999Y-97906533D02*
X138541666Y-98039866D01*
X138541666Y-98039866D02*
X138541666Y-98273200D01*
X138541666Y-98273200D02*
X138574999Y-98406533D01*
X138574999Y-98406533D02*
X138641666Y-98473200D01*
X138641666Y-98473200D02*
X138708332Y-98506533D01*
X138708332Y-98506533D02*
X138841666Y-98506533D01*
X138841666Y-98506533D02*
X138908332Y-98473200D01*
X138908332Y-98473200D02*
X138974999Y-98406533D01*
X138974999Y-98406533D02*
X139008332Y-98273200D01*
X139008332Y-98273200D02*
X139008332Y-98039866D01*
X139008332Y-98039866D02*
X138974999Y-97906533D01*
X138974999Y-97906533D02*
X138908332Y-97839866D01*
X138908332Y-97839866D02*
X138841666Y-97806533D01*
X138274999Y-98473200D02*
X138174999Y-98506533D01*
X138174999Y-98506533D02*
X138008333Y-98506533D01*
X138008333Y-98506533D02*
X137941666Y-98473200D01*
X137941666Y-98473200D02*
X137908333Y-98439866D01*
X137908333Y-98439866D02*
X137874999Y-98373200D01*
X137874999Y-98373200D02*
X137874999Y-98306533D01*
X137874999Y-98306533D02*
X137908333Y-98239866D01*
X137908333Y-98239866D02*
X137941666Y-98206533D01*
X137941666Y-98206533D02*
X138008333Y-98173200D01*
X138008333Y-98173200D02*
X138141666Y-98139866D01*
X138141666Y-98139866D02*
X138208333Y-98106533D01*
X138208333Y-98106533D02*
X138241666Y-98073200D01*
X138241666Y-98073200D02*
X138274999Y-98006533D01*
X138274999Y-98006533D02*
X138274999Y-97939866D01*
X138274999Y-97939866D02*
X138241666Y-97873200D01*
X138241666Y-97873200D02*
X138208333Y-97839866D01*
X138208333Y-97839866D02*
X138141666Y-97806533D01*
X138141666Y-97806533D02*
X137974999Y-97806533D01*
X137974999Y-97806533D02*
X137874999Y-97839866D01*
X137574999Y-98506533D02*
X137574999Y-97806533D01*
X147433332Y-93406533D02*
X147099999Y-93406533D01*
X147499999Y-93606533D02*
X147266666Y-92906533D01*
X147266666Y-92906533D02*
X147033332Y-93606533D01*
X146499999Y-93139866D02*
X146499999Y-93606533D01*
X146799999Y-93139866D02*
X146799999Y-93506533D01*
X146799999Y-93506533D02*
X146766666Y-93573200D01*
X146766666Y-93573200D02*
X146699999Y-93606533D01*
X146699999Y-93606533D02*
X146599999Y-93606533D01*
X146599999Y-93606533D02*
X146533332Y-93573200D01*
X146533332Y-93573200D02*
X146499999Y-93539866D01*
X146233333Y-93606533D02*
X145866666Y-93139866D01*
X146233333Y-93139866D02*
X145866666Y-93606533D01*
X145599999Y-93539866D02*
X145566666Y-93573200D01*
X145566666Y-93573200D02*
X145599999Y-93606533D01*
X145599999Y-93606533D02*
X145633332Y-93573200D01*
X145633332Y-93573200D02*
X145599999Y-93539866D01*
X145599999Y-93539866D02*
X145599999Y-93606533D01*
X144366666Y-92939866D02*
X144433333Y-92906533D01*
X144433333Y-92906533D02*
X144533333Y-92906533D01*
X144533333Y-92906533D02*
X144633333Y-92939866D01*
X144633333Y-92939866D02*
X144700000Y-93006533D01*
X144700000Y-93006533D02*
X144733333Y-93073200D01*
X144733333Y-93073200D02*
X144766666Y-93206533D01*
X144766666Y-93206533D02*
X144766666Y-93306533D01*
X144766666Y-93306533D02*
X144733333Y-93439866D01*
X144733333Y-93439866D02*
X144700000Y-93506533D01*
X144700000Y-93506533D02*
X144633333Y-93573200D01*
X144633333Y-93573200D02*
X144533333Y-93606533D01*
X144533333Y-93606533D02*
X144466666Y-93606533D01*
X144466666Y-93606533D02*
X144366666Y-93573200D01*
X144366666Y-93573200D02*
X144333333Y-93539866D01*
X144333333Y-93539866D02*
X144333333Y-93306533D01*
X144333333Y-93306533D02*
X144466666Y-93306533D01*
X144033333Y-93606533D02*
X144033333Y-92906533D01*
X144033333Y-92906533D02*
X143766666Y-92906533D01*
X143766666Y-92906533D02*
X143700000Y-92939866D01*
X143700000Y-92939866D02*
X143666666Y-92973200D01*
X143666666Y-92973200D02*
X143633333Y-93039866D01*
X143633333Y-93039866D02*
X143633333Y-93139866D01*
X143633333Y-93139866D02*
X143666666Y-93206533D01*
X143666666Y-93206533D02*
X143700000Y-93239866D01*
X143700000Y-93239866D02*
X143766666Y-93273200D01*
X143766666Y-93273200D02*
X144033333Y-93273200D01*
X143333333Y-93606533D02*
X143333333Y-92906533D01*
X142866667Y-92906533D02*
X142733333Y-92906533D01*
X142733333Y-92906533D02*
X142666667Y-92939866D01*
X142666667Y-92939866D02*
X142600000Y-93006533D01*
X142600000Y-93006533D02*
X142566667Y-93139866D01*
X142566667Y-93139866D02*
X142566667Y-93373200D01*
X142566667Y-93373200D02*
X142600000Y-93506533D01*
X142600000Y-93506533D02*
X142666667Y-93573200D01*
X142666667Y-93573200D02*
X142733333Y-93606533D01*
X142733333Y-93606533D02*
X142866667Y-93606533D01*
X142866667Y-93606533D02*
X142933333Y-93573200D01*
X142933333Y-93573200D02*
X143000000Y-93506533D01*
X143000000Y-93506533D02*
X143033333Y-93373200D01*
X143033333Y-93373200D02*
X143033333Y-93139866D01*
X143033333Y-93139866D02*
X143000000Y-93006533D01*
X143000000Y-93006533D02*
X142933333Y-92939866D01*
X142933333Y-92939866D02*
X142866667Y-92906533D01*
D10*
X155761904Y-96984838D02*
X155857142Y-96937219D01*
X155857142Y-96937219D02*
X155999999Y-96937219D01*
X155999999Y-96937219D02*
X156142856Y-96984838D01*
X156142856Y-96984838D02*
X156238094Y-97080076D01*
X156238094Y-97080076D02*
X156285713Y-97175314D01*
X156285713Y-97175314D02*
X156333332Y-97365790D01*
X156333332Y-97365790D02*
X156333332Y-97508647D01*
X156333332Y-97508647D02*
X156285713Y-97699123D01*
X156285713Y-97699123D02*
X156238094Y-97794361D01*
X156238094Y-97794361D02*
X156142856Y-97889600D01*
X156142856Y-97889600D02*
X155999999Y-97937219D01*
X155999999Y-97937219D02*
X155904761Y-97937219D01*
X155904761Y-97937219D02*
X155761904Y-97889600D01*
X155761904Y-97889600D02*
X155714285Y-97841980D01*
X155714285Y-97841980D02*
X155714285Y-97508647D01*
X155714285Y-97508647D02*
X155904761Y-97508647D01*
X155285713Y-97937219D02*
X155285713Y-96937219D01*
X155285713Y-96937219D02*
X154714285Y-97937219D01*
X154714285Y-97937219D02*
X154714285Y-96937219D01*
X154238094Y-97937219D02*
X154238094Y-96937219D01*
X154238094Y-96937219D02*
X153999999Y-96937219D01*
X153999999Y-96937219D02*
X153857142Y-96984838D01*
X153857142Y-96984838D02*
X153761904Y-97080076D01*
X153761904Y-97080076D02*
X153714285Y-97175314D01*
X153714285Y-97175314D02*
X153666666Y-97365790D01*
X153666666Y-97365790D02*
X153666666Y-97508647D01*
X153666666Y-97508647D02*
X153714285Y-97699123D01*
X153714285Y-97699123D02*
X153761904Y-97794361D01*
X153761904Y-97794361D02*
X153857142Y-97889600D01*
X153857142Y-97889600D02*
X153999999Y-97937219D01*
X153999999Y-97937219D02*
X154238094Y-97937219D01*
D12*
X186267145Y-101308316D02*
X185215139Y-100861766D01*
X184959680Y-102926051D02*
X185741142Y-101085041D01*
X183820007Y-102442288D02*
X184601469Y-100601278D01*
X183031002Y-102107376D02*
X183440340Y-101143037D01*
X183440340Y-101143037D02*
X183602432Y-101004915D01*
X183602432Y-101004915D02*
X183814979Y-100991673D01*
X183814979Y-100991673D02*
X184077980Y-101103311D01*
X184077980Y-101103311D02*
X184216102Y-101265403D01*
X184216102Y-101265403D02*
X184266556Y-101390282D01*
X181891330Y-101623613D02*
X182103876Y-101610371D01*
X182103876Y-101610371D02*
X182228756Y-101559916D01*
X182228756Y-101559916D02*
X182390848Y-101421795D01*
X182390848Y-101421795D02*
X182614123Y-100895792D01*
X182614123Y-100895792D02*
X182600881Y-100683245D01*
X182600881Y-100683245D02*
X182550426Y-100558365D01*
X182550426Y-100558365D02*
X182412304Y-100396273D01*
X182412304Y-100396273D02*
X182149303Y-100284636D01*
X182149303Y-100284636D02*
X181936756Y-100297878D01*
X181936756Y-100297878D02*
X181811877Y-100348333D01*
X181811877Y-100348333D02*
X181649784Y-100486454D01*
X181649784Y-100486454D02*
X181426510Y-101012457D01*
X181426510Y-101012457D02*
X181439752Y-101225004D01*
X181439752Y-101225004D02*
X181490206Y-101349884D01*
X181490206Y-101349884D02*
X181628328Y-101511976D01*
X181628328Y-101511976D02*
X181891330Y-101623613D01*
X180488655Y-101028213D02*
X181009630Y-99800873D01*
X180935205Y-99976208D02*
X180884750Y-99851328D01*
X180884750Y-99851328D02*
X180746629Y-99689236D01*
X180746629Y-99689236D02*
X180483627Y-99577599D01*
X180483627Y-99577599D02*
X180271081Y-99590841D01*
X180271081Y-99590841D02*
X180108988Y-99728962D01*
X180108988Y-99728962D02*
X179699651Y-100693301D01*
X180108988Y-99728962D02*
X180095746Y-99516416D01*
X180095746Y-99516416D02*
X179957625Y-99354324D01*
X179957625Y-99354324D02*
X179694623Y-99242686D01*
X179694623Y-99242686D02*
X179482076Y-99255928D01*
X179482076Y-99255928D02*
X179319984Y-99394050D01*
X179319984Y-99394050D02*
X178910647Y-100358389D01*
X177244971Y-99651351D02*
X177654309Y-98687013D01*
X177654309Y-98687013D02*
X177816401Y-98548891D01*
X177816401Y-98548891D02*
X178028947Y-98535649D01*
X178028947Y-98535649D02*
X178379616Y-98684499D01*
X178379616Y-98684499D02*
X178517738Y-98846591D01*
X177282184Y-99563684D02*
X177420305Y-99725776D01*
X177420305Y-99725776D02*
X177858641Y-99911839D01*
X177858641Y-99911839D02*
X178071188Y-99898596D01*
X178071188Y-99898596D02*
X178233280Y-99760475D01*
X178233280Y-99760475D02*
X178307705Y-99585140D01*
X178307705Y-99585140D02*
X178294463Y-99372594D01*
X178294463Y-99372594D02*
X178156341Y-99210501D01*
X178156341Y-99210501D02*
X177718005Y-99024439D01*
X177718005Y-99024439D02*
X177579884Y-98862347D01*
X176493179Y-99228771D02*
X176280633Y-99242014D01*
X176280633Y-99242014D02*
X175929964Y-99093164D01*
X175929964Y-99093164D02*
X175791842Y-98931072D01*
X175791842Y-98931072D02*
X175778600Y-98718525D01*
X175778600Y-98718525D02*
X175815813Y-98630858D01*
X175815813Y-98630858D02*
X175977905Y-98492736D01*
X175977905Y-98492736D02*
X176190452Y-98479494D01*
X176190452Y-98479494D02*
X176453453Y-98591131D01*
X176453453Y-98591131D02*
X176666000Y-98577889D01*
X176666000Y-98577889D02*
X176828092Y-98439767D01*
X176828092Y-98439767D02*
X176865304Y-98352100D01*
X176865304Y-98352100D02*
X176852062Y-98139553D01*
X176852062Y-98139553D02*
X176713940Y-97977461D01*
X176713940Y-97977461D02*
X176450939Y-97865824D01*
X176450939Y-97865824D02*
X176238392Y-97879066D01*
X173475284Y-98051214D02*
X174256746Y-96210204D01*
X174256746Y-96210204D02*
X173084889Y-97264723D01*
X173084889Y-97264723D02*
X173029406Y-95689229D01*
X173029406Y-95689229D02*
X172247944Y-97530239D01*
X170619481Y-96735535D02*
X170757603Y-96897627D01*
X170757603Y-96897627D02*
X171108271Y-97046477D01*
X171108271Y-97046477D02*
X171320818Y-97033234D01*
X171320818Y-97033234D02*
X171445698Y-96982780D01*
X171445698Y-96982780D02*
X171607790Y-96844658D01*
X171607790Y-96844658D02*
X171831065Y-96318655D01*
X171831065Y-96318655D02*
X171817823Y-96106109D01*
X171817823Y-96106109D02*
X171767368Y-95981229D01*
X171767368Y-95981229D02*
X171629246Y-95819137D01*
X171629246Y-95819137D02*
X171278578Y-95670287D01*
X171278578Y-95670287D02*
X171066031Y-95683529D01*
X169793264Y-96488289D02*
X170574727Y-94647279D01*
X170574727Y-94647279D02*
X169402869Y-95701799D01*
X169402869Y-95701799D02*
X169347387Y-94126305D01*
X169347387Y-94126305D02*
X168565924Y-95967314D01*
X166900249Y-95260277D02*
X167309587Y-94295939D01*
X167309587Y-94295939D02*
X167471679Y-94157817D01*
X167471679Y-94157817D02*
X167684226Y-94144575D01*
X167684226Y-94144575D02*
X168034894Y-94293425D01*
X168034894Y-94293425D02*
X168173016Y-94455517D01*
X166937462Y-95172610D02*
X167075584Y-95334702D01*
X167075584Y-95334702D02*
X167513919Y-95520765D01*
X167513919Y-95520765D02*
X167726466Y-95507522D01*
X167726466Y-95507522D02*
X167888558Y-95369401D01*
X167888558Y-95369401D02*
X167962983Y-95194066D01*
X167962983Y-95194066D02*
X167949741Y-94981520D01*
X167949741Y-94981520D02*
X167811619Y-94819428D01*
X167811619Y-94819428D02*
X167373283Y-94633365D01*
X167373283Y-94633365D02*
X167235162Y-94471273D01*
X166544553Y-93660812D02*
X166023578Y-94888152D01*
X166470128Y-93836147D02*
X166419673Y-93711267D01*
X166419673Y-93711267D02*
X166281551Y-93549175D01*
X166281551Y-93549175D02*
X166018550Y-93437537D01*
X166018550Y-93437537D02*
X165806003Y-93450780D01*
X165806003Y-93450780D02*
X165643911Y-93588901D01*
X165643911Y-93588901D02*
X165234574Y-94553240D01*
X163568898Y-93846202D02*
X163978235Y-92881864D01*
X163978235Y-92881864D02*
X164140328Y-92743742D01*
X164140328Y-92743742D02*
X164352874Y-92730500D01*
X164352874Y-92730500D02*
X164703543Y-92879350D01*
X164703543Y-92879350D02*
X164841665Y-93041442D01*
X163606111Y-93758535D02*
X163744232Y-93920627D01*
X163744232Y-93920627D02*
X164182568Y-94106690D01*
X164182568Y-94106690D02*
X164395115Y-94093448D01*
X164395115Y-94093448D02*
X164557207Y-93955326D01*
X164557207Y-93955326D02*
X164631632Y-93779992D01*
X164631632Y-93779992D02*
X164618390Y-93567445D01*
X164618390Y-93567445D02*
X164480268Y-93405353D01*
X164480268Y-93405353D02*
X164041932Y-93219290D01*
X164041932Y-93219290D02*
X163903810Y-93057198D01*
X162692227Y-93474077D02*
X163213201Y-92246738D01*
X163138776Y-92422072D02*
X163088322Y-92297192D01*
X163088322Y-92297192D02*
X162950200Y-92135100D01*
X162950200Y-92135100D02*
X162687199Y-92023463D01*
X162687199Y-92023463D02*
X162474652Y-92036705D01*
X162474652Y-92036705D02*
X162312560Y-92174827D01*
X162312560Y-92174827D02*
X161903222Y-93139165D01*
X162312560Y-92174827D02*
X162299318Y-91962280D01*
X162299318Y-91962280D02*
X162161196Y-91800188D01*
X162161196Y-91800188D02*
X161898194Y-91688550D01*
X161898194Y-91688550D02*
X161685648Y-91701793D01*
X161685648Y-91701793D02*
X161523556Y-91839914D01*
X161523556Y-91839914D02*
X161114218Y-92804253D01*
X159573422Y-92046761D02*
X159711544Y-92208853D01*
X159711544Y-92208853D02*
X160062212Y-92357703D01*
X160062212Y-92357703D02*
X160274759Y-92344461D01*
X160274759Y-92344461D02*
X160436851Y-92206339D01*
X160436851Y-92206339D02*
X160734551Y-91505002D01*
X160734551Y-91505002D02*
X160721309Y-91292455D01*
X160721309Y-91292455D02*
X160583187Y-91130363D01*
X160583187Y-91130363D02*
X160232519Y-90981513D01*
X160232519Y-90981513D02*
X160019972Y-90994755D01*
X160019972Y-90994755D02*
X159857880Y-91132877D01*
X159857880Y-91132877D02*
X159783455Y-91308211D01*
X159783455Y-91308211D02*
X160585701Y-91855670D01*
X159180513Y-90534963D02*
X158659538Y-91762303D01*
X159106088Y-90710297D02*
X159055633Y-90585418D01*
X159055633Y-90585418D02*
X158917512Y-90423326D01*
X158917512Y-90423326D02*
X158654510Y-90311688D01*
X158654510Y-90311688D02*
X158441963Y-90324930D01*
X158441963Y-90324930D02*
X158279871Y-90463052D01*
X158279871Y-90463052D02*
X157870534Y-91427390D01*
X128417073Y-93207099D02*
X128678427Y-92074329D01*
X129476712Y-92778977D02*
X128727498Y-90924610D01*
X128727498Y-90924610D02*
X128021073Y-91210024D01*
X128021073Y-91210024D02*
X127880143Y-91369681D01*
X127880143Y-91369681D02*
X127827517Y-91493661D01*
X127827517Y-91493661D02*
X127810567Y-91705944D01*
X127810567Y-91705944D02*
X127917597Y-91970854D01*
X127917597Y-91970854D02*
X128077254Y-92111784D01*
X128077254Y-92111784D02*
X128201234Y-92164410D01*
X128201234Y-92164410D02*
X128413518Y-92181360D01*
X128413518Y-92181360D02*
X129119943Y-91895945D01*
X126827615Y-93849282D02*
X126435170Y-92877946D01*
X126435170Y-92877946D02*
X126452119Y-92665663D01*
X126452119Y-92665663D02*
X126593049Y-92506006D01*
X126593049Y-92506006D02*
X126946262Y-92363299D01*
X126946262Y-92363299D02*
X127158545Y-92380249D01*
X126791938Y-93760979D02*
X127004221Y-93777928D01*
X127004221Y-93777928D02*
X127445737Y-93599544D01*
X127445737Y-93599544D02*
X127586667Y-93439887D01*
X127586667Y-93439887D02*
X127603617Y-93227604D01*
X127603617Y-93227604D02*
X127532263Y-93050998D01*
X127532263Y-93050998D02*
X127372606Y-92910068D01*
X127372606Y-92910068D02*
X127160323Y-92893118D01*
X127160323Y-92893118D02*
X126718807Y-93071502D01*
X126718807Y-93071502D02*
X126506523Y-93054553D01*
X125149853Y-94527142D02*
X124400640Y-92672774D01*
X125114177Y-94438838D02*
X125326460Y-94455788D01*
X125326460Y-94455788D02*
X125679673Y-94313081D01*
X125679673Y-94313081D02*
X125820602Y-94153424D01*
X125820602Y-94153424D02*
X125873229Y-94029444D01*
X125873229Y-94029444D02*
X125890178Y-93817160D01*
X125890178Y-93817160D02*
X125676117Y-93287341D01*
X125676117Y-93287341D02*
X125516461Y-93146411D01*
X125516461Y-93146411D02*
X125392481Y-93093785D01*
X125392481Y-93093785D02*
X125180197Y-93076835D01*
X125180197Y-93076835D02*
X124826984Y-93219543D01*
X124826984Y-93219543D02*
X124686055Y-93379200D01*
X124266821Y-94883910D02*
X123767346Y-93647665D01*
X123517608Y-93029542D02*
X123641588Y-93082168D01*
X123641588Y-93082168D02*
X123588961Y-93206149D01*
X123588961Y-93206149D02*
X123464981Y-93153522D01*
X123464981Y-93153522D02*
X123517608Y-93029542D01*
X123517608Y-93029542D02*
X123588961Y-93206149D01*
X123118879Y-95347708D02*
X123259809Y-95188052D01*
X123259809Y-95188052D02*
X123312435Y-95064072D01*
X123312435Y-95064072D02*
X123329385Y-94851788D01*
X123329385Y-94851788D02*
X123115324Y-94321969D01*
X123115324Y-94321969D02*
X122955667Y-94181039D01*
X122955667Y-94181039D02*
X122831687Y-94128413D01*
X122831687Y-94128413D02*
X122619404Y-94111463D01*
X122619404Y-94111463D02*
X122354494Y-94218494D01*
X122354494Y-94218494D02*
X122213564Y-94378151D01*
X122213564Y-94378151D02*
X122160938Y-94502131D01*
X122160938Y-94502131D02*
X122143988Y-94714414D01*
X122143988Y-94714414D02*
X122358049Y-95244233D01*
X122358049Y-95244233D02*
X122517706Y-95385163D01*
X122517706Y-95385163D02*
X122641686Y-95437789D01*
X122641686Y-95437789D02*
X122853969Y-95454739D01*
X122853969Y-95454739D02*
X123118879Y-95347708D01*
X119162183Y-96740882D02*
X119286163Y-96793509D01*
X119286163Y-96793509D02*
X119586749Y-96774781D01*
X119586749Y-96774781D02*
X119763356Y-96703428D01*
X119763356Y-96703428D02*
X119992589Y-96508094D01*
X119992589Y-96508094D02*
X120097842Y-96260134D01*
X120097842Y-96260134D02*
X120114791Y-96047851D01*
X120114791Y-96047851D02*
X120060387Y-95658961D01*
X120060387Y-95658961D02*
X119953357Y-95394051D01*
X119953357Y-95394051D02*
X119722346Y-95076515D01*
X119722346Y-95076515D02*
X119562689Y-94935586D01*
X119562689Y-94935586D02*
X119314729Y-94830333D01*
X119314729Y-94830333D02*
X119014143Y-94849060D01*
X119014143Y-94849060D02*
X118837536Y-94920414D01*
X118837536Y-94920414D02*
X118608303Y-95115747D01*
X118608303Y-95115747D02*
X118555677Y-95239727D01*
X118173898Y-97345611D02*
X118314827Y-97185954D01*
X118314827Y-97185954D02*
X118367454Y-97061974D01*
X118367454Y-97061974D02*
X118384403Y-96849690D01*
X118384403Y-96849690D02*
X118170343Y-96319871D01*
X118170343Y-96319871D02*
X118010686Y-96178941D01*
X118010686Y-96178941D02*
X117886706Y-96126315D01*
X117886706Y-96126315D02*
X117674422Y-96109365D01*
X117674422Y-96109365D02*
X117409513Y-96216396D01*
X117409513Y-96216396D02*
X117268583Y-96376053D01*
X117268583Y-96376053D02*
X117215957Y-96500033D01*
X117215957Y-96500033D02*
X117199007Y-96712316D01*
X117199007Y-96712316D02*
X117413068Y-97242135D01*
X117413068Y-97242135D02*
X117572725Y-97383065D01*
X117572725Y-97383065D02*
X117696705Y-97435691D01*
X117696705Y-97435691D02*
X117908988Y-97452641D01*
X117908988Y-97452641D02*
X118173898Y-97345611D01*
X116261571Y-96680195D02*
X116761046Y-97916440D01*
X116332924Y-96856801D02*
X116208944Y-96804175D01*
X116208944Y-96804175D02*
X115996661Y-96787225D01*
X115996661Y-96787225D02*
X115731751Y-96894255D01*
X115731751Y-96894255D02*
X115590822Y-97053912D01*
X115590822Y-97053912D02*
X115573872Y-97266196D01*
X115573872Y-97266196D02*
X115966317Y-98237531D01*
X114848719Y-97251024D02*
X114142293Y-97536438D01*
X114334071Y-96739932D02*
X114976254Y-98329390D01*
X114976254Y-98329390D02*
X114959305Y-98541673D01*
X114959305Y-98541673D02*
X114818375Y-98701330D01*
X114818375Y-98701330D02*
X114641769Y-98772683D01*
X114023646Y-99022421D02*
X113524171Y-97786176D01*
X113666878Y-98139389D02*
X113507221Y-97998459D01*
X113507221Y-97998459D02*
X113383241Y-97945833D01*
X113383241Y-97945833D02*
X113170958Y-97928883D01*
X113170958Y-97928883D02*
X112994351Y-98000237D01*
X112610795Y-99593250D02*
X112751724Y-99433593D01*
X112751724Y-99433593D02*
X112804351Y-99309613D01*
X112804351Y-99309613D02*
X112821300Y-99097330D01*
X112821300Y-99097330D02*
X112607239Y-98567511D01*
X112607239Y-98567511D02*
X112447583Y-98426581D01*
X112447583Y-98426581D02*
X112323603Y-98373955D01*
X112323603Y-98373955D02*
X112111319Y-98357005D01*
X112111319Y-98357005D02*
X111846410Y-98464035D01*
X111846410Y-98464035D02*
X111705480Y-98623692D01*
X111705480Y-98623692D02*
X111652854Y-98747672D01*
X111652854Y-98747672D02*
X111635904Y-98959956D01*
X111635904Y-98959956D02*
X111849965Y-99489775D01*
X111849965Y-99489775D02*
X112009622Y-99630705D01*
X112009622Y-99630705D02*
X112133602Y-99683331D01*
X112133602Y-99683331D02*
X112345885Y-99700281D01*
X112345885Y-99700281D02*
X112610795Y-99593250D01*
X110933033Y-100271110D02*
X111073963Y-100111453D01*
X111073963Y-100111453D02*
X111090913Y-99899170D01*
X111090913Y-99899170D02*
X110448730Y-98309712D01*
X109961698Y-100663555D02*
X110102628Y-100503898D01*
X110102628Y-100503898D02*
X110119577Y-100291615D01*
X110119577Y-100291615D02*
X109477394Y-98702157D01*
X108513170Y-101146081D02*
X108725453Y-101163030D01*
X108725453Y-101163030D02*
X109078666Y-101020323D01*
X109078666Y-101020323D02*
X109219595Y-100860666D01*
X109219595Y-100860666D02*
X109236545Y-100648383D01*
X109236545Y-100648383D02*
X108951130Y-99941957D01*
X108951130Y-99941957D02*
X108791473Y-99801027D01*
X108791473Y-99801027D02*
X108579190Y-99784078D01*
X108579190Y-99784078D02*
X108225977Y-99926785D01*
X108225977Y-99926785D02*
X108085048Y-100086442D01*
X108085048Y-100086442D02*
X108068098Y-100298725D01*
X108068098Y-100298725D02*
X108139452Y-100475332D01*
X108139452Y-100475332D02*
X109093838Y-100295170D01*
X107665814Y-101591152D02*
X107166338Y-100354907D01*
X107309046Y-100708120D02*
X107149389Y-100567190D01*
X107149389Y-100567190D02*
X107025409Y-100514564D01*
X107025409Y-100514564D02*
X106813125Y-100497614D01*
X106813125Y-100497614D02*
X106636519Y-100568968D01*
D13*
X135433332Y-116779733D02*
X134366666Y-116779733D01*
X137433332Y-116779733D02*
X136366666Y-116779733D01*
X136899999Y-117313066D02*
X136899999Y-116246400D01*
D10*
X152567219Y-88261905D02*
X152567219Y-88880952D01*
X152567219Y-88880952D02*
X152948171Y-88547619D01*
X152948171Y-88547619D02*
X152948171Y-88690476D01*
X152948171Y-88690476D02*
X152995790Y-88785714D01*
X152995790Y-88785714D02*
X153043409Y-88833333D01*
X153043409Y-88833333D02*
X153138647Y-88880952D01*
X153138647Y-88880952D02*
X153376742Y-88880952D01*
X153376742Y-88880952D02*
X153471980Y-88833333D01*
X153471980Y-88833333D02*
X153519600Y-88785714D01*
X153519600Y-88785714D02*
X153567219Y-88690476D01*
X153567219Y-88690476D02*
X153567219Y-88404762D01*
X153567219Y-88404762D02*
X153519600Y-88309524D01*
X153519600Y-88309524D02*
X153471980Y-88261905D01*
X152567219Y-89166667D02*
X153567219Y-89500000D01*
X153567219Y-89500000D02*
X152567219Y-89833333D01*
X152567219Y-90071429D02*
X152567219Y-90690476D01*
X152567219Y-90690476D02*
X152948171Y-90357143D01*
X152948171Y-90357143D02*
X152948171Y-90500000D01*
X152948171Y-90500000D02*
X152995790Y-90595238D01*
X152995790Y-90595238D02*
X153043409Y-90642857D01*
X153043409Y-90642857D02*
X153138647Y-90690476D01*
X153138647Y-90690476D02*
X153376742Y-90690476D01*
X153376742Y-90690476D02*
X153471980Y-90642857D01*
X153471980Y-90642857D02*
X153519600Y-90595238D01*
X153519600Y-90595238D02*
X153567219Y-90500000D01*
X153567219Y-90500000D02*
X153567219Y-90214286D01*
X153567219Y-90214286D02*
X153519600Y-90119048D01*
X153519600Y-90119048D02*
X153471980Y-90071429D01*
X137432780Y-90638094D02*
X137432780Y-90019047D01*
X137432780Y-90019047D02*
X137051828Y-90352380D01*
X137051828Y-90352380D02*
X137051828Y-90209523D01*
X137051828Y-90209523D02*
X137004209Y-90114285D01*
X137004209Y-90114285D02*
X136956590Y-90066666D01*
X136956590Y-90066666D02*
X136861352Y-90019047D01*
X136861352Y-90019047D02*
X136623257Y-90019047D01*
X136623257Y-90019047D02*
X136528019Y-90066666D01*
X136528019Y-90066666D02*
X136480400Y-90114285D01*
X136480400Y-90114285D02*
X136432780Y-90209523D01*
X136432780Y-90209523D02*
X136432780Y-90495237D01*
X136432780Y-90495237D02*
X136480400Y-90590475D01*
X136480400Y-90590475D02*
X136528019Y-90638094D01*
X137432780Y-89733332D02*
X136432780Y-89399999D01*
X136432780Y-89399999D02*
X137432780Y-89066666D01*
X137432780Y-88828570D02*
X137432780Y-88209523D01*
X137432780Y-88209523D02*
X137051828Y-88542856D01*
X137051828Y-88542856D02*
X137051828Y-88399999D01*
X137051828Y-88399999D02*
X137004209Y-88304761D01*
X137004209Y-88304761D02*
X136956590Y-88257142D01*
X136956590Y-88257142D02*
X136861352Y-88209523D01*
X136861352Y-88209523D02*
X136623257Y-88209523D01*
X136623257Y-88209523D02*
X136528019Y-88257142D01*
X136528019Y-88257142D02*
X136480400Y-88304761D01*
X136480400Y-88304761D02*
X136432780Y-88399999D01*
X136432780Y-88399999D02*
X136432780Y-88685713D01*
X136432780Y-88685713D02*
X136480400Y-88780951D01*
X136480400Y-88780951D02*
X136528019Y-88828570D01*
X135761904Y-96984838D02*
X135857142Y-96937219D01*
X135857142Y-96937219D02*
X135999999Y-96937219D01*
X135999999Y-96937219D02*
X136142856Y-96984838D01*
X136142856Y-96984838D02*
X136238094Y-97080076D01*
X136238094Y-97080076D02*
X136285713Y-97175314D01*
X136285713Y-97175314D02*
X136333332Y-97365790D01*
X136333332Y-97365790D02*
X136333332Y-97508647D01*
X136333332Y-97508647D02*
X136285713Y-97699123D01*
X136285713Y-97699123D02*
X136238094Y-97794361D01*
X136238094Y-97794361D02*
X136142856Y-97889600D01*
X136142856Y-97889600D02*
X135999999Y-97937219D01*
X135999999Y-97937219D02*
X135904761Y-97937219D01*
X135904761Y-97937219D02*
X135761904Y-97889600D01*
X135761904Y-97889600D02*
X135714285Y-97841980D01*
X135714285Y-97841980D02*
X135714285Y-97508647D01*
X135714285Y-97508647D02*
X135904761Y-97508647D01*
X135285713Y-97937219D02*
X135285713Y-96937219D01*
X135285713Y-96937219D02*
X134714285Y-97937219D01*
X134714285Y-97937219D02*
X134714285Y-96937219D01*
X134238094Y-97937219D02*
X134238094Y-96937219D01*
X134238094Y-96937219D02*
X133999999Y-96937219D01*
X133999999Y-96937219D02*
X133857142Y-96984838D01*
X133857142Y-96984838D02*
X133761904Y-97080076D01*
X133761904Y-97080076D02*
X133714285Y-97175314D01*
X133714285Y-97175314D02*
X133666666Y-97365790D01*
X133666666Y-97365790D02*
X133666666Y-97508647D01*
X133666666Y-97508647D02*
X133714285Y-97699123D01*
X133714285Y-97699123D02*
X133761904Y-97794361D01*
X133761904Y-97794361D02*
X133857142Y-97889600D01*
X133857142Y-97889600D02*
X133999999Y-97937219D01*
X133999999Y-97937219D02*
X134238094Y-97937219D01*
D14*
%TO.C,G\u002A\u002A\u002A*%
G36*
X139997872Y-88787876D02*
G01*
X140119061Y-88936966D01*
X140196366Y-89152479D01*
X140222950Y-89402525D01*
X140191973Y-89655213D01*
X140096597Y-89878651D01*
X140058052Y-89933204D01*
X139938245Y-90029309D01*
X139767581Y-90040265D01*
X139557772Y-90019947D01*
X139581503Y-89460621D01*
X139590347Y-89291832D01*
X139619059Y-89019374D01*
X139667281Y-88849214D01*
X139742385Y-88761602D01*
X139851745Y-88736787D01*
X139997872Y-88787876D01*
G37*
G36*
X131164898Y-85321833D02*
G01*
X131409175Y-85363523D01*
X131604280Y-85451998D01*
X131654136Y-85483763D01*
X131793374Y-85597189D01*
X131811320Y-85677588D01*
X131710751Y-85732273D01*
X131580676Y-85746676D01*
X131398187Y-85736843D01*
X131238451Y-85700943D01*
X131034866Y-85635467D01*
X130825177Y-85554764D01*
X130642291Y-85472531D01*
X130519113Y-85402463D01*
X130488550Y-85358254D01*
X130561724Y-85337525D01*
X130731611Y-85321257D01*
X130957216Y-85315025D01*
X131164898Y-85321833D01*
G37*
G36*
X137815104Y-87125836D02*
G01*
X138032208Y-87199367D01*
X138338117Y-87341907D01*
X138410644Y-87378618D01*
X138729220Y-87546781D01*
X139014205Y-87707712D01*
X139244504Y-87848634D01*
X139399022Y-87956771D01*
X139456665Y-88019348D01*
X139422368Y-88062394D01*
X139311010Y-88130797D01*
X139108058Y-88174033D01*
X138847958Y-88131879D01*
X138593019Y-88004451D01*
X138509352Y-87950643D01*
X138305868Y-87836557D01*
X138080434Y-87724354D01*
X137791513Y-87572097D01*
X137589070Y-87423202D01*
X137493947Y-87292678D01*
X137511885Y-87188575D01*
X137648627Y-87118945D01*
X137667614Y-87115107D01*
X137815104Y-87125836D01*
G37*
G36*
X133748797Y-85875993D02*
G01*
X133962308Y-85932849D01*
X134038839Y-85957707D01*
X134297126Y-86029994D01*
X134556736Y-86090216D01*
X134736600Y-86129800D01*
X135028685Y-86201865D01*
X135313472Y-86279120D01*
X135533965Y-86347354D01*
X135670954Y-86409738D01*
X135737117Y-86481416D01*
X135762013Y-86582374D01*
X135766549Y-86684688D01*
X135720303Y-86749290D01*
X135580162Y-86762694D01*
X135411622Y-86746079D01*
X135263226Y-86700833D01*
X135223084Y-86682190D01*
X135048817Y-86618990D01*
X134794880Y-86539283D01*
X134495641Y-86453122D01*
X134185469Y-86370561D01*
X133898731Y-86301655D01*
X133692194Y-86235927D01*
X133482787Y-86128569D01*
X133331668Y-86007670D01*
X133273575Y-85895783D01*
X133280022Y-85878460D01*
X133370591Y-85846804D01*
X133539204Y-85846646D01*
X133748797Y-85875993D01*
G37*
G36*
X110349734Y-106456006D02*
G01*
X110428149Y-106536013D01*
X110396291Y-106685214D01*
X110254133Y-106904449D01*
X110001650Y-107194559D01*
X109649847Y-107576092D01*
X109135961Y-108170001D01*
X108692629Y-108730088D01*
X108337714Y-109234455D01*
X108261660Y-109350053D01*
X108097316Y-109590667D01*
X107954448Y-109788363D01*
X107857413Y-109908937D01*
X107709229Y-110009314D01*
X107523143Y-110055577D01*
X107341781Y-110046140D01*
X107204274Y-109983210D01*
X107149750Y-109868995D01*
X107155726Y-109838816D01*
X107215049Y-109701835D01*
X107324345Y-109500719D01*
X107466809Y-109267357D01*
X107479885Y-109247066D01*
X107755558Y-108843005D01*
X108064666Y-108427935D01*
X108393635Y-108016737D01*
X108728889Y-107624290D01*
X109056853Y-107265474D01*
X109363953Y-106955167D01*
X109636612Y-106708251D01*
X109861255Y-106539605D01*
X110024307Y-106464107D01*
X110161072Y-106444356D01*
X110349734Y-106456006D01*
G37*
G36*
X139069154Y-90908562D02*
G01*
X139084352Y-91051883D01*
X139067290Y-91100158D01*
X138995803Y-91196265D01*
X138861624Y-91316642D01*
X138654103Y-91468890D01*
X138362588Y-91660605D01*
X137976429Y-91899386D01*
X137484974Y-92192830D01*
X137448571Y-92214325D01*
X137149329Y-92391328D01*
X136877524Y-92552604D01*
X136661807Y-92681127D01*
X136530829Y-92759869D01*
X136357481Y-92848120D01*
X136177981Y-92873176D01*
X136015734Y-92800100D01*
X135965303Y-92759136D01*
X135939437Y-92687917D01*
X136002650Y-92575841D01*
X136038166Y-92536729D01*
X136182516Y-92420476D01*
X136395621Y-92275616D01*
X136645477Y-92124614D01*
X136753168Y-92062985D01*
X137021215Y-91906980D01*
X137256965Y-91766424D01*
X137419171Y-91665776D01*
X137798044Y-91420931D01*
X138121958Y-91215242D01*
X138365172Y-91066283D01*
X138542543Y-90965251D01*
X138668926Y-90903343D01*
X138759178Y-90871756D01*
X138954121Y-90849692D01*
X139069154Y-90908562D01*
G37*
G36*
X134066821Y-93690335D02*
G01*
X134164480Y-93741970D01*
X134178395Y-93774902D01*
X134164230Y-93854834D01*
X134081303Y-93949735D01*
X133920591Y-94064954D01*
X133673071Y-94205843D01*
X133329719Y-94377751D01*
X132881513Y-94586030D01*
X132319430Y-94836029D01*
X132282574Y-94852216D01*
X131972014Y-94990599D01*
X131656200Y-95134132D01*
X131398187Y-95254194D01*
X131352269Y-95275723D01*
X131042738Y-95400558D01*
X130824886Y-95443396D01*
X130689014Y-95404621D01*
X130625425Y-95284614D01*
X130622558Y-95165549D01*
X130667107Y-95065582D01*
X130685125Y-95054933D01*
X130807146Y-94994734D01*
X131023846Y-94893683D01*
X131316646Y-94760277D01*
X131666963Y-94603013D01*
X132056218Y-94430387D01*
X132203456Y-94365272D01*
X132586656Y-94193913D01*
X132927760Y-94038721D01*
X133207127Y-93908790D01*
X133405113Y-93813211D01*
X133502077Y-93761077D01*
X133535548Y-93741690D01*
X133700385Y-93691694D01*
X133894800Y-93674076D01*
X134066821Y-93690335D01*
G37*
G36*
X106267271Y-113703525D02*
G01*
X106378456Y-113804702D01*
X106394459Y-113934796D01*
X106371659Y-114030103D01*
X106336918Y-114292187D01*
X106310539Y-114650566D01*
X106292504Y-115082671D01*
X106282791Y-115565932D01*
X106281383Y-116077781D01*
X106288259Y-116595650D01*
X106303399Y-117096969D01*
X106326785Y-117559171D01*
X106358397Y-117959685D01*
X106398215Y-118275945D01*
X106418917Y-118453585D01*
X106398914Y-118573615D01*
X106324637Y-118654313D01*
X106151574Y-118728366D01*
X105915381Y-118725063D01*
X105701466Y-118624139D01*
X105639204Y-118545421D01*
X105567187Y-118349666D01*
X105512637Y-118049495D01*
X105475119Y-117639648D01*
X105454202Y-117114866D01*
X105449451Y-116469889D01*
X105460432Y-115699457D01*
X105461893Y-115635382D01*
X105477735Y-115086234D01*
X105499071Y-114652649D01*
X105529256Y-114320104D01*
X105571644Y-114074072D01*
X105629589Y-113900029D01*
X105706444Y-113783449D01*
X105805564Y-113709807D01*
X105930303Y-113664577D01*
X106097097Y-113652335D01*
X106267271Y-113703525D01*
G37*
G36*
X126432043Y-97049158D02*
G01*
X126570156Y-97127009D01*
X126627461Y-97232049D01*
X126606983Y-97269510D01*
X126537757Y-97323656D01*
X126409478Y-97399216D01*
X126211845Y-97501304D01*
X125934558Y-97635033D01*
X125567316Y-97805514D01*
X125099817Y-98017862D01*
X124521762Y-98277189D01*
X124483983Y-98294076D01*
X124042759Y-98492371D01*
X123637538Y-98676355D01*
X123285186Y-98838231D01*
X123002566Y-98970199D01*
X122806545Y-99064459D01*
X122713985Y-99113212D01*
X122526065Y-99190449D01*
X122341562Y-99180231D01*
X122205738Y-99086750D01*
X122152850Y-98921697D01*
X122199485Y-98820034D01*
X122333808Y-98725967D01*
X122342166Y-98722446D01*
X122498887Y-98654059D01*
X122725299Y-98552772D01*
X122975389Y-98439156D01*
X123114398Y-98376121D01*
X123396498Y-98249834D01*
X123746066Y-98094607D01*
X124131641Y-97924396D01*
X124521762Y-97753157D01*
X124816830Y-97623770D01*
X125171991Y-97467291D01*
X125483961Y-97329043D01*
X125726920Y-97220475D01*
X125875050Y-97153038D01*
X125938609Y-97125243D01*
X126144077Y-97055790D01*
X126306061Y-97027979D01*
X126432043Y-97049158D01*
G37*
G36*
X117610177Y-101206310D02*
G01*
X117673574Y-101236881D01*
X117763146Y-101305133D01*
X117803323Y-101432690D01*
X117716157Y-101564229D01*
X117699418Y-101576646D01*
X117579115Y-101653631D01*
X117375221Y-101776615D01*
X117111412Y-101931469D01*
X116811364Y-102104069D01*
X116738117Y-102145869D01*
X116425212Y-102325964D01*
X116140300Y-102492214D01*
X115912255Y-102627671D01*
X115769948Y-102715387D01*
X115632101Y-102804824D01*
X115409775Y-102949220D01*
X115138234Y-103125672D01*
X114848705Y-103313894D01*
X114846423Y-103315378D01*
X114565810Y-103496224D01*
X114311479Y-103657235D01*
X114111330Y-103780930D01*
X113993264Y-103849831D01*
X113965521Y-103863383D01*
X113747743Y-103923533D01*
X113518835Y-103929205D01*
X113342937Y-103877655D01*
X113312015Y-103851835D01*
X113293228Y-103786714D01*
X113337286Y-103698343D01*
X113451703Y-103581018D01*
X113643995Y-103429036D01*
X113921679Y-103236693D01*
X114292268Y-102998288D01*
X114763279Y-102708115D01*
X115342228Y-102360472D01*
X115533122Y-102246854D01*
X116040945Y-101945307D01*
X116451677Y-101703655D01*
X116777246Y-101516151D01*
X117029580Y-101377046D01*
X117220606Y-101280592D01*
X117362251Y-101221039D01*
X117466443Y-101192640D01*
X117545110Y-101189647D01*
X117610177Y-101206310D01*
G37*
G36*
X116280226Y-140326712D02*
G01*
X116580628Y-140358567D01*
X116815355Y-140457364D01*
X117016838Y-140643372D01*
X117217513Y-140936861D01*
X117302661Y-141078021D01*
X117461408Y-141335357D01*
X117599704Y-141553250D01*
X117679449Y-141676814D01*
X117826228Y-141905775D01*
X118012860Y-142197848D01*
X118223521Y-142528177D01*
X118442388Y-142871908D01*
X118653636Y-143204188D01*
X118841442Y-143500162D01*
X118989984Y-143734976D01*
X119083438Y-143883777D01*
X119130132Y-143964479D01*
X119166499Y-144084690D01*
X119124733Y-144177320D01*
X119086249Y-144209197D01*
X118919693Y-144258638D01*
X118636734Y-144274611D01*
X118462822Y-144270934D01*
X118287899Y-144245565D01*
X118146651Y-144179831D01*
X118014406Y-144055217D01*
X117866492Y-143853206D01*
X117678238Y-143555283D01*
X117600637Y-143430175D01*
X117406752Y-143122455D01*
X117190991Y-142784775D01*
X116987306Y-142470441D01*
X116877199Y-142302054D01*
X116700139Y-142030648D01*
X116574120Y-141835621D01*
X116485019Y-141694372D01*
X116418713Y-141584300D01*
X116361082Y-141482806D01*
X116298003Y-141367288D01*
X116267982Y-141313861D01*
X116171284Y-141163978D01*
X116099731Y-141083634D01*
X116095919Y-141081095D01*
X116021290Y-140987558D01*
X115935461Y-140826327D01*
X115857768Y-140642769D01*
X115807548Y-140482252D01*
X115804139Y-140390142D01*
X115863955Y-140361646D01*
X116023719Y-140336220D01*
X116240746Y-140326424D01*
X116280226Y-140326712D01*
G37*
G36*
X108097365Y-124481599D02*
G01*
X108270626Y-124649146D01*
X108392869Y-124930642D01*
X108440346Y-125064393D01*
X108536766Y-125301942D01*
X108662602Y-125592004D01*
X108802748Y-125898893D01*
X108914479Y-126137151D01*
X109074581Y-126478478D01*
X109222084Y-126792863D01*
X109335355Y-127034196D01*
X109397279Y-127165219D01*
X109615767Y-127618178D01*
X109869563Y-128133464D01*
X110143382Y-128680870D01*
X110421941Y-129230189D01*
X110689957Y-129751215D01*
X110932147Y-130213742D01*
X111133227Y-130587564D01*
X111159929Y-130636183D01*
X111346430Y-130975956D01*
X111528470Y-131307891D01*
X111686406Y-131596157D01*
X111800594Y-131804922D01*
X111903886Y-132015933D01*
X111985746Y-132230215D01*
X112017676Y-132380699D01*
X112012972Y-132475673D01*
X111974621Y-132534627D01*
X111869871Y-132557696D01*
X111666128Y-132561657D01*
X111607876Y-132560955D01*
X111384923Y-132536107D01*
X111205422Y-132462013D01*
X111047164Y-132320101D01*
X110887933Y-132091802D01*
X110705519Y-131758545D01*
X110640560Y-131633021D01*
X110519359Y-131403709D01*
X110425016Y-131231640D01*
X110373841Y-131146890D01*
X110312385Y-131048799D01*
X110198577Y-130840943D01*
X110043756Y-130543553D01*
X109855513Y-130172241D01*
X109641440Y-129742619D01*
X109409131Y-129270302D01*
X109166175Y-128770901D01*
X108920166Y-128260029D01*
X108678694Y-127753299D01*
X108449353Y-127266324D01*
X108239733Y-126814715D01*
X108057427Y-126414087D01*
X107910027Y-126080051D01*
X107796035Y-125815860D01*
X107661763Y-125505144D01*
X107546399Y-125238681D01*
X107466516Y-125054782D01*
X107427629Y-124955583D01*
X107370102Y-124748153D01*
X107357566Y-124594160D01*
X107363964Y-124557387D01*
X107404894Y-124476255D01*
X107505060Y-124434968D01*
X107700640Y-124414589D01*
X107855027Y-124414539D01*
X108097365Y-124481599D01*
G37*
G36*
X134001623Y-84996181D02*
G01*
X134270584Y-85018651D01*
X134490933Y-85058032D01*
X134574323Y-85078469D01*
X134805964Y-85129974D01*
X135099828Y-85191126D01*
X135412176Y-85252683D01*
X135520179Y-85273479D01*
X135910129Y-85350329D01*
X136314920Y-85432222D01*
X136662435Y-85504625D01*
X136712639Y-85515304D01*
X137073140Y-85591311D01*
X137454151Y-85670728D01*
X137781088Y-85737997D01*
X137829330Y-85747915D01*
X138104619Y-85807768D01*
X138345643Y-85865081D01*
X138504922Y-85908658D01*
X138516592Y-85912306D01*
X138669064Y-85954481D01*
X138914286Y-86017321D01*
X139220956Y-86092952D01*
X139557772Y-86173499D01*
X139609507Y-86185707D01*
X139939199Y-86264868D01*
X140230410Y-86336977D01*
X140453222Y-86394511D01*
X140577720Y-86429950D01*
X140625473Y-86445547D01*
X140804843Y-86502268D01*
X141054053Y-86579707D01*
X141334456Y-86665815D01*
X142002911Y-86885407D01*
X142690729Y-87147268D01*
X143311856Y-87422523D01*
X143855800Y-87705173D01*
X144312067Y-87989220D01*
X144670163Y-88268664D01*
X144919595Y-88537508D01*
X145049869Y-88789752D01*
X145110821Y-89112101D01*
X145094956Y-89576691D01*
X144953731Y-90038373D01*
X144685667Y-90500192D01*
X144289283Y-90965191D01*
X143763100Y-91436415D01*
X143325709Y-91770033D01*
X142689972Y-92210414D01*
X141991867Y-92652205D01*
X141266106Y-93072659D01*
X141167461Y-93126382D01*
X140913659Y-93261039D01*
X140588749Y-93430278D01*
X140208413Y-93626206D01*
X139788333Y-93840931D01*
X139344189Y-94066560D01*
X138891663Y-94295202D01*
X138446437Y-94518964D01*
X138024191Y-94729954D01*
X137640607Y-94920280D01*
X137311367Y-95082049D01*
X137052152Y-95207370D01*
X136878643Y-95288350D01*
X136806522Y-95317098D01*
X136771364Y-95330716D01*
X136634238Y-95392061D01*
X136413035Y-95494232D01*
X136128046Y-95627832D01*
X135799562Y-95783465D01*
X135646138Y-95856487D01*
X135253536Y-96043202D01*
X134866609Y-96227040D01*
X134523067Y-96390090D01*
X134260622Y-96514439D01*
X134089856Y-96595376D01*
X133739547Y-96761960D01*
X133360823Y-96942576D01*
X133010363Y-97110217D01*
X132840522Y-97191596D01*
X132486704Y-97361030D01*
X132075471Y-97557871D01*
X131645053Y-97763821D01*
X131233679Y-97960582D01*
X130912548Y-98114706D01*
X130586307Y-98272521D01*
X130313694Y-98405713D01*
X130116451Y-98503654D01*
X130016321Y-98555714D01*
X129905986Y-98616912D01*
X129713411Y-98720665D01*
X129489896Y-98839084D01*
X129484501Y-98841919D01*
X129267834Y-98955741D01*
X128973823Y-99110182D01*
X128640385Y-99285323D01*
X128305440Y-99461246D01*
X127847859Y-99704200D01*
X127362880Y-99966544D01*
X126883006Y-100230447D01*
X126430556Y-100483430D01*
X126027846Y-100713010D01*
X125697197Y-100906706D01*
X125460924Y-101052037D01*
X125322119Y-101140430D01*
X125041557Y-101315266D01*
X124787268Y-101469688D01*
X124781820Y-101472937D01*
X124584911Y-101594442D01*
X124308179Y-101770410D01*
X123979896Y-101982473D01*
X123628335Y-102212258D01*
X123281768Y-102441395D01*
X122968467Y-102651512D01*
X122845492Y-102736956D01*
X122617369Y-102902038D01*
X122359013Y-103094513D01*
X122093155Y-103296848D01*
X121842524Y-103491510D01*
X121629850Y-103660969D01*
X121477864Y-103787691D01*
X121409295Y-103854144D01*
X121381303Y-103888733D01*
X121289701Y-103937305D01*
X121222411Y-103966345D01*
X121068308Y-104075809D01*
X120851201Y-104252523D01*
X120587040Y-104481442D01*
X120291771Y-104747520D01*
X119981344Y-105035709D01*
X119671706Y-105330963D01*
X119378807Y-105618237D01*
X119118594Y-105882484D01*
X118907017Y-106108657D01*
X118760022Y-106281711D01*
X118693559Y-106386599D01*
X118664441Y-106449889D01*
X118599951Y-106503626D01*
X118545397Y-106551840D01*
X118431032Y-106688594D01*
X118272812Y-106893209D01*
X118086098Y-107144963D01*
X117886252Y-107423134D01*
X117688633Y-107707000D01*
X117508603Y-107975840D01*
X117404257Y-108145879D01*
X117218827Y-108480025D01*
X117018931Y-108869156D01*
X116824651Y-109272454D01*
X116656069Y-109649104D01*
X116533264Y-109958289D01*
X116454021Y-110191357D01*
X116184745Y-111221653D01*
X116022743Y-112316024D01*
X115969266Y-113462908D01*
X116025566Y-114650745D01*
X116048536Y-114888367D01*
X116080062Y-115165534D01*
X116117423Y-115419324D01*
X116166430Y-115679792D01*
X116232892Y-115976993D01*
X116322621Y-116340981D01*
X116441426Y-116801813D01*
X116512905Y-117064531D01*
X116629089Y-117458713D01*
X116756770Y-117862636D01*
X116888020Y-118253580D01*
X117014909Y-118608830D01*
X117129508Y-118905668D01*
X117223887Y-119121376D01*
X117290117Y-119233238D01*
X117307915Y-119256123D01*
X117349223Y-119382871D01*
X117352062Y-119399306D01*
X117395049Y-119520416D01*
X117481741Y-119728215D01*
X117601816Y-119998584D01*
X117744950Y-120307405D01*
X117841269Y-120510942D01*
X117984158Y-120810522D01*
X118107472Y-121063860D01*
X118227585Y-121303390D01*
X118360872Y-121561545D01*
X118523706Y-121870761D01*
X118732461Y-122263471D01*
X118754326Y-122304307D01*
X118963888Y-122681977D01*
X119223780Y-123132066D01*
X119514147Y-123621459D01*
X119815138Y-124117039D01*
X120106899Y-124585691D01*
X120369578Y-124994300D01*
X120473084Y-125152030D01*
X120623772Y-125382473D01*
X120740240Y-125561585D01*
X120803404Y-125660078D01*
X120960404Y-125902385D01*
X121099829Y-126098677D01*
X121195726Y-126211657D01*
X121228453Y-126250119D01*
X121330572Y-126385456D01*
X121483561Y-126596342D01*
X121673159Y-126863038D01*
X121885104Y-127165802D01*
X122223397Y-127646894D01*
X122682370Y-128286914D01*
X123196863Y-128993050D01*
X123752428Y-129745627D01*
X124334621Y-130524968D01*
X124928992Y-131311398D01*
X124943808Y-131330821D01*
X125085523Y-131513826D01*
X125294017Y-131780044D01*
X125555833Y-132112535D01*
X125857515Y-132494363D01*
X126185609Y-132908589D01*
X126526658Y-133338273D01*
X126867208Y-133766479D01*
X127193802Y-134176268D01*
X127492985Y-134550702D01*
X127751302Y-134872841D01*
X127955297Y-135125749D01*
X128091514Y-135292486D01*
X128097731Y-135300006D01*
X128198292Y-135423644D01*
X128347778Y-135609419D01*
X128516249Y-135820139D01*
X128521881Y-135827202D01*
X128703011Y-136051411D01*
X128876468Y-136261328D01*
X129005422Y-136412367D01*
X129065458Y-136481335D01*
X129218664Y-136660927D01*
X129411530Y-136889794D01*
X129616197Y-137134973D01*
X130034041Y-137637013D01*
X130555203Y-138260563D01*
X131073319Y-138877825D01*
X131568297Y-139464923D01*
X132020046Y-139997979D01*
X132408471Y-140453117D01*
X132681663Y-140771760D01*
X132962972Y-141100152D01*
X133197290Y-141374186D01*
X133406158Y-141619131D01*
X133611118Y-141860256D01*
X133833708Y-142122831D01*
X134095471Y-142432124D01*
X134130134Y-142473097D01*
X134409577Y-142803291D01*
X134702199Y-143148876D01*
X134975282Y-143471222D01*
X135196110Y-143731698D01*
X135293250Y-143848447D01*
X135482827Y-144095823D01*
X135593900Y-144274696D01*
X135618705Y-144373278D01*
X135543448Y-144440870D01*
X135384517Y-144472020D01*
X135354756Y-144470998D01*
X135247318Y-144443902D01*
X135129997Y-144366262D01*
X134979809Y-144219797D01*
X134773773Y-143986227D01*
X134645353Y-143836286D01*
X134428122Y-143583725D01*
X134155667Y-143267710D01*
X133844779Y-142907697D01*
X133512250Y-142523144D01*
X133174871Y-142133507D01*
X132882693Y-141795696D01*
X132555211Y-141415660D01*
X132250035Y-141060096D01*
X131983179Y-140747708D01*
X131770662Y-140497206D01*
X131628497Y-140327296D01*
X131473204Y-140139257D01*
X131208706Y-139820287D01*
X130911931Y-139463528D01*
X130602248Y-139092171D01*
X130299027Y-138729409D01*
X130021637Y-138398434D01*
X129789447Y-138122437D01*
X129621828Y-137924611D01*
X129552357Y-137842717D01*
X129363867Y-137618308D01*
X129121667Y-137328081D01*
X128845459Y-136995758D01*
X128554940Y-136645059D01*
X128269810Y-136299706D01*
X128009767Y-135983419D01*
X127503618Y-135363007D01*
X126984089Y-134720425D01*
X126466641Y-134075117D01*
X125964975Y-133444384D01*
X125492792Y-132845525D01*
X125063793Y-132295840D01*
X124691681Y-131812628D01*
X124390155Y-131413189D01*
X124262250Y-131242487D01*
X124062655Y-130980481D01*
X123886225Y-130753749D01*
X123760311Y-130597704D01*
X123700235Y-130523697D01*
X123540304Y-130316908D01*
X123327134Y-130033622D01*
X123075343Y-129693826D01*
X122799548Y-129317512D01*
X122514367Y-128924668D01*
X122234418Y-128535284D01*
X121974319Y-128169350D01*
X121748687Y-127846854D01*
X121582939Y-127611106D01*
X121425791Y-127395376D01*
X121307758Y-127241933D01*
X121246239Y-127174078D01*
X121240445Y-127169382D01*
X121170216Y-127084027D01*
X121046833Y-126914192D01*
X120885913Y-126681873D01*
X120703073Y-126409067D01*
X120516917Y-126127596D01*
X120275150Y-125763250D01*
X120042291Y-125413453D01*
X119850049Y-125125906D01*
X119829252Y-125094708D01*
X119632634Y-124786754D01*
X119391544Y-124391493D01*
X119120883Y-123934852D01*
X118835552Y-123442755D01*
X118550452Y-122941130D01*
X118280485Y-122455902D01*
X118040551Y-122012997D01*
X117845551Y-121638341D01*
X117744460Y-121439696D01*
X117622181Y-121204019D01*
X117529424Y-121030688D01*
X117480813Y-120947409D01*
X117477072Y-120941753D01*
X117426420Y-120842400D01*
X117337230Y-120651001D01*
X117220941Y-120392532D01*
X117088993Y-120091968D01*
X117077381Y-120065212D01*
X116940770Y-119750555D01*
X116816859Y-119465332D01*
X116718874Y-119239976D01*
X116660039Y-119104922D01*
X116540547Y-118809261D01*
X116369857Y-118326157D01*
X116192081Y-117763294D01*
X116015679Y-117149115D01*
X115849112Y-116512059D01*
X115700841Y-115880569D01*
X115699237Y-115873268D01*
X115543492Y-114948144D01*
X115467211Y-113979613D01*
X115468357Y-112993763D01*
X115544894Y-112016685D01*
X115694789Y-111074466D01*
X115916005Y-110193196D01*
X116206506Y-109398963D01*
X116314781Y-109161255D01*
X116511224Y-108762423D01*
X116732217Y-108343445D01*
X116964326Y-107927522D01*
X117194117Y-107537859D01*
X117408156Y-107197659D01*
X117593010Y-106930125D01*
X117735246Y-106758460D01*
X117849724Y-106628340D01*
X117974352Y-106465438D01*
X118070285Y-106336833D01*
X118335544Y-106017706D01*
X118672494Y-105645679D01*
X119060545Y-105241040D01*
X119479103Y-104824077D01*
X119907576Y-104415076D01*
X120325372Y-104034326D01*
X120711899Y-103702113D01*
X121046564Y-103438724D01*
X121063913Y-103425953D01*
X121324175Y-103234316D01*
X121587375Y-103040443D01*
X121799045Y-102884455D01*
X121884279Y-102821725D01*
X122611117Y-102297119D01*
X123299550Y-101821524D01*
X123989073Y-101368942D01*
X124719179Y-100913373D01*
X125529361Y-100428820D01*
X125677341Y-100341775D01*
X125950638Y-100180899D01*
X126188495Y-100040743D01*
X126351900Y-99944288D01*
X126387117Y-99923604D01*
X126601461Y-99801959D01*
X126791969Y-99699480D01*
X126807340Y-99691538D01*
X126955645Y-99613112D01*
X127186019Y-99489652D01*
X127469972Y-99336473D01*
X127779016Y-99168889D01*
X127931937Y-99087028D01*
X128257822Y-98916708D01*
X128670268Y-98704524D01*
X129149872Y-98460197D01*
X129677232Y-98193447D01*
X130232947Y-97913995D01*
X130797614Y-97631562D01*
X131351832Y-97355870D01*
X131876198Y-97096637D01*
X132351310Y-96863587D01*
X132757767Y-96666438D01*
X133076166Y-96514912D01*
X133207167Y-96453519D01*
X133793491Y-96177763D01*
X134407605Y-95887271D01*
X135079682Y-95567740D01*
X135839896Y-95204867D01*
X136030987Y-95113660D01*
X136433864Y-94922165D01*
X136829830Y-94734883D01*
X137181646Y-94569405D01*
X137452073Y-94443322D01*
X137482346Y-94429251D01*
X137741087Y-94305966D01*
X138083759Y-94139011D01*
X138481573Y-93942589D01*
X138905737Y-93730904D01*
X139327461Y-93518158D01*
X140003707Y-93170021D01*
X140926165Y-92675090D01*
X141732383Y-92214809D01*
X142427641Y-91785261D01*
X143017217Y-91382533D01*
X143506389Y-91002710D01*
X143900436Y-90641877D01*
X144204637Y-90296120D01*
X144424269Y-89961524D01*
X144564612Y-89634174D01*
X144618814Y-89451047D01*
X144640469Y-89302690D01*
X144615277Y-89167636D01*
X144541065Y-88986039D01*
X144438609Y-88816503D01*
X144196703Y-88558222D01*
X143859714Y-88292479D01*
X143447090Y-88032471D01*
X142978278Y-87791394D01*
X142472724Y-87582447D01*
X142247256Y-87501629D01*
X141828318Y-87356818D01*
X141391984Y-87211568D01*
X140966500Y-87074881D01*
X140580108Y-86955760D01*
X140261055Y-86863209D01*
X140037585Y-86806230D01*
X139845864Y-86762473D01*
X139539005Y-86688769D01*
X139186906Y-86601474D01*
X138833938Y-86511452D01*
X138524924Y-86431392D01*
X138201862Y-86347754D01*
X137930301Y-86277514D01*
X137748187Y-86230490D01*
X137675762Y-86212096D01*
X137344091Y-86131713D01*
X136906489Y-86030093D01*
X136380848Y-85911346D01*
X135785061Y-85779582D01*
X135630929Y-85745130D01*
X135382792Y-85686465D01*
X135200789Y-85639210D01*
X135116237Y-85611247D01*
X135115504Y-85610809D01*
X135024857Y-85581174D01*
X134844159Y-85536604D01*
X134611746Y-85486573D01*
X134601873Y-85484573D01*
X134316604Y-85423703D01*
X134013607Y-85354205D01*
X133722150Y-85283393D01*
X133471498Y-85218580D01*
X133290918Y-85167081D01*
X133209678Y-85136208D01*
X133208180Y-85112944D01*
X133275481Y-85049242D01*
X133311838Y-85033198D01*
X133481373Y-85003159D01*
X133724927Y-84990919D01*
X134001623Y-84996181D01*
G37*
G36*
X127063339Y-85304736D02*
G01*
X127218302Y-85320536D01*
X127402746Y-85349173D01*
X127636496Y-85393659D01*
X127939381Y-85457003D01*
X128331229Y-85542217D01*
X128831865Y-85652311D01*
X128838621Y-85653798D01*
X129942764Y-85916570D01*
X130961407Y-86199061D01*
X131886868Y-86498355D01*
X132711466Y-86811536D01*
X133427519Y-87135688D01*
X134027348Y-87467897D01*
X134503270Y-87805244D01*
X134598882Y-87887227D01*
X134955965Y-88274366D01*
X135189967Y-88684468D01*
X135298789Y-89110286D01*
X135280337Y-89544573D01*
X135132513Y-89980083D01*
X135017581Y-90171625D01*
X134802453Y-90455525D01*
X134532394Y-90764195D01*
X134235299Y-91067833D01*
X133939067Y-91336637D01*
X133671592Y-91540803D01*
X132285983Y-92401001D01*
X130677838Y-93268618D01*
X128963472Y-94066509D01*
X128908010Y-94090442D01*
X128481929Y-94274008D01*
X128046980Y-94460926D01*
X127624782Y-94641948D01*
X127236953Y-94807826D01*
X126905111Y-94949314D01*
X126650872Y-95057162D01*
X126495855Y-95122124D01*
X126409869Y-95157883D01*
X126173152Y-95257843D01*
X125882686Y-95381795D01*
X125582753Y-95510887D01*
X125399830Y-95588839D01*
X125162069Y-95686271D01*
X124987480Y-95752982D01*
X124904661Y-95777719D01*
X124875687Y-95782878D01*
X124746035Y-95826888D01*
X124567504Y-95901212D01*
X124297769Y-96021214D01*
X123992151Y-96154265D01*
X123780068Y-96241716D01*
X123646319Y-96289751D01*
X123575703Y-96304550D01*
X123571180Y-96304742D01*
X123460378Y-96337727D01*
X123304404Y-96410056D01*
X123302736Y-96410943D01*
X123096144Y-96510345D01*
X122876684Y-96602066D01*
X122781135Y-96639268D01*
X122562693Y-96727082D01*
X122285903Y-96840320D01*
X121988342Y-96963684D01*
X121798043Y-97041691D01*
X121484743Y-97164762D01*
X121204542Y-97268835D01*
X121001295Y-97337309D01*
X120880148Y-97375779D01*
X120703851Y-97440089D01*
X120606477Y-97487261D01*
X120526857Y-97530797D01*
X120376166Y-97586571D01*
X120211004Y-97643006D01*
X120014249Y-97722372D01*
X119933697Y-97757843D01*
X119683326Y-97866107D01*
X119398197Y-97987308D01*
X119104268Y-98110658D01*
X118827498Y-98225373D01*
X118593845Y-98320666D01*
X118429267Y-98385752D01*
X118359723Y-98409844D01*
X118355256Y-98410277D01*
X118265119Y-98440436D01*
X118115903Y-98503532D01*
X118097930Y-98511602D01*
X117922036Y-98588464D01*
X117678747Y-98692610D01*
X117415026Y-98803912D01*
X117379738Y-98818708D01*
X117110926Y-98932369D01*
X116864962Y-99037811D01*
X116691192Y-99113902D01*
X116681988Y-99118028D01*
X116464985Y-99214308D01*
X116263472Y-99302316D01*
X115794213Y-99505045D01*
X115132353Y-99792529D01*
X114547816Y-100048398D01*
X114051600Y-100267807D01*
X113654706Y-100445908D01*
X113368135Y-100577856D01*
X113150805Y-100680177D01*
X112810804Y-100840187D01*
X112439908Y-101014683D01*
X112087066Y-101180634D01*
X111912865Y-101262897D01*
X111122969Y-101644023D01*
X110321296Y-102043100D01*
X109526765Y-102450055D01*
X108758293Y-102854812D01*
X108034799Y-103247295D01*
X107375200Y-103617429D01*
X106798413Y-103955138D01*
X106323357Y-104250347D01*
X106207166Y-104319787D01*
X106031088Y-104413344D01*
X105950677Y-104458347D01*
X105744944Y-104586857D01*
X105432589Y-104790707D01*
X105014127Y-105069555D01*
X104490074Y-105423059D01*
X103860945Y-105850879D01*
X103845691Y-105861281D01*
X103709691Y-105953909D01*
X103596872Y-106031452D01*
X103493264Y-106104752D01*
X103384900Y-106184652D01*
X103257810Y-106281996D01*
X103098027Y-106407626D01*
X102891582Y-106572385D01*
X102624507Y-106787117D01*
X102282833Y-107062665D01*
X101852591Y-107409872D01*
X101714074Y-107524309D01*
X101243254Y-107944894D01*
X100732284Y-108441679D01*
X100204966Y-108988741D01*
X99685104Y-109560155D01*
X99196500Y-110129996D01*
X98762957Y-110672338D01*
X98408279Y-111161257D01*
X98369652Y-111218779D01*
X98117023Y-111615733D01*
X97853435Y-112060089D01*
X97600607Y-112513122D01*
X97380261Y-112936107D01*
X97214117Y-113290319D01*
X97199116Y-113325235D01*
X97087425Y-113584510D01*
X96987374Y-113815668D01*
X96919052Y-113972279D01*
X96853548Y-114135148D01*
X96736755Y-114471594D01*
X96605281Y-114893840D01*
X96466737Y-115376049D01*
X96328734Y-115892382D01*
X96198883Y-116417002D01*
X96136549Y-116739411D01*
X96074479Y-117180500D01*
X96018429Y-117697780D01*
X95970779Y-118262829D01*
X95933912Y-118847224D01*
X95910208Y-119422542D01*
X95902048Y-119960362D01*
X95902151Y-120005471D01*
X95933354Y-120985521D01*
X96017509Y-122051627D01*
X96150939Y-123172654D01*
X96329966Y-124317465D01*
X96550913Y-125454922D01*
X96623203Y-125778892D01*
X96725389Y-126212173D01*
X96845422Y-126702934D01*
X96977905Y-127230569D01*
X97117439Y-127774474D01*
X97258629Y-128314042D01*
X97396076Y-128828668D01*
X97524384Y-129297747D01*
X97638156Y-129700673D01*
X97731994Y-130016842D01*
X97800502Y-130225647D01*
X97839559Y-130339049D01*
X97913341Y-130559151D01*
X98015656Y-130867264D01*
X98140355Y-131244815D01*
X98281290Y-131673230D01*
X98432310Y-132133937D01*
X98435804Y-132144613D01*
X98585669Y-132600493D01*
X98724748Y-133019757D01*
X98847068Y-133384692D01*
X98946655Y-133677588D01*
X99017536Y-133880736D01*
X99053737Y-133976424D01*
X99087282Y-134057791D01*
X99159129Y-134247805D01*
X99252893Y-134505446D01*
X99356874Y-134798963D01*
X99378683Y-134861324D01*
X99540944Y-135323250D01*
X99671954Y-135691472D01*
X99781726Y-135993584D01*
X99880268Y-136257177D01*
X99977593Y-136509844D01*
X100031993Y-136651781D01*
X100134560Y-136929642D01*
X100218143Y-137167875D01*
X100242927Y-137240162D01*
X100328050Y-137472539D01*
X100404269Y-137661398D01*
X100432819Y-137729289D01*
X100510281Y-137921102D01*
X100618385Y-138193767D01*
X100746955Y-138521559D01*
X100885817Y-138878756D01*
X101071964Y-139359500D01*
X101295444Y-139935738D01*
X101479688Y-140409359D01*
X101629354Y-140792163D01*
X101749100Y-141095949D01*
X101843585Y-141332518D01*
X101917467Y-141513670D01*
X101975405Y-141651206D01*
X102022057Y-141756925D01*
X102057922Y-141839462D01*
X102122939Y-142013385D01*
X102148705Y-142122132D01*
X102151651Y-142151531D01*
X102209901Y-142270906D01*
X102225887Y-142291350D01*
X102293435Y-142417665D01*
X102367513Y-142596631D01*
X102411728Y-142714916D01*
X102509033Y-142967404D01*
X102609811Y-143221761D01*
X102635480Y-143285746D01*
X102797703Y-143708790D01*
X102910101Y-144039179D01*
X102970006Y-144268390D01*
X102974751Y-144387902D01*
X102917890Y-144449812D01*
X102784941Y-144471373D01*
X102634302Y-144427057D01*
X102516810Y-144323963D01*
X102501291Y-144297814D01*
X102423595Y-144140469D01*
X102322985Y-143911051D01*
X102217195Y-143649481D01*
X102185999Y-143569263D01*
X102086859Y-143317566D01*
X102004168Y-143112206D01*
X101953273Y-142991450D01*
X101950984Y-142986344D01*
X101901559Y-142867104D01*
X101817228Y-142655780D01*
X101709202Y-142380704D01*
X101588694Y-142070207D01*
X101460850Y-141742648D01*
X101336488Y-141430601D01*
X101230469Y-141171007D01*
X101157011Y-140999146D01*
X101119429Y-140912797D01*
X101055379Y-140746637D01*
X101030052Y-140650069D01*
X101025028Y-140619705D01*
X100981208Y-140486647D01*
X100906972Y-140306363D01*
X100823453Y-140110980D01*
X100714132Y-139843415D01*
X100606208Y-139569688D01*
X100588257Y-139523262D01*
X100469519Y-139219432D01*
X100332325Y-138872330D01*
X100202863Y-138548276D01*
X100152751Y-138422274D01*
X100062244Y-138186031D01*
X99999206Y-138009292D01*
X99974969Y-137923146D01*
X99969940Y-137897108D01*
X99923804Y-137770051D01*
X99845596Y-137595595D01*
X99814322Y-137527935D01*
X99744956Y-137350923D01*
X99716222Y-137232704D01*
X99714253Y-137213615D01*
X99671533Y-137076828D01*
X99591157Y-136903688D01*
X99583558Y-136889244D01*
X99486462Y-136664743D01*
X99419050Y-136444041D01*
X99414289Y-136422477D01*
X99366872Y-136253047D01*
X99320898Y-136147927D01*
X99301574Y-136114728D01*
X99240016Y-135975723D01*
X99168628Y-135786010D01*
X99113896Y-135630998D01*
X99021413Y-135371746D01*
X98909527Y-135059879D01*
X98791754Y-134733160D01*
X98711709Y-134509426D01*
X98557826Y-134070744D01*
X98402037Y-133617901D01*
X98268140Y-133219688D01*
X98170060Y-132925917D01*
X98074084Y-132644272D01*
X97997144Y-132424590D01*
X97950139Y-132298445D01*
X97932203Y-132251384D01*
X97871124Y-132072098D01*
X97791470Y-131822588D01*
X97705786Y-131541709D01*
X97670796Y-131425458D01*
X97581234Y-131136903D01*
X97500091Y-130886820D01*
X97441493Y-130719170D01*
X97438219Y-130710501D01*
X97374592Y-130525257D01*
X97293899Y-130269318D01*
X97212777Y-129995336D01*
X97205585Y-129970194D01*
X97127654Y-129703090D01*
X97055726Y-129464849D01*
X97004548Y-129304403D01*
X96960218Y-129165146D01*
X96873312Y-128860762D01*
X96761471Y-128439685D01*
X96623652Y-127897954D01*
X96458812Y-127231605D01*
X96425090Y-127094451D01*
X96338990Y-126749468D01*
X96261575Y-126446260D01*
X96200238Y-126213548D01*
X96162372Y-126080051D01*
X96147786Y-126028115D01*
X96103550Y-125832236D01*
X96051959Y-125566307D01*
X96001412Y-125272458D01*
X95977141Y-125125324D01*
X95933122Y-124877402D01*
X95896834Y-124696608D01*
X95874357Y-124614427D01*
X95857110Y-124545446D01*
X95822919Y-124365747D01*
X95776113Y-124097613D01*
X95720442Y-123762564D01*
X95659657Y-123382124D01*
X95615497Y-123096802D01*
X95574898Y-122817077D01*
X95542923Y-122562110D01*
X95518558Y-122312356D01*
X95500790Y-122048269D01*
X95488605Y-121750305D01*
X95480989Y-121398916D01*
X95476931Y-120974559D01*
X95475415Y-120457687D01*
X95475430Y-119828756D01*
X95475469Y-119768231D01*
X95476218Y-119154586D01*
X95478199Y-118653341D01*
X95482388Y-118246854D01*
X95489759Y-117917487D01*
X95501289Y-117647598D01*
X95517953Y-117419547D01*
X95540725Y-117215695D01*
X95570582Y-117018400D01*
X95608498Y-116810023D01*
X95655450Y-116572924D01*
X95669355Y-116504128D01*
X95739765Y-116164078D01*
X95805175Y-115860681D01*
X95858814Y-115624769D01*
X95893911Y-115487173D01*
X95986635Y-115180734D01*
X96121448Y-114743154D01*
X96235990Y-114388182D01*
X96340570Y-114088219D01*
X96445498Y-113815670D01*
X96561085Y-113542936D01*
X96697640Y-113242421D01*
X96865472Y-112886528D01*
X97266124Y-112099850D01*
X97856976Y-111107937D01*
X98529794Y-110155216D01*
X99300253Y-109219926D01*
X100184032Y-108280310D01*
X100744320Y-107732826D01*
X101395808Y-107136703D01*
X102067150Y-106568867D01*
X102783497Y-106008995D01*
X103570001Y-105436764D01*
X104451814Y-104831851D01*
X104584451Y-104743809D01*
X104925920Y-104522079D01*
X105314291Y-104275177D01*
X105729859Y-104015139D01*
X106152920Y-103754002D01*
X106563770Y-103503803D01*
X106942704Y-103276579D01*
X107270019Y-103084366D01*
X107526009Y-102939203D01*
X107690970Y-102853125D01*
X107764803Y-102817335D01*
X107980647Y-102704635D01*
X108202591Y-102580643D01*
X108325600Y-102511332D01*
X108615141Y-102355902D01*
X108993981Y-102158721D01*
X109443613Y-101928965D01*
X109945527Y-101675812D01*
X110481215Y-101408438D01*
X111032169Y-101136020D01*
X111579881Y-100867735D01*
X112105842Y-100612760D01*
X112591543Y-100380272D01*
X113018477Y-100179447D01*
X113368135Y-100019462D01*
X113433862Y-99989989D01*
X113714263Y-99863480D01*
X113971793Y-99746208D01*
X114157772Y-99660316D01*
X114190195Y-99645193D01*
X114453504Y-99525573D01*
X114801257Y-99371301D01*
X115201581Y-99196176D01*
X115622607Y-99014002D01*
X116032465Y-98838580D01*
X116399283Y-98683712D01*
X116691192Y-98563199D01*
X116777177Y-98528228D01*
X117072712Y-98406080D01*
X117345837Y-98290609D01*
X117546632Y-98202844D01*
X117572864Y-98190988D01*
X117797166Y-98090318D01*
X117976537Y-98012429D01*
X118152998Y-97940030D01*
X118368573Y-97855828D01*
X118665285Y-97742532D01*
X118774437Y-97700336D01*
X119030228Y-97596137D01*
X119235785Y-97505180D01*
X119354408Y-97443397D01*
X119451742Y-97391804D01*
X119584719Y-97356589D01*
X119588299Y-97356514D01*
X119717101Y-97324659D01*
X119882643Y-97252529D01*
X119884407Y-97251604D01*
X120090972Y-97153223D01*
X120310363Y-97061926D01*
X120720065Y-96906758D01*
X121203550Y-96721777D01*
X121573671Y-96577462D01*
X121836545Y-96471419D01*
X121998287Y-96401256D01*
X122018356Y-96391952D01*
X122165710Y-96329639D01*
X122250087Y-96304144D01*
X122270237Y-96299458D01*
X122390020Y-96256751D01*
X122587475Y-96179063D01*
X122832370Y-96078130D01*
X122837479Y-96075984D01*
X123114259Y-95961715D01*
X123467839Y-95818528D01*
X123853281Y-95664497D01*
X124225648Y-95517698D01*
X124317044Y-95481870D01*
X124628087Y-95358428D01*
X124893468Y-95250857D01*
X125087487Y-95169675D01*
X125184441Y-95125396D01*
X125189579Y-95122596D01*
X125308207Y-95067622D01*
X125506272Y-94983833D01*
X125743768Y-94888195D01*
X125746764Y-94887017D01*
X126002518Y-94785364D01*
X126236052Y-94690751D01*
X126397150Y-94623520D01*
X126403859Y-94620621D01*
X126547408Y-94558857D01*
X126779004Y-94459475D01*
X127068112Y-94335569D01*
X127384197Y-94200233D01*
X127394588Y-94195785D01*
X127719885Y-94055557D01*
X128025901Y-93921943D01*
X128278677Y-93809869D01*
X128444254Y-93734262D01*
X128523545Y-93697578D01*
X128677160Y-93632137D01*
X128757895Y-93606217D01*
X128787789Y-93596139D01*
X128919774Y-93538854D01*
X129136179Y-93439423D01*
X129415875Y-93307615D01*
X129737734Y-93153197D01*
X129907325Y-93071283D01*
X130239726Y-92911367D01*
X130534754Y-92770235D01*
X130765401Y-92660784D01*
X130904663Y-92595911D01*
X130939738Y-92579553D01*
X131128873Y-92484531D01*
X131376288Y-92353584D01*
X131637852Y-92209941D01*
X132365290Y-91785611D01*
X133082574Y-91321846D01*
X133672780Y-90882125D01*
X134136723Y-90464345D01*
X134475215Y-90066405D01*
X134689072Y-89686205D01*
X134779107Y-89321642D01*
X134746134Y-88970616D01*
X134590968Y-88631025D01*
X134314422Y-88300768D01*
X133917310Y-87977743D01*
X133400446Y-87659849D01*
X133272925Y-87593224D01*
X132866425Y-87407282D01*
X132365653Y-87206757D01*
X131795498Y-87000409D01*
X131180849Y-86796996D01*
X130546592Y-86605279D01*
X129917617Y-86434017D01*
X129838143Y-86413627D01*
X129552210Y-86339410D01*
X129299815Y-86272707D01*
X129127979Y-86225911D01*
X129093082Y-86216389D01*
X128894187Y-86166914D01*
X128626692Y-86104897D01*
X128338342Y-86041488D01*
X127936816Y-85955125D01*
X127471319Y-85852324D01*
X127108725Y-85767917D01*
X126833673Y-85697928D01*
X126630803Y-85638383D01*
X126484754Y-85585306D01*
X126380166Y-85534721D01*
X126346757Y-85515088D01*
X126219140Y-85425919D01*
X126167255Y-85364377D01*
X126204789Y-85341973D01*
X126341964Y-85318217D01*
X126545207Y-85305102D01*
X126577055Y-85304257D01*
X126762543Y-85299607D01*
X126918028Y-85298764D01*
X127063339Y-85304736D01*
G37*
G36*
X159237206Y-85317440D02*
G01*
X159454977Y-85337885D01*
X159555676Y-85376701D01*
X159534571Y-85430908D01*
X159386929Y-85497525D01*
X159355815Y-85508149D01*
X159138672Y-85585353D01*
X158912328Y-85669427D01*
X158782625Y-85717572D01*
X158629628Y-85761498D01*
X158510227Y-85764846D01*
X158369452Y-85734172D01*
X158302437Y-85712526D01*
X158231640Y-85653171D01*
X158277470Y-85570288D01*
X158443022Y-85451998D01*
X158576964Y-85384503D01*
X158796521Y-85330738D01*
X159097170Y-85315025D01*
X159237206Y-85317440D01*
G37*
G36*
X150373772Y-88819041D02*
G01*
X150397670Y-88877969D01*
X150430911Y-89042544D01*
X150460421Y-89267713D01*
X150482936Y-89515344D01*
X150495191Y-89747303D01*
X150493923Y-89925459D01*
X150475865Y-90011678D01*
X150415120Y-90048957D01*
X150254374Y-90057757D01*
X150080952Y-89995089D01*
X149948171Y-89874784D01*
X149912150Y-89809082D01*
X149844745Y-89572437D01*
X149830022Y-89303914D01*
X149867539Y-89054530D01*
X149956853Y-88875302D01*
X150080754Y-88776259D01*
X150242242Y-88742319D01*
X150373772Y-88819041D01*
G37*
G36*
X152532020Y-87184811D02*
G01*
X152554953Y-87287596D01*
X152464576Y-87417149D01*
X152266634Y-87565419D01*
X151966868Y-87724354D01*
X151836420Y-87787581D01*
X151616169Y-87905219D01*
X151454283Y-88004949D01*
X151295495Y-88100551D01*
X151147561Y-88162144D01*
X151065920Y-88181904D01*
X150969699Y-88202729D01*
X150890190Y-88188308D01*
X150760110Y-88135222D01*
X150641385Y-88069577D01*
X150590637Y-88018841D01*
X150594215Y-88009223D01*
X150675950Y-87935325D01*
X150849528Y-87818807D01*
X151093735Y-87672505D01*
X151387358Y-87509259D01*
X151709185Y-87341907D01*
X151766621Y-87313355D01*
X152056546Y-87182637D01*
X152260834Y-87119902D01*
X152398675Y-87118945D01*
X152532020Y-87184811D01*
G37*
G36*
X156716353Y-85853505D02*
G01*
X156773727Y-85895783D01*
X156727511Y-85994151D01*
X156585166Y-86115162D01*
X156380607Y-86225181D01*
X156148571Y-86301655D01*
X156016317Y-86332308D01*
X155717256Y-86408106D01*
X155412692Y-86492242D01*
X155135990Y-86574938D01*
X154920515Y-86646419D01*
X154799634Y-86696907D01*
X154798994Y-86697281D01*
X154665145Y-86739171D01*
X154482698Y-86758824D01*
X154345368Y-86752901D01*
X154284373Y-86705073D01*
X154285289Y-86582374D01*
X154307918Y-86486236D01*
X154370908Y-86413416D01*
X154503024Y-86351039D01*
X154733831Y-86279120D01*
X154946154Y-86220802D01*
X155243420Y-86145747D01*
X155490566Y-86090216D01*
X155580932Y-86070891D01*
X155850981Y-86003307D01*
X156084994Y-85932849D01*
X156152255Y-85911560D01*
X156368555Y-85863388D01*
X156568942Y-85843372D01*
X156716353Y-85853505D01*
G37*
G36*
X180022995Y-106464107D02*
G01*
X180029691Y-106465488D01*
X180196257Y-106546160D01*
X180423712Y-106719213D01*
X180698482Y-106969768D01*
X181006991Y-107282943D01*
X181335664Y-107643861D01*
X181670926Y-108037641D01*
X181999202Y-108449403D01*
X182306916Y-108864268D01*
X182580493Y-109267357D01*
X182653890Y-109383505D01*
X182806860Y-109649850D01*
X182881775Y-109834156D01*
X182883102Y-109950614D01*
X182815307Y-110013414D01*
X182702237Y-110037770D01*
X182530664Y-110051799D01*
X182456564Y-110049152D01*
X182341772Y-110016741D01*
X182225937Y-109935250D01*
X182092800Y-109788495D01*
X181926103Y-109560291D01*
X181709588Y-109234455D01*
X181497331Y-108924481D01*
X181084651Y-108382470D01*
X180594804Y-107798529D01*
X180045652Y-107194559D01*
X179904691Y-107039527D01*
X179707779Y-106785220D01*
X179621180Y-106601364D01*
X179644867Y-106487119D01*
X179778814Y-106441647D01*
X180022995Y-106464107D01*
G37*
G36*
X151261197Y-90861630D02*
G01*
X151405084Y-90919104D01*
X151598983Y-91020880D01*
X151857632Y-91174334D01*
X152195768Y-91386841D01*
X152628131Y-91665776D01*
X152681940Y-91699925D01*
X152878709Y-91819579D01*
X153132420Y-91969295D01*
X153401825Y-92124614D01*
X153524573Y-92196594D01*
X153760746Y-92347446D01*
X153944774Y-92481350D01*
X154044652Y-92575841D01*
X154088751Y-92643425D01*
X154105604Y-92726674D01*
X154031568Y-92800100D01*
X153953907Y-92845786D01*
X153829445Y-92882383D01*
X153743961Y-92853417D01*
X153561951Y-92764292D01*
X153304897Y-92625751D01*
X152991510Y-92448711D01*
X152640502Y-92244090D01*
X152270584Y-92022808D01*
X151900467Y-91795783D01*
X151548864Y-91573933D01*
X151234485Y-91368177D01*
X151075136Y-91229269D01*
X150975727Y-91076648D01*
X150954542Y-90944458D01*
X151024236Y-90863105D01*
X151064507Y-90850085D01*
X151152584Y-90841082D01*
X151261197Y-90861630D01*
G37*
G36*
X156397786Y-93702372D02*
G01*
X156545225Y-93761077D01*
X156567821Y-93774581D01*
X156704124Y-93843708D01*
X156934244Y-93952944D01*
X157238539Y-94093198D01*
X157597367Y-94255377D01*
X157991084Y-94430387D01*
X158148166Y-94499805D01*
X158524273Y-94667384D01*
X158854111Y-94816247D01*
X159119098Y-94937899D01*
X159300653Y-95023843D01*
X159380196Y-95065582D01*
X159419909Y-95140137D01*
X159421877Y-95284614D01*
X159411618Y-95325001D01*
X159338651Y-95421758D01*
X159198927Y-95443116D01*
X158979079Y-95388598D01*
X158665742Y-95257731D01*
X158639137Y-95245409D01*
X158361871Y-95118833D01*
X158036467Y-94972637D01*
X157727872Y-94836025D01*
X157457071Y-94716604D01*
X156947983Y-94486276D01*
X156548664Y-94295229D01*
X156250092Y-94138114D01*
X156043244Y-94009580D01*
X155919097Y-93904278D01*
X155868631Y-93816858D01*
X155882822Y-93741970D01*
X155899452Y-93724027D01*
X156022929Y-93682348D01*
X156206364Y-93675629D01*
X156397786Y-93702372D01*
G37*
G36*
X184116999Y-113664577D02*
G01*
X184131209Y-113668370D01*
X184253138Y-113715868D01*
X184349796Y-113793284D01*
X184424537Y-113915142D01*
X184480714Y-114095968D01*
X184521682Y-114350288D01*
X184550795Y-114692625D01*
X184571406Y-115137507D01*
X184586870Y-115699457D01*
X184596291Y-116261900D01*
X184596098Y-116942335D01*
X184579864Y-117501066D01*
X184547153Y-117943352D01*
X184497534Y-118274453D01*
X184430573Y-118499629D01*
X184345836Y-118624139D01*
X184170231Y-118715075D01*
X183933787Y-118734656D01*
X183722666Y-118654313D01*
X183653628Y-118583392D01*
X183628202Y-118469811D01*
X183649087Y-118275945D01*
X183672111Y-118112884D01*
X183707395Y-117747260D01*
X183734462Y-117309856D01*
X183753293Y-116823242D01*
X183763867Y-116309984D01*
X183766166Y-115792654D01*
X183760170Y-115293818D01*
X183745859Y-114836045D01*
X183723214Y-114441905D01*
X183692215Y-114133966D01*
X183652843Y-113934796D01*
X183660297Y-113821111D01*
X183760699Y-113714779D01*
X183924996Y-113655578D01*
X184116999Y-113664577D01*
G37*
G36*
X163779728Y-97031040D02*
G01*
X163966637Y-97074510D01*
X164172252Y-97153038D01*
X164280991Y-97202720D01*
X164506395Y-97303694D01*
X164806167Y-97436724D01*
X165154488Y-97590362D01*
X165525540Y-97753157D01*
X165794094Y-97870925D01*
X166184433Y-98042944D01*
X166548490Y-98204293D01*
X166854803Y-98341016D01*
X167071913Y-98439156D01*
X167092243Y-98448459D01*
X167342122Y-98561838D01*
X167564545Y-98661197D01*
X167713494Y-98725967D01*
X167849586Y-98826566D01*
X167892000Y-98971779D01*
X167815489Y-99120517D01*
X167770224Y-99157562D01*
X167639649Y-99193949D01*
X167455442Y-99155997D01*
X167192475Y-99040480D01*
X167168028Y-99028414D01*
X166988369Y-98943218D01*
X166717172Y-98817912D01*
X166378136Y-98663315D01*
X165994960Y-98490246D01*
X165591343Y-98309524D01*
X165431344Y-98238115D01*
X164839138Y-97971760D01*
X164360581Y-97752677D01*
X163989474Y-97577900D01*
X163719612Y-97444465D01*
X163544796Y-97349404D01*
X163458821Y-97289752D01*
X163433848Y-97238489D01*
X163473634Y-97142851D01*
X163585687Y-97062025D01*
X163736138Y-97027979D01*
X163779728Y-97031040D01*
G37*
G36*
X172611831Y-101198921D02*
G01*
X172727063Y-101236963D01*
X172883683Y-101308056D01*
X173093619Y-101417948D01*
X173368799Y-101572388D01*
X173721150Y-101777122D01*
X174162599Y-102037901D01*
X174705074Y-102360472D01*
X175041860Y-102561851D01*
X175558012Y-102875624D01*
X175970731Y-103135210D01*
X176287685Y-103346444D01*
X176516542Y-103515160D01*
X176664970Y-103647191D01*
X176740638Y-103748372D01*
X176751214Y-103824536D01*
X176704365Y-103881517D01*
X176702508Y-103882763D01*
X176545692Y-103937253D01*
X176337975Y-103918041D01*
X176068049Y-103821081D01*
X175724608Y-103642328D01*
X175296344Y-103377736D01*
X175219830Y-103327930D01*
X174916405Y-103130490D01*
X174639591Y-102950472D01*
X174417277Y-102806009D01*
X174277354Y-102715233D01*
X174253590Y-102700100D01*
X174088900Y-102599899D01*
X173845147Y-102455864D01*
X173551203Y-102284940D01*
X173235938Y-102104069D01*
X173139450Y-102048929D01*
X172848211Y-101880371D01*
X172600629Y-101733983D01*
X172420382Y-101623894D01*
X172331145Y-101564229D01*
X172261154Y-101481951D01*
X172254697Y-101350294D01*
X172373728Y-101236881D01*
X172395195Y-101225610D01*
X172457825Y-101198992D01*
X172526061Y-101188180D01*
X172611831Y-101198921D01*
G37*
G36*
X173988389Y-140333194D02*
G01*
X174161181Y-140356301D01*
X174243163Y-140390142D01*
X174244673Y-140393004D01*
X174237808Y-140490661D01*
X174185327Y-140653920D01*
X174106570Y-140837413D01*
X174020872Y-140995774D01*
X173947571Y-141083634D01*
X173929968Y-141098340D01*
X173846949Y-141205567D01*
X173749300Y-141367288D01*
X173716708Y-141427273D01*
X173658073Y-141533070D01*
X173597941Y-141635959D01*
X173522188Y-141758539D01*
X173416695Y-141923413D01*
X173267338Y-142153180D01*
X173059996Y-142470441D01*
X172962561Y-142620160D01*
X172748640Y-142952742D01*
X172539490Y-143282219D01*
X172369064Y-143555283D01*
X172325406Y-143625320D01*
X172173581Y-143856487D01*
X172038583Y-144045021D01*
X171945386Y-144155538D01*
X171854997Y-144215882D01*
X171680224Y-144261207D01*
X171410568Y-144274611D01*
X171302614Y-144272897D01*
X171049117Y-144243820D01*
X170913200Y-144173685D01*
X170887303Y-144055876D01*
X170963864Y-143883777D01*
X171036328Y-143768263D01*
X171176279Y-143546852D01*
X171358294Y-143259885D01*
X171566548Y-142932217D01*
X171785218Y-142588702D01*
X171998482Y-142254194D01*
X172190516Y-141953546D01*
X172345495Y-141711614D01*
X172447598Y-141553250D01*
X172524673Y-141432781D01*
X172680661Y-141182518D01*
X172829789Y-140936861D01*
X172853429Y-140897702D01*
X173052570Y-140617364D01*
X173256183Y-140442218D01*
X173496700Y-140351994D01*
X173806556Y-140326424D01*
X173988389Y-140333194D01*
G37*
G36*
X182420650Y-124419891D02*
G01*
X182582321Y-124444804D01*
X182659957Y-124496582D01*
X182689736Y-124594160D01*
X182690325Y-124656877D01*
X182654462Y-124844287D01*
X182580786Y-125054782D01*
X182517402Y-125200632D01*
X182406888Y-125455791D01*
X182274655Y-125761701D01*
X182137275Y-126080051D01*
X182004937Y-126380499D01*
X181825511Y-126775679D01*
X181618076Y-127223269D01*
X181390225Y-127707656D01*
X181149548Y-128213227D01*
X180903638Y-128724369D01*
X180660088Y-129225469D01*
X180426487Y-129700916D01*
X180210430Y-130135095D01*
X180019506Y-130512395D01*
X179861309Y-130817203D01*
X179743430Y-131033905D01*
X179673461Y-131146890D01*
X179654530Y-131176071D01*
X179579933Y-131307834D01*
X179470247Y-131512018D01*
X179341783Y-131758545D01*
X179282463Y-131870153D01*
X179136704Y-132118067D01*
X179000733Y-132317436D01*
X178897744Y-132433027D01*
X178862975Y-132458075D01*
X178665223Y-132537303D01*
X178381174Y-132561657D01*
X178195906Y-132558844D01*
X178081054Y-132538937D01*
X178036492Y-132485148D01*
X178029626Y-132380699D01*
X178056769Y-132245753D01*
X178135195Y-132034901D01*
X178246708Y-131804922D01*
X178260040Y-131780513D01*
X178381918Y-131557767D01*
X178544645Y-131260805D01*
X178728578Y-130925461D01*
X178914075Y-130587564D01*
X178975136Y-130475518D01*
X179191514Y-130068992D01*
X179443944Y-129583758D01*
X179717142Y-129050023D01*
X179995824Y-128497993D01*
X180264708Y-127957874D01*
X180508510Y-127459873D01*
X180711947Y-127034196D01*
X180789795Y-126868348D01*
X180930054Y-126569427D01*
X181088851Y-126230906D01*
X181244554Y-125898893D01*
X181363948Y-125638447D01*
X181492932Y-125343528D01*
X181594797Y-125095697D01*
X181654434Y-124930642D01*
X181710924Y-124773384D01*
X181856677Y-124551124D01*
X182062571Y-124436013D01*
X182346662Y-124414589D01*
X182420650Y-124419891D01*
G37*
G36*
X156420503Y-84993471D02*
G01*
X156640894Y-85012402D01*
X156771821Y-85049242D01*
X156818679Y-85085927D01*
X156837624Y-85136208D01*
X156836725Y-85136901D01*
X156751271Y-85168670D01*
X156567565Y-85220795D01*
X156314874Y-85285961D01*
X156022464Y-85356855D01*
X155719602Y-85426163D01*
X155435556Y-85486573D01*
X155429818Y-85487734D01*
X155198177Y-85537745D01*
X155019148Y-85582074D01*
X154931065Y-85611247D01*
X154898233Y-85623852D01*
X154755933Y-85663455D01*
X154533497Y-85717993D01*
X154262241Y-85779582D01*
X154086875Y-85818103D01*
X153509199Y-85946587D01*
X153006751Y-86060886D01*
X152597426Y-86156890D01*
X152299116Y-86230490D01*
X152136091Y-86272580D01*
X151870526Y-86341263D01*
X151550302Y-86424160D01*
X151213364Y-86511452D01*
X150915175Y-86587675D01*
X150560080Y-86676088D01*
X150243471Y-86752561D01*
X150009717Y-86806230D01*
X149892373Y-86834686D01*
X149609624Y-86913543D01*
X149247796Y-87022711D01*
X148835133Y-87153189D01*
X148399879Y-87295973D01*
X147970279Y-87442060D01*
X147574578Y-87582447D01*
X147217188Y-87724965D01*
X146735355Y-87957820D01*
X146303896Y-88213551D01*
X145942259Y-88478963D01*
X145669890Y-88740858D01*
X145506237Y-88986039D01*
X145439573Y-89145945D01*
X145407513Y-89283983D01*
X145422610Y-89426777D01*
X145482690Y-89634174D01*
X145566855Y-89849973D01*
X145759025Y-90181675D01*
X146033976Y-90523212D01*
X146396984Y-90878497D01*
X146853328Y-91251446D01*
X147408287Y-91645974D01*
X148067140Y-92065994D01*
X148835164Y-92515421D01*
X149717638Y-92998171D01*
X150719841Y-93518158D01*
X150782864Y-93550112D01*
X151206822Y-93763615D01*
X151628827Y-93973890D01*
X152020091Y-94166734D01*
X152351822Y-94327946D01*
X152595229Y-94443322D01*
X152716995Y-94499899D01*
X153032488Y-94647741D01*
X153410880Y-94826243D01*
X153814932Y-95017816D01*
X154207406Y-95204867D01*
X154387458Y-95290917D01*
X155125240Y-95642805D01*
X155781664Y-95954565D01*
X156386905Y-96240500D01*
X156971136Y-96514912D01*
X157161711Y-96605150D01*
X157538177Y-96786721D01*
X157990403Y-97007755D01*
X158498986Y-97258529D01*
X159044525Y-97529323D01*
X159607618Y-97810416D01*
X160168862Y-98092087D01*
X160708856Y-98364615D01*
X161208197Y-98618281D01*
X161647484Y-98843362D01*
X162007314Y-99030139D01*
X162268286Y-99168889D01*
X162322844Y-99198538D01*
X162629558Y-99364709D01*
X162906203Y-99513799D01*
X163124291Y-99630494D01*
X163255333Y-99699480D01*
X163284761Y-99714757D01*
X163486362Y-99824501D01*
X163695402Y-99944288D01*
X163771659Y-99989335D01*
X163979951Y-100112147D01*
X164241715Y-100266302D01*
X164517941Y-100428820D01*
X164613574Y-100485152D01*
X165412860Y-100965181D01*
X166136478Y-101419128D01*
X166823921Y-101872990D01*
X167514683Y-102352766D01*
X168248257Y-102884455D01*
X168260736Y-102893655D01*
X168477991Y-103053752D01*
X168742815Y-103248815D01*
X169000738Y-103438724D01*
X169099481Y-103512140D01*
X169329503Y-103690435D01*
X169557835Y-103880195D01*
X169802989Y-104098170D01*
X170083474Y-104361106D01*
X170417800Y-104685754D01*
X170824478Y-105088859D01*
X170944642Y-105209019D01*
X171284654Y-105553805D01*
X171550539Y-105833148D01*
X171759248Y-106065740D01*
X171927734Y-106270273D01*
X172072950Y-106465438D01*
X172197371Y-106628086D01*
X172312056Y-106758460D01*
X172399087Y-106858092D01*
X172570583Y-107094781D01*
X172775957Y-107412240D01*
X173001773Y-107787265D01*
X173234599Y-108196653D01*
X173461000Y-108617201D01*
X173667544Y-109025705D01*
X173840796Y-109398963D01*
X173843442Y-109405024D01*
X174133387Y-110200073D01*
X174354028Y-111081946D01*
X174503332Y-112024555D01*
X174579263Y-113001811D01*
X174579785Y-113987625D01*
X174502863Y-114955907D01*
X174346461Y-115880569D01*
X174236058Y-116357704D01*
X174073141Y-116996021D01*
X173898342Y-117618343D01*
X173720122Y-118196228D01*
X173546942Y-118701234D01*
X173387263Y-119104922D01*
X173384158Y-119112029D01*
X173321534Y-119255823D01*
X173220867Y-119487367D01*
X173095383Y-119776226D01*
X172958309Y-120091968D01*
X172936777Y-120141489D01*
X172806552Y-120437037D01*
X172693802Y-120686522D01*
X172609968Y-120864971D01*
X172566489Y-120947409D01*
X172535267Y-120999409D01*
X172452523Y-121152111D01*
X172336476Y-121374323D01*
X172201751Y-121638341D01*
X172180246Y-121680745D01*
X171978787Y-122065393D01*
X171734264Y-122515035D01*
X171461579Y-123003745D01*
X171175632Y-123505596D01*
X170891325Y-123994665D01*
X170623559Y-124445023D01*
X170387234Y-124830745D01*
X170197253Y-125125906D01*
X170039952Y-125361081D01*
X169811549Y-125703986D01*
X169569072Y-126069214D01*
X169344229Y-126409067D01*
X169310385Y-126460196D01*
X169130339Y-126727336D01*
X168975026Y-126950026D01*
X168860062Y-127106272D01*
X168801064Y-127174078D01*
X168746012Y-127233980D01*
X168631434Y-127382088D01*
X168476501Y-127594146D01*
X168298615Y-127846854D01*
X168179391Y-128018035D01*
X167932954Y-128366945D01*
X167660106Y-128748277D01*
X167375466Y-129142040D01*
X167093650Y-129528246D01*
X166829277Y-129886905D01*
X166596964Y-130198027D01*
X166411329Y-130441624D01*
X166286991Y-130597704D01*
X166213205Y-130688140D01*
X166051657Y-130893721D01*
X165857187Y-131147208D01*
X165657147Y-131413189D01*
X165356820Y-131811058D01*
X164984933Y-132294004D01*
X164556111Y-132843485D01*
X164084057Y-133442200D01*
X163582471Y-134072851D01*
X163065054Y-134718138D01*
X162545508Y-135360760D01*
X162037535Y-135983419D01*
X161908437Y-136140635D01*
X161633059Y-136474802D01*
X161342703Y-136825861D01*
X161057067Y-137170093D01*
X160795851Y-137483775D01*
X160578754Y-137743188D01*
X160425474Y-137924611D01*
X160316054Y-138053528D01*
X160101286Y-138308407D01*
X159835479Y-138625254D01*
X159538004Y-138980878D01*
X159228229Y-139352086D01*
X158925525Y-139715686D01*
X158649260Y-140048487D01*
X158418805Y-140327296D01*
X158298625Y-140471131D01*
X158094040Y-140712566D01*
X157833112Y-141018228D01*
X157531857Y-141369411D01*
X157206291Y-141747406D01*
X156872432Y-142133507D01*
X156586530Y-142463657D01*
X156252179Y-142850241D01*
X155936912Y-143215246D01*
X155657521Y-143539216D01*
X155430796Y-143802696D01*
X155273529Y-143986227D01*
X155212124Y-144057720D01*
X155023146Y-144266396D01*
X154883918Y-144392819D01*
X154771459Y-144455266D01*
X154662785Y-144472020D01*
X154611266Y-144470602D01*
X154481838Y-144439740D01*
X154438492Y-144360732D01*
X154483852Y-144223265D01*
X154620544Y-144017025D01*
X154851192Y-143731698D01*
X154876561Y-143701790D01*
X155106286Y-143430785D01*
X155383884Y-143103086D01*
X155676638Y-142757322D01*
X155951831Y-142432124D01*
X156164957Y-142180270D01*
X156393673Y-141910356D01*
X156600440Y-141666957D01*
X156806799Y-141424803D01*
X157034290Y-141158624D01*
X157304454Y-140843152D01*
X157638831Y-140453117D01*
X157954006Y-140084088D01*
X158396105Y-139562967D01*
X158884956Y-138983619D01*
X159400468Y-138369919D01*
X159922549Y-137745745D01*
X160431105Y-137134973D01*
X160550483Y-136991677D01*
X160751642Y-136752022D01*
X160924727Y-136547932D01*
X161041880Y-136412367D01*
X161045011Y-136408821D01*
X161176004Y-136255151D01*
X161350294Y-136044061D01*
X161531053Y-135820139D01*
X161547912Y-135798990D01*
X161715832Y-135589092D01*
X161861770Y-135407860D01*
X161955788Y-135292486D01*
X161971550Y-135273417D01*
X162118910Y-135092524D01*
X162332008Y-134828029D01*
X162597386Y-134496871D01*
X162901592Y-134115987D01*
X163231167Y-133702316D01*
X163572658Y-133272796D01*
X163912608Y-132844366D01*
X164237563Y-132433964D01*
X164534066Y-132058528D01*
X164788662Y-131734996D01*
X164987895Y-131480306D01*
X165118310Y-131311398D01*
X165628226Y-130637278D01*
X166213041Y-129855721D01*
X166773293Y-129098119D01*
X167294534Y-128384148D01*
X167762318Y-127733484D01*
X168162199Y-127165802D01*
X168304877Y-126961491D01*
X168503555Y-126680505D01*
X168670406Y-126448711D01*
X168791166Y-126285848D01*
X168851576Y-126211657D01*
X168944530Y-126102546D01*
X169083155Y-125907917D01*
X169243898Y-125660078D01*
X169276287Y-125609255D01*
X169375133Y-125456746D01*
X169515307Y-125241998D01*
X169677724Y-124994300D01*
X169708578Y-124947198D01*
X169976020Y-124529189D01*
X170270040Y-124055314D01*
X170570785Y-123558689D01*
X170858402Y-123072430D01*
X171113038Y-122629652D01*
X171314841Y-122263471D01*
X171440231Y-122027848D01*
X171620845Y-121686631D01*
X171764856Y-121410450D01*
X171888637Y-121166871D01*
X172008565Y-120923460D01*
X172141011Y-120647783D01*
X172302352Y-120307405D01*
X172349714Y-120206555D01*
X172486638Y-119907340D01*
X172597223Y-119654242D01*
X172671145Y-119471380D01*
X172698079Y-119382871D01*
X172700834Y-119353723D01*
X172757186Y-119233238D01*
X172801213Y-119165040D01*
X172888336Y-118976767D01*
X172997952Y-118700854D01*
X173122130Y-118360019D01*
X173252941Y-117976981D01*
X173382455Y-117574455D01*
X173502743Y-117175160D01*
X173605876Y-116801813D01*
X173696759Y-116450522D01*
X173793505Y-116064193D01*
X173865470Y-115752483D01*
X173918466Y-115485339D01*
X173958301Y-115232704D01*
X173990788Y-114964525D01*
X174021736Y-114650745D01*
X174045031Y-114366699D01*
X174075252Y-113187505D01*
X173995993Y-112051998D01*
X173808505Y-110971739D01*
X173514038Y-109958289D01*
X173439459Y-109764651D01*
X173284294Y-109406512D01*
X173096555Y-109007744D01*
X172896322Y-108609166D01*
X172703676Y-108251592D01*
X172538699Y-107975840D01*
X172363976Y-107714762D01*
X172166638Y-107431033D01*
X171966646Y-107152425D01*
X171779360Y-106899658D01*
X171620142Y-106693455D01*
X171504352Y-106554537D01*
X171447352Y-106503626D01*
X171410874Y-106484909D01*
X171353743Y-106386599D01*
X171307357Y-106308392D01*
X171175056Y-106147652D01*
X170975010Y-105930811D01*
X170723169Y-105672914D01*
X170435481Y-105389009D01*
X170127894Y-105094140D01*
X169816356Y-104803356D01*
X169516816Y-104531701D01*
X169245222Y-104294222D01*
X169017522Y-104105966D01*
X168849666Y-103981978D01*
X168757601Y-103937305D01*
X168724949Y-103929725D01*
X168638007Y-103854144D01*
X168603242Y-103817918D01*
X168477060Y-103709715D01*
X168282465Y-103552817D01*
X168042186Y-103364754D01*
X167778954Y-103163060D01*
X167515498Y-102965267D01*
X167274548Y-102788907D01*
X167078835Y-102651512D01*
X167068039Y-102644206D01*
X166752984Y-102433045D01*
X166405720Y-102203553D01*
X166054521Y-101974101D01*
X165727659Y-101763058D01*
X165453405Y-101588797D01*
X165260034Y-101469688D01*
X165124143Y-101387776D01*
X164844696Y-101215419D01*
X164586378Y-101052037D01*
X164356550Y-100910559D01*
X164027780Y-100717815D01*
X163626449Y-100488906D01*
X163174873Y-100236313D01*
X162695371Y-99972518D01*
X162210261Y-99710002D01*
X161741862Y-99461246D01*
X161731178Y-99455635D01*
X161395677Y-99279419D01*
X161062936Y-99104644D01*
X160770873Y-98951226D01*
X160557406Y-98839084D01*
X160353797Y-98731288D01*
X160156509Y-98625181D01*
X160030981Y-98555714D01*
X159945736Y-98511172D01*
X159757315Y-98417383D01*
X159491327Y-98287268D01*
X159169516Y-98131458D01*
X158813623Y-97960582D01*
X158569522Y-97843838D01*
X158142073Y-97639338D01*
X157718672Y-97436703D01*
X157337551Y-97254230D01*
X157036939Y-97110217D01*
X156836303Y-97014172D01*
X156462279Y-96835594D01*
X156093512Y-96660013D01*
X155786680Y-96514439D01*
X155691600Y-96469425D01*
X155391442Y-96327089D01*
X155025605Y-96153375D01*
X154631801Y-95966197D01*
X154247740Y-95783465D01*
X154012229Y-95671725D01*
X153712346Y-95530671D01*
X153470284Y-95418284D01*
X153306332Y-95343960D01*
X153240780Y-95317098D01*
X153216907Y-95309158D01*
X153090122Y-95252272D01*
X152870101Y-95147257D01*
X152572526Y-95002003D01*
X152213078Y-94824403D01*
X151807439Y-94622350D01*
X151371289Y-94403736D01*
X150920311Y-94176452D01*
X150470185Y-93948391D01*
X150036594Y-93727446D01*
X149635218Y-93521507D01*
X149281739Y-93338469D01*
X148991838Y-93186222D01*
X148781196Y-93072659D01*
X148203733Y-92741258D01*
X147497096Y-92302001D01*
X146845681Y-91859470D01*
X146284202Y-91436415D01*
X145908784Y-91111961D01*
X145471907Y-90645339D01*
X145163814Y-90182852D01*
X144983024Y-89721454D01*
X144928057Y-89258102D01*
X144997433Y-88789752D01*
X145109396Y-88563214D01*
X145347546Y-88295740D01*
X145695395Y-88017074D01*
X146142449Y-87733215D01*
X146678214Y-87450160D01*
X147292198Y-87173910D01*
X147973907Y-86910461D01*
X148712846Y-86665815D01*
X148840843Y-86626632D01*
X149111948Y-86542947D01*
X149334410Y-86473371D01*
X149469582Y-86429950D01*
X149481014Y-86426276D01*
X149622426Y-86386984D01*
X149857594Y-86326743D01*
X150156600Y-86253074D01*
X150489530Y-86173499D01*
X150535183Y-86162728D01*
X150869781Y-86082382D01*
X151170048Y-86008006D01*
X151404681Y-85947473D01*
X151542380Y-85908658D01*
X151562305Y-85902504D01*
X151739347Y-85855710D01*
X151989809Y-85797143D01*
X152266214Y-85737997D01*
X152311254Y-85728806D01*
X152651704Y-85658582D01*
X153034436Y-85578668D01*
X153384867Y-85504625D01*
X153483550Y-85483772D01*
X153856837Y-85406820D01*
X154264736Y-85324946D01*
X154635126Y-85252683D01*
X154802354Y-85220166D01*
X155110223Y-85157678D01*
X155376141Y-85100552D01*
X155556369Y-85058032D01*
X155631315Y-85041183D01*
X155874837Y-85008157D01*
X156151525Y-84992154D01*
X156420503Y-84993471D01*
G37*
G36*
X163310354Y-85300140D02*
G01*
X163502095Y-85305102D01*
X163666242Y-85314327D01*
X163820604Y-85336294D01*
X163880047Y-85364377D01*
X163877340Y-85373640D01*
X163805677Y-85443908D01*
X163667136Y-85534721D01*
X163596442Y-85570567D01*
X163463989Y-85622512D01*
X163279165Y-85679774D01*
X163026611Y-85746327D01*
X162690966Y-85826147D01*
X162256869Y-85923209D01*
X161708960Y-86041488D01*
X161633875Y-86057654D01*
X161346380Y-86121777D01*
X161092281Y-86181579D01*
X160919323Y-86225911D01*
X160882149Y-86236262D01*
X160683080Y-86289866D01*
X160416585Y-86359915D01*
X160129685Y-86434017D01*
X160056104Y-86452947D01*
X159126920Y-86711501D01*
X158281478Y-86983807D01*
X157529329Y-87266002D01*
X156880020Y-87554224D01*
X156343102Y-87844612D01*
X155928123Y-88133303D01*
X155910994Y-88147380D01*
X155577174Y-88470684D01*
X155361005Y-88795385D01*
X155263684Y-89126697D01*
X155286409Y-89469831D01*
X155430377Y-89830000D01*
X155696788Y-90212418D01*
X156086838Y-90622296D01*
X156601725Y-91064848D01*
X156782229Y-91200640D01*
X157124068Y-91435037D01*
X157529617Y-91694655D01*
X157966562Y-91960022D01*
X158402590Y-92211668D01*
X158805387Y-92430121D01*
X159142639Y-92595911D01*
X159198269Y-92621554D01*
X159386018Y-92710045D01*
X159651822Y-92836748D01*
X159968674Y-92988764D01*
X160309568Y-93153197D01*
X160506832Y-93248144D01*
X160805891Y-93390148D01*
X161050092Y-93503674D01*
X161218307Y-93578953D01*
X161289407Y-93606217D01*
X161313167Y-93611604D01*
X161431658Y-93657251D01*
X161603048Y-93734262D01*
X161606666Y-93735972D01*
X161775574Y-93812983D01*
X162030588Y-93925981D01*
X162337751Y-94060041D01*
X162663105Y-94200233D01*
X162688438Y-94211075D01*
X163003498Y-94345983D01*
X163289161Y-94468422D01*
X163514891Y-94565300D01*
X163650152Y-94623520D01*
X163651457Y-94624084D01*
X163813721Y-94691764D01*
X164047819Y-94786582D01*
X164303534Y-94888195D01*
X164324261Y-94896364D01*
X164559961Y-94991654D01*
X164752829Y-95073653D01*
X164862861Y-95125396D01*
X164878655Y-95133426D01*
X165005260Y-95189053D01*
X165221763Y-95278652D01*
X165502462Y-95391705D01*
X165821654Y-95517698D01*
X165829744Y-95520861D01*
X166202917Y-95668030D01*
X166588130Y-95822014D01*
X166940448Y-95964740D01*
X167214932Y-96078130D01*
X167324740Y-96123887D01*
X167552826Y-96216206D01*
X167720396Y-96280204D01*
X167797215Y-96304144D01*
X167802424Y-96304590D01*
X167897671Y-96335840D01*
X168049015Y-96401256D01*
X168152049Y-96446778D01*
X168384028Y-96541836D01*
X168721424Y-96674451D01*
X169170356Y-96847016D01*
X169736939Y-97061926D01*
X169738996Y-97062703D01*
X169958840Y-97154341D01*
X170164660Y-97252529D01*
X170171520Y-97256101D01*
X170336993Y-97327031D01*
X170462583Y-97356589D01*
X170548270Y-97373980D01*
X170692894Y-97443397D01*
X170727963Y-97463805D01*
X170886095Y-97539282D01*
X171116347Y-97637501D01*
X171382017Y-97742532D01*
X171416176Y-97755526D01*
X171702988Y-97865173D01*
X171912820Y-97947436D01*
X172087696Y-98019608D01*
X172269638Y-98098980D01*
X172500670Y-98202844D01*
X172550616Y-98225133D01*
X172778475Y-98323467D01*
X173063613Y-98443165D01*
X173356110Y-98563199D01*
X173396821Y-98579748D01*
X173702973Y-98706738D01*
X174078893Y-98865856D01*
X174492709Y-99043302D01*
X174912551Y-99225272D01*
X175306549Y-99397966D01*
X175642832Y-99547581D01*
X175889530Y-99660316D01*
X175925298Y-99677006D01*
X176133026Y-99772509D01*
X176400542Y-99894042D01*
X176679167Y-100019462D01*
X176878332Y-100109891D01*
X177276509Y-100295445D01*
X177740873Y-100516342D01*
X178252917Y-100763405D01*
X178794131Y-101027456D01*
X179346008Y-101299319D01*
X179890039Y-101569817D01*
X180407716Y-101829773D01*
X180880530Y-102070010D01*
X181289972Y-102281352D01*
X181617536Y-102454622D01*
X181844711Y-102580643D01*
X181938178Y-102633954D01*
X182166561Y-102757843D01*
X182356332Y-102853125D01*
X182417769Y-102883638D01*
X182625976Y-102997693D01*
X182916378Y-103165437D01*
X183269271Y-103374834D01*
X183664950Y-103613847D01*
X184083711Y-103870438D01*
X184505849Y-104132571D01*
X184911662Y-104388208D01*
X185281443Y-104625314D01*
X185595489Y-104831851D01*
X185764519Y-104945116D01*
X186145094Y-105201274D01*
X186449062Y-105408739D01*
X186700467Y-105584872D01*
X186923355Y-105747030D01*
X187141770Y-105912572D01*
X187379758Y-106098857D01*
X187661365Y-106323243D01*
X188613238Y-107115144D01*
X189627810Y-108042754D01*
X190529065Y-108969739D01*
X191326048Y-109906854D01*
X192027805Y-110864853D01*
X192643384Y-111854493D01*
X193181830Y-112886528D01*
X193284733Y-113103736D01*
X193432954Y-113423776D01*
X193555951Y-113704637D01*
X193664031Y-113973917D01*
X193767505Y-114259214D01*
X193876684Y-114588124D01*
X194001876Y-114988244D01*
X194153391Y-115487173D01*
X194158529Y-115505080D01*
X194197822Y-115664529D01*
X194254322Y-115916207D01*
X194321256Y-116229282D01*
X194391853Y-116572924D01*
X194396413Y-116595597D01*
X194442523Y-116829432D01*
X194479684Y-117036111D01*
X194508872Y-117233274D01*
X194531062Y-117438562D01*
X194547230Y-117669614D01*
X194558351Y-117944072D01*
X194565401Y-118279575D01*
X194569354Y-118693763D01*
X194571186Y-119204276D01*
X194571872Y-119828756D01*
X194571942Y-120393851D01*
X194570646Y-120922181D01*
X194566919Y-121355830D01*
X194559748Y-121714344D01*
X194548120Y-122017267D01*
X194531020Y-122284146D01*
X194507436Y-122534526D01*
X194476354Y-122787952D01*
X194436762Y-123063969D01*
X194387645Y-123382124D01*
X194330654Y-123739240D01*
X194274542Y-124077854D01*
X194227053Y-124350938D01*
X194191938Y-124536970D01*
X194172945Y-124614427D01*
X194163182Y-124643561D01*
X194132662Y-124781682D01*
X194091539Y-125001809D01*
X194045890Y-125272458D01*
X194024961Y-125398711D01*
X193972941Y-125685787D01*
X193923465Y-125926943D01*
X193884930Y-126080051D01*
X193873671Y-126117630D01*
X193825942Y-126292520D01*
X193757573Y-126555627D01*
X193675958Y-126878228D01*
X193588490Y-127231605D01*
X193476276Y-127686931D01*
X193329443Y-128270327D01*
X193208941Y-128731730D01*
X193113725Y-129075102D01*
X193042754Y-129304403D01*
X193039180Y-129314985D01*
X192985392Y-129484941D01*
X192912258Y-129728036D01*
X192834525Y-129995336D01*
X192829361Y-130013373D01*
X192747743Y-130287795D01*
X192667680Y-130540612D01*
X192605809Y-130719170D01*
X192585998Y-130773471D01*
X192516695Y-130979341D01*
X192430493Y-131250074D01*
X192341516Y-131541709D01*
X192303406Y-131668216D01*
X192218858Y-131939921D01*
X192145929Y-132162948D01*
X192097163Y-132298445D01*
X192053786Y-132414473D01*
X191978276Y-132629619D01*
X191883102Y-132908549D01*
X191779162Y-133219688D01*
X191704398Y-133443423D01*
X191554739Y-133882105D01*
X191397189Y-134334947D01*
X191255548Y-134733160D01*
X191151507Y-135021703D01*
X191038234Y-135337257D01*
X190942784Y-135604614D01*
X190878674Y-135786010D01*
X190845573Y-135877415D01*
X190776107Y-136049829D01*
X190726404Y-136147927D01*
X190721677Y-136154990D01*
X190674387Y-136271278D01*
X190628252Y-136444041D01*
X190625012Y-136458543D01*
X190553859Y-136683387D01*
X190456145Y-136903688D01*
X190436296Y-136941999D01*
X190362204Y-137112514D01*
X190331080Y-137232704D01*
X190326632Y-137265242D01*
X190280745Y-137411514D01*
X190201706Y-137595595D01*
X190168357Y-137666725D01*
X190100410Y-137828507D01*
X190072333Y-137923146D01*
X190066205Y-137951417D01*
X190021841Y-138085132D01*
X189944141Y-138294448D01*
X189844439Y-138548276D01*
X189822135Y-138603791D01*
X189689251Y-138937155D01*
X189553508Y-139281228D01*
X189441094Y-139569688D01*
X189337843Y-139831771D01*
X189228095Y-140100779D01*
X189140330Y-140306363D01*
X189105588Y-140387048D01*
X189042325Y-140553025D01*
X189017250Y-140650069D01*
X189011538Y-140682758D01*
X188966155Y-140817487D01*
X188890291Y-140999146D01*
X188817302Y-141169878D01*
X188711413Y-141429114D01*
X188587109Y-141740983D01*
X188458608Y-142070207D01*
X188447869Y-142098021D01*
X188328004Y-142406554D01*
X188221601Y-142677190D01*
X188139872Y-142881599D01*
X188094029Y-142991450D01*
X188082782Y-143017053D01*
X188020552Y-143167697D01*
X187931211Y-143391262D01*
X187830107Y-143649481D01*
X187800362Y-143725230D01*
X187694243Y-143981682D01*
X187598375Y-144194567D01*
X187530492Y-144323963D01*
X187449529Y-144405117D01*
X187302736Y-144465735D01*
X187160130Y-144462363D01*
X187072551Y-144387902D01*
X187069866Y-144378444D01*
X187082242Y-144243568D01*
X187149416Y-144000148D01*
X187268721Y-143656705D01*
X187437491Y-143221761D01*
X187496113Y-143074725D01*
X187598345Y-142812407D01*
X187679789Y-142596631D01*
X187702710Y-142536669D01*
X187777573Y-142368672D01*
X187837401Y-142270906D01*
X187856123Y-142247628D01*
X187898597Y-142122132D01*
X187903801Y-142086243D01*
X187948904Y-141942618D01*
X188025245Y-141756925D01*
X188057606Y-141684175D01*
X188111840Y-141556945D01*
X188180686Y-141389473D01*
X188268802Y-141169959D01*
X188380848Y-140886603D01*
X188521480Y-140527605D01*
X188695358Y-140081164D01*
X188907140Y-139535481D01*
X189161485Y-138878756D01*
X189249902Y-138650954D01*
X189383443Y-138309350D01*
X189500262Y-138013406D01*
X189590184Y-137788848D01*
X189643033Y-137661398D01*
X189665304Y-137608914D01*
X189747879Y-137396633D01*
X189829159Y-137167875D01*
X189871756Y-137044474D01*
X189969666Y-136773925D01*
X190069709Y-136509844D01*
X190081529Y-136479511D01*
X190178475Y-136226990D01*
X190277827Y-135960268D01*
X190389596Y-135651751D01*
X190523793Y-135273847D01*
X190690429Y-134798963D01*
X190772939Y-134565424D01*
X190869831Y-134297575D01*
X190947274Y-134090658D01*
X190993565Y-133976424D01*
X190993960Y-133975570D01*
X191031018Y-133877236D01*
X191102619Y-133671846D01*
X191202791Y-133377111D01*
X191325559Y-133010741D01*
X191464950Y-132590446D01*
X191614992Y-132133937D01*
X191765694Y-131674199D01*
X191906657Y-131245693D01*
X192031398Y-130868013D01*
X192133769Y-130559730D01*
X192207619Y-130339417D01*
X192246800Y-130225647D01*
X192307276Y-130042739D01*
X192398838Y-129736320D01*
X192510870Y-129341095D01*
X192637975Y-128877669D01*
X192774756Y-128366648D01*
X192915815Y-127828636D01*
X193055755Y-127284241D01*
X193189180Y-126754066D01*
X193310692Y-126258718D01*
X193414894Y-125818801D01*
X193496389Y-125454922D01*
X193508096Y-125400019D01*
X193727082Y-124261480D01*
X193903968Y-123117108D01*
X194035076Y-121998040D01*
X194116731Y-120935412D01*
X194145255Y-119960362D01*
X194137900Y-119450888D01*
X194114925Y-118876784D01*
X194078667Y-118292165D01*
X194031506Y-117725455D01*
X193975823Y-117205076D01*
X193914001Y-116759451D01*
X193848419Y-116417002D01*
X193763778Y-116070180D01*
X193627681Y-115548152D01*
X193488468Y-115051510D01*
X193353751Y-114606092D01*
X193231141Y-114237736D01*
X193128250Y-113972279D01*
X193121548Y-113957037D01*
X193047726Y-113787547D01*
X192944909Y-113549831D01*
X192833185Y-113290319D01*
X192810726Y-113238930D01*
X192634272Y-112870877D01*
X192407155Y-112440357D01*
X192151093Y-111986097D01*
X191887810Y-111546822D01*
X191639023Y-111161257D01*
X191535379Y-111011944D01*
X191152830Y-110503078D01*
X190699047Y-109949099D01*
X190197832Y-109375931D01*
X189672988Y-108809500D01*
X189148318Y-108275729D01*
X188647625Y-107800545D01*
X188194711Y-107409872D01*
X188147780Y-107372002D01*
X187726928Y-107032372D01*
X187393261Y-106763328D01*
X187132809Y-106554026D01*
X186931606Y-106393623D01*
X186775682Y-106271276D01*
X186651069Y-106176143D01*
X186543799Y-106097379D01*
X186439902Y-106024143D01*
X186325411Y-105945591D01*
X186186357Y-105850879D01*
X185734052Y-105543003D01*
X185178579Y-105167279D01*
X184728543Y-104866109D01*
X184384459Y-104639836D01*
X184146845Y-104488800D01*
X184016214Y-104413344D01*
X183885170Y-104344902D01*
X183723945Y-104250347D01*
X183626885Y-104188139D01*
X183127286Y-103882487D01*
X182530214Y-103536603D01*
X181854586Y-103160561D01*
X181119321Y-102764437D01*
X180343335Y-102358307D01*
X179545547Y-101952246D01*
X178744875Y-101556330D01*
X177960236Y-101180634D01*
X177680227Y-101048943D01*
X177309020Y-100874310D01*
X176959017Y-100709604D01*
X176679167Y-100577856D01*
X176504854Y-100497059D01*
X176144910Y-100334388D01*
X175681835Y-100128732D01*
X175126630Y-99884937D01*
X174490295Y-99607850D01*
X173783831Y-99302316D01*
X173775894Y-99298891D01*
X173571188Y-99209405D01*
X173356110Y-99113902D01*
X173338690Y-99106125D01*
X173152314Y-99024846D01*
X172900394Y-98917064D01*
X172632276Y-98803912D01*
X172592527Y-98787243D01*
X172328888Y-98675732D01*
X172092857Y-98574452D01*
X171931399Y-98503532D01*
X171911283Y-98494519D01*
X171766549Y-98434428D01*
X171687579Y-98409844D01*
X171674021Y-98406211D01*
X171565343Y-98365287D01*
X171371486Y-98287464D01*
X171118408Y-98183528D01*
X170832067Y-98064264D01*
X170538422Y-97940460D01*
X170263432Y-97822901D01*
X170033053Y-97722372D01*
X169854348Y-97649779D01*
X169671136Y-97586571D01*
X169551426Y-97544156D01*
X169440825Y-97487261D01*
X169395903Y-97462657D01*
X169246357Y-97403213D01*
X169046007Y-97337309D01*
X168932398Y-97300278D01*
X168676592Y-97207927D01*
X168370828Y-97090195D01*
X168058960Y-96963684D01*
X167857567Y-96880010D01*
X167569912Y-96761806D01*
X167328403Y-96664059D01*
X167170618Y-96602066D01*
X167168675Y-96601332D01*
X166948786Y-96509280D01*
X166742898Y-96410056D01*
X166731546Y-96404075D01*
X166576683Y-96333744D01*
X166471599Y-96304550D01*
X166429587Y-96297773D01*
X166317584Y-96260989D01*
X166132086Y-96186755D01*
X165857891Y-96068890D01*
X165479798Y-95901212D01*
X165398440Y-95865958D01*
X165235384Y-95802756D01*
X165142641Y-95777719D01*
X165097770Y-95766034D01*
X164949514Y-95711566D01*
X164728909Y-95622767D01*
X164464549Y-95510887D01*
X164312668Y-95445371D01*
X164012046Y-95316553D01*
X163743545Y-95202520D01*
X163551447Y-95122124D01*
X163537154Y-95116217D01*
X163367533Y-95044949D01*
X163101597Y-94932037D01*
X162760966Y-94786731D01*
X162367255Y-94618277D01*
X161942084Y-94435923D01*
X161507070Y-94248918D01*
X161083831Y-94066509D01*
X159498745Y-93333056D01*
X157882210Y-92470770D01*
X156375710Y-91540803D01*
X156161846Y-91381088D01*
X155868911Y-91122218D01*
X155569841Y-90822880D01*
X155292533Y-90512877D01*
X155064884Y-90222011D01*
X154914789Y-89980083D01*
X154909274Y-89968773D01*
X154764549Y-89535193D01*
X154748897Y-89105971D01*
X154859849Y-88685417D01*
X155094938Y-88277844D01*
X155451693Y-87887562D01*
X155927648Y-87518883D01*
X156520332Y-87176119D01*
X156788889Y-87046268D01*
X157502797Y-86743202D01*
X158321305Y-86446139D01*
X159225514Y-86161213D01*
X160196525Y-85894560D01*
X161215437Y-85652311D01*
X161298781Y-85633975D01*
X161781721Y-85527831D01*
X162158866Y-85446112D01*
X162450042Y-85385808D01*
X162675077Y-85343908D01*
X162853799Y-85317402D01*
X163006034Y-85303279D01*
X163151610Y-85298528D01*
X163310354Y-85300140D01*
G37*
D15*
%TO.C,C106*%
X150659420Y-103590000D02*
X150940580Y-103590000D01*
X150659420Y-104610000D02*
X150940580Y-104610000D01*
%TO.C,R104*%
X131937258Y-105777500D02*
X131462742Y-105777500D01*
X131937258Y-106822500D02*
X131462742Y-106822500D01*
%TO.C,R109*%
X154577500Y-107937258D02*
X154577500Y-107462742D01*
X155622500Y-107937258D02*
X155622500Y-107462742D01*
%TO.C,R102*%
X131937258Y-108777500D02*
X131462742Y-108777500D01*
X131937258Y-109822500D02*
X131462742Y-109822500D01*
%TO.C,R110*%
X131137258Y-120277500D02*
X130662742Y-120277500D01*
X131137258Y-121322500D02*
X130662742Y-121322500D01*
%TO.C,R108*%
X154577500Y-104462742D02*
X154577500Y-104937258D01*
X155622500Y-104462742D02*
X155622500Y-104937258D01*
%TO.C,R111*%
X131137258Y-121777500D02*
X130662742Y-121777500D01*
X131137258Y-122822500D02*
X130662742Y-122822500D01*
%TO.C,C108*%
X137490000Y-105159420D02*
X137490000Y-105440580D01*
X138510000Y-105159420D02*
X138510000Y-105440580D01*
%TO.C,U104*%
X135200000Y-113340000D02*
X137400000Y-113340000D01*
X135200000Y-115660000D02*
X137400000Y-115660000D01*
X134650000Y-115850000D02*
X134370000Y-115570000D01*
X134650000Y-115570000D01*
X134650000Y-115850000D01*
G36*
X134650000Y-115850000D02*
G01*
X134370000Y-115570000D01*
X134650000Y-115570000D01*
X134650000Y-115850000D01*
G37*
%TO.C,C104*%
X140940580Y-102290000D02*
X140659420Y-102290000D01*
X140940580Y-103310000D02*
X140659420Y-103310000D01*
%TO.C,C105*%
X140370000Y-114559420D02*
X140370000Y-114840580D01*
X141390000Y-114559420D02*
X141390000Y-114840580D01*
%TO.C,C103*%
X138990000Y-105159420D02*
X138990000Y-105440580D01*
X140010000Y-105159420D02*
X140010000Y-105440580D01*
%TO.C,R113*%
X138277500Y-111537258D02*
X138277500Y-111062742D01*
X139322500Y-111537258D02*
X139322500Y-111062742D01*
%TO.C,C107*%
X141890000Y-114559420D02*
X141890000Y-114840580D01*
X142910000Y-114559420D02*
X142910000Y-114840580D01*
%TO.C,R107*%
X150062742Y-113477500D02*
X150537258Y-113477500D01*
X150062742Y-114522500D02*
X150537258Y-114522500D01*
%TO.C,R112*%
X136777500Y-111937258D02*
X136777500Y-111462742D01*
X137822500Y-111937258D02*
X137822500Y-111462742D01*
%TO.C,C109*%
X134590000Y-105159420D02*
X134590000Y-105440580D01*
X135610000Y-105159420D02*
X135610000Y-105440580D01*
%TO.C,C102*%
X150990000Y-109840580D02*
X150990000Y-109559420D01*
X152010000Y-109840580D02*
X152010000Y-109559420D01*
%TO.C,C112*%
X153090000Y-107559420D02*
X153090000Y-107840580D01*
X154110000Y-107559420D02*
X154110000Y-107840580D01*
%TO.C,R103*%
X131937258Y-107277500D02*
X131462742Y-107277500D01*
X131937258Y-108322500D02*
X131462742Y-108322500D01*
%TO.C,R115*%
X131137258Y-123277500D02*
X130662742Y-123277500D01*
X131137258Y-124322500D02*
X130662742Y-124322500D01*
%TO.C,U102*%
X143790000Y-114250000D02*
X143790000Y-115750000D01*
X145710000Y-114250000D02*
X145710000Y-115750000D01*
X143950000Y-113730000D02*
X143670000Y-113730000D01*
X143950000Y-113450000D01*
X143950000Y-113730000D01*
G36*
X143950000Y-113730000D02*
G01*
X143670000Y-113730000D01*
X143950000Y-113450000D01*
X143950000Y-113730000D01*
G37*
%TO.C,R105*%
X136037258Y-108577500D02*
X135562742Y-108577500D01*
X136037258Y-109622500D02*
X135562742Y-109622500D01*
%TO.C,C114*%
X138490000Y-114740580D02*
X138490000Y-114459420D01*
X139510000Y-114740580D02*
X139510000Y-114459420D01*
%TO.C,U103*%
X127090000Y-116065000D02*
X127090000Y-116215000D01*
X130150000Y-116015000D02*
X127150000Y-116015000D01*
X130150000Y-119235000D02*
X127150000Y-119235000D01*
X131190000Y-116285000D02*
X130710000Y-116285000D01*
X130710000Y-115805000D01*
X131190000Y-116285000D01*
G36*
X131190000Y-116285000D02*
G01*
X130710000Y-116285000D01*
X130710000Y-115805000D01*
X131190000Y-116285000D01*
G37*
%TO.C,C101*%
X150659420Y-102090000D02*
X150940580Y-102090000D01*
X150659420Y-103110000D02*
X150940580Y-103110000D01*
%TO.C,C111*%
X153090000Y-104840580D02*
X153090000Y-104559420D01*
X154110000Y-104840580D02*
X154110000Y-104559420D01*
%TO.C,U101*%
X141890000Y-104427500D02*
X142340000Y-104427500D01*
X141890000Y-104877500D02*
X141890000Y-104427500D01*
X141890000Y-111197500D02*
X141890000Y-111647500D01*
X141890000Y-111647500D02*
X142340000Y-111647500D01*
X149110000Y-104427500D02*
X148660000Y-104427500D01*
X149110000Y-104877500D02*
X149110000Y-104427500D01*
X149110000Y-111197500D02*
X149110000Y-111647500D01*
X149110000Y-111647500D02*
X148660000Y-111647500D01*
X142340000Y-103837500D02*
X141870000Y-104177500D01*
X141870000Y-103497500D01*
X142340000Y-103837500D01*
G36*
X142340000Y-103837500D02*
G01*
X141870000Y-104177500D01*
X141870000Y-103497500D01*
X142340000Y-103837500D01*
G37*
%TO.C,C113*%
X131090000Y-118059420D02*
X131090000Y-118340580D01*
X132110000Y-118059420D02*
X132110000Y-118340580D01*
%TO.C,R106*%
X150062742Y-114977500D02*
X150537258Y-114977500D01*
X150062742Y-116022500D02*
X150537258Y-116022500D01*
%TO.C,J105*%
X140330000Y-121200000D02*
X140330000Y-119500000D01*
X149670000Y-121200000D02*
X149670000Y-119500000D01*
%TO.C,C117*%
X133140580Y-113790000D02*
X132859420Y-113790000D01*
X133140580Y-114810000D02*
X132859420Y-114810000D01*
%TO.C,J107*%
X132840000Y-117190000D02*
X133760000Y-117190000D01*
X132840000Y-118790000D02*
X133760000Y-118790000D01*
X132840000Y-125010000D02*
X132840000Y-117190000D01*
X133600000Y-121150000D02*
X133600000Y-122750000D01*
X133600000Y-122750000D02*
X134600000Y-122750000D01*
X133760000Y-117190000D02*
X133760000Y-118790000D01*
X133760000Y-118790000D02*
X134040000Y-118790000D01*
X134600000Y-121150000D02*
X133600000Y-121150000D01*
X134600000Y-122750000D02*
X134600000Y-121150000D01*
X135400000Y-120650000D02*
X135400000Y-125010000D01*
X136400000Y-120650000D02*
X135400000Y-120650000D01*
X136400000Y-125010000D02*
X136400000Y-120650000D01*
X137200000Y-121150000D02*
X138200000Y-121150000D01*
X137200000Y-122750000D02*
X137200000Y-121150000D01*
X137200000Y-122750000D02*
X137200000Y-125010000D01*
X137700000Y-122750000D02*
X137700000Y-125010000D01*
X137760000Y-118790000D02*
X137760000Y-117575000D01*
X137760000Y-118790000D02*
X138040000Y-118790000D01*
X138040000Y-117190000D02*
X138960000Y-117190000D01*
X138040000Y-118790000D02*
X138040000Y-117190000D01*
X138200000Y-121150000D02*
X138200000Y-122750000D01*
X138200000Y-122750000D02*
X137200000Y-122750000D01*
X138960000Y-117190000D02*
X138960000Y-125010000D01*
X138960000Y-118790000D02*
X138040000Y-118790000D01*
X138960000Y-125010000D02*
X132840000Y-125010000D01*
%TO.C,C110*%
X135940580Y-107090000D02*
X135659420Y-107090000D01*
X135940580Y-108110000D02*
X135659420Y-108110000D01*
%TO.C,C115*%
X125190000Y-117559420D02*
X125190000Y-117840580D01*
X126210000Y-117559420D02*
X126210000Y-117840580D01*
%TO.C,C116*%
X133140580Y-115290000D02*
X132859420Y-115290000D01*
X133140580Y-116310000D02*
X132859420Y-116310000D01*
%TO.C,R114*%
X134937258Y-111977500D02*
X134462742Y-111977500D01*
X134937258Y-113022500D02*
X134462742Y-113022500D01*
%TO.C,R101*%
X131937258Y-110277500D02*
X131462742Y-110277500D01*
X131937258Y-111322500D02*
X131462742Y-111322500D01*
%TD*%
%LPC*%
D16*
%TO.C,RV102*%
X164920000Y-90000000D03*
X167460000Y-90000000D03*
X170000000Y-90000000D03*
%TD*%
%TO.C,RV101*%
X119920000Y-90000000D03*
X122460000Y-90000000D03*
X125000000Y-90000000D03*
%TD*%
D17*
%TO.C,J104*%
X135000000Y-87420000D03*
D18*
X135000000Y-89960000D03*
X135000000Y-92500000D03*
X135000000Y-95040000D03*
%TD*%
%TO.C,J103*%
X155000000Y-95000000D03*
X155000000Y-92460000D03*
X155000000Y-89920000D03*
D17*
X155000000Y-87380000D03*
%TD*%
%TO.C,J102*%
X143725000Y-95100000D03*
D18*
X146265000Y-95100000D03*
%TD*%
D17*
%TO.C,J106*%
X153600000Y-112960000D03*
D18*
X153600000Y-115500000D03*
X153600000Y-118040000D03*
X153600000Y-120580000D03*
X153600000Y-123120000D03*
%TD*%
%TO.C,J101*%
X151375000Y-99975000D03*
X148835000Y-99975000D03*
X146295000Y-99975000D03*
X143755000Y-99975000D03*
X141215000Y-99975000D03*
D17*
X138675000Y-99975000D03*
%TD*%
D19*
%TO.C,C106*%
X150025000Y-104100000D03*
X151575000Y-104100000D03*
%TD*%
D20*
%TO.C,R104*%
X132525000Y-106300000D03*
X130875000Y-106300000D03*
%TD*%
D21*
%TO.C,R109*%
X155100000Y-108525000D03*
X155100000Y-106875000D03*
%TD*%
D20*
%TO.C,R102*%
X132525000Y-109300000D03*
X130875000Y-109300000D03*
%TD*%
%TO.C,R110*%
X131725000Y-120800000D03*
X130075000Y-120800000D03*
%TD*%
D22*
%TO.C,R108*%
X155100000Y-103875000D03*
X155100000Y-105525000D03*
%TD*%
D20*
%TO.C,R111*%
X131725000Y-122300000D03*
X130075000Y-122300000D03*
%TD*%
D23*
%TO.C,C108*%
X138000000Y-104525000D03*
X138000000Y-106075000D03*
%TD*%
D24*
%TO.C,U104*%
X135200000Y-115300000D03*
X135200000Y-114900000D03*
X135200000Y-114500000D03*
X135200000Y-114100000D03*
X135200000Y-113700000D03*
X137400000Y-113700000D03*
X137400000Y-114100000D03*
X137400000Y-114500000D03*
X137400000Y-114900000D03*
X137400000Y-115300000D03*
D25*
X136300000Y-114500000D03*
%TD*%
D26*
%TO.C,C104*%
X141575000Y-102800000D03*
X140025000Y-102800000D03*
%TD*%
D23*
%TO.C,C105*%
X140880000Y-113925000D03*
X140880000Y-115475000D03*
%TD*%
%TO.C,C103*%
X139500000Y-104525000D03*
X139500000Y-106075000D03*
%TD*%
D21*
%TO.C,R113*%
X138800000Y-112125000D03*
X138800000Y-110475000D03*
%TD*%
D23*
%TO.C,C107*%
X142400000Y-113925000D03*
X142400000Y-115475000D03*
%TD*%
D27*
%TO.C,R107*%
X149475000Y-114000000D03*
X151125000Y-114000000D03*
%TD*%
D21*
%TO.C,R112*%
X137300000Y-112525000D03*
X137300000Y-110875000D03*
%TD*%
D23*
%TO.C,C109*%
X135100000Y-104525000D03*
X135100000Y-106075000D03*
%TD*%
D28*
%TO.C,C102*%
X151500000Y-110475000D03*
X151500000Y-108925000D03*
%TD*%
D23*
%TO.C,C112*%
X153600000Y-106925000D03*
X153600000Y-108475000D03*
%TD*%
D20*
%TO.C,R103*%
X132525000Y-107800000D03*
X130875000Y-107800000D03*
%TD*%
%TO.C,R115*%
X131725000Y-123800000D03*
X130075000Y-123800000D03*
%TD*%
D29*
%TO.C,U102*%
X144250000Y-114312500D03*
X144750000Y-114312500D03*
X145250000Y-114312500D03*
X145250000Y-115687500D03*
X144750000Y-115687500D03*
X144250000Y-115687500D03*
%TD*%
D20*
%TO.C,R105*%
X136625000Y-109100000D03*
X134975000Y-109100000D03*
%TD*%
D28*
%TO.C,C114*%
X139000000Y-115375000D03*
X139000000Y-113825000D03*
%TD*%
D30*
%TO.C,U103*%
X130200000Y-116650000D03*
X130200000Y-117300000D03*
X130200000Y-117950000D03*
X130200000Y-118600000D03*
X127100000Y-118600000D03*
X127100000Y-117950000D03*
X127100000Y-117300000D03*
X127100000Y-116650000D03*
D31*
X128650000Y-117625000D03*
%TD*%
D19*
%TO.C,C101*%
X150025000Y-102600000D03*
X151575000Y-102600000D03*
%TD*%
D28*
%TO.C,C111*%
X153600000Y-105475000D03*
X153600000Y-103925000D03*
%TD*%
D32*
%TO.C,U101*%
X142750000Y-103875000D03*
X143250000Y-103875000D03*
X143750000Y-103875000D03*
X144250000Y-103875000D03*
X144750000Y-103875000D03*
X145250000Y-103875000D03*
X145750000Y-103875000D03*
X146250000Y-103875000D03*
X146750000Y-103875000D03*
X147250000Y-103875000D03*
X147750000Y-103875000D03*
X148250000Y-103875000D03*
D33*
X149662500Y-105287500D03*
X149662500Y-105787500D03*
X149662500Y-106287500D03*
X149662500Y-106787500D03*
X149662500Y-107287500D03*
X149662500Y-107787500D03*
X149662500Y-108287500D03*
X149662500Y-108787500D03*
X149662500Y-109287500D03*
X149662500Y-109787500D03*
X149662500Y-110287500D03*
X149662500Y-110787500D03*
D32*
X148250000Y-112200000D03*
X147750000Y-112200000D03*
X147250000Y-112200000D03*
X146750000Y-112200000D03*
X146250000Y-112200000D03*
X145750000Y-112200000D03*
X145250000Y-112200000D03*
X144750000Y-112200000D03*
X144250000Y-112200000D03*
X143750000Y-112200000D03*
X143250000Y-112200000D03*
X142750000Y-112200000D03*
D33*
X141337500Y-110787500D03*
X141337500Y-110287500D03*
X141337500Y-109787500D03*
X141337500Y-109287500D03*
X141337500Y-108787500D03*
X141337500Y-108287500D03*
X141337500Y-107787500D03*
X141337500Y-107287500D03*
X141337500Y-106787500D03*
X141337500Y-106287500D03*
X141337500Y-105787500D03*
X141337500Y-105287500D03*
%TD*%
D23*
%TO.C,C113*%
X131600000Y-117425000D03*
X131600000Y-118975000D03*
%TD*%
D27*
%TO.C,R106*%
X149475000Y-115500000D03*
X151125000Y-115500000D03*
%TD*%
D34*
%TO.C,J105*%
X147890000Y-118695000D03*
X142110000Y-118695000D03*
D35*
X148200000Y-117620000D03*
X147400000Y-117620000D03*
D36*
X146250000Y-117620000D03*
X145250000Y-117620000D03*
X144750000Y-117620000D03*
X143750000Y-117620000D03*
D35*
X142600000Y-117620000D03*
X141800000Y-117620000D03*
X141800000Y-117620000D03*
X142600000Y-117620000D03*
D36*
X143250000Y-117620000D03*
X144250000Y-117620000D03*
X145750000Y-117620000D03*
X146750000Y-117620000D03*
D35*
X147400000Y-117620000D03*
X148200000Y-117620000D03*
D37*
X149320000Y-122375000D03*
D38*
X149320000Y-118195000D03*
D37*
X140680000Y-122375000D03*
D38*
X140680000Y-118195000D03*
%TD*%
D26*
%TO.C,C117*%
X133775000Y-114300000D03*
X132225000Y-114300000D03*
%TD*%
D39*
%TO.C,J107*%
X136900000Y-118650000D03*
D40*
X134900000Y-118650000D03*
%TD*%
D26*
%TO.C,C110*%
X136575000Y-107600000D03*
X135025000Y-107600000D03*
%TD*%
D23*
%TO.C,C115*%
X125700000Y-116925000D03*
X125700000Y-118475000D03*
%TD*%
D26*
%TO.C,C116*%
X133775000Y-115800000D03*
X132225000Y-115800000D03*
%TD*%
D20*
%TO.C,R114*%
X135525000Y-112500000D03*
X133875000Y-112500000D03*
%TD*%
%TO.C,R101*%
X132525000Y-110800000D03*
X130875000Y-110800000D03*
%TD*%
%LPD*%
M02*
