%TF.GenerationSoftware,KiCad,Pcbnew,9.0.4*%
%TF.CreationDate,2026-04-15T21:57:54-05:00*%
%TF.ProjectId,controller,636f6e74-726f-46c6-9c65-722e6b696361,A*%
%TF.SameCoordinates,Original*%
%TF.FileFunction,Paste,Bot*%
%TF.FilePolarity,Positive*%
%FSLAX46Y46*%
G04 Gerber Fmt 4.6, Leading zero omitted, Abs format (unit mm)*
G04 Created by KiCad (PCBNEW 9.0.4) date 2026-04-15 21:57:54*
%MOMM*%
%LPD*%
G01*
G04 APERTURE LIST*
G04 Aperture macros list*
%AMRoundRect*
0 Rectangle with rounded corners*
0 $1 Rounding radius*
0 $2 $3 $4 $5 $6 $7 $8 $9 X,Y pos of 4 corners*
0 Add a 4 corners polygon primitive as box body*
4,1,4,$2,$3,$4,$5,$6,$7,$8,$9,$2,$3,0*
0 Add four circle primitives for the rounded corners*
1,1,$1+$1,$2,$3*
1,1,$1+$1,$4,$5*
1,1,$1+$1,$6,$7*
1,1,$1+$1,$8,$9*
0 Add four rect primitives between the rounded corners*
20,1,$1+$1,$2,$3,$4,$5,0*
20,1,$1+$1,$4,$5,$6,$7,0*
20,1,$1+$1,$6,$7,$8,$9,0*
20,1,$1+$1,$8,$9,$2,$3,0*%
G04 Aperture macros list end*
%ADD10RoundRect,0.225000X-0.225000X-0.250000X0.225000X-0.250000X0.225000X0.250000X-0.225000X0.250000X0*%
%ADD11RoundRect,0.200000X0.200000X0.275000X-0.200000X0.275000X-0.200000X-0.275000X0.200000X-0.275000X0*%
%ADD12RoundRect,0.200000X0.275000X-0.200000X0.275000X0.200000X-0.275000X0.200000X-0.275000X-0.200000X0*%
%ADD13RoundRect,0.200000X-0.275000X0.200000X-0.275000X-0.200000X0.275000X-0.200000X0.275000X0.200000X0*%
%ADD14RoundRect,0.225000X-0.250000X0.225000X-0.250000X-0.225000X0.250000X-0.225000X0.250000X0.225000X0*%
%ADD15RoundRect,0.210000X-0.210000X-0.495000X0.210000X-0.495000X0.210000X0.495000X-0.210000X0.495000X0*%
%ADD16RoundRect,0.050000X-0.325000X-0.050000X0.325000X-0.050000X0.325000X0.050000X-0.325000X0.050000X0*%
%ADD17RoundRect,0.225000X0.225000X0.250000X-0.225000X0.250000X-0.225000X-0.250000X0.225000X-0.250000X0*%
%ADD18RoundRect,0.200000X-0.200000X-0.275000X0.200000X-0.275000X0.200000X0.275000X-0.200000X0.275000X0*%
%ADD19RoundRect,0.225000X0.250000X-0.225000X0.250000X0.225000X-0.250000X0.225000X-0.250000X-0.225000X0*%
%ADD20RoundRect,0.062500X-0.062500X0.350000X-0.062500X-0.350000X0.062500X-0.350000X0.062500X0.350000X0*%
%ADD21R,0.600000X1.000000*%
%ADD22R,0.650000X0.350000*%
%ADD23RoundRect,0.075000X-0.075000X0.662500X-0.075000X-0.662500X0.075000X-0.662500X0.075000X0.662500X0*%
%ADD24RoundRect,0.075000X-0.662500X0.075000X-0.662500X-0.075000X0.662500X-0.075000X0.662500X0.075000X0*%
%ADD25RoundRect,0.150000X0.150000X0.425000X-0.150000X0.425000X-0.150000X-0.425000X0.150000X-0.425000X0*%
%ADD26RoundRect,0.075000X0.075000X0.500000X-0.075000X0.500000X-0.075000X-0.500000X0.075000X-0.500000X0*%
%ADD27O,1.000000X1.800000*%
%ADD28O,1.000000X2.100000*%
G04 APERTURE END LIST*
D10*
%TO.C,C106*%
X150025000Y-104100000D03*
X151575000Y-104100000D03*
%TD*%
D11*
%TO.C,R104*%
X132525000Y-106300000D03*
X130875000Y-106300000D03*
%TD*%
D12*
%TO.C,R109*%
X155100000Y-108525000D03*
X155100000Y-106875000D03*
%TD*%
D11*
%TO.C,R102*%
X132525000Y-109300000D03*
X130875000Y-109300000D03*
%TD*%
%TO.C,R110*%
X131725000Y-120800000D03*
X130075000Y-120800000D03*
%TD*%
D13*
%TO.C,R108*%
X155100000Y-103875000D03*
X155100000Y-105525000D03*
%TD*%
D11*
%TO.C,R111*%
X131725000Y-122300000D03*
X130075000Y-122300000D03*
%TD*%
D14*
%TO.C,C108*%
X138000000Y-104525000D03*
X138000000Y-106075000D03*
%TD*%
D15*
%TO.C,U104*%
X136300000Y-114500000D03*
D16*
X135200000Y-115300000D03*
X135200000Y-114900000D03*
X135200000Y-114500000D03*
X135200000Y-114100000D03*
X135200000Y-113700000D03*
X137400000Y-113700000D03*
X137400000Y-114100000D03*
X137400000Y-114500000D03*
X137400000Y-114900000D03*
X137400000Y-115300000D03*
%TD*%
D17*
%TO.C,C104*%
X141575000Y-102800000D03*
X140025000Y-102800000D03*
%TD*%
D14*
%TO.C,C105*%
X140880000Y-113925000D03*
X140880000Y-115475000D03*
%TD*%
%TO.C,C103*%
X139500000Y-104525000D03*
X139500000Y-106075000D03*
%TD*%
D12*
%TO.C,R113*%
X138800000Y-112125000D03*
X138800000Y-110475000D03*
%TD*%
D14*
%TO.C,C107*%
X142400000Y-113925000D03*
X142400000Y-115475000D03*
%TD*%
D18*
%TO.C,R107*%
X149475000Y-114000000D03*
X151125000Y-114000000D03*
%TD*%
D12*
%TO.C,R112*%
X137300000Y-112525000D03*
X137300000Y-110875000D03*
%TD*%
D14*
%TO.C,C109*%
X135100000Y-104525000D03*
X135100000Y-106075000D03*
%TD*%
D19*
%TO.C,C102*%
X151500000Y-110475000D03*
X151500000Y-108925000D03*
%TD*%
D14*
%TO.C,C112*%
X153600000Y-106925000D03*
X153600000Y-108475000D03*
%TD*%
D11*
%TO.C,R103*%
X132525000Y-107800000D03*
X130875000Y-107800000D03*
%TD*%
%TO.C,R115*%
X131725000Y-123800000D03*
X130075000Y-123800000D03*
%TD*%
D20*
%TO.C,U102*%
X144250000Y-114312500D03*
X144750000Y-114312500D03*
X145250000Y-114312500D03*
X145250000Y-115687500D03*
X144750000Y-115687500D03*
X144250000Y-115687500D03*
%TD*%
D11*
%TO.C,R105*%
X136625000Y-109100000D03*
X134975000Y-109100000D03*
%TD*%
D19*
%TO.C,C114*%
X139000000Y-115375000D03*
X139000000Y-113825000D03*
%TD*%
D21*
%TO.C,U103*%
X129037500Y-118225000D03*
X129037500Y-117025000D03*
X128262500Y-118225000D03*
X128262500Y-117025000D03*
D22*
X130200000Y-116650000D03*
X130200000Y-117300000D03*
X130200000Y-117950000D03*
X130200000Y-118600000D03*
X127100000Y-118600000D03*
X127100000Y-117950000D03*
X127100000Y-117300000D03*
X127100000Y-116650000D03*
%TD*%
D10*
%TO.C,C101*%
X150025000Y-102600000D03*
X151575000Y-102600000D03*
%TD*%
D19*
%TO.C,C111*%
X153600000Y-105475000D03*
X153600000Y-103925000D03*
%TD*%
D23*
%TO.C,U101*%
X142750000Y-103875000D03*
X143250000Y-103875000D03*
X143750000Y-103875000D03*
X144250000Y-103875000D03*
X144750000Y-103875000D03*
X145250000Y-103875000D03*
X145750000Y-103875000D03*
X146250000Y-103875000D03*
X146750000Y-103875000D03*
X147250000Y-103875000D03*
X147750000Y-103875000D03*
X148250000Y-103875000D03*
D24*
X149662500Y-105287500D03*
X149662500Y-105787500D03*
X149662500Y-106287500D03*
X149662500Y-106787500D03*
X149662500Y-107287500D03*
X149662500Y-107787500D03*
X149662500Y-108287500D03*
X149662500Y-108787500D03*
X149662500Y-109287500D03*
X149662500Y-109787500D03*
X149662500Y-110287500D03*
X149662500Y-110787500D03*
D23*
X148250000Y-112200000D03*
X147750000Y-112200000D03*
X147250000Y-112200000D03*
X146750000Y-112200000D03*
X146250000Y-112200000D03*
X145750000Y-112200000D03*
X145250000Y-112200000D03*
X144750000Y-112200000D03*
X144250000Y-112200000D03*
X143750000Y-112200000D03*
X143250000Y-112200000D03*
X142750000Y-112200000D03*
D24*
X141337500Y-110787500D03*
X141337500Y-110287500D03*
X141337500Y-109787500D03*
X141337500Y-109287500D03*
X141337500Y-108787500D03*
X141337500Y-108287500D03*
X141337500Y-107787500D03*
X141337500Y-107287500D03*
X141337500Y-106787500D03*
X141337500Y-106287500D03*
X141337500Y-105787500D03*
X141337500Y-105287500D03*
%TD*%
D14*
%TO.C,C113*%
X131600000Y-117425000D03*
X131600000Y-118975000D03*
%TD*%
D18*
%TO.C,R106*%
X149475000Y-115500000D03*
X151125000Y-115500000D03*
%TD*%
D25*
%TO.C,J105*%
X148200000Y-117620000D03*
X147400000Y-117620000D03*
D26*
X146250000Y-117620000D03*
X145250000Y-117620000D03*
X144750000Y-117620000D03*
X143750000Y-117620000D03*
D25*
X142600000Y-117620000D03*
X141800000Y-117620000D03*
X141800000Y-117620000D03*
X142600000Y-117620000D03*
D26*
X143250000Y-117620000D03*
X144250000Y-117620000D03*
X145750000Y-117620000D03*
X146750000Y-117620000D03*
D25*
X147400000Y-117620000D03*
X148200000Y-117620000D03*
D27*
X149320000Y-122375000D03*
D28*
X149320000Y-118195000D03*
D27*
X140680000Y-122375000D03*
D28*
X140680000Y-118195000D03*
%TD*%
D17*
%TO.C,C117*%
X133775000Y-114300000D03*
X132225000Y-114300000D03*
%TD*%
%TO.C,C110*%
X136575000Y-107600000D03*
X135025000Y-107600000D03*
%TD*%
D14*
%TO.C,C115*%
X125700000Y-116925000D03*
X125700000Y-118475000D03*
%TD*%
D17*
%TO.C,C116*%
X133775000Y-115800000D03*
X132225000Y-115800000D03*
%TD*%
D11*
%TO.C,R114*%
X135525000Y-112500000D03*
X133875000Y-112500000D03*
%TD*%
%TO.C,R101*%
X132525000Y-110800000D03*
X130875000Y-110800000D03*
%TD*%
M02*
