%TF.GenerationSoftware,KiCad,Pcbnew,9.0.4*%
%TF.CreationDate,2026-04-15T21:57:54-05:00*%
%TF.ProjectId,controller,636f6e74-726f-46c6-9c65-722e6b696361,A*%
%TF.SameCoordinates,Original*%
%TF.FileFunction,Legend,Top*%
%TF.FilePolarity,Positive*%
%FSLAX46Y46*%
G04 Gerber Fmt 4.6, Leading zero omitted, Abs format (unit mm)*
G04 Created by KiCad (PCBNEW 9.0.4) date 2026-04-15 21:57:54*
%MOMM*%
%LPD*%
G01*
G04 APERTURE LIST*
G04 Aperture macros list*
%AMRoundRect*
0 Rectangle with rounded corners*
0 $1 Rounding radius*
0 $2 $3 $4 $5 $6 $7 $8 $9 X,Y pos of 4 corners*
0 Add a 4 corners polygon primitive as box body*
4,1,4,$2,$3,$4,$5,$6,$7,$8,$9,$2,$3,0*
0 Add four circle primitives for the rounded corners*
1,1,$1+$1,$2,$3*
1,1,$1+$1,$4,$5*
1,1,$1+$1,$6,$7*
1,1,$1+$1,$8,$9*
0 Add four rect primitives between the rounded corners*
20,1,$1+$1,$2,$3,$4,$5,0*
20,1,$1+$1,$4,$5,$6,$7,0*
20,1,$1+$1,$6,$7,$8,$9,0*
20,1,$1+$1,$8,$9,$2,$3,0*%
G04 Aperture macros list end*
%ADD10C,0.200000*%
%ADD11C,0.300000*%
%ADD12C,0.150000*%
%ADD13C,0.000000*%
%ADD14C,0.120000*%
%ADD15RoundRect,0.218750X-0.256250X0.218750X-0.256250X-0.218750X0.256250X-0.218750X0.256250X0.218750X0*%
%ADD16R,2.180000X1.600000*%
%ADD17C,1.440000*%
%ADD18R,1.700000X1.700000*%
%ADD19C,1.700000*%
%ADD20C,0.650000*%
%ADD21O,1.000000X1.800000*%
%ADD22O,1.000000X2.100000*%
%ADD23RoundRect,0.250000X0.350000X0.625000X-0.350000X0.625000X-0.350000X-0.625000X0.350000X-0.625000X0*%
%ADD24O,1.200000X1.750000*%
G04 APERTURE END LIST*
D10*
X152241101Y-105552219D02*
X151907768Y-105076028D01*
X151669673Y-105552219D02*
X151669673Y-104552219D01*
X151669673Y-104552219D02*
X152050625Y-104552219D01*
X152050625Y-104552219D02*
X152145863Y-104599838D01*
X152145863Y-104599838D02*
X152193482Y-104647457D01*
X152193482Y-104647457D02*
X152241101Y-104742695D01*
X152241101Y-104742695D02*
X152241101Y-104885552D01*
X152241101Y-104885552D02*
X152193482Y-104980790D01*
X152193482Y-104980790D02*
X152145863Y-105028409D01*
X152145863Y-105028409D02*
X152050625Y-105076028D01*
X152050625Y-105076028D02*
X151669673Y-105076028D01*
X152669673Y-105028409D02*
X153003006Y-105028409D01*
X153145863Y-105552219D02*
X152669673Y-105552219D01*
X152669673Y-105552219D02*
X152669673Y-104552219D01*
X152669673Y-104552219D02*
X153145863Y-104552219D01*
X153526816Y-105504600D02*
X153669673Y-105552219D01*
X153669673Y-105552219D02*
X153907768Y-105552219D01*
X153907768Y-105552219D02*
X154003006Y-105504600D01*
X154003006Y-105504600D02*
X154050625Y-105456980D01*
X154050625Y-105456980D02*
X154098244Y-105361742D01*
X154098244Y-105361742D02*
X154098244Y-105266504D01*
X154098244Y-105266504D02*
X154050625Y-105171266D01*
X154050625Y-105171266D02*
X154003006Y-105123647D01*
X154003006Y-105123647D02*
X153907768Y-105076028D01*
X153907768Y-105076028D02*
X153717292Y-105028409D01*
X153717292Y-105028409D02*
X153622054Y-104980790D01*
X153622054Y-104980790D02*
X153574435Y-104933171D01*
X153574435Y-104933171D02*
X153526816Y-104837933D01*
X153526816Y-104837933D02*
X153526816Y-104742695D01*
X153526816Y-104742695D02*
X153574435Y-104647457D01*
X153574435Y-104647457D02*
X153622054Y-104599838D01*
X153622054Y-104599838D02*
X153717292Y-104552219D01*
X153717292Y-104552219D02*
X153955387Y-104552219D01*
X153955387Y-104552219D02*
X154098244Y-104599838D01*
X154526816Y-105028409D02*
X154860149Y-105028409D01*
X155003006Y-105552219D02*
X154526816Y-105552219D01*
X154526816Y-105552219D02*
X154526816Y-104552219D01*
X154526816Y-104552219D02*
X155003006Y-104552219D01*
X155288721Y-104552219D02*
X155860149Y-104552219D01*
X155574435Y-105552219D02*
X155574435Y-104552219D01*
X152003006Y-110028409D02*
X152145863Y-110076028D01*
X152145863Y-110076028D02*
X152193482Y-110123647D01*
X152193482Y-110123647D02*
X152241101Y-110218885D01*
X152241101Y-110218885D02*
X152241101Y-110361742D01*
X152241101Y-110361742D02*
X152193482Y-110456980D01*
X152193482Y-110456980D02*
X152145863Y-110504600D01*
X152145863Y-110504600D02*
X152050625Y-110552219D01*
X152050625Y-110552219D02*
X151669673Y-110552219D01*
X151669673Y-110552219D02*
X151669673Y-109552219D01*
X151669673Y-109552219D02*
X152003006Y-109552219D01*
X152003006Y-109552219D02*
X152098244Y-109599838D01*
X152098244Y-109599838D02*
X152145863Y-109647457D01*
X152145863Y-109647457D02*
X152193482Y-109742695D01*
X152193482Y-109742695D02*
X152193482Y-109837933D01*
X152193482Y-109837933D02*
X152145863Y-109933171D01*
X152145863Y-109933171D02*
X152098244Y-109980790D01*
X152098244Y-109980790D02*
X152003006Y-110028409D01*
X152003006Y-110028409D02*
X151669673Y-110028409D01*
X152860149Y-109552219D02*
X153050625Y-109552219D01*
X153050625Y-109552219D02*
X153145863Y-109599838D01*
X153145863Y-109599838D02*
X153241101Y-109695076D01*
X153241101Y-109695076D02*
X153288720Y-109885552D01*
X153288720Y-109885552D02*
X153288720Y-110218885D01*
X153288720Y-110218885D02*
X153241101Y-110409361D01*
X153241101Y-110409361D02*
X153145863Y-110504600D01*
X153145863Y-110504600D02*
X153050625Y-110552219D01*
X153050625Y-110552219D02*
X152860149Y-110552219D01*
X152860149Y-110552219D02*
X152764911Y-110504600D01*
X152764911Y-110504600D02*
X152669673Y-110409361D01*
X152669673Y-110409361D02*
X152622054Y-110218885D01*
X152622054Y-110218885D02*
X152622054Y-109885552D01*
X152622054Y-109885552D02*
X152669673Y-109695076D01*
X152669673Y-109695076D02*
X152764911Y-109599838D01*
X152764911Y-109599838D02*
X152860149Y-109552219D01*
X153907768Y-109552219D02*
X154098244Y-109552219D01*
X154098244Y-109552219D02*
X154193482Y-109599838D01*
X154193482Y-109599838D02*
X154288720Y-109695076D01*
X154288720Y-109695076D02*
X154336339Y-109885552D01*
X154336339Y-109885552D02*
X154336339Y-110218885D01*
X154336339Y-110218885D02*
X154288720Y-110409361D01*
X154288720Y-110409361D02*
X154193482Y-110504600D01*
X154193482Y-110504600D02*
X154098244Y-110552219D01*
X154098244Y-110552219D02*
X153907768Y-110552219D01*
X153907768Y-110552219D02*
X153812530Y-110504600D01*
X153812530Y-110504600D02*
X153717292Y-110409361D01*
X153717292Y-110409361D02*
X153669673Y-110218885D01*
X153669673Y-110218885D02*
X153669673Y-109885552D01*
X153669673Y-109885552D02*
X153717292Y-109695076D01*
X153717292Y-109695076D02*
X153812530Y-109599838D01*
X153812530Y-109599838D02*
X153907768Y-109552219D01*
X154622054Y-109552219D02*
X155193482Y-109552219D01*
X154907768Y-110552219D02*
X154907768Y-109552219D01*
D11*
X135433332Y-120820266D02*
X134366666Y-120820266D01*
X137433332Y-120820266D02*
X136366666Y-120820266D01*
X136899999Y-120286933D02*
X136899999Y-121353600D01*
D10*
X156293482Y-122619838D02*
X156198244Y-122572219D01*
X156198244Y-122572219D02*
X156055387Y-122572219D01*
X156055387Y-122572219D02*
X155912530Y-122619838D01*
X155912530Y-122619838D02*
X155817292Y-122715076D01*
X155817292Y-122715076D02*
X155769673Y-122810314D01*
X155769673Y-122810314D02*
X155722054Y-123000790D01*
X155722054Y-123000790D02*
X155722054Y-123143647D01*
X155722054Y-123143647D02*
X155769673Y-123334123D01*
X155769673Y-123334123D02*
X155817292Y-123429361D01*
X155817292Y-123429361D02*
X155912530Y-123524600D01*
X155912530Y-123524600D02*
X156055387Y-123572219D01*
X156055387Y-123572219D02*
X156150625Y-123572219D01*
X156150625Y-123572219D02*
X156293482Y-123524600D01*
X156293482Y-123524600D02*
X156341101Y-123476980D01*
X156341101Y-123476980D02*
X156341101Y-123143647D01*
X156341101Y-123143647D02*
X156150625Y-123143647D01*
X156769673Y-123572219D02*
X156769673Y-122572219D01*
X156769673Y-122572219D02*
X157341101Y-123572219D01*
X157341101Y-123572219D02*
X157341101Y-122572219D01*
X157817292Y-123572219D02*
X157817292Y-122572219D01*
X157817292Y-122572219D02*
X158055387Y-122572219D01*
X158055387Y-122572219D02*
X158198244Y-122619838D01*
X158198244Y-122619838D02*
X158293482Y-122715076D01*
X158293482Y-122715076D02*
X158341101Y-122810314D01*
X158341101Y-122810314D02*
X158388720Y-123000790D01*
X158388720Y-123000790D02*
X158388720Y-123143647D01*
X158388720Y-123143647D02*
X158341101Y-123334123D01*
X158341101Y-123334123D02*
X158293482Y-123429361D01*
X158293482Y-123429361D02*
X158198244Y-123524600D01*
X158198244Y-123524600D02*
X158055387Y-123572219D01*
X158055387Y-123572219D02*
X157817292Y-123572219D01*
X156341101Y-121032219D02*
X156007768Y-120556028D01*
X155769673Y-121032219D02*
X155769673Y-120032219D01*
X155769673Y-120032219D02*
X156150625Y-120032219D01*
X156150625Y-120032219D02*
X156245863Y-120079838D01*
X156245863Y-120079838D02*
X156293482Y-120127457D01*
X156293482Y-120127457D02*
X156341101Y-120222695D01*
X156341101Y-120222695D02*
X156341101Y-120365552D01*
X156341101Y-120365552D02*
X156293482Y-120460790D01*
X156293482Y-120460790D02*
X156245863Y-120508409D01*
X156245863Y-120508409D02*
X156150625Y-120556028D01*
X156150625Y-120556028D02*
X155769673Y-120556028D01*
X156722054Y-120984600D02*
X156864911Y-121032219D01*
X156864911Y-121032219D02*
X157103006Y-121032219D01*
X157103006Y-121032219D02*
X157198244Y-120984600D01*
X157198244Y-120984600D02*
X157245863Y-120936980D01*
X157245863Y-120936980D02*
X157293482Y-120841742D01*
X157293482Y-120841742D02*
X157293482Y-120746504D01*
X157293482Y-120746504D02*
X157245863Y-120651266D01*
X157245863Y-120651266D02*
X157198244Y-120603647D01*
X157198244Y-120603647D02*
X157103006Y-120556028D01*
X157103006Y-120556028D02*
X156912530Y-120508409D01*
X156912530Y-120508409D02*
X156817292Y-120460790D01*
X156817292Y-120460790D02*
X156769673Y-120413171D01*
X156769673Y-120413171D02*
X156722054Y-120317933D01*
X156722054Y-120317933D02*
X156722054Y-120222695D01*
X156722054Y-120222695D02*
X156769673Y-120127457D01*
X156769673Y-120127457D02*
X156817292Y-120079838D01*
X156817292Y-120079838D02*
X156912530Y-120032219D01*
X156912530Y-120032219D02*
X157150625Y-120032219D01*
X157150625Y-120032219D02*
X157293482Y-120079838D01*
X157579197Y-120032219D02*
X158150625Y-120032219D01*
X157864911Y-121032219D02*
X157864911Y-120032219D01*
X156341101Y-118396980D02*
X156293482Y-118444600D01*
X156293482Y-118444600D02*
X156150625Y-118492219D01*
X156150625Y-118492219D02*
X156055387Y-118492219D01*
X156055387Y-118492219D02*
X155912530Y-118444600D01*
X155912530Y-118444600D02*
X155817292Y-118349361D01*
X155817292Y-118349361D02*
X155769673Y-118254123D01*
X155769673Y-118254123D02*
X155722054Y-118063647D01*
X155722054Y-118063647D02*
X155722054Y-117920790D01*
X155722054Y-117920790D02*
X155769673Y-117730314D01*
X155769673Y-117730314D02*
X155817292Y-117635076D01*
X155817292Y-117635076D02*
X155912530Y-117539838D01*
X155912530Y-117539838D02*
X156055387Y-117492219D01*
X156055387Y-117492219D02*
X156150625Y-117492219D01*
X156150625Y-117492219D02*
X156293482Y-117539838D01*
X156293482Y-117539838D02*
X156341101Y-117587457D01*
X157245863Y-118492219D02*
X156769673Y-118492219D01*
X156769673Y-118492219D02*
X156769673Y-117492219D01*
X157579197Y-118492219D02*
X157579197Y-117492219D01*
X158150625Y-118492219D02*
X157722054Y-117920790D01*
X158150625Y-117492219D02*
X157579197Y-118063647D01*
X155769673Y-115952219D02*
X155769673Y-114952219D01*
X155769673Y-114952219D02*
X156007768Y-114952219D01*
X156007768Y-114952219D02*
X156150625Y-114999838D01*
X156150625Y-114999838D02*
X156245863Y-115095076D01*
X156245863Y-115095076D02*
X156293482Y-115190314D01*
X156293482Y-115190314D02*
X156341101Y-115380790D01*
X156341101Y-115380790D02*
X156341101Y-115523647D01*
X156341101Y-115523647D02*
X156293482Y-115714123D01*
X156293482Y-115714123D02*
X156245863Y-115809361D01*
X156245863Y-115809361D02*
X156150625Y-115904600D01*
X156150625Y-115904600D02*
X156007768Y-115952219D01*
X156007768Y-115952219D02*
X155769673Y-115952219D01*
X156769673Y-115952219D02*
X156769673Y-114952219D01*
X157436339Y-114952219D02*
X157626815Y-114952219D01*
X157626815Y-114952219D02*
X157722053Y-114999838D01*
X157722053Y-114999838D02*
X157817291Y-115095076D01*
X157817291Y-115095076D02*
X157864910Y-115285552D01*
X157864910Y-115285552D02*
X157864910Y-115618885D01*
X157864910Y-115618885D02*
X157817291Y-115809361D01*
X157817291Y-115809361D02*
X157722053Y-115904600D01*
X157722053Y-115904600D02*
X157626815Y-115952219D01*
X157626815Y-115952219D02*
X157436339Y-115952219D01*
X157436339Y-115952219D02*
X157341101Y-115904600D01*
X157341101Y-115904600D02*
X157245863Y-115809361D01*
X157245863Y-115809361D02*
X157198244Y-115618885D01*
X157198244Y-115618885D02*
X157198244Y-115285552D01*
X157198244Y-115285552D02*
X157245863Y-115095076D01*
X157245863Y-115095076D02*
X157341101Y-114999838D01*
X157341101Y-114999838D02*
X157436339Y-114952219D01*
X155674435Y-112412219D02*
X156293482Y-112412219D01*
X156293482Y-112412219D02*
X155960149Y-112793171D01*
X155960149Y-112793171D02*
X156103006Y-112793171D01*
X156103006Y-112793171D02*
X156198244Y-112840790D01*
X156198244Y-112840790D02*
X156245863Y-112888409D01*
X156245863Y-112888409D02*
X156293482Y-112983647D01*
X156293482Y-112983647D02*
X156293482Y-113221742D01*
X156293482Y-113221742D02*
X156245863Y-113316980D01*
X156245863Y-113316980D02*
X156198244Y-113364600D01*
X156198244Y-113364600D02*
X156103006Y-113412219D01*
X156103006Y-113412219D02*
X155817292Y-113412219D01*
X155817292Y-113412219D02*
X155722054Y-113364600D01*
X155722054Y-113364600D02*
X155674435Y-113316980D01*
X156579197Y-112412219D02*
X156912530Y-113412219D01*
X156912530Y-113412219D02*
X157245863Y-112412219D01*
X157483959Y-112412219D02*
X158103006Y-112412219D01*
X158103006Y-112412219D02*
X157769673Y-112793171D01*
X157769673Y-112793171D02*
X157912530Y-112793171D01*
X157912530Y-112793171D02*
X158007768Y-112840790D01*
X158007768Y-112840790D02*
X158055387Y-112888409D01*
X158055387Y-112888409D02*
X158103006Y-112983647D01*
X158103006Y-112983647D02*
X158103006Y-113221742D01*
X158103006Y-113221742D02*
X158055387Y-113316980D01*
X158055387Y-113316980D02*
X158007768Y-113364600D01*
X158007768Y-113364600D02*
X157912530Y-113412219D01*
X157912530Y-113412219D02*
X157626816Y-113412219D01*
X157626816Y-113412219D02*
X157531578Y-113364600D01*
X157531578Y-113364600D02*
X157483959Y-113316980D01*
D12*
X151258333Y-98039866D02*
X151225000Y-98073200D01*
X151225000Y-98073200D02*
X151125000Y-98106533D01*
X151125000Y-98106533D02*
X151058333Y-98106533D01*
X151058333Y-98106533D02*
X150958333Y-98073200D01*
X150958333Y-98073200D02*
X150891667Y-98006533D01*
X150891667Y-98006533D02*
X150858333Y-97939866D01*
X150858333Y-97939866D02*
X150825000Y-97806533D01*
X150825000Y-97806533D02*
X150825000Y-97706533D01*
X150825000Y-97706533D02*
X150858333Y-97573200D01*
X150858333Y-97573200D02*
X150891667Y-97506533D01*
X150891667Y-97506533D02*
X150958333Y-97439866D01*
X150958333Y-97439866D02*
X151058333Y-97406533D01*
X151058333Y-97406533D02*
X151125000Y-97406533D01*
X151125000Y-97406533D02*
X151225000Y-97439866D01*
X151225000Y-97439866D02*
X151258333Y-97473200D01*
X151525000Y-98073200D02*
X151625000Y-98106533D01*
X151625000Y-98106533D02*
X151791667Y-98106533D01*
X151791667Y-98106533D02*
X151858333Y-98073200D01*
X151858333Y-98073200D02*
X151891667Y-98039866D01*
X151891667Y-98039866D02*
X151925000Y-97973200D01*
X151925000Y-97973200D02*
X151925000Y-97906533D01*
X151925000Y-97906533D02*
X151891667Y-97839866D01*
X151891667Y-97839866D02*
X151858333Y-97806533D01*
X151858333Y-97806533D02*
X151791667Y-97773200D01*
X151791667Y-97773200D02*
X151658333Y-97739866D01*
X151658333Y-97739866D02*
X151591667Y-97706533D01*
X151591667Y-97706533D02*
X151558333Y-97673200D01*
X151558333Y-97673200D02*
X151525000Y-97606533D01*
X151525000Y-97606533D02*
X151525000Y-97539866D01*
X151525000Y-97539866D02*
X151558333Y-97473200D01*
X151558333Y-97473200D02*
X151591667Y-97439866D01*
X151591667Y-97439866D02*
X151658333Y-97406533D01*
X151658333Y-97406533D02*
X151825000Y-97406533D01*
X151825000Y-97406533D02*
X151925000Y-97439866D01*
X142566667Y-93006533D02*
X142900000Y-93006533D01*
X142500000Y-93206533D02*
X142733334Y-92506533D01*
X142733334Y-92506533D02*
X142966667Y-93206533D01*
X143500000Y-92739866D02*
X143500000Y-93206533D01*
X143200000Y-92739866D02*
X143200000Y-93106533D01*
X143200000Y-93106533D02*
X143233334Y-93173200D01*
X143233334Y-93173200D02*
X143300000Y-93206533D01*
X143300000Y-93206533D02*
X143400000Y-93206533D01*
X143400000Y-93206533D02*
X143466667Y-93173200D01*
X143466667Y-93173200D02*
X143500000Y-93139866D01*
X143766667Y-93206533D02*
X144133333Y-92739866D01*
X143766667Y-92739866D02*
X144133333Y-93206533D01*
X144400000Y-93139866D02*
X144433334Y-93173200D01*
X144433334Y-93173200D02*
X144400000Y-93206533D01*
X144400000Y-93206533D02*
X144366667Y-93173200D01*
X144366667Y-93173200D02*
X144400000Y-93139866D01*
X144400000Y-93139866D02*
X144400000Y-93206533D01*
X145633333Y-92539866D02*
X145566666Y-92506533D01*
X145566666Y-92506533D02*
X145466666Y-92506533D01*
X145466666Y-92506533D02*
X145366666Y-92539866D01*
X145366666Y-92539866D02*
X145300000Y-92606533D01*
X145300000Y-92606533D02*
X145266666Y-92673200D01*
X145266666Y-92673200D02*
X145233333Y-92806533D01*
X145233333Y-92806533D02*
X145233333Y-92906533D01*
X145233333Y-92906533D02*
X145266666Y-93039866D01*
X145266666Y-93039866D02*
X145300000Y-93106533D01*
X145300000Y-93106533D02*
X145366666Y-93173200D01*
X145366666Y-93173200D02*
X145466666Y-93206533D01*
X145466666Y-93206533D02*
X145533333Y-93206533D01*
X145533333Y-93206533D02*
X145633333Y-93173200D01*
X145633333Y-93173200D02*
X145666666Y-93139866D01*
X145666666Y-93139866D02*
X145666666Y-92906533D01*
X145666666Y-92906533D02*
X145533333Y-92906533D01*
X145966666Y-93206533D02*
X145966666Y-92506533D01*
X145966666Y-92506533D02*
X146233333Y-92506533D01*
X146233333Y-92506533D02*
X146300000Y-92539866D01*
X146300000Y-92539866D02*
X146333333Y-92573200D01*
X146333333Y-92573200D02*
X146366666Y-92639866D01*
X146366666Y-92639866D02*
X146366666Y-92739866D01*
X146366666Y-92739866D02*
X146333333Y-92806533D01*
X146333333Y-92806533D02*
X146300000Y-92839866D01*
X146300000Y-92839866D02*
X146233333Y-92873200D01*
X146233333Y-92873200D02*
X145966666Y-92873200D01*
X146666666Y-93206533D02*
X146666666Y-92506533D01*
X147133333Y-92506533D02*
X147266666Y-92506533D01*
X147266666Y-92506533D02*
X147333333Y-92539866D01*
X147333333Y-92539866D02*
X147399999Y-92606533D01*
X147399999Y-92606533D02*
X147433333Y-92739866D01*
X147433333Y-92739866D02*
X147433333Y-92973200D01*
X147433333Y-92973200D02*
X147399999Y-93106533D01*
X147399999Y-93106533D02*
X147333333Y-93173200D01*
X147333333Y-93173200D02*
X147266666Y-93206533D01*
X147266666Y-93206533D02*
X147133333Y-93206533D01*
X147133333Y-93206533D02*
X147066666Y-93173200D01*
X147066666Y-93173200D02*
X146999999Y-93106533D01*
X146999999Y-93106533D02*
X146966666Y-92973200D01*
X146966666Y-92973200D02*
X146966666Y-92739866D01*
X146966666Y-92739866D02*
X146999999Y-92606533D01*
X146999999Y-92606533D02*
X147066666Y-92539866D01*
X147066666Y-92539866D02*
X147133333Y-92506533D01*
X148135000Y-98106533D02*
X148135000Y-97406533D01*
X148601667Y-97406533D02*
X148735000Y-97406533D01*
X148735000Y-97406533D02*
X148801667Y-97439866D01*
X148801667Y-97439866D02*
X148868333Y-97506533D01*
X148868333Y-97506533D02*
X148901667Y-97639866D01*
X148901667Y-97639866D02*
X148901667Y-97873200D01*
X148901667Y-97873200D02*
X148868333Y-98006533D01*
X148868333Y-98006533D02*
X148801667Y-98073200D01*
X148801667Y-98073200D02*
X148735000Y-98106533D01*
X148735000Y-98106533D02*
X148601667Y-98106533D01*
X148601667Y-98106533D02*
X148535000Y-98073200D01*
X148535000Y-98073200D02*
X148468333Y-98006533D01*
X148468333Y-98006533D02*
X148435000Y-97873200D01*
X148435000Y-97873200D02*
X148435000Y-97639866D01*
X148435000Y-97639866D02*
X148468333Y-97506533D01*
X148468333Y-97506533D02*
X148535000Y-97439866D01*
X148535000Y-97439866D02*
X148601667Y-97406533D01*
X149335000Y-97406533D02*
X149401666Y-97406533D01*
X149401666Y-97406533D02*
X149468333Y-97439866D01*
X149468333Y-97439866D02*
X149501666Y-97473200D01*
X149501666Y-97473200D02*
X149535000Y-97539866D01*
X149535000Y-97539866D02*
X149568333Y-97673200D01*
X149568333Y-97673200D02*
X149568333Y-97839866D01*
X149568333Y-97839866D02*
X149535000Y-97973200D01*
X149535000Y-97973200D02*
X149501666Y-98039866D01*
X149501666Y-98039866D02*
X149468333Y-98073200D01*
X149468333Y-98073200D02*
X149401666Y-98106533D01*
X149401666Y-98106533D02*
X149335000Y-98106533D01*
X149335000Y-98106533D02*
X149268333Y-98073200D01*
X149268333Y-98073200D02*
X149235000Y-98039866D01*
X149235000Y-98039866D02*
X149201666Y-97973200D01*
X149201666Y-97973200D02*
X149168333Y-97839866D01*
X149168333Y-97839866D02*
X149168333Y-97673200D01*
X149168333Y-97673200D02*
X149201666Y-97539866D01*
X149201666Y-97539866D02*
X149235000Y-97473200D01*
X149235000Y-97473200D02*
X149268333Y-97439866D01*
X149268333Y-97439866D02*
X149335000Y-97406533D01*
X145595000Y-98106533D02*
X145595000Y-97406533D01*
X146061667Y-97406533D02*
X146195000Y-97406533D01*
X146195000Y-97406533D02*
X146261667Y-97439866D01*
X146261667Y-97439866D02*
X146328333Y-97506533D01*
X146328333Y-97506533D02*
X146361667Y-97639866D01*
X146361667Y-97639866D02*
X146361667Y-97873200D01*
X146361667Y-97873200D02*
X146328333Y-98006533D01*
X146328333Y-98006533D02*
X146261667Y-98073200D01*
X146261667Y-98073200D02*
X146195000Y-98106533D01*
X146195000Y-98106533D02*
X146061667Y-98106533D01*
X146061667Y-98106533D02*
X145995000Y-98073200D01*
X145995000Y-98073200D02*
X145928333Y-98006533D01*
X145928333Y-98006533D02*
X145895000Y-97873200D01*
X145895000Y-97873200D02*
X145895000Y-97639866D01*
X145895000Y-97639866D02*
X145928333Y-97506533D01*
X145928333Y-97506533D02*
X145995000Y-97439866D01*
X145995000Y-97439866D02*
X146061667Y-97406533D01*
X146628333Y-97473200D02*
X146661666Y-97439866D01*
X146661666Y-97439866D02*
X146728333Y-97406533D01*
X146728333Y-97406533D02*
X146895000Y-97406533D01*
X146895000Y-97406533D02*
X146961666Y-97439866D01*
X146961666Y-97439866D02*
X146995000Y-97473200D01*
X146995000Y-97473200D02*
X147028333Y-97539866D01*
X147028333Y-97539866D02*
X147028333Y-97606533D01*
X147028333Y-97606533D02*
X146995000Y-97706533D01*
X146995000Y-97706533D02*
X146595000Y-98106533D01*
X146595000Y-98106533D02*
X147028333Y-98106533D01*
X142655000Y-98106533D02*
X142655000Y-97406533D01*
X142655000Y-97406533D02*
X142888334Y-97906533D01*
X142888334Y-97906533D02*
X143121667Y-97406533D01*
X143121667Y-97406533D02*
X143121667Y-98106533D01*
X143455000Y-98106533D02*
X143455000Y-97406533D01*
X143755000Y-98073200D02*
X143855000Y-98106533D01*
X143855000Y-98106533D02*
X144021667Y-98106533D01*
X144021667Y-98106533D02*
X144088333Y-98073200D01*
X144088333Y-98073200D02*
X144121667Y-98039866D01*
X144121667Y-98039866D02*
X144155000Y-97973200D01*
X144155000Y-97973200D02*
X144155000Y-97906533D01*
X144155000Y-97906533D02*
X144121667Y-97839866D01*
X144121667Y-97839866D02*
X144088333Y-97806533D01*
X144088333Y-97806533D02*
X144021667Y-97773200D01*
X144021667Y-97773200D02*
X143888333Y-97739866D01*
X143888333Y-97739866D02*
X143821667Y-97706533D01*
X143821667Y-97706533D02*
X143788333Y-97673200D01*
X143788333Y-97673200D02*
X143755000Y-97606533D01*
X143755000Y-97606533D02*
X143755000Y-97539866D01*
X143755000Y-97539866D02*
X143788333Y-97473200D01*
X143788333Y-97473200D02*
X143821667Y-97439866D01*
X143821667Y-97439866D02*
X143888333Y-97406533D01*
X143888333Y-97406533D02*
X144055000Y-97406533D01*
X144055000Y-97406533D02*
X144155000Y-97439866D01*
X144588334Y-97406533D02*
X144721667Y-97406533D01*
X144721667Y-97406533D02*
X144788334Y-97439866D01*
X144788334Y-97439866D02*
X144855000Y-97506533D01*
X144855000Y-97506533D02*
X144888334Y-97639866D01*
X144888334Y-97639866D02*
X144888334Y-97873200D01*
X144888334Y-97873200D02*
X144855000Y-98006533D01*
X144855000Y-98006533D02*
X144788334Y-98073200D01*
X144788334Y-98073200D02*
X144721667Y-98106533D01*
X144721667Y-98106533D02*
X144588334Y-98106533D01*
X144588334Y-98106533D02*
X144521667Y-98073200D01*
X144521667Y-98073200D02*
X144455000Y-98006533D01*
X144455000Y-98006533D02*
X144421667Y-97873200D01*
X144421667Y-97873200D02*
X144421667Y-97639866D01*
X144421667Y-97639866D02*
X144455000Y-97506533D01*
X144455000Y-97506533D02*
X144521667Y-97439866D01*
X144521667Y-97439866D02*
X144588334Y-97406533D01*
X140315000Y-98073200D02*
X140415000Y-98106533D01*
X140415000Y-98106533D02*
X140581667Y-98106533D01*
X140581667Y-98106533D02*
X140648333Y-98073200D01*
X140648333Y-98073200D02*
X140681667Y-98039866D01*
X140681667Y-98039866D02*
X140715000Y-97973200D01*
X140715000Y-97973200D02*
X140715000Y-97906533D01*
X140715000Y-97906533D02*
X140681667Y-97839866D01*
X140681667Y-97839866D02*
X140648333Y-97806533D01*
X140648333Y-97806533D02*
X140581667Y-97773200D01*
X140581667Y-97773200D02*
X140448333Y-97739866D01*
X140448333Y-97739866D02*
X140381667Y-97706533D01*
X140381667Y-97706533D02*
X140348333Y-97673200D01*
X140348333Y-97673200D02*
X140315000Y-97606533D01*
X140315000Y-97606533D02*
X140315000Y-97539866D01*
X140315000Y-97539866D02*
X140348333Y-97473200D01*
X140348333Y-97473200D02*
X140381667Y-97439866D01*
X140381667Y-97439866D02*
X140448333Y-97406533D01*
X140448333Y-97406533D02*
X140615000Y-97406533D01*
X140615000Y-97406533D02*
X140715000Y-97439866D01*
X141415000Y-98039866D02*
X141381667Y-98073200D01*
X141381667Y-98073200D02*
X141281667Y-98106533D01*
X141281667Y-98106533D02*
X141215000Y-98106533D01*
X141215000Y-98106533D02*
X141115000Y-98073200D01*
X141115000Y-98073200D02*
X141048334Y-98006533D01*
X141048334Y-98006533D02*
X141015000Y-97939866D01*
X141015000Y-97939866D02*
X140981667Y-97806533D01*
X140981667Y-97806533D02*
X140981667Y-97706533D01*
X140981667Y-97706533D02*
X141015000Y-97573200D01*
X141015000Y-97573200D02*
X141048334Y-97506533D01*
X141048334Y-97506533D02*
X141115000Y-97439866D01*
X141115000Y-97439866D02*
X141215000Y-97406533D01*
X141215000Y-97406533D02*
X141281667Y-97406533D01*
X141281667Y-97406533D02*
X141381667Y-97439866D01*
X141381667Y-97439866D02*
X141415000Y-97473200D01*
X141715000Y-98106533D02*
X141715000Y-97406533D01*
X142115000Y-98106533D02*
X141815000Y-97706533D01*
X142115000Y-97406533D02*
X141715000Y-97806533D01*
X137575000Y-98106533D02*
X137575000Y-97406533D01*
X137575000Y-97406533D02*
X137808334Y-97906533D01*
X137808334Y-97906533D02*
X138041667Y-97406533D01*
X138041667Y-97406533D02*
X138041667Y-98106533D01*
X138508334Y-97406533D02*
X138641667Y-97406533D01*
X138641667Y-97406533D02*
X138708334Y-97439866D01*
X138708334Y-97439866D02*
X138775000Y-97506533D01*
X138775000Y-97506533D02*
X138808334Y-97639866D01*
X138808334Y-97639866D02*
X138808334Y-97873200D01*
X138808334Y-97873200D02*
X138775000Y-98006533D01*
X138775000Y-98006533D02*
X138708334Y-98073200D01*
X138708334Y-98073200D02*
X138641667Y-98106533D01*
X138641667Y-98106533D02*
X138508334Y-98106533D01*
X138508334Y-98106533D02*
X138441667Y-98073200D01*
X138441667Y-98073200D02*
X138375000Y-98006533D01*
X138375000Y-98006533D02*
X138341667Y-97873200D01*
X138341667Y-97873200D02*
X138341667Y-97639866D01*
X138341667Y-97639866D02*
X138375000Y-97506533D01*
X138375000Y-97506533D02*
X138441667Y-97439866D01*
X138441667Y-97439866D02*
X138508334Y-97406533D01*
X139075000Y-98073200D02*
X139175000Y-98106533D01*
X139175000Y-98106533D02*
X139341667Y-98106533D01*
X139341667Y-98106533D02*
X139408333Y-98073200D01*
X139408333Y-98073200D02*
X139441667Y-98039866D01*
X139441667Y-98039866D02*
X139475000Y-97973200D01*
X139475000Y-97973200D02*
X139475000Y-97906533D01*
X139475000Y-97906533D02*
X139441667Y-97839866D01*
X139441667Y-97839866D02*
X139408333Y-97806533D01*
X139408333Y-97806533D02*
X139341667Y-97773200D01*
X139341667Y-97773200D02*
X139208333Y-97739866D01*
X139208333Y-97739866D02*
X139141667Y-97706533D01*
X139141667Y-97706533D02*
X139108333Y-97673200D01*
X139108333Y-97673200D02*
X139075000Y-97606533D01*
X139075000Y-97606533D02*
X139075000Y-97539866D01*
X139075000Y-97539866D02*
X139108333Y-97473200D01*
X139108333Y-97473200D02*
X139141667Y-97439866D01*
X139141667Y-97439866D02*
X139208333Y-97406533D01*
X139208333Y-97406533D02*
X139375000Y-97406533D01*
X139375000Y-97406533D02*
X139475000Y-97439866D01*
X139775000Y-98106533D02*
X139775000Y-97406533D01*
D13*
%TO.C,G\u002A\u002A\u002A*%
G36*
X159268389Y-85321257D02*
G01*
X159438276Y-85337525D01*
X159511450Y-85358254D01*
X159480887Y-85402463D01*
X159357709Y-85472531D01*
X159174823Y-85554764D01*
X158965134Y-85635467D01*
X158761549Y-85700943D01*
X158601813Y-85736843D01*
X158419324Y-85746676D01*
X158289249Y-85732273D01*
X158188680Y-85677588D01*
X158206626Y-85597189D01*
X158345864Y-85483763D01*
X158395720Y-85451998D01*
X158590825Y-85363523D01*
X158835102Y-85321833D01*
X159042784Y-85315025D01*
X159268389Y-85321257D01*
G37*
G36*
X156629409Y-85846804D02*
G01*
X156719978Y-85878460D01*
X156726425Y-85895783D01*
X156668332Y-86007670D01*
X156517213Y-86128569D01*
X156307806Y-86235927D01*
X156101269Y-86301655D01*
X155814531Y-86370561D01*
X155504359Y-86453122D01*
X155205120Y-86539283D01*
X154951183Y-86618990D01*
X154776916Y-86682190D01*
X154736774Y-86700833D01*
X154588378Y-86746079D01*
X154419838Y-86762694D01*
X154279697Y-86749290D01*
X154233451Y-86684688D01*
X154237987Y-86582374D01*
X154262883Y-86481416D01*
X154329046Y-86409738D01*
X154466035Y-86347354D01*
X154686528Y-86279120D01*
X154971315Y-86201865D01*
X155263400Y-86129800D01*
X155443264Y-86090216D01*
X155702874Y-86029994D01*
X155961161Y-85957707D01*
X156037692Y-85932849D01*
X156251203Y-85875993D01*
X156460796Y-85846646D01*
X156629409Y-85846804D01*
G37*
G36*
X152351373Y-87118945D02*
G01*
X152488115Y-87188575D01*
X152506053Y-87292678D01*
X152410930Y-87423202D01*
X152208487Y-87572097D01*
X151919566Y-87724354D01*
X151694132Y-87836557D01*
X151490648Y-87950643D01*
X151406981Y-88004451D01*
X151152042Y-88131879D01*
X150891942Y-88174033D01*
X150688990Y-88130797D01*
X150577632Y-88062394D01*
X150543335Y-88019348D01*
X150600978Y-87956771D01*
X150755496Y-87848634D01*
X150985795Y-87707712D01*
X151270780Y-87546781D01*
X151589356Y-87378618D01*
X151661883Y-87341907D01*
X151967792Y-87199367D01*
X152184896Y-87125836D01*
X152332386Y-87115107D01*
X152351373Y-87118945D01*
G37*
G36*
X150257615Y-88761602D02*
G01*
X150332719Y-88849214D01*
X150380941Y-89019374D01*
X150409653Y-89291832D01*
X150418497Y-89460621D01*
X150442228Y-90019947D01*
X150232419Y-90040265D01*
X150061755Y-90029309D01*
X149941948Y-89933204D01*
X149903403Y-89878651D01*
X149808027Y-89655213D01*
X149777050Y-89402525D01*
X149803634Y-89152479D01*
X149880939Y-88936966D01*
X150002128Y-88787876D01*
X150148255Y-88736787D01*
X150257615Y-88761602D01*
G37*
G36*
X151240822Y-90871756D02*
G01*
X151331074Y-90903343D01*
X151457457Y-90965251D01*
X151634828Y-91066283D01*
X151878042Y-91215242D01*
X152201956Y-91420931D01*
X152580829Y-91665776D01*
X152743035Y-91766424D01*
X152978785Y-91906980D01*
X153246832Y-92062985D01*
X153354523Y-92124614D01*
X153604379Y-92275616D01*
X153817484Y-92420476D01*
X153961834Y-92536729D01*
X153997350Y-92575841D01*
X154060563Y-92687917D01*
X154034697Y-92759136D01*
X153984266Y-92800100D01*
X153822019Y-92873176D01*
X153642519Y-92848120D01*
X153469171Y-92759869D01*
X153338193Y-92681127D01*
X153122476Y-92552604D01*
X152850671Y-92391328D01*
X152551429Y-92214325D01*
X152515026Y-92192830D01*
X152023571Y-91899386D01*
X151637412Y-91660605D01*
X151345897Y-91468890D01*
X151138376Y-91316642D01*
X151004197Y-91196265D01*
X150932710Y-91100158D01*
X150915648Y-91051883D01*
X150930846Y-90908562D01*
X151045879Y-90849692D01*
X151240822Y-90871756D01*
G37*
G36*
X156299615Y-93691694D02*
G01*
X156464452Y-93741690D01*
X156497923Y-93761077D01*
X156594887Y-93813211D01*
X156792873Y-93908790D01*
X157072240Y-94038721D01*
X157413344Y-94193913D01*
X157796544Y-94365272D01*
X157943782Y-94430387D01*
X158333037Y-94603013D01*
X158683354Y-94760277D01*
X158976154Y-94893683D01*
X159192854Y-94994734D01*
X159314875Y-95054933D01*
X159332893Y-95065582D01*
X159377442Y-95165549D01*
X159374575Y-95284614D01*
X159310986Y-95404621D01*
X159175114Y-95443396D01*
X158957262Y-95400558D01*
X158647731Y-95275723D01*
X158601813Y-95254194D01*
X158343800Y-95134132D01*
X158027986Y-94990599D01*
X157717426Y-94852216D01*
X157680570Y-94836029D01*
X157118487Y-94586030D01*
X156670281Y-94377751D01*
X156326929Y-94205843D01*
X156079409Y-94064954D01*
X155918697Y-93949735D01*
X155835770Y-93854834D01*
X155821605Y-93774902D01*
X155835520Y-93741970D01*
X155933179Y-93690335D01*
X156105200Y-93674076D01*
X156299615Y-93691694D01*
G37*
G36*
X163855923Y-97055790D02*
G01*
X164061391Y-97125243D01*
X164124950Y-97153038D01*
X164273080Y-97220475D01*
X164516039Y-97329043D01*
X164828009Y-97467291D01*
X165183170Y-97623770D01*
X165478238Y-97753157D01*
X165868359Y-97924396D01*
X166253934Y-98094607D01*
X166603502Y-98249834D01*
X166885602Y-98376121D01*
X167024611Y-98439156D01*
X167274701Y-98552772D01*
X167501113Y-98654059D01*
X167657834Y-98722446D01*
X167666192Y-98725967D01*
X167800515Y-98820034D01*
X167847150Y-98921697D01*
X167794262Y-99086750D01*
X167658438Y-99180231D01*
X167473935Y-99190449D01*
X167286015Y-99113212D01*
X167193455Y-99064459D01*
X166997434Y-98970199D01*
X166714814Y-98838231D01*
X166362462Y-98676355D01*
X165957241Y-98492371D01*
X165516017Y-98294076D01*
X165478238Y-98277189D01*
X164900183Y-98017862D01*
X164432684Y-97805514D01*
X164065442Y-97635033D01*
X163788155Y-97501304D01*
X163590522Y-97399216D01*
X163462243Y-97323656D01*
X163393017Y-97269510D01*
X163372539Y-97232049D01*
X163429844Y-97127009D01*
X163567957Y-97049158D01*
X163693939Y-97027979D01*
X163855923Y-97055790D01*
G37*
G36*
X172533557Y-101192640D02*
G01*
X172637749Y-101221039D01*
X172779394Y-101280592D01*
X172970420Y-101377046D01*
X173222754Y-101516151D01*
X173548323Y-101703655D01*
X173959055Y-101945307D01*
X174466878Y-102246854D01*
X174657772Y-102360472D01*
X175236721Y-102708115D01*
X175707732Y-102998288D01*
X176078321Y-103236693D01*
X176356005Y-103429036D01*
X176548297Y-103581018D01*
X176662714Y-103698343D01*
X176706772Y-103786714D01*
X176687985Y-103851835D01*
X176657063Y-103877655D01*
X176481165Y-103929205D01*
X176252257Y-103923533D01*
X176034479Y-103863383D01*
X176006736Y-103849831D01*
X175888670Y-103780930D01*
X175688521Y-103657235D01*
X175434190Y-103496224D01*
X175153577Y-103315378D01*
X175151295Y-103313894D01*
X174861766Y-103125672D01*
X174590225Y-102949220D01*
X174367899Y-102804824D01*
X174230052Y-102715387D01*
X174087745Y-102627671D01*
X173859700Y-102492214D01*
X173574788Y-102325964D01*
X173261883Y-102145869D01*
X173188636Y-102104069D01*
X172888588Y-101931469D01*
X172624779Y-101776615D01*
X172420885Y-101653631D01*
X172300582Y-101576646D01*
X172283843Y-101564229D01*
X172196677Y-101432690D01*
X172236854Y-101305133D01*
X172326426Y-101236881D01*
X172389823Y-101206310D01*
X172454890Y-101189647D01*
X172533557Y-101192640D01*
G37*
G36*
X179975693Y-106464107D02*
G01*
X180138745Y-106539605D01*
X180363388Y-106708251D01*
X180636047Y-106955167D01*
X180943147Y-107265474D01*
X181271111Y-107624290D01*
X181606365Y-108016737D01*
X181935334Y-108427935D01*
X182244442Y-108843005D01*
X182520115Y-109247066D01*
X182533191Y-109267357D01*
X182675655Y-109500719D01*
X182784951Y-109701835D01*
X182844274Y-109838816D01*
X182850250Y-109868995D01*
X182795726Y-109983210D01*
X182658219Y-110046140D01*
X182476857Y-110055577D01*
X182290771Y-110009314D01*
X182142587Y-109908937D01*
X182045552Y-109788363D01*
X181902684Y-109590667D01*
X181738340Y-109350053D01*
X181662286Y-109234455D01*
X181307371Y-108730088D01*
X180864039Y-108170001D01*
X180350153Y-107576092D01*
X179998350Y-107194559D01*
X179745867Y-106904449D01*
X179603709Y-106685214D01*
X179571851Y-106536013D01*
X179650266Y-106456006D01*
X179838928Y-106444356D01*
X179975693Y-106464107D01*
G37*
G36*
X184069697Y-113664577D02*
G01*
X184194436Y-113709807D01*
X184293556Y-113783449D01*
X184370411Y-113900029D01*
X184428356Y-114074072D01*
X184470744Y-114320104D01*
X184500929Y-114652649D01*
X184522265Y-115086234D01*
X184538107Y-115635382D01*
X184539568Y-115699457D01*
X184550549Y-116469889D01*
X184545798Y-117114866D01*
X184524881Y-117639648D01*
X184487363Y-118049495D01*
X184432813Y-118349666D01*
X184360796Y-118545421D01*
X184298534Y-118624139D01*
X184084619Y-118725063D01*
X183848426Y-118728366D01*
X183675363Y-118654313D01*
X183601086Y-118573615D01*
X183581083Y-118453585D01*
X183601785Y-118275945D01*
X183641603Y-117959685D01*
X183673215Y-117559171D01*
X183696601Y-117096969D01*
X183711741Y-116595650D01*
X183718617Y-116077781D01*
X183717209Y-115565932D01*
X183707496Y-115082671D01*
X183689461Y-114650566D01*
X183663082Y-114292187D01*
X183628341Y-114030103D01*
X183605541Y-113934796D01*
X183621544Y-113804702D01*
X183732729Y-113703525D01*
X183902903Y-113652335D01*
X184069697Y-113664577D01*
G37*
G36*
X182299360Y-124414589D02*
G01*
X182494940Y-124434968D01*
X182595106Y-124476255D01*
X182636036Y-124557387D01*
X182642434Y-124594160D01*
X182629898Y-124748153D01*
X182572371Y-124955583D01*
X182533484Y-125054782D01*
X182453601Y-125238681D01*
X182338237Y-125505144D01*
X182203965Y-125815860D01*
X182089973Y-126080051D01*
X181942573Y-126414087D01*
X181760267Y-126814715D01*
X181550647Y-127266324D01*
X181321306Y-127753299D01*
X181079834Y-128260029D01*
X180833825Y-128770901D01*
X180590869Y-129270302D01*
X180358560Y-129742619D01*
X180144487Y-130172241D01*
X179956244Y-130543553D01*
X179801423Y-130840943D01*
X179687615Y-131048799D01*
X179626159Y-131146890D01*
X179574984Y-131231640D01*
X179480641Y-131403709D01*
X179359440Y-131633021D01*
X179294481Y-131758545D01*
X179112067Y-132091802D01*
X178952836Y-132320101D01*
X178794578Y-132462013D01*
X178615077Y-132536107D01*
X178392124Y-132560955D01*
X178333872Y-132561657D01*
X178130129Y-132557696D01*
X178025379Y-132534627D01*
X177987028Y-132475673D01*
X177982324Y-132380699D01*
X178014254Y-132230215D01*
X178096114Y-132015933D01*
X178199406Y-131804922D01*
X178313594Y-131596157D01*
X178471530Y-131307891D01*
X178653570Y-130975956D01*
X178840071Y-130636183D01*
X178866773Y-130587564D01*
X179067853Y-130213742D01*
X179310043Y-129751215D01*
X179578059Y-129230189D01*
X179856618Y-128680870D01*
X180130437Y-128133464D01*
X180384233Y-127618178D01*
X180602721Y-127165219D01*
X180664645Y-127034196D01*
X180777916Y-126792863D01*
X180925419Y-126478478D01*
X181085521Y-126137151D01*
X181197252Y-125898893D01*
X181337398Y-125592004D01*
X181463234Y-125301942D01*
X181559654Y-125064393D01*
X181607131Y-124930642D01*
X181729374Y-124649146D01*
X181902635Y-124481599D01*
X182144973Y-124414539D01*
X182299360Y-124414589D01*
G37*
G36*
X173976281Y-140336220D02*
G01*
X174136045Y-140361646D01*
X174195861Y-140390142D01*
X174192452Y-140482252D01*
X174142232Y-140642769D01*
X174064539Y-140826327D01*
X173978710Y-140987558D01*
X173904081Y-141081095D01*
X173900269Y-141083634D01*
X173828716Y-141163978D01*
X173732018Y-141313861D01*
X173701997Y-141367288D01*
X173638918Y-141482806D01*
X173581287Y-141584300D01*
X173514981Y-141694372D01*
X173425880Y-141835621D01*
X173299861Y-142030648D01*
X173122801Y-142302054D01*
X173012694Y-142470441D01*
X172809009Y-142784775D01*
X172593248Y-143122455D01*
X172399363Y-143430175D01*
X172321762Y-143555283D01*
X172133508Y-143853206D01*
X171985594Y-144055217D01*
X171853349Y-144179831D01*
X171712101Y-144245565D01*
X171537178Y-144270934D01*
X171363266Y-144274611D01*
X171080307Y-144258638D01*
X170913751Y-144209197D01*
X170875267Y-144177320D01*
X170833501Y-144084690D01*
X170869868Y-143964479D01*
X170916562Y-143883777D01*
X171010016Y-143734976D01*
X171158558Y-143500162D01*
X171346364Y-143204188D01*
X171557612Y-142871908D01*
X171776479Y-142528177D01*
X171987140Y-142197848D01*
X172173772Y-141905775D01*
X172320551Y-141676814D01*
X172400296Y-141553250D01*
X172538592Y-141335357D01*
X172697339Y-141078021D01*
X172782487Y-140936861D01*
X172983162Y-140643372D01*
X173184645Y-140457364D01*
X173419372Y-140358567D01*
X173719774Y-140326712D01*
X173759254Y-140326424D01*
X173976281Y-140336220D01*
G37*
G36*
X163237457Y-85299607D02*
G01*
X163422945Y-85304257D01*
X163454793Y-85305102D01*
X163658036Y-85318217D01*
X163795211Y-85341973D01*
X163832745Y-85364377D01*
X163780860Y-85425919D01*
X163653243Y-85515088D01*
X163619834Y-85534721D01*
X163515246Y-85585306D01*
X163369197Y-85638383D01*
X163166327Y-85697928D01*
X162891275Y-85767917D01*
X162528681Y-85852324D01*
X162063184Y-85955125D01*
X161661658Y-86041488D01*
X161373308Y-86104897D01*
X161105813Y-86166914D01*
X160906918Y-86216389D01*
X160872021Y-86225911D01*
X160700185Y-86272707D01*
X160447790Y-86339410D01*
X160161857Y-86413627D01*
X160082383Y-86434017D01*
X159453408Y-86605279D01*
X158819151Y-86796996D01*
X158204502Y-87000409D01*
X157634347Y-87206757D01*
X157133575Y-87407282D01*
X156727075Y-87593224D01*
X156599554Y-87659849D01*
X156082690Y-87977743D01*
X155685578Y-88300768D01*
X155409032Y-88631025D01*
X155253866Y-88970616D01*
X155220893Y-89321642D01*
X155310928Y-89686205D01*
X155524785Y-90066405D01*
X155863277Y-90464345D01*
X156327220Y-90882125D01*
X156917426Y-91321846D01*
X157634710Y-91785611D01*
X158362148Y-92209941D01*
X158623712Y-92353584D01*
X158871127Y-92484531D01*
X159060262Y-92579553D01*
X159095337Y-92595911D01*
X159234599Y-92660784D01*
X159465246Y-92770235D01*
X159760274Y-92911367D01*
X160092675Y-93071283D01*
X160262266Y-93153197D01*
X160584125Y-93307615D01*
X160863821Y-93439423D01*
X161080226Y-93538854D01*
X161212211Y-93596139D01*
X161242105Y-93606217D01*
X161322840Y-93632137D01*
X161476455Y-93697578D01*
X161555746Y-93734262D01*
X161721323Y-93809869D01*
X161974099Y-93921943D01*
X162280115Y-94055557D01*
X162605412Y-94195785D01*
X162615803Y-94200233D01*
X162931888Y-94335569D01*
X163220996Y-94459475D01*
X163452592Y-94558857D01*
X163596141Y-94620621D01*
X163602850Y-94623520D01*
X163763948Y-94690751D01*
X163997482Y-94785364D01*
X164253236Y-94887017D01*
X164256232Y-94888195D01*
X164493728Y-94983833D01*
X164691793Y-95067622D01*
X164810421Y-95122596D01*
X164815559Y-95125396D01*
X164912513Y-95169675D01*
X165106532Y-95250857D01*
X165371913Y-95358428D01*
X165682956Y-95481870D01*
X165774352Y-95517698D01*
X166146719Y-95664497D01*
X166532161Y-95818528D01*
X166885741Y-95961715D01*
X167162521Y-96075984D01*
X167167630Y-96078130D01*
X167412525Y-96179063D01*
X167609980Y-96256751D01*
X167729763Y-96299458D01*
X167749913Y-96304144D01*
X167834290Y-96329639D01*
X167981644Y-96391952D01*
X168001713Y-96401256D01*
X168163455Y-96471419D01*
X168426329Y-96577462D01*
X168796450Y-96721777D01*
X169279935Y-96906758D01*
X169689637Y-97061926D01*
X169909028Y-97153223D01*
X170115593Y-97251604D01*
X170117357Y-97252529D01*
X170282899Y-97324659D01*
X170411701Y-97356514D01*
X170415281Y-97356589D01*
X170548258Y-97391804D01*
X170645592Y-97443397D01*
X170764215Y-97505180D01*
X170969772Y-97596137D01*
X171225563Y-97700336D01*
X171334715Y-97742532D01*
X171631427Y-97855828D01*
X171847002Y-97940030D01*
X172023463Y-98012429D01*
X172202834Y-98090318D01*
X172427136Y-98190988D01*
X172453368Y-98202844D01*
X172654163Y-98290609D01*
X172927288Y-98406080D01*
X173222823Y-98528228D01*
X173308808Y-98563199D01*
X173600717Y-98683712D01*
X173967535Y-98838580D01*
X174377393Y-99014002D01*
X174798419Y-99196176D01*
X175198743Y-99371301D01*
X175546496Y-99525573D01*
X175809805Y-99645193D01*
X175842228Y-99660316D01*
X176028207Y-99746208D01*
X176285737Y-99863480D01*
X176566138Y-99989989D01*
X176631865Y-100019462D01*
X176981523Y-100179447D01*
X177408457Y-100380272D01*
X177894158Y-100612760D01*
X178420119Y-100867735D01*
X178967831Y-101136020D01*
X179518785Y-101408438D01*
X180054473Y-101675812D01*
X180556387Y-101928965D01*
X181006019Y-102158721D01*
X181384859Y-102355902D01*
X181674400Y-102511332D01*
X181797409Y-102580643D01*
X182019353Y-102704635D01*
X182235197Y-102817335D01*
X182309030Y-102853125D01*
X182473991Y-102939203D01*
X182729981Y-103084366D01*
X183057296Y-103276579D01*
X183436230Y-103503803D01*
X183847080Y-103754002D01*
X184270141Y-104015139D01*
X184685709Y-104275177D01*
X185074080Y-104522079D01*
X185415549Y-104743809D01*
X185548186Y-104831851D01*
X186429999Y-105436764D01*
X187216503Y-106008995D01*
X187932850Y-106568867D01*
X188604192Y-107136703D01*
X189255680Y-107732826D01*
X189815968Y-108280310D01*
X190699747Y-109219926D01*
X191470206Y-110155216D01*
X192143024Y-111107937D01*
X192733876Y-112099850D01*
X193134528Y-112886528D01*
X193302360Y-113242421D01*
X193438915Y-113542936D01*
X193554502Y-113815670D01*
X193659430Y-114088219D01*
X193764010Y-114388182D01*
X193878552Y-114743154D01*
X194013365Y-115180734D01*
X194106089Y-115487173D01*
X194141186Y-115624769D01*
X194194825Y-115860681D01*
X194260235Y-116164078D01*
X194330645Y-116504128D01*
X194344550Y-116572924D01*
X194391502Y-116810023D01*
X194429418Y-117018400D01*
X194459275Y-117215695D01*
X194482047Y-117419547D01*
X194498711Y-117647598D01*
X194510241Y-117917487D01*
X194517612Y-118246854D01*
X194521801Y-118653341D01*
X194523782Y-119154586D01*
X194524531Y-119768231D01*
X194524570Y-119828756D01*
X194524585Y-120457687D01*
X194523069Y-120974559D01*
X194519011Y-121398916D01*
X194511395Y-121750305D01*
X194499210Y-122048269D01*
X194481442Y-122312356D01*
X194457077Y-122562110D01*
X194425102Y-122817077D01*
X194384503Y-123096802D01*
X194340343Y-123382124D01*
X194279558Y-123762564D01*
X194223887Y-124097613D01*
X194177081Y-124365747D01*
X194142890Y-124545446D01*
X194125643Y-124614427D01*
X194103166Y-124696608D01*
X194066878Y-124877402D01*
X194022859Y-125125324D01*
X193998588Y-125272458D01*
X193948041Y-125566307D01*
X193896450Y-125832236D01*
X193852214Y-126028115D01*
X193837628Y-126080051D01*
X193799762Y-126213548D01*
X193738425Y-126446260D01*
X193661010Y-126749468D01*
X193574910Y-127094451D01*
X193541188Y-127231605D01*
X193376348Y-127897954D01*
X193238529Y-128439685D01*
X193126688Y-128860762D01*
X193039782Y-129165146D01*
X192995452Y-129304403D01*
X192944274Y-129464849D01*
X192872346Y-129703090D01*
X192794415Y-129970194D01*
X192787223Y-129995336D01*
X192706101Y-130269318D01*
X192625408Y-130525257D01*
X192561781Y-130710501D01*
X192558507Y-130719170D01*
X192499909Y-130886820D01*
X192418766Y-131136903D01*
X192329204Y-131425458D01*
X192294214Y-131541709D01*
X192208530Y-131822588D01*
X192128876Y-132072098D01*
X192067797Y-132251384D01*
X192049861Y-132298445D01*
X192002856Y-132424590D01*
X191925916Y-132644272D01*
X191829940Y-132925917D01*
X191731860Y-133219688D01*
X191597963Y-133617901D01*
X191442174Y-134070744D01*
X191288291Y-134509426D01*
X191208246Y-134733160D01*
X191090473Y-135059879D01*
X190978587Y-135371746D01*
X190886104Y-135630998D01*
X190831372Y-135786010D01*
X190759984Y-135975723D01*
X190698426Y-136114728D01*
X190679102Y-136147927D01*
X190633128Y-136253047D01*
X190585711Y-136422477D01*
X190580950Y-136444041D01*
X190513538Y-136664743D01*
X190416442Y-136889244D01*
X190408843Y-136903688D01*
X190328467Y-137076828D01*
X190285747Y-137213615D01*
X190283778Y-137232704D01*
X190255044Y-137350923D01*
X190185678Y-137527935D01*
X190154404Y-137595595D01*
X190076196Y-137770051D01*
X190030060Y-137897108D01*
X190025031Y-137923146D01*
X190000794Y-138009292D01*
X189937756Y-138186031D01*
X189847249Y-138422274D01*
X189797137Y-138548276D01*
X189667675Y-138872330D01*
X189530481Y-139219432D01*
X189411743Y-139523262D01*
X189393792Y-139569688D01*
X189285868Y-139843415D01*
X189176547Y-140110980D01*
X189093028Y-140306363D01*
X189018792Y-140486647D01*
X188974972Y-140619705D01*
X188969948Y-140650069D01*
X188944621Y-140746637D01*
X188880571Y-140912797D01*
X188842989Y-140999146D01*
X188769531Y-141171007D01*
X188663512Y-141430601D01*
X188539150Y-141742648D01*
X188411306Y-142070207D01*
X188290798Y-142380704D01*
X188182772Y-142655780D01*
X188098441Y-142867104D01*
X188049016Y-142986344D01*
X188046727Y-142991450D01*
X187995832Y-143112206D01*
X187913141Y-143317566D01*
X187814001Y-143569263D01*
X187782805Y-143649481D01*
X187677015Y-143911051D01*
X187576405Y-144140469D01*
X187498709Y-144297814D01*
X187483190Y-144323963D01*
X187365698Y-144427057D01*
X187215059Y-144471373D01*
X187082110Y-144449812D01*
X187025249Y-144387902D01*
X187029994Y-144268390D01*
X187089899Y-144039179D01*
X187202297Y-143708790D01*
X187364520Y-143285746D01*
X187390189Y-143221761D01*
X187490967Y-142967404D01*
X187588272Y-142714916D01*
X187632487Y-142596631D01*
X187706565Y-142417665D01*
X187774113Y-142291350D01*
X187790099Y-142270906D01*
X187848349Y-142151531D01*
X187851295Y-142122132D01*
X187877061Y-142013385D01*
X187942078Y-141839462D01*
X187977943Y-141756925D01*
X188024595Y-141651206D01*
X188082533Y-141513670D01*
X188156415Y-141332518D01*
X188250900Y-141095949D01*
X188370646Y-140792163D01*
X188520312Y-140409359D01*
X188704556Y-139935738D01*
X188928036Y-139359500D01*
X189114183Y-138878756D01*
X189253045Y-138521559D01*
X189381615Y-138193767D01*
X189489719Y-137921102D01*
X189567181Y-137729289D01*
X189595731Y-137661398D01*
X189671950Y-137472539D01*
X189757073Y-137240162D01*
X189781857Y-137167875D01*
X189865440Y-136929642D01*
X189968007Y-136651781D01*
X190022407Y-136509844D01*
X190119732Y-136257177D01*
X190218274Y-135993584D01*
X190328046Y-135691472D01*
X190459056Y-135323250D01*
X190621317Y-134861324D01*
X190643126Y-134798963D01*
X190747107Y-134505446D01*
X190840871Y-134247805D01*
X190912718Y-134057791D01*
X190946263Y-133976424D01*
X190982464Y-133880736D01*
X191053345Y-133677588D01*
X191152932Y-133384692D01*
X191275252Y-133019757D01*
X191414331Y-132600493D01*
X191564196Y-132144613D01*
X191567690Y-132133937D01*
X191718710Y-131673230D01*
X191859645Y-131244815D01*
X191984344Y-130867264D01*
X192086659Y-130559151D01*
X192160441Y-130339049D01*
X192199498Y-130225647D01*
X192268006Y-130016842D01*
X192361844Y-129700673D01*
X192475616Y-129297747D01*
X192603924Y-128828668D01*
X192741371Y-128314042D01*
X192882561Y-127774474D01*
X193022095Y-127230569D01*
X193154578Y-126702934D01*
X193274611Y-126212173D01*
X193376797Y-125778892D01*
X193449087Y-125454922D01*
X193670034Y-124317465D01*
X193849061Y-123172654D01*
X193982491Y-122051627D01*
X194066646Y-120985521D01*
X194097849Y-120005471D01*
X194097952Y-119960362D01*
X194089792Y-119422542D01*
X194066088Y-118847224D01*
X194029221Y-118262829D01*
X193981571Y-117697780D01*
X193925521Y-117180500D01*
X193863451Y-116739411D01*
X193801117Y-116417002D01*
X193671266Y-115892382D01*
X193533263Y-115376049D01*
X193394719Y-114893840D01*
X193263245Y-114471594D01*
X193146452Y-114135148D01*
X193080948Y-113972279D01*
X193012626Y-113815668D01*
X192912575Y-113584510D01*
X192800884Y-113325235D01*
X192785883Y-113290319D01*
X192619739Y-112936107D01*
X192399393Y-112513122D01*
X192146565Y-112060089D01*
X191882977Y-111615733D01*
X191630348Y-111218779D01*
X191591721Y-111161257D01*
X191237043Y-110672338D01*
X190803500Y-110129996D01*
X190314896Y-109560155D01*
X189795034Y-108988741D01*
X189267716Y-108441679D01*
X188756746Y-107944894D01*
X188285926Y-107524309D01*
X188147409Y-107409872D01*
X187717167Y-107062665D01*
X187375493Y-106787117D01*
X187108418Y-106572385D01*
X186901973Y-106407626D01*
X186742190Y-106281996D01*
X186615100Y-106184652D01*
X186506736Y-106104752D01*
X186403128Y-106031452D01*
X186290309Y-105953909D01*
X186154309Y-105861281D01*
X186139055Y-105850879D01*
X185509926Y-105423059D01*
X184985873Y-105069555D01*
X184567411Y-104790707D01*
X184255056Y-104586857D01*
X184049323Y-104458347D01*
X183968912Y-104413344D01*
X183792834Y-104319787D01*
X183676643Y-104250347D01*
X183201587Y-103955138D01*
X182624800Y-103617429D01*
X181965201Y-103247295D01*
X181241707Y-102854812D01*
X180473235Y-102450055D01*
X179678704Y-102043100D01*
X178877031Y-101644023D01*
X178087135Y-101262897D01*
X177912934Y-101180634D01*
X177560092Y-101014683D01*
X177189196Y-100840187D01*
X176849195Y-100680177D01*
X176631865Y-100577856D01*
X176345294Y-100445908D01*
X175948400Y-100267807D01*
X175452184Y-100048398D01*
X174867647Y-99792529D01*
X174205787Y-99505045D01*
X173736528Y-99302316D01*
X173535015Y-99214308D01*
X173318012Y-99118028D01*
X173308808Y-99113902D01*
X173135038Y-99037811D01*
X172889074Y-98932369D01*
X172620262Y-98818708D01*
X172584974Y-98803912D01*
X172321253Y-98692610D01*
X172077964Y-98588464D01*
X171902070Y-98511602D01*
X171884097Y-98503532D01*
X171734881Y-98440436D01*
X171644744Y-98410277D01*
X171640277Y-98409844D01*
X171570733Y-98385752D01*
X171406155Y-98320666D01*
X171172502Y-98225373D01*
X170895732Y-98110658D01*
X170601803Y-97987308D01*
X170316674Y-97866107D01*
X170066303Y-97757843D01*
X169985751Y-97722372D01*
X169788996Y-97643006D01*
X169623834Y-97586571D01*
X169473143Y-97530797D01*
X169393523Y-97487261D01*
X169296149Y-97440089D01*
X169119852Y-97375779D01*
X168998705Y-97337309D01*
X168795458Y-97268835D01*
X168515257Y-97164762D01*
X168201957Y-97041691D01*
X168011658Y-96963684D01*
X167714097Y-96840320D01*
X167437307Y-96727082D01*
X167218865Y-96639268D01*
X167123316Y-96602066D01*
X166903856Y-96510345D01*
X166697264Y-96410943D01*
X166695596Y-96410056D01*
X166539622Y-96337727D01*
X166428820Y-96304742D01*
X166424297Y-96304550D01*
X166353681Y-96289751D01*
X166219932Y-96241716D01*
X166007849Y-96154265D01*
X165702231Y-96021214D01*
X165432496Y-95901212D01*
X165253965Y-95826888D01*
X165124313Y-95782878D01*
X165095339Y-95777719D01*
X165012520Y-95752982D01*
X164837931Y-95686271D01*
X164600170Y-95588839D01*
X164417247Y-95510887D01*
X164117314Y-95381795D01*
X163826848Y-95257843D01*
X163590131Y-95157883D01*
X163504145Y-95122124D01*
X163349128Y-95057162D01*
X163094889Y-94949314D01*
X162763047Y-94807826D01*
X162375218Y-94641948D01*
X161953020Y-94460926D01*
X161518071Y-94274008D01*
X161091990Y-94090442D01*
X161036528Y-94066509D01*
X159322162Y-93268618D01*
X157714017Y-92401001D01*
X156328408Y-91540803D01*
X156060933Y-91336637D01*
X155764701Y-91067833D01*
X155467606Y-90764195D01*
X155197547Y-90455525D01*
X154982419Y-90171625D01*
X154867487Y-89980083D01*
X154719663Y-89544573D01*
X154701211Y-89110286D01*
X154810033Y-88684468D01*
X155044035Y-88274366D01*
X155401118Y-87887227D01*
X155496730Y-87805244D01*
X155972652Y-87467897D01*
X156572481Y-87135688D01*
X157288534Y-86811536D01*
X158113132Y-86498355D01*
X159038593Y-86199061D01*
X160057236Y-85916570D01*
X161161379Y-85653798D01*
X161168135Y-85652311D01*
X161668771Y-85542217D01*
X162060619Y-85457003D01*
X162363504Y-85393659D01*
X162597254Y-85349173D01*
X162781698Y-85320536D01*
X162936661Y-85304736D01*
X163081972Y-85298764D01*
X163237457Y-85299607D01*
G37*
G36*
X156518627Y-85003159D02*
G01*
X156688162Y-85033198D01*
X156724519Y-85049242D01*
X156791820Y-85112944D01*
X156790322Y-85136208D01*
X156709082Y-85167081D01*
X156528502Y-85218580D01*
X156277850Y-85283393D01*
X155986393Y-85354205D01*
X155683396Y-85423703D01*
X155398127Y-85484573D01*
X155388254Y-85486573D01*
X155155841Y-85536604D01*
X154975143Y-85581174D01*
X154884496Y-85610809D01*
X154883763Y-85611247D01*
X154799211Y-85639210D01*
X154617208Y-85686465D01*
X154369071Y-85745130D01*
X154214939Y-85779582D01*
X153619152Y-85911346D01*
X153093511Y-86030093D01*
X152655909Y-86131713D01*
X152324238Y-86212096D01*
X152251813Y-86230490D01*
X152069699Y-86277514D01*
X151798138Y-86347754D01*
X151475076Y-86431392D01*
X151166062Y-86511452D01*
X150813094Y-86601474D01*
X150460995Y-86688769D01*
X150154136Y-86762473D01*
X149962415Y-86806230D01*
X149738945Y-86863209D01*
X149419892Y-86955760D01*
X149033500Y-87074881D01*
X148608016Y-87211568D01*
X148171682Y-87356818D01*
X147752744Y-87501629D01*
X147527276Y-87582447D01*
X147021722Y-87791394D01*
X146552910Y-88032471D01*
X146140286Y-88292479D01*
X145803297Y-88558222D01*
X145561391Y-88816503D01*
X145458935Y-88986039D01*
X145384723Y-89167636D01*
X145359531Y-89302690D01*
X145381186Y-89451047D01*
X145435388Y-89634174D01*
X145575731Y-89961524D01*
X145795363Y-90296120D01*
X146099564Y-90641877D01*
X146493611Y-91002710D01*
X146982783Y-91382533D01*
X147572359Y-91785261D01*
X148267617Y-92214809D01*
X149073835Y-92675090D01*
X149996293Y-93170021D01*
X150672539Y-93518158D01*
X151094263Y-93730904D01*
X151518427Y-93942589D01*
X151916241Y-94139011D01*
X152258913Y-94305966D01*
X152517654Y-94429251D01*
X152547927Y-94443322D01*
X152818354Y-94569405D01*
X153170170Y-94734883D01*
X153566136Y-94922165D01*
X153969013Y-95113660D01*
X154160104Y-95204867D01*
X154920318Y-95567740D01*
X155592395Y-95887271D01*
X156206509Y-96177763D01*
X156792833Y-96453519D01*
X156923834Y-96514912D01*
X157242233Y-96666438D01*
X157648690Y-96863587D01*
X158123802Y-97096637D01*
X158648168Y-97355870D01*
X159202386Y-97631562D01*
X159767053Y-97913995D01*
X160322768Y-98193447D01*
X160850128Y-98460197D01*
X161329732Y-98704524D01*
X161742178Y-98916708D01*
X162068063Y-99087028D01*
X162220984Y-99168889D01*
X162530028Y-99336473D01*
X162813981Y-99489652D01*
X163044355Y-99613112D01*
X163192660Y-99691538D01*
X163208031Y-99699480D01*
X163398539Y-99801959D01*
X163612883Y-99923604D01*
X163648100Y-99944288D01*
X163811505Y-100040743D01*
X164049362Y-100180899D01*
X164322659Y-100341775D01*
X164470639Y-100428820D01*
X165280821Y-100913373D01*
X166010927Y-101368942D01*
X166700450Y-101821524D01*
X167388883Y-102297119D01*
X168115721Y-102821725D01*
X168200955Y-102884455D01*
X168412625Y-103040443D01*
X168675825Y-103234316D01*
X168936087Y-103425953D01*
X168953436Y-103438724D01*
X169288101Y-103702113D01*
X169674628Y-104034326D01*
X170092424Y-104415076D01*
X170520897Y-104824077D01*
X170939455Y-105241040D01*
X171327506Y-105645679D01*
X171664456Y-106017706D01*
X171929715Y-106336833D01*
X172025648Y-106465438D01*
X172150276Y-106628340D01*
X172264754Y-106758460D01*
X172406990Y-106930125D01*
X172591844Y-107197659D01*
X172805883Y-107537859D01*
X173035674Y-107927522D01*
X173267783Y-108343445D01*
X173488776Y-108762423D01*
X173685219Y-109161255D01*
X173793494Y-109398963D01*
X174083995Y-110193196D01*
X174305211Y-111074466D01*
X174455106Y-112016685D01*
X174531643Y-112993763D01*
X174532789Y-113979613D01*
X174456508Y-114948144D01*
X174300763Y-115873268D01*
X174299159Y-115880569D01*
X174150888Y-116512059D01*
X173984321Y-117149115D01*
X173807919Y-117763294D01*
X173630143Y-118326157D01*
X173459453Y-118809261D01*
X173339961Y-119104922D01*
X173281126Y-119239976D01*
X173183141Y-119465332D01*
X173059230Y-119750555D01*
X172922619Y-120065212D01*
X172911007Y-120091968D01*
X172779059Y-120392532D01*
X172662770Y-120651001D01*
X172573580Y-120842400D01*
X172522928Y-120941753D01*
X172519187Y-120947409D01*
X172470576Y-121030688D01*
X172377819Y-121204019D01*
X172255540Y-121439696D01*
X172154449Y-121638341D01*
X171959449Y-122012997D01*
X171719515Y-122455902D01*
X171449548Y-122941130D01*
X171164448Y-123442755D01*
X170879117Y-123934852D01*
X170608456Y-124391493D01*
X170367366Y-124786754D01*
X170170748Y-125094708D01*
X170149951Y-125125906D01*
X169957709Y-125413453D01*
X169724850Y-125763250D01*
X169483083Y-126127596D01*
X169296927Y-126409067D01*
X169114087Y-126681873D01*
X168953167Y-126914192D01*
X168829784Y-127084027D01*
X168759555Y-127169382D01*
X168753761Y-127174078D01*
X168692242Y-127241933D01*
X168574209Y-127395376D01*
X168417061Y-127611106D01*
X168251313Y-127846854D01*
X168025681Y-128169350D01*
X167765582Y-128535284D01*
X167485633Y-128924668D01*
X167200452Y-129317512D01*
X166924657Y-129693826D01*
X166672866Y-130033622D01*
X166459696Y-130316908D01*
X166299765Y-130523697D01*
X166239689Y-130597704D01*
X166113775Y-130753749D01*
X165937345Y-130980481D01*
X165737750Y-131242487D01*
X165609845Y-131413189D01*
X165308319Y-131812628D01*
X164936207Y-132295840D01*
X164507208Y-132845525D01*
X164035025Y-133444384D01*
X163533359Y-134075117D01*
X163015911Y-134720425D01*
X162496382Y-135363007D01*
X161990233Y-135983419D01*
X161730190Y-136299706D01*
X161445060Y-136645059D01*
X161154541Y-136995758D01*
X160878333Y-137328081D01*
X160636133Y-137618308D01*
X160447643Y-137842717D01*
X160378172Y-137924611D01*
X160210553Y-138122437D01*
X159978363Y-138398434D01*
X159700973Y-138729409D01*
X159397752Y-139092171D01*
X159088069Y-139463528D01*
X158791294Y-139820287D01*
X158526796Y-140139257D01*
X158371503Y-140327296D01*
X158229338Y-140497206D01*
X158016821Y-140747708D01*
X157749965Y-141060096D01*
X157444789Y-141415660D01*
X157117307Y-141795696D01*
X156825129Y-142133507D01*
X156487750Y-142523144D01*
X156155221Y-142907697D01*
X155844333Y-143267710D01*
X155571878Y-143583725D01*
X155354647Y-143836286D01*
X155226227Y-143986227D01*
X155020191Y-144219797D01*
X154870003Y-144366262D01*
X154752682Y-144443902D01*
X154645244Y-144470998D01*
X154615483Y-144472020D01*
X154456552Y-144440870D01*
X154381295Y-144373278D01*
X154406100Y-144274696D01*
X154517173Y-144095823D01*
X154706750Y-143848447D01*
X154803890Y-143731698D01*
X155024718Y-143471222D01*
X155297801Y-143148876D01*
X155590423Y-142803291D01*
X155869866Y-142473097D01*
X155904529Y-142432124D01*
X156166292Y-142122831D01*
X156388882Y-141860256D01*
X156593842Y-141619131D01*
X156802710Y-141374186D01*
X157037028Y-141100152D01*
X157318337Y-140771760D01*
X157591529Y-140453117D01*
X157979954Y-139997979D01*
X158431703Y-139464923D01*
X158926681Y-138877825D01*
X159444797Y-138260563D01*
X159965959Y-137637013D01*
X160383803Y-137134973D01*
X160588470Y-136889794D01*
X160781336Y-136660927D01*
X160934542Y-136481335D01*
X160994578Y-136412367D01*
X161123532Y-136261328D01*
X161296989Y-136051411D01*
X161478119Y-135827202D01*
X161483751Y-135820139D01*
X161652222Y-135609419D01*
X161801708Y-135423644D01*
X161902269Y-135300006D01*
X161908486Y-135292486D01*
X162044703Y-135125749D01*
X162248698Y-134872841D01*
X162507015Y-134550702D01*
X162806198Y-134176268D01*
X163132792Y-133766479D01*
X163473342Y-133338273D01*
X163814391Y-132908589D01*
X164142485Y-132494363D01*
X164444167Y-132112535D01*
X164705983Y-131780044D01*
X164914477Y-131513826D01*
X165056192Y-131330821D01*
X165071008Y-131311398D01*
X165665379Y-130524968D01*
X166247572Y-129745627D01*
X166803137Y-128993050D01*
X167317630Y-128286914D01*
X167776603Y-127646894D01*
X168114896Y-127165802D01*
X168326841Y-126863038D01*
X168516439Y-126596342D01*
X168669428Y-126385456D01*
X168771547Y-126250119D01*
X168804274Y-126211657D01*
X168900171Y-126098677D01*
X169039596Y-125902385D01*
X169196596Y-125660078D01*
X169259760Y-125561585D01*
X169376228Y-125382473D01*
X169526916Y-125152030D01*
X169630422Y-124994300D01*
X169893101Y-124585691D01*
X170184862Y-124117039D01*
X170485853Y-123621459D01*
X170776220Y-123132066D01*
X171036112Y-122681977D01*
X171245674Y-122304307D01*
X171267539Y-122263471D01*
X171476294Y-121870761D01*
X171639128Y-121561545D01*
X171772415Y-121303390D01*
X171892528Y-121063860D01*
X172015842Y-120810522D01*
X172158731Y-120510942D01*
X172255050Y-120307405D01*
X172398184Y-119998584D01*
X172518259Y-119728215D01*
X172604951Y-119520416D01*
X172647938Y-119399306D01*
X172650777Y-119382871D01*
X172692085Y-119256123D01*
X172709883Y-119233238D01*
X172776113Y-119121376D01*
X172870492Y-118905668D01*
X172985091Y-118608830D01*
X173111980Y-118253580D01*
X173243230Y-117862636D01*
X173370911Y-117458713D01*
X173487095Y-117064531D01*
X173558574Y-116801813D01*
X173677379Y-116340981D01*
X173767108Y-115976993D01*
X173833570Y-115679792D01*
X173882577Y-115419324D01*
X173919938Y-115165534D01*
X173951464Y-114888367D01*
X173974434Y-114650745D01*
X174030734Y-113462908D01*
X173977257Y-112316024D01*
X173815255Y-111221653D01*
X173545979Y-110191357D01*
X173466736Y-109958289D01*
X173343931Y-109649104D01*
X173175349Y-109272454D01*
X172981069Y-108869156D01*
X172781173Y-108480025D01*
X172595743Y-108145879D01*
X172491397Y-107975840D01*
X172311367Y-107707000D01*
X172113748Y-107423134D01*
X171913902Y-107144963D01*
X171727188Y-106893209D01*
X171568968Y-106688594D01*
X171454603Y-106551840D01*
X171400049Y-106503626D01*
X171335559Y-106449889D01*
X171306441Y-106386599D01*
X171239978Y-106281711D01*
X171092983Y-106108657D01*
X170881406Y-105882484D01*
X170621193Y-105618237D01*
X170328294Y-105330963D01*
X170018656Y-105035709D01*
X169708229Y-104747520D01*
X169412960Y-104481442D01*
X169148799Y-104252523D01*
X168931692Y-104075809D01*
X168777589Y-103966345D01*
X168710299Y-103937305D01*
X168618697Y-103888733D01*
X168590705Y-103854144D01*
X168522136Y-103787691D01*
X168370150Y-103660969D01*
X168157476Y-103491510D01*
X167906845Y-103296848D01*
X167640987Y-103094513D01*
X167382631Y-102902038D01*
X167154508Y-102736956D01*
X167031533Y-102651512D01*
X166718232Y-102441395D01*
X166371665Y-102212258D01*
X166020104Y-101982473D01*
X165691821Y-101770410D01*
X165415089Y-101594442D01*
X165218180Y-101472937D01*
X165212732Y-101469688D01*
X164958443Y-101315266D01*
X164677881Y-101140430D01*
X164539076Y-101052037D01*
X164302803Y-100906706D01*
X163972154Y-100713010D01*
X163569444Y-100483430D01*
X163116994Y-100230447D01*
X162637120Y-99966544D01*
X162152141Y-99704200D01*
X161694560Y-99461246D01*
X161359615Y-99285323D01*
X161026177Y-99110182D01*
X160732166Y-98955741D01*
X160515499Y-98841919D01*
X160510104Y-98839084D01*
X160286589Y-98720665D01*
X160094014Y-98616912D01*
X159983679Y-98555714D01*
X159883549Y-98503654D01*
X159686306Y-98405713D01*
X159413693Y-98272521D01*
X159087452Y-98114706D01*
X158766321Y-97960582D01*
X158354947Y-97763821D01*
X157924529Y-97557871D01*
X157513296Y-97361030D01*
X157159478Y-97191596D01*
X156989637Y-97110217D01*
X156639177Y-96942576D01*
X156260453Y-96761960D01*
X155910144Y-96595376D01*
X155739378Y-96514439D01*
X155476933Y-96390090D01*
X155133391Y-96227040D01*
X154746464Y-96043202D01*
X154353862Y-95856487D01*
X154200438Y-95783465D01*
X153871954Y-95627832D01*
X153586965Y-95494232D01*
X153365762Y-95392061D01*
X153228636Y-95330716D01*
X153193478Y-95317098D01*
X153121357Y-95288350D01*
X152947848Y-95207370D01*
X152688633Y-95082049D01*
X152359393Y-94920280D01*
X151975809Y-94729954D01*
X151553563Y-94518964D01*
X151108337Y-94295202D01*
X150655811Y-94066560D01*
X150211667Y-93840931D01*
X149791587Y-93626206D01*
X149411251Y-93430278D01*
X149086341Y-93261039D01*
X148832539Y-93126382D01*
X148733894Y-93072659D01*
X148008133Y-92652205D01*
X147310028Y-92210414D01*
X146674291Y-91770033D01*
X146236900Y-91436415D01*
X145710717Y-90965191D01*
X145314333Y-90500192D01*
X145046269Y-90038373D01*
X144905044Y-89576691D01*
X144889179Y-89112101D01*
X144950131Y-88789752D01*
X145080405Y-88537508D01*
X145329837Y-88268664D01*
X145687933Y-87989220D01*
X146144200Y-87705173D01*
X146688144Y-87422523D01*
X147309271Y-87147268D01*
X147997089Y-86885407D01*
X148665544Y-86665815D01*
X148945947Y-86579707D01*
X149195157Y-86502268D01*
X149374527Y-86445547D01*
X149422280Y-86429950D01*
X149546778Y-86394511D01*
X149769590Y-86336977D01*
X150060801Y-86264868D01*
X150390493Y-86185707D01*
X150442228Y-86173499D01*
X150779044Y-86092952D01*
X151085714Y-86017321D01*
X151330936Y-85954481D01*
X151483408Y-85912306D01*
X151495078Y-85908658D01*
X151654357Y-85865081D01*
X151895381Y-85807768D01*
X152170670Y-85747915D01*
X152218912Y-85737997D01*
X152545849Y-85670728D01*
X152926860Y-85591311D01*
X153287361Y-85515304D01*
X153337565Y-85504625D01*
X153685080Y-85432222D01*
X154089871Y-85350329D01*
X154479821Y-85273479D01*
X154587824Y-85252683D01*
X154900172Y-85191126D01*
X155194036Y-85129974D01*
X155425677Y-85078469D01*
X155509067Y-85058032D01*
X155729416Y-85018651D01*
X155998377Y-84996181D01*
X156275073Y-84990919D01*
X156518627Y-85003159D01*
G37*
G36*
X139919246Y-88776259D02*
G01*
X140043147Y-88875302D01*
X140132461Y-89054530D01*
X140169978Y-89303914D01*
X140155255Y-89572437D01*
X140087850Y-89809082D01*
X140051829Y-89874784D01*
X139919048Y-89995089D01*
X139745626Y-90057757D01*
X139584880Y-90048957D01*
X139524135Y-90011678D01*
X139506077Y-89925459D01*
X139504809Y-89747303D01*
X139517064Y-89515344D01*
X139539579Y-89267713D01*
X139569089Y-89042544D01*
X139602330Y-88877969D01*
X139626228Y-88819041D01*
X139757758Y-88742319D01*
X139919246Y-88776259D01*
G37*
G36*
X131203479Y-85330738D02*
G01*
X131423036Y-85384503D01*
X131556978Y-85451998D01*
X131722530Y-85570288D01*
X131768360Y-85653171D01*
X131697563Y-85712526D01*
X131630548Y-85734172D01*
X131489773Y-85764846D01*
X131370372Y-85761498D01*
X131217375Y-85717572D01*
X131087672Y-85669427D01*
X130861328Y-85585353D01*
X130644185Y-85508149D01*
X130613071Y-85497525D01*
X130465429Y-85430908D01*
X130444324Y-85376701D01*
X130545023Y-85337885D01*
X130762794Y-85317440D01*
X130902830Y-85315025D01*
X131203479Y-85330738D01*
G37*
G36*
X137739166Y-87119902D02*
G01*
X137943454Y-87182637D01*
X138233379Y-87313355D01*
X138290815Y-87341907D01*
X138612642Y-87509259D01*
X138906265Y-87672505D01*
X139150472Y-87818807D01*
X139324050Y-87935325D01*
X139405785Y-88009223D01*
X139409363Y-88018841D01*
X139358615Y-88069577D01*
X139239890Y-88135222D01*
X139109810Y-88188308D01*
X139030301Y-88202729D01*
X138934080Y-88181904D01*
X138852439Y-88162144D01*
X138704505Y-88100551D01*
X138545717Y-88004949D01*
X138383831Y-87905219D01*
X138163580Y-87787581D01*
X138033132Y-87724354D01*
X137733366Y-87565419D01*
X137535424Y-87417149D01*
X137445047Y-87287596D01*
X137467980Y-87184811D01*
X137601325Y-87118945D01*
X137739166Y-87119902D01*
G37*
G36*
X133631445Y-85863388D02*
G01*
X133847745Y-85911560D01*
X133915006Y-85932849D01*
X134149019Y-86003307D01*
X134419068Y-86070891D01*
X134509434Y-86090216D01*
X134756580Y-86145747D01*
X135053846Y-86220802D01*
X135266169Y-86279120D01*
X135496976Y-86351039D01*
X135629092Y-86413416D01*
X135692082Y-86486236D01*
X135714711Y-86582374D01*
X135715627Y-86705073D01*
X135654632Y-86752901D01*
X135517302Y-86758824D01*
X135334855Y-86739171D01*
X135201006Y-86697281D01*
X135200366Y-86696907D01*
X135079485Y-86646419D01*
X134864010Y-86574938D01*
X134587308Y-86492242D01*
X134282744Y-86408106D01*
X133983683Y-86332308D01*
X133851429Y-86301655D01*
X133619393Y-86225181D01*
X133414834Y-86115162D01*
X133272489Y-85994151D01*
X133226273Y-85895783D01*
X133283647Y-85853505D01*
X133431058Y-85843372D01*
X133631445Y-85863388D01*
G37*
G36*
X110355133Y-106487119D02*
G01*
X110378820Y-106601364D01*
X110292221Y-106785220D01*
X110095309Y-107039527D01*
X109954348Y-107194559D01*
X109405196Y-107798529D01*
X108915349Y-108382470D01*
X108502669Y-108924481D01*
X108290412Y-109234455D01*
X108073897Y-109560291D01*
X107907200Y-109788495D01*
X107774063Y-109935250D01*
X107658228Y-110016741D01*
X107543436Y-110049152D01*
X107469336Y-110051799D01*
X107297763Y-110037770D01*
X107184693Y-110013414D01*
X107116898Y-109950614D01*
X107118225Y-109834156D01*
X107193140Y-109649850D01*
X107346110Y-109383505D01*
X107419507Y-109267357D01*
X107693084Y-108864268D01*
X108000798Y-108449403D01*
X108329074Y-108037641D01*
X108664336Y-107643861D01*
X108993009Y-107282943D01*
X109301518Y-106969768D01*
X109576288Y-106719213D01*
X109803743Y-106546160D01*
X109970309Y-106465488D01*
X109977005Y-106464107D01*
X110221186Y-106441647D01*
X110355133Y-106487119D01*
G37*
G36*
X138935493Y-90850085D02*
G01*
X138975764Y-90863105D01*
X139045458Y-90944458D01*
X139024273Y-91076648D01*
X138924864Y-91229269D01*
X138765515Y-91368177D01*
X138451136Y-91573933D01*
X138099533Y-91795783D01*
X137729416Y-92022808D01*
X137359498Y-92244090D01*
X137008490Y-92448711D01*
X136695103Y-92625751D01*
X136438049Y-92764292D01*
X136256039Y-92853417D01*
X136170555Y-92882383D01*
X136046093Y-92845786D01*
X135968432Y-92800100D01*
X135894396Y-92726674D01*
X135911249Y-92643425D01*
X135955348Y-92575841D01*
X136055226Y-92481350D01*
X136239254Y-92347446D01*
X136475427Y-92196594D01*
X136598175Y-92124614D01*
X136867580Y-91969295D01*
X137121291Y-91819579D01*
X137318060Y-91699925D01*
X137371869Y-91665776D01*
X137804232Y-91386841D01*
X138142368Y-91174334D01*
X138401017Y-91020880D01*
X138594916Y-90919104D01*
X138738803Y-90861630D01*
X138847416Y-90841082D01*
X138935493Y-90850085D01*
G37*
G36*
X133977071Y-93682348D02*
G01*
X134100548Y-93724027D01*
X134117178Y-93741970D01*
X134131369Y-93816858D01*
X134080903Y-93904278D01*
X133956756Y-94009580D01*
X133749908Y-94138114D01*
X133451336Y-94295229D01*
X133052017Y-94486276D01*
X132542929Y-94716604D01*
X132272128Y-94836025D01*
X131963533Y-94972637D01*
X131638129Y-95118833D01*
X131360863Y-95245409D01*
X131334258Y-95257731D01*
X131020921Y-95388598D01*
X130801073Y-95443116D01*
X130661349Y-95421758D01*
X130588382Y-95325001D01*
X130578123Y-95284614D01*
X130580091Y-95140137D01*
X130619804Y-95065582D01*
X130699347Y-95023843D01*
X130880902Y-94937899D01*
X131145889Y-94816247D01*
X131475727Y-94667384D01*
X131851834Y-94499805D01*
X132008916Y-94430387D01*
X132402633Y-94255377D01*
X132761461Y-94093198D01*
X133065756Y-93952944D01*
X133295876Y-93843708D01*
X133432179Y-93774581D01*
X133454775Y-93761077D01*
X133602214Y-93702372D01*
X133793636Y-93675629D01*
X133977071Y-93682348D01*
G37*
G36*
X106239301Y-113714779D02*
G01*
X106339703Y-113821111D01*
X106347157Y-113934796D01*
X106307785Y-114133966D01*
X106276786Y-114441905D01*
X106254141Y-114836045D01*
X106239830Y-115293818D01*
X106233834Y-115792654D01*
X106236133Y-116309984D01*
X106246707Y-116823242D01*
X106265538Y-117309856D01*
X106292605Y-117747260D01*
X106327889Y-118112884D01*
X106350913Y-118275945D01*
X106371798Y-118469811D01*
X106346372Y-118583392D01*
X106277334Y-118654313D01*
X106066213Y-118734656D01*
X105829769Y-118715075D01*
X105654164Y-118624139D01*
X105569427Y-118499629D01*
X105502466Y-118274453D01*
X105452847Y-117943352D01*
X105420136Y-117501066D01*
X105403902Y-116942335D01*
X105403709Y-116261900D01*
X105413130Y-115699457D01*
X105428594Y-115137507D01*
X105449205Y-114692625D01*
X105478318Y-114350288D01*
X105519286Y-114095968D01*
X105575463Y-113915142D01*
X105650204Y-113793284D01*
X105746862Y-113715868D01*
X105868791Y-113668370D01*
X105883001Y-113664577D01*
X106075004Y-113655578D01*
X106239301Y-113714779D01*
G37*
G36*
X126414313Y-97062025D02*
G01*
X126526366Y-97142851D01*
X126566152Y-97238489D01*
X126541179Y-97289752D01*
X126455204Y-97349404D01*
X126280388Y-97444465D01*
X126010526Y-97577900D01*
X125639419Y-97752677D01*
X125160862Y-97971760D01*
X124568656Y-98238115D01*
X124408657Y-98309524D01*
X124005040Y-98490246D01*
X123621864Y-98663315D01*
X123282828Y-98817912D01*
X123011631Y-98943218D01*
X122831972Y-99028414D01*
X122807525Y-99040480D01*
X122544558Y-99155997D01*
X122360351Y-99193949D01*
X122229776Y-99157562D01*
X122184511Y-99120517D01*
X122108000Y-98971779D01*
X122150414Y-98826566D01*
X122286506Y-98725967D01*
X122435455Y-98661197D01*
X122657878Y-98561838D01*
X122907757Y-98448459D01*
X122928087Y-98439156D01*
X123145197Y-98341016D01*
X123451510Y-98204293D01*
X123815567Y-98042944D01*
X124205906Y-97870925D01*
X124474460Y-97753157D01*
X124845512Y-97590362D01*
X125193833Y-97436724D01*
X125493605Y-97303694D01*
X125719009Y-97202720D01*
X125827748Y-97153038D01*
X126033363Y-97074510D01*
X126220272Y-97031040D01*
X126263862Y-97027979D01*
X126414313Y-97062025D01*
G37*
G36*
X117542175Y-101198992D02*
G01*
X117604805Y-101225610D01*
X117626272Y-101236881D01*
X117745303Y-101350294D01*
X117738846Y-101481951D01*
X117668855Y-101564229D01*
X117579618Y-101623894D01*
X117399371Y-101733983D01*
X117151789Y-101880371D01*
X116860550Y-102048929D01*
X116764062Y-102104069D01*
X116448797Y-102284940D01*
X116154853Y-102455864D01*
X115911100Y-102599899D01*
X115746410Y-102700100D01*
X115722646Y-102715233D01*
X115582723Y-102806009D01*
X115360409Y-102950472D01*
X115083595Y-103130490D01*
X114780170Y-103327930D01*
X114703656Y-103377736D01*
X114275392Y-103642328D01*
X113931951Y-103821081D01*
X113662025Y-103918041D01*
X113454308Y-103937253D01*
X113297492Y-103882763D01*
X113295635Y-103881517D01*
X113248786Y-103824536D01*
X113259362Y-103748372D01*
X113335030Y-103647191D01*
X113483458Y-103515160D01*
X113712315Y-103346444D01*
X114029269Y-103135210D01*
X114441988Y-102875624D01*
X114958140Y-102561851D01*
X115294926Y-102360472D01*
X115837401Y-102037901D01*
X116278850Y-101777122D01*
X116631201Y-101572388D01*
X116906381Y-101417948D01*
X117116317Y-101308056D01*
X117272937Y-101236963D01*
X117388169Y-101198921D01*
X117473939Y-101188180D01*
X117542175Y-101198992D01*
G37*
G36*
X116503300Y-140351994D02*
G01*
X116743817Y-140442218D01*
X116947430Y-140617364D01*
X117146571Y-140897702D01*
X117170211Y-140936861D01*
X117319339Y-141182518D01*
X117475327Y-141432781D01*
X117552402Y-141553250D01*
X117654505Y-141711614D01*
X117809484Y-141953546D01*
X118001518Y-142254194D01*
X118214782Y-142588702D01*
X118433452Y-142932217D01*
X118641706Y-143259885D01*
X118823721Y-143546852D01*
X118963672Y-143768263D01*
X119036136Y-143883777D01*
X119112697Y-144055876D01*
X119086800Y-144173685D01*
X118950883Y-144243820D01*
X118697386Y-144272897D01*
X118589432Y-144274611D01*
X118319776Y-144261207D01*
X118145003Y-144215882D01*
X118054614Y-144155538D01*
X117961417Y-144045021D01*
X117826419Y-143856487D01*
X117674594Y-143625320D01*
X117630936Y-143555283D01*
X117460510Y-143282219D01*
X117251360Y-142952742D01*
X117037439Y-142620160D01*
X116940004Y-142470441D01*
X116732662Y-142153180D01*
X116583305Y-141923413D01*
X116477812Y-141758539D01*
X116402059Y-141635959D01*
X116341927Y-141533070D01*
X116283292Y-141427273D01*
X116250700Y-141367288D01*
X116153051Y-141205567D01*
X116070032Y-141098340D01*
X116052429Y-141083634D01*
X115979128Y-140995774D01*
X115893430Y-140837413D01*
X115814673Y-140653920D01*
X115762192Y-140490661D01*
X115755327Y-140393004D01*
X115756837Y-140390142D01*
X115838819Y-140356301D01*
X116011611Y-140333194D01*
X116193444Y-140326424D01*
X116503300Y-140351994D01*
G37*
G36*
X107937429Y-124436013D02*
G01*
X108143323Y-124551124D01*
X108289076Y-124773384D01*
X108345566Y-124930642D01*
X108405203Y-125095697D01*
X108507068Y-125343528D01*
X108636052Y-125638447D01*
X108755446Y-125898893D01*
X108911149Y-126230906D01*
X109069946Y-126569427D01*
X109210205Y-126868348D01*
X109288053Y-127034196D01*
X109491490Y-127459873D01*
X109735292Y-127957874D01*
X110004176Y-128497993D01*
X110282858Y-129050023D01*
X110556056Y-129583758D01*
X110808486Y-130068992D01*
X111024864Y-130475518D01*
X111085925Y-130587564D01*
X111271422Y-130925461D01*
X111455355Y-131260805D01*
X111618082Y-131557767D01*
X111739960Y-131780513D01*
X111753292Y-131804922D01*
X111864805Y-132034901D01*
X111943231Y-132245753D01*
X111970374Y-132380699D01*
X111963508Y-132485148D01*
X111918946Y-132538937D01*
X111804094Y-132558844D01*
X111618826Y-132561657D01*
X111334777Y-132537303D01*
X111137025Y-132458075D01*
X111102256Y-132433027D01*
X110999267Y-132317436D01*
X110863296Y-132118067D01*
X110717537Y-131870153D01*
X110658217Y-131758545D01*
X110529753Y-131512018D01*
X110420067Y-131307834D01*
X110345470Y-131176071D01*
X110326539Y-131146890D01*
X110256570Y-131033905D01*
X110138691Y-130817203D01*
X109980494Y-130512395D01*
X109789570Y-130135095D01*
X109573513Y-129700916D01*
X109339912Y-129225469D01*
X109096362Y-128724369D01*
X108850452Y-128213227D01*
X108609775Y-127707656D01*
X108381924Y-127223269D01*
X108174489Y-126775679D01*
X107995063Y-126380499D01*
X107862725Y-126080051D01*
X107725345Y-125761701D01*
X107593112Y-125455791D01*
X107482598Y-125200632D01*
X107419214Y-125054782D01*
X107345538Y-124844287D01*
X107309675Y-124656877D01*
X107310264Y-124594160D01*
X107340043Y-124496582D01*
X107417679Y-124444804D01*
X107579350Y-124419891D01*
X107653338Y-124414589D01*
X107937429Y-124436013D01*
G37*
G36*
X134125163Y-85008157D02*
G01*
X134368685Y-85041183D01*
X134443631Y-85058032D01*
X134623859Y-85100552D01*
X134889777Y-85157678D01*
X135197646Y-85220166D01*
X135364874Y-85252683D01*
X135735264Y-85324946D01*
X136143163Y-85406820D01*
X136516450Y-85483772D01*
X136615133Y-85504625D01*
X136965564Y-85578668D01*
X137348296Y-85658582D01*
X137688746Y-85728806D01*
X137733786Y-85737997D01*
X138010191Y-85797143D01*
X138260653Y-85855710D01*
X138437695Y-85902504D01*
X138457620Y-85908658D01*
X138595319Y-85947473D01*
X138829952Y-86008006D01*
X139130219Y-86082382D01*
X139464817Y-86162728D01*
X139510470Y-86173499D01*
X139843400Y-86253074D01*
X140142406Y-86326743D01*
X140377574Y-86386984D01*
X140518986Y-86426276D01*
X140530418Y-86429950D01*
X140665590Y-86473371D01*
X140888052Y-86542947D01*
X141159157Y-86626632D01*
X141287154Y-86665815D01*
X142026093Y-86910461D01*
X142707802Y-87173910D01*
X143321786Y-87450160D01*
X143857551Y-87733215D01*
X144304605Y-88017074D01*
X144652454Y-88295740D01*
X144890604Y-88563214D01*
X145002567Y-88789752D01*
X145071943Y-89258102D01*
X145016976Y-89721454D01*
X144836186Y-90182852D01*
X144528093Y-90645339D01*
X144091216Y-91111961D01*
X143715798Y-91436415D01*
X143154319Y-91859470D01*
X142502904Y-92302001D01*
X141796267Y-92741258D01*
X141218804Y-93072659D01*
X141008162Y-93186222D01*
X140718261Y-93338469D01*
X140364782Y-93521507D01*
X139963406Y-93727446D01*
X139529815Y-93948391D01*
X139079689Y-94176452D01*
X138628711Y-94403736D01*
X138192561Y-94622350D01*
X137786922Y-94824403D01*
X137427474Y-95002003D01*
X137129899Y-95147257D01*
X136909878Y-95252272D01*
X136783093Y-95309158D01*
X136759220Y-95317098D01*
X136693668Y-95343960D01*
X136529716Y-95418284D01*
X136287654Y-95530671D01*
X135987771Y-95671725D01*
X135752260Y-95783465D01*
X135368199Y-95966197D01*
X134974395Y-96153375D01*
X134608558Y-96327089D01*
X134308400Y-96469425D01*
X134213320Y-96514439D01*
X133906488Y-96660013D01*
X133537721Y-96835594D01*
X133163697Y-97014172D01*
X132963061Y-97110217D01*
X132662449Y-97254230D01*
X132281328Y-97436703D01*
X131857927Y-97639338D01*
X131430478Y-97843838D01*
X131186377Y-97960582D01*
X130830484Y-98131458D01*
X130508673Y-98287268D01*
X130242685Y-98417383D01*
X130054264Y-98511172D01*
X129969019Y-98555714D01*
X129843491Y-98625181D01*
X129646203Y-98731288D01*
X129442594Y-98839084D01*
X129229127Y-98951226D01*
X128937064Y-99104644D01*
X128604323Y-99279419D01*
X128268822Y-99455635D01*
X128258138Y-99461246D01*
X127789739Y-99710002D01*
X127304629Y-99972518D01*
X126825127Y-100236313D01*
X126373551Y-100488906D01*
X125972220Y-100717815D01*
X125643450Y-100910559D01*
X125413622Y-101052037D01*
X125155304Y-101215419D01*
X124875857Y-101387776D01*
X124739966Y-101469688D01*
X124546595Y-101588797D01*
X124272341Y-101763058D01*
X123945479Y-101974101D01*
X123594280Y-102203553D01*
X123247016Y-102433045D01*
X122931961Y-102644206D01*
X122921165Y-102651512D01*
X122725452Y-102788907D01*
X122484502Y-102965267D01*
X122221046Y-103163060D01*
X121957814Y-103364754D01*
X121717535Y-103552817D01*
X121522940Y-103709715D01*
X121396758Y-103817918D01*
X121361993Y-103854144D01*
X121275051Y-103929725D01*
X121242399Y-103937305D01*
X121150334Y-103981978D01*
X120982478Y-104105966D01*
X120754778Y-104294222D01*
X120483184Y-104531701D01*
X120183644Y-104803356D01*
X119872106Y-105094140D01*
X119564519Y-105389009D01*
X119276831Y-105672914D01*
X119024990Y-105930811D01*
X118824944Y-106147652D01*
X118692643Y-106308392D01*
X118646257Y-106386599D01*
X118589126Y-106484909D01*
X118552648Y-106503626D01*
X118495648Y-106554537D01*
X118379858Y-106693455D01*
X118220640Y-106899658D01*
X118033354Y-107152425D01*
X117833362Y-107431033D01*
X117636024Y-107714762D01*
X117461301Y-107975840D01*
X117296324Y-108251592D01*
X117103678Y-108609166D01*
X116903445Y-109007744D01*
X116715706Y-109406512D01*
X116560541Y-109764651D01*
X116485962Y-109958289D01*
X116191495Y-110971739D01*
X116004007Y-112051998D01*
X115924748Y-113187505D01*
X115954969Y-114366699D01*
X115978264Y-114650745D01*
X116009212Y-114964525D01*
X116041699Y-115232704D01*
X116081534Y-115485339D01*
X116134530Y-115752483D01*
X116206495Y-116064193D01*
X116303241Y-116450522D01*
X116394124Y-116801813D01*
X116497257Y-117175160D01*
X116617545Y-117574455D01*
X116747059Y-117976981D01*
X116877870Y-118360019D01*
X117002048Y-118700854D01*
X117111664Y-118976767D01*
X117198787Y-119165040D01*
X117242814Y-119233238D01*
X117299166Y-119353723D01*
X117301921Y-119382871D01*
X117328855Y-119471380D01*
X117402777Y-119654242D01*
X117513362Y-119907340D01*
X117650286Y-120206555D01*
X117697648Y-120307405D01*
X117858989Y-120647783D01*
X117991435Y-120923460D01*
X118111363Y-121166871D01*
X118235144Y-121410450D01*
X118379155Y-121686631D01*
X118559769Y-122027848D01*
X118685159Y-122263471D01*
X118886962Y-122629652D01*
X119141598Y-123072430D01*
X119429215Y-123558689D01*
X119729960Y-124055314D01*
X120023980Y-124529189D01*
X120291422Y-124947198D01*
X120322276Y-124994300D01*
X120484693Y-125241998D01*
X120624867Y-125456746D01*
X120723713Y-125609255D01*
X120756102Y-125660078D01*
X120916845Y-125907917D01*
X121055470Y-126102546D01*
X121148424Y-126211657D01*
X121208834Y-126285848D01*
X121329594Y-126448711D01*
X121496445Y-126680505D01*
X121695123Y-126961491D01*
X121837801Y-127165802D01*
X122237682Y-127733484D01*
X122705466Y-128384148D01*
X123226707Y-129098119D01*
X123786959Y-129855721D01*
X124371774Y-130637278D01*
X124881690Y-131311398D01*
X125012105Y-131480306D01*
X125211338Y-131734996D01*
X125465934Y-132058528D01*
X125762437Y-132433964D01*
X126087392Y-132844366D01*
X126427342Y-133272796D01*
X126768833Y-133702316D01*
X127098408Y-134115987D01*
X127402614Y-134496871D01*
X127667992Y-134828029D01*
X127881090Y-135092524D01*
X128028450Y-135273417D01*
X128044212Y-135292486D01*
X128138230Y-135407860D01*
X128284168Y-135589092D01*
X128452088Y-135798990D01*
X128468947Y-135820139D01*
X128649706Y-136044061D01*
X128823996Y-136255151D01*
X128954989Y-136408821D01*
X128958120Y-136412367D01*
X129075273Y-136547932D01*
X129248358Y-136752022D01*
X129449517Y-136991677D01*
X129568895Y-137134973D01*
X130077451Y-137745745D01*
X130599532Y-138369919D01*
X131115044Y-138983619D01*
X131603895Y-139562967D01*
X132045994Y-140084088D01*
X132361169Y-140453117D01*
X132695546Y-140843152D01*
X132965710Y-141158624D01*
X133193201Y-141424803D01*
X133399560Y-141666957D01*
X133606327Y-141910356D01*
X133835043Y-142180270D01*
X134048169Y-142432124D01*
X134323362Y-142757322D01*
X134616116Y-143103086D01*
X134893714Y-143430785D01*
X135123439Y-143701790D01*
X135148808Y-143731698D01*
X135379456Y-144017025D01*
X135516148Y-144223265D01*
X135561508Y-144360732D01*
X135518162Y-144439740D01*
X135388734Y-144470602D01*
X135337215Y-144472020D01*
X135228541Y-144455266D01*
X135116082Y-144392819D01*
X134976854Y-144266396D01*
X134787876Y-144057720D01*
X134726471Y-143986227D01*
X134569204Y-143802696D01*
X134342479Y-143539216D01*
X134063088Y-143215246D01*
X133747821Y-142850241D01*
X133413470Y-142463657D01*
X133127568Y-142133507D01*
X132793709Y-141747406D01*
X132468143Y-141369411D01*
X132166888Y-141018228D01*
X131905960Y-140712566D01*
X131701375Y-140471131D01*
X131581195Y-140327296D01*
X131350740Y-140048487D01*
X131074475Y-139715686D01*
X130771771Y-139352086D01*
X130461996Y-138980878D01*
X130164521Y-138625254D01*
X129898714Y-138308407D01*
X129683946Y-138053528D01*
X129574526Y-137924611D01*
X129421246Y-137743188D01*
X129204149Y-137483775D01*
X128942933Y-137170093D01*
X128657297Y-136825861D01*
X128366941Y-136474802D01*
X128091563Y-136140635D01*
X127962465Y-135983419D01*
X127454492Y-135360760D01*
X126934946Y-134718138D01*
X126417529Y-134072851D01*
X125915943Y-133442200D01*
X125443889Y-132843485D01*
X125015067Y-132294004D01*
X124643180Y-131811058D01*
X124342853Y-131413189D01*
X124142813Y-131147208D01*
X123948343Y-130893721D01*
X123786795Y-130688140D01*
X123713009Y-130597704D01*
X123588671Y-130441624D01*
X123403036Y-130198027D01*
X123170723Y-129886905D01*
X122906350Y-129528246D01*
X122624534Y-129142040D01*
X122339894Y-128748277D01*
X122067046Y-128366945D01*
X121820609Y-128018035D01*
X121701385Y-127846854D01*
X121523499Y-127594146D01*
X121368566Y-127382088D01*
X121253988Y-127233980D01*
X121198936Y-127174078D01*
X121139938Y-127106272D01*
X121024974Y-126950026D01*
X120869661Y-126727336D01*
X120689615Y-126460196D01*
X120655771Y-126409067D01*
X120430928Y-126069214D01*
X120188451Y-125703986D01*
X119960048Y-125361081D01*
X119802747Y-125125906D01*
X119612766Y-124830745D01*
X119376441Y-124445023D01*
X119108675Y-123994665D01*
X118824368Y-123505596D01*
X118538421Y-123003745D01*
X118265736Y-122515035D01*
X118021213Y-122065393D01*
X117819754Y-121680745D01*
X117798249Y-121638341D01*
X117663524Y-121374323D01*
X117547477Y-121152111D01*
X117464733Y-120999409D01*
X117433511Y-120947409D01*
X117390032Y-120864971D01*
X117306198Y-120686522D01*
X117193448Y-120437037D01*
X117063223Y-120141489D01*
X117041691Y-120091968D01*
X116904617Y-119776226D01*
X116779133Y-119487367D01*
X116678466Y-119255823D01*
X116615842Y-119112029D01*
X116612737Y-119104922D01*
X116453058Y-118701234D01*
X116279878Y-118196228D01*
X116101658Y-117618343D01*
X115926859Y-116996021D01*
X115763942Y-116357704D01*
X115653539Y-115880569D01*
X115497137Y-114955907D01*
X115420215Y-113987625D01*
X115420737Y-113001811D01*
X115496668Y-112024555D01*
X115645972Y-111081946D01*
X115866613Y-110200073D01*
X116156558Y-109405024D01*
X116159204Y-109398963D01*
X116332456Y-109025705D01*
X116539000Y-108617201D01*
X116765401Y-108196653D01*
X116998227Y-107787265D01*
X117224043Y-107412240D01*
X117429417Y-107094781D01*
X117600913Y-106858092D01*
X117687944Y-106758460D01*
X117802629Y-106628086D01*
X117927050Y-106465438D01*
X118072266Y-106270273D01*
X118240752Y-106065740D01*
X118449461Y-105833148D01*
X118715346Y-105553805D01*
X119055358Y-105209019D01*
X119175522Y-105088859D01*
X119582200Y-104685754D01*
X119916526Y-104361106D01*
X120197011Y-104098170D01*
X120442165Y-103880195D01*
X120670497Y-103690435D01*
X120900519Y-103512140D01*
X120999262Y-103438724D01*
X121257185Y-103248815D01*
X121522009Y-103053752D01*
X121739264Y-102893655D01*
X121751743Y-102884455D01*
X122485317Y-102352766D01*
X123176079Y-101872990D01*
X123863522Y-101419128D01*
X124587140Y-100965181D01*
X125386426Y-100485152D01*
X125482059Y-100428820D01*
X125758285Y-100266302D01*
X126020049Y-100112147D01*
X126228341Y-99989335D01*
X126304598Y-99944288D01*
X126513638Y-99824501D01*
X126715239Y-99714757D01*
X126744667Y-99699480D01*
X126875709Y-99630494D01*
X127093797Y-99513799D01*
X127370442Y-99364709D01*
X127677156Y-99198538D01*
X127731714Y-99168889D01*
X127992686Y-99030139D01*
X128352516Y-98843362D01*
X128791803Y-98618281D01*
X129291144Y-98364615D01*
X129831138Y-98092087D01*
X130392382Y-97810416D01*
X130955475Y-97529323D01*
X131501014Y-97258529D01*
X132009597Y-97007755D01*
X132461823Y-96786721D01*
X132838289Y-96605150D01*
X133028864Y-96514912D01*
X133613095Y-96240500D01*
X134218336Y-95954565D01*
X134874760Y-95642805D01*
X135612542Y-95290917D01*
X135792594Y-95204867D01*
X136185068Y-95017816D01*
X136589120Y-94826243D01*
X136967512Y-94647741D01*
X137283005Y-94499899D01*
X137404771Y-94443322D01*
X137648178Y-94327946D01*
X137979909Y-94166734D01*
X138371173Y-93973890D01*
X138793178Y-93763615D01*
X139217136Y-93550112D01*
X139280159Y-93518158D01*
X140282362Y-92998171D01*
X141164836Y-92515421D01*
X141932860Y-92065994D01*
X142591713Y-91645974D01*
X143146672Y-91251446D01*
X143603016Y-90878497D01*
X143966024Y-90523212D01*
X144240975Y-90181675D01*
X144433145Y-89849973D01*
X144517310Y-89634174D01*
X144577390Y-89426777D01*
X144592487Y-89283983D01*
X144560427Y-89145945D01*
X144493763Y-88986039D01*
X144330110Y-88740858D01*
X144057741Y-88478963D01*
X143696104Y-88213551D01*
X143264645Y-87957820D01*
X142782812Y-87724965D01*
X142425422Y-87582447D01*
X142029721Y-87442060D01*
X141600121Y-87295973D01*
X141164867Y-87153189D01*
X140752204Y-87022711D01*
X140390376Y-86913543D01*
X140107627Y-86834686D01*
X139990283Y-86806230D01*
X139756529Y-86752561D01*
X139439920Y-86676088D01*
X139084825Y-86587675D01*
X138786636Y-86511452D01*
X138449698Y-86424160D01*
X138129474Y-86341263D01*
X137863909Y-86272580D01*
X137700884Y-86230490D01*
X137402574Y-86156890D01*
X136993249Y-86060886D01*
X136490801Y-85946587D01*
X135913125Y-85818103D01*
X135737759Y-85779582D01*
X135466503Y-85717993D01*
X135244067Y-85663455D01*
X135101767Y-85623852D01*
X135068935Y-85611247D01*
X134980852Y-85582074D01*
X134801823Y-85537745D01*
X134570182Y-85487734D01*
X134564444Y-85486573D01*
X134280398Y-85426163D01*
X133977536Y-85356855D01*
X133685126Y-85285961D01*
X133432435Y-85220795D01*
X133248729Y-85168670D01*
X133163275Y-85136901D01*
X133162376Y-85136208D01*
X133181321Y-85085927D01*
X133228179Y-85049242D01*
X133359106Y-85012402D01*
X133579497Y-84993471D01*
X133848475Y-84992154D01*
X134125163Y-85008157D01*
G37*
G36*
X126993966Y-85303279D02*
G01*
X127146201Y-85317402D01*
X127324923Y-85343908D01*
X127549958Y-85385808D01*
X127841134Y-85446112D01*
X128218279Y-85527831D01*
X128701219Y-85633975D01*
X128784563Y-85652311D01*
X129803475Y-85894560D01*
X130774486Y-86161213D01*
X131678695Y-86446139D01*
X132497203Y-86743202D01*
X133211111Y-87046268D01*
X133479668Y-87176119D01*
X134072352Y-87518883D01*
X134548307Y-87887562D01*
X134905062Y-88277844D01*
X135140151Y-88685417D01*
X135251103Y-89105971D01*
X135235451Y-89535193D01*
X135090726Y-89968773D01*
X135085211Y-89980083D01*
X134935116Y-90222011D01*
X134707467Y-90512877D01*
X134430159Y-90822880D01*
X134131089Y-91122218D01*
X133838154Y-91381088D01*
X133624290Y-91540803D01*
X132117790Y-92470770D01*
X130501255Y-93333056D01*
X128916169Y-94066509D01*
X128492930Y-94248918D01*
X128057916Y-94435923D01*
X127632745Y-94618277D01*
X127239034Y-94786731D01*
X126898403Y-94932037D01*
X126632467Y-95044949D01*
X126462846Y-95116217D01*
X126448553Y-95122124D01*
X126256455Y-95202520D01*
X125987954Y-95316553D01*
X125687332Y-95445371D01*
X125535451Y-95510887D01*
X125271091Y-95622767D01*
X125050486Y-95711566D01*
X124902230Y-95766034D01*
X124857359Y-95777719D01*
X124764616Y-95802756D01*
X124601560Y-95865958D01*
X124520202Y-95901212D01*
X124142109Y-96068890D01*
X123867914Y-96186755D01*
X123682416Y-96260989D01*
X123570413Y-96297773D01*
X123528401Y-96304550D01*
X123423317Y-96333744D01*
X123268454Y-96404075D01*
X123257102Y-96410056D01*
X123051214Y-96509280D01*
X122831325Y-96601332D01*
X122829382Y-96602066D01*
X122671597Y-96664059D01*
X122430088Y-96761806D01*
X122142433Y-96880010D01*
X121941040Y-96963684D01*
X121629172Y-97090195D01*
X121323408Y-97207927D01*
X121067602Y-97300278D01*
X120953993Y-97337309D01*
X120753643Y-97403213D01*
X120604097Y-97462657D01*
X120559175Y-97487261D01*
X120448574Y-97544156D01*
X120328864Y-97586571D01*
X120145652Y-97649779D01*
X119966947Y-97722372D01*
X119736568Y-97822901D01*
X119461578Y-97940460D01*
X119167933Y-98064264D01*
X118881592Y-98183528D01*
X118628514Y-98287464D01*
X118434657Y-98365287D01*
X118325979Y-98406211D01*
X118312421Y-98409844D01*
X118233451Y-98434428D01*
X118088717Y-98494519D01*
X118068601Y-98503532D01*
X117907143Y-98574452D01*
X117671112Y-98675732D01*
X117407473Y-98787243D01*
X117367724Y-98803912D01*
X117099606Y-98917064D01*
X116847686Y-99024846D01*
X116661310Y-99106125D01*
X116643890Y-99113902D01*
X116428812Y-99209405D01*
X116224106Y-99298891D01*
X116216169Y-99302316D01*
X115509705Y-99607850D01*
X114873370Y-99884937D01*
X114318165Y-100128732D01*
X113855090Y-100334388D01*
X113495146Y-100497059D01*
X113320833Y-100577856D01*
X113040983Y-100709604D01*
X112690980Y-100874310D01*
X112319773Y-101048943D01*
X112039764Y-101180634D01*
X111255125Y-101556330D01*
X110454453Y-101952246D01*
X109656665Y-102358307D01*
X108880679Y-102764437D01*
X108145414Y-103160561D01*
X107469786Y-103536603D01*
X106872714Y-103882487D01*
X106373115Y-104188139D01*
X106276055Y-104250347D01*
X106114830Y-104344902D01*
X105983786Y-104413344D01*
X105853155Y-104488800D01*
X105615541Y-104639836D01*
X105271457Y-104866109D01*
X104821421Y-105167279D01*
X104265948Y-105543003D01*
X103813643Y-105850879D01*
X103674589Y-105945591D01*
X103560098Y-106024143D01*
X103456201Y-106097379D01*
X103348931Y-106176143D01*
X103224318Y-106271276D01*
X103068394Y-106393623D01*
X102867191Y-106554026D01*
X102606739Y-106763328D01*
X102273072Y-107032372D01*
X101852220Y-107372002D01*
X101805289Y-107409872D01*
X101352375Y-107800545D01*
X100851682Y-108275729D01*
X100327012Y-108809500D01*
X99802168Y-109375931D01*
X99300953Y-109949099D01*
X98847170Y-110503078D01*
X98464621Y-111011944D01*
X98360977Y-111161257D01*
X98112190Y-111546822D01*
X97848907Y-111986097D01*
X97592845Y-112440357D01*
X97365728Y-112870877D01*
X97189274Y-113238930D01*
X97166815Y-113290319D01*
X97055091Y-113549831D01*
X96952274Y-113787547D01*
X96878452Y-113957037D01*
X96871750Y-113972279D01*
X96768859Y-114237736D01*
X96646249Y-114606092D01*
X96511532Y-115051510D01*
X96372319Y-115548152D01*
X96236222Y-116070180D01*
X96151581Y-116417002D01*
X96085999Y-116759451D01*
X96024177Y-117205076D01*
X95968494Y-117725455D01*
X95921333Y-118292165D01*
X95885075Y-118876784D01*
X95862100Y-119450888D01*
X95854745Y-119960362D01*
X95883269Y-120935412D01*
X95964924Y-121998040D01*
X96096032Y-123117108D01*
X96272918Y-124261480D01*
X96491904Y-125400019D01*
X96503611Y-125454922D01*
X96585106Y-125818801D01*
X96689308Y-126258718D01*
X96810820Y-126754066D01*
X96944245Y-127284241D01*
X97084185Y-127828636D01*
X97225244Y-128366648D01*
X97362025Y-128877669D01*
X97489130Y-129341095D01*
X97601162Y-129736320D01*
X97692724Y-130042739D01*
X97753200Y-130225647D01*
X97792381Y-130339417D01*
X97866231Y-130559730D01*
X97968602Y-130868013D01*
X98093343Y-131245693D01*
X98234306Y-131674199D01*
X98385008Y-132133937D01*
X98535050Y-132590446D01*
X98674441Y-133010741D01*
X98797209Y-133377111D01*
X98897381Y-133671846D01*
X98968982Y-133877236D01*
X99006040Y-133975570D01*
X99006435Y-133976424D01*
X99052726Y-134090658D01*
X99130169Y-134297575D01*
X99227061Y-134565424D01*
X99309571Y-134798963D01*
X99476207Y-135273847D01*
X99610404Y-135651751D01*
X99722173Y-135960268D01*
X99821525Y-136226990D01*
X99918471Y-136479511D01*
X99930291Y-136509844D01*
X100030334Y-136773925D01*
X100128244Y-137044474D01*
X100170841Y-137167875D01*
X100252121Y-137396633D01*
X100334696Y-137608914D01*
X100356967Y-137661398D01*
X100409816Y-137788848D01*
X100499738Y-138013406D01*
X100616557Y-138309350D01*
X100750098Y-138650954D01*
X100838515Y-138878756D01*
X101092860Y-139535481D01*
X101304642Y-140081164D01*
X101478520Y-140527605D01*
X101619152Y-140886603D01*
X101731198Y-141169959D01*
X101819314Y-141389473D01*
X101888160Y-141556945D01*
X101942394Y-141684175D01*
X101974755Y-141756925D01*
X102051096Y-141942618D01*
X102096199Y-142086243D01*
X102101403Y-142122132D01*
X102143877Y-142247628D01*
X102162599Y-142270906D01*
X102222427Y-142368672D01*
X102297290Y-142536669D01*
X102320211Y-142596631D01*
X102401655Y-142812407D01*
X102503887Y-143074725D01*
X102562509Y-143221761D01*
X102731279Y-143656705D01*
X102850584Y-144000148D01*
X102917758Y-144243568D01*
X102930134Y-144378444D01*
X102927449Y-144387902D01*
X102839870Y-144462363D01*
X102697264Y-144465735D01*
X102550471Y-144405117D01*
X102469508Y-144323963D01*
X102401625Y-144194567D01*
X102305757Y-143981682D01*
X102199638Y-143725230D01*
X102169893Y-143649481D01*
X102068789Y-143391262D01*
X101979448Y-143167697D01*
X101917218Y-143017053D01*
X101905971Y-142991450D01*
X101860128Y-142881599D01*
X101778399Y-142677190D01*
X101671996Y-142406554D01*
X101552131Y-142098021D01*
X101541392Y-142070207D01*
X101412891Y-141740983D01*
X101288587Y-141429114D01*
X101182698Y-141169878D01*
X101109709Y-140999146D01*
X101033845Y-140817487D01*
X100988462Y-140682758D01*
X100982750Y-140650069D01*
X100957675Y-140553025D01*
X100894412Y-140387048D01*
X100859670Y-140306363D01*
X100771905Y-140100779D01*
X100662157Y-139831771D01*
X100558906Y-139569688D01*
X100446492Y-139281228D01*
X100310749Y-138937155D01*
X100177865Y-138603791D01*
X100155561Y-138548276D01*
X100055859Y-138294448D01*
X99978159Y-138085132D01*
X99933795Y-137951417D01*
X99927667Y-137923146D01*
X99899590Y-137828507D01*
X99831643Y-137666725D01*
X99798294Y-137595595D01*
X99719255Y-137411514D01*
X99673368Y-137265242D01*
X99668920Y-137232704D01*
X99637796Y-137112514D01*
X99563704Y-136941999D01*
X99543855Y-136903688D01*
X99446141Y-136683387D01*
X99374988Y-136458543D01*
X99371748Y-136444041D01*
X99325613Y-136271278D01*
X99278323Y-136154990D01*
X99273596Y-136147927D01*
X99223893Y-136049829D01*
X99154427Y-135877415D01*
X99121326Y-135786010D01*
X99057216Y-135604614D01*
X98961766Y-135337257D01*
X98848493Y-135021703D01*
X98744452Y-134733160D01*
X98602811Y-134334947D01*
X98445261Y-133882105D01*
X98295602Y-133443423D01*
X98220838Y-133219688D01*
X98116898Y-132908549D01*
X98021724Y-132629619D01*
X97946214Y-132414473D01*
X97902837Y-132298445D01*
X97854071Y-132162948D01*
X97781142Y-131939921D01*
X97696594Y-131668216D01*
X97658484Y-131541709D01*
X97569507Y-131250074D01*
X97483305Y-130979341D01*
X97414002Y-130773471D01*
X97394191Y-130719170D01*
X97332320Y-130540612D01*
X97252257Y-130287795D01*
X97170639Y-130013373D01*
X97165475Y-129995336D01*
X97087742Y-129728036D01*
X97014608Y-129484941D01*
X96960820Y-129314985D01*
X96957246Y-129304403D01*
X96886275Y-129075102D01*
X96791059Y-128731730D01*
X96670557Y-128270327D01*
X96523724Y-127686931D01*
X96411510Y-127231605D01*
X96324042Y-126878228D01*
X96242427Y-126555627D01*
X96174058Y-126292520D01*
X96126329Y-126117630D01*
X96115070Y-126080051D01*
X96076535Y-125926943D01*
X96027059Y-125685787D01*
X95975039Y-125398711D01*
X95954110Y-125272458D01*
X95908461Y-125001809D01*
X95867338Y-124781682D01*
X95836818Y-124643561D01*
X95827055Y-124614427D01*
X95808062Y-124536970D01*
X95772947Y-124350938D01*
X95725458Y-124077854D01*
X95669346Y-123739240D01*
X95612355Y-123382124D01*
X95563238Y-123063969D01*
X95523646Y-122787952D01*
X95492564Y-122534526D01*
X95468980Y-122284146D01*
X95451880Y-122017267D01*
X95440252Y-121714344D01*
X95433081Y-121355830D01*
X95429354Y-120922181D01*
X95428058Y-120393851D01*
X95428128Y-119828756D01*
X95428814Y-119204276D01*
X95430646Y-118693763D01*
X95434599Y-118279575D01*
X95441649Y-117944072D01*
X95452770Y-117669614D01*
X95468938Y-117438562D01*
X95491128Y-117233274D01*
X95520316Y-117036111D01*
X95557477Y-116829432D01*
X95603587Y-116595597D01*
X95608147Y-116572924D01*
X95678744Y-116229282D01*
X95745678Y-115916207D01*
X95802178Y-115664529D01*
X95841471Y-115505080D01*
X95846609Y-115487173D01*
X95998124Y-114988244D01*
X96123316Y-114588124D01*
X96232495Y-114259214D01*
X96335969Y-113973917D01*
X96444049Y-113704637D01*
X96567046Y-113423776D01*
X96715267Y-113103736D01*
X96818170Y-112886528D01*
X97356616Y-111854493D01*
X97972195Y-110864853D01*
X98673952Y-109906854D01*
X99470935Y-108969739D01*
X100372190Y-108042754D01*
X101386762Y-107115144D01*
X102338635Y-106323243D01*
X102620242Y-106098857D01*
X102858230Y-105912572D01*
X103076645Y-105747030D01*
X103299533Y-105584872D01*
X103550938Y-105408739D01*
X103854906Y-105201274D01*
X104235481Y-104945116D01*
X104404511Y-104831851D01*
X104718557Y-104625314D01*
X105088338Y-104388208D01*
X105494151Y-104132571D01*
X105916289Y-103870438D01*
X106335050Y-103613847D01*
X106730729Y-103374834D01*
X107083622Y-103165437D01*
X107374024Y-102997693D01*
X107582231Y-102883638D01*
X107643668Y-102853125D01*
X107833439Y-102757843D01*
X108061822Y-102633954D01*
X108155289Y-102580643D01*
X108382464Y-102454622D01*
X108710028Y-102281352D01*
X109119470Y-102070010D01*
X109592284Y-101829773D01*
X110109961Y-101569817D01*
X110653992Y-101299319D01*
X111205869Y-101027456D01*
X111747083Y-100763405D01*
X112259127Y-100516342D01*
X112723491Y-100295445D01*
X113121668Y-100109891D01*
X113320833Y-100019462D01*
X113599458Y-99894042D01*
X113866974Y-99772509D01*
X114074702Y-99677006D01*
X114110470Y-99660316D01*
X114357168Y-99547581D01*
X114693451Y-99397966D01*
X115087449Y-99225272D01*
X115507291Y-99043302D01*
X115921107Y-98865856D01*
X116297027Y-98706738D01*
X116603179Y-98579748D01*
X116643890Y-98563199D01*
X116936387Y-98443165D01*
X117221525Y-98323467D01*
X117449384Y-98225133D01*
X117499330Y-98202844D01*
X117730362Y-98098980D01*
X117912304Y-98019608D01*
X118087180Y-97947436D01*
X118297012Y-97865173D01*
X118583824Y-97755526D01*
X118617983Y-97742532D01*
X118883653Y-97637501D01*
X119113905Y-97539282D01*
X119272037Y-97463805D01*
X119307106Y-97443397D01*
X119451730Y-97373980D01*
X119537417Y-97356589D01*
X119663007Y-97327031D01*
X119828480Y-97256101D01*
X119835340Y-97252529D01*
X120041160Y-97154341D01*
X120261004Y-97062703D01*
X120263061Y-97061926D01*
X120829644Y-96847016D01*
X121278576Y-96674451D01*
X121615972Y-96541836D01*
X121847951Y-96446778D01*
X121950985Y-96401256D01*
X122102329Y-96335840D01*
X122197576Y-96304590D01*
X122202785Y-96304144D01*
X122279604Y-96280204D01*
X122447174Y-96216206D01*
X122675260Y-96123887D01*
X122785068Y-96078130D01*
X123059552Y-95964740D01*
X123411870Y-95822014D01*
X123797083Y-95668030D01*
X124170256Y-95520861D01*
X124178346Y-95517698D01*
X124497538Y-95391705D01*
X124778237Y-95278652D01*
X124994740Y-95189053D01*
X125121345Y-95133426D01*
X125137139Y-95125396D01*
X125247171Y-95073653D01*
X125440039Y-94991654D01*
X125675739Y-94896364D01*
X125696466Y-94888195D01*
X125952181Y-94786582D01*
X126186279Y-94691764D01*
X126348543Y-94624084D01*
X126349848Y-94623520D01*
X126485109Y-94565300D01*
X126710839Y-94468422D01*
X126996502Y-94345983D01*
X127311562Y-94211075D01*
X127336895Y-94200233D01*
X127662249Y-94060041D01*
X127969412Y-93925981D01*
X128224426Y-93812983D01*
X128393334Y-93735972D01*
X128396952Y-93734262D01*
X128568342Y-93657251D01*
X128686833Y-93611604D01*
X128710593Y-93606217D01*
X128781693Y-93578953D01*
X128949908Y-93503674D01*
X129194109Y-93390148D01*
X129493168Y-93248144D01*
X129690432Y-93153197D01*
X130031326Y-92988764D01*
X130348178Y-92836748D01*
X130613982Y-92710045D01*
X130801731Y-92621554D01*
X130857361Y-92595911D01*
X131194613Y-92430121D01*
X131597410Y-92211668D01*
X132033438Y-91960022D01*
X132470383Y-91694655D01*
X132875932Y-91435037D01*
X133217771Y-91200640D01*
X133398275Y-91064848D01*
X133913162Y-90622296D01*
X134303212Y-90212418D01*
X134569623Y-89830000D01*
X134713591Y-89469831D01*
X134736316Y-89126697D01*
X134638995Y-88795385D01*
X134422826Y-88470684D01*
X134089006Y-88147380D01*
X134071877Y-88133303D01*
X133656898Y-87844612D01*
X133119980Y-87554224D01*
X132470671Y-87266002D01*
X131718522Y-86983807D01*
X130873080Y-86711501D01*
X129943896Y-86452947D01*
X129870315Y-86434017D01*
X129583415Y-86359915D01*
X129316920Y-86289866D01*
X129117851Y-86236262D01*
X129080677Y-86225911D01*
X128907719Y-86181579D01*
X128653620Y-86121777D01*
X128366125Y-86057654D01*
X128291040Y-86041488D01*
X127743131Y-85923209D01*
X127309034Y-85826147D01*
X126973389Y-85746327D01*
X126720835Y-85679774D01*
X126536011Y-85622512D01*
X126403558Y-85570567D01*
X126332864Y-85534721D01*
X126194323Y-85443908D01*
X126122660Y-85373640D01*
X126119953Y-85364377D01*
X126179396Y-85336294D01*
X126333758Y-85314327D01*
X126497905Y-85305102D01*
X126689646Y-85300140D01*
X126848390Y-85298528D01*
X126993966Y-85303279D01*
G37*
D14*
%TO.C,D107*%
X142665000Y-120915000D02*
X142665000Y-123200000D01*
X144135000Y-120915000D02*
X142665000Y-120915000D01*
X144135000Y-123200000D02*
X144135000Y-120915000D01*
%TO.C,SW101*%
X141940000Y-103140000D02*
X148060000Y-103140000D01*
X141940000Y-106760000D02*
X141940000Y-103140000D01*
X148060000Y-103140000D02*
X148060000Y-106760000D01*
X148060000Y-106760000D02*
X141940000Y-106760000D01*
%TO.C,RV102*%
X162585000Y-87475000D02*
X172335000Y-87475000D01*
X162585000Y-92525000D02*
X162585000Y-87475000D01*
X172335000Y-87475000D02*
X172335000Y-92525000D01*
X172335000Y-92525000D02*
X162585000Y-92525000D01*
%TO.C,RV101*%
X117585000Y-87475000D02*
X127335000Y-87475000D01*
X117585000Y-92525000D02*
X117585000Y-87475000D01*
X127335000Y-87475000D02*
X127335000Y-92525000D01*
X127335000Y-92525000D02*
X117585000Y-92525000D01*
%TO.C,J104*%
X133670000Y-88690000D02*
X133670000Y-96370000D01*
X133670000Y-88690000D02*
X136330000Y-88690000D01*
X133670000Y-96370000D02*
X136330000Y-96370000D01*
X135000000Y-86090000D02*
X136330000Y-86090000D01*
X136330000Y-86090000D02*
X136330000Y-87420000D01*
X136330000Y-88690000D02*
X136330000Y-96370000D01*
%TO.C,J103*%
X156330000Y-88650000D02*
X156330000Y-96330000D01*
X156330000Y-86050000D02*
X156330000Y-87380000D01*
X155000000Y-86050000D02*
X156330000Y-86050000D01*
X153670000Y-96330000D02*
X156330000Y-96330000D01*
X153670000Y-88650000D02*
X156330000Y-88650000D01*
X153670000Y-88650000D02*
X153670000Y-96330000D01*
%TO.C,SW103*%
X111940000Y-103190000D02*
X118060000Y-103190000D01*
X111940000Y-106810000D02*
X111940000Y-103190000D01*
X118060000Y-103190000D02*
X118060000Y-106810000D01*
X118060000Y-106810000D02*
X111940000Y-106810000D01*
%TO.C,D105*%
X145865000Y-120915000D02*
X145865000Y-123200000D01*
X147335000Y-120915000D02*
X145865000Y-120915000D01*
X147335000Y-123200000D02*
X147335000Y-120915000D01*
%TO.C,D106*%
X144265000Y-120915000D02*
X144265000Y-123200000D01*
X145735000Y-120915000D02*
X144265000Y-120915000D01*
X145735000Y-123200000D02*
X145735000Y-120915000D01*
%TO.C,SW104*%
X171940000Y-103190000D02*
X178060000Y-103190000D01*
X171940000Y-106810000D02*
X171940000Y-103190000D01*
X178060000Y-103190000D02*
X178060000Y-106810000D01*
X178060000Y-106810000D02*
X171940000Y-106810000D01*
%TO.C,D103*%
X143465000Y-114615000D02*
X143465000Y-116900000D01*
X144935000Y-114615000D02*
X143465000Y-114615000D01*
X144935000Y-116900000D02*
X144935000Y-114615000D01*
%TO.C,SW102*%
X141940000Y-108190000D02*
X148060000Y-108190000D01*
X141940000Y-111810000D02*
X141940000Y-108190000D01*
X148060000Y-108190000D02*
X148060000Y-111810000D01*
X148060000Y-111810000D02*
X141940000Y-111810000D01*
%TO.C,D104*%
X141865000Y-114615000D02*
X141865000Y-116900000D01*
X143335000Y-114615000D02*
X141865000Y-114615000D01*
X143335000Y-116900000D02*
X143335000Y-114615000D01*
%TO.C,J102*%
X142345000Y-96480000D02*
X142345000Y-95100000D01*
X143725000Y-96480000D02*
X142345000Y-96480000D01*
X144995000Y-93720000D02*
X147645000Y-93720000D01*
X144995000Y-96480000D02*
X144995000Y-93720000D01*
X144995000Y-96480000D02*
X147645000Y-96480000D01*
X147645000Y-96480000D02*
X147645000Y-93720000D01*
%TO.C,J106*%
X152220000Y-111580000D02*
X153600000Y-111580000D01*
X152220000Y-112960000D02*
X152220000Y-111580000D01*
X152220000Y-114230000D02*
X152220000Y-124500000D01*
X152220000Y-114230000D02*
X154980000Y-114230000D01*
X152220000Y-124500000D02*
X154980000Y-124500000D01*
X154980000Y-114230000D02*
X154980000Y-124500000D01*
%TO.C,J101*%
X152705000Y-101305000D02*
X152705000Y-98645000D01*
X139945000Y-101305000D02*
X152705000Y-101305000D01*
X139945000Y-101305000D02*
X139945000Y-98645000D01*
X139945000Y-98645000D02*
X152705000Y-98645000D01*
X137345000Y-99975000D02*
X137345000Y-98645000D01*
X137345000Y-98645000D02*
X138675000Y-98645000D01*
%TO.C,D102*%
X145065000Y-114615000D02*
X145065000Y-116900000D01*
X146535000Y-114615000D02*
X145065000Y-114615000D01*
X146535000Y-116900000D02*
X146535000Y-114615000D01*
%TO.C,D101*%
X146665000Y-114615000D02*
X146665000Y-116900000D01*
X148135000Y-114615000D02*
X146665000Y-114615000D01*
X148135000Y-116900000D02*
X148135000Y-114615000D01*
%TD*%
%LPC*%
D15*
%TO.C,D107*%
X143400000Y-121612500D03*
X143400000Y-123187500D03*
%TD*%
D16*
%TO.C,SW101*%
X140410000Y-104950000D03*
X149590000Y-104950000D03*
%TD*%
D17*
%TO.C,RV102*%
X164920000Y-90000000D03*
X167460000Y-90000000D03*
X170000000Y-90000000D03*
%TD*%
%TO.C,RV101*%
X119920000Y-90000000D03*
X122460000Y-90000000D03*
X125000000Y-90000000D03*
%TD*%
D18*
%TO.C,J104*%
X135000000Y-87420000D03*
D19*
X135000000Y-89960000D03*
X135000000Y-92500000D03*
X135000000Y-95040000D03*
%TD*%
%TO.C,J103*%
X155000000Y-95000000D03*
X155000000Y-92460000D03*
X155000000Y-89920000D03*
D18*
X155000000Y-87380000D03*
%TD*%
D16*
%TO.C,SW103*%
X119590000Y-105000000D03*
X110410000Y-105000000D03*
%TD*%
D15*
%TO.C,D105*%
X146600000Y-121612500D03*
X146600000Y-123187500D03*
%TD*%
%TO.C,D106*%
X145000000Y-121612500D03*
X145000000Y-123187500D03*
%TD*%
D16*
%TO.C,SW104*%
X170410000Y-105000000D03*
X179590000Y-105000000D03*
%TD*%
D15*
%TO.C,D103*%
X144200000Y-115312500D03*
X144200000Y-116887500D03*
%TD*%
D16*
%TO.C,SW102*%
X140410000Y-110000000D03*
X149590000Y-110000000D03*
%TD*%
D15*
%TO.C,D104*%
X142600000Y-115312500D03*
X142600000Y-116887500D03*
%TD*%
D18*
%TO.C,J102*%
X143725000Y-95100000D03*
D19*
X146265000Y-95100000D03*
%TD*%
D18*
%TO.C,J106*%
X153600000Y-112960000D03*
D19*
X153600000Y-115500000D03*
X153600000Y-118040000D03*
X153600000Y-120580000D03*
X153600000Y-123120000D03*
%TD*%
%TO.C,J101*%
X151375000Y-99975000D03*
X148835000Y-99975000D03*
X146295000Y-99975000D03*
X143755000Y-99975000D03*
X141215000Y-99975000D03*
D18*
X138675000Y-99975000D03*
%TD*%
D15*
%TO.C,D102*%
X145800000Y-115312500D03*
X145800000Y-116887500D03*
%TD*%
%TO.C,D101*%
X147400000Y-115312500D03*
X147400000Y-116887500D03*
%TD*%
D20*
%TO.C,J105*%
X147890000Y-118695000D03*
X142110000Y-118695000D03*
D21*
X149320000Y-122375000D03*
D22*
X149320000Y-118195000D03*
D21*
X140680000Y-122375000D03*
D22*
X140680000Y-118195000D03*
%TD*%
D23*
%TO.C,J107*%
X136900000Y-118650000D03*
D24*
X134900000Y-118650000D03*
%TD*%
%LPD*%
M02*
