M48
; DRILL file {KiCad 9.0.4} date 2026-04-15T21:58:11-0500
; FORMAT={-:-/ absolute / metric / decimal}
; #@! TF.CreationDate,2026-04-15T21:58:11-05:00
; #@! TF.GenerationSoftware,Kicad,Pcbnew,9.0.4
; #@! TF.FileFunction,Plated,1,4,PTH
FMAT,2
METRIC
; #@! TA.AperFunction,Plated,PTH,ViaDrill
T1C0.300
; #@! TA.AperFunction,Plated,PTH,ComponentDrill
T2C0.600
; #@! TA.AperFunction,Plated,PTH,ComponentDrill
T3C0.750
; #@! TA.AperFunction,Plated,PTH,ComponentDrill
T4C0.800
; #@! TA.AperFunction,Plated,PTH,ComponentDrill
T5C1.000
%
G90
G05
T1
X124.7Y-118.5
X125.4Y-115.9
X125.7Y-119.5
X126.0Y-115.9
X126.6Y-115.9
X127.2Y-115.9
X128.0Y-115.8
X128.0Y-119.4
X128.7Y-115.8
X128.9Y-119.4
X129.1Y-120.8
X129.1Y-122.3
X129.5Y-115.7
X129.9Y-106.3
X129.9Y-107.8
X129.9Y-109.3
X129.9Y-110.8
X130.4Y-119.3
X131.3Y-114.0
X131.3Y-115.7
X131.7Y-119.9
X132.6Y-121.2
X132.6Y-122.7
X133.25Y-113.4
X133.4Y-106.9
X133.4Y-108.1
X133.4Y-109.5
X133.4Y-111.0
X133.875Y-113.4
X134.0Y-106.2
X134.0Y-107.6
X134.0Y-109.1
X134.5Y-113.4
X135.5Y-122.4
X135.7Y-113.4
X136.1Y-105.2
X136.1Y-106.2
X136.3Y-110.8
X136.3Y-113.4
X136.3Y-115.6
X136.8Y-104.5
X136.9Y-115.8
X137.5Y-109.1
X138.1Y-109.8
X138.3Y-114.7
X138.8Y-106.8
X139.0Y-102.8
X139.0Y-108.6
X139.2Y-113.0
X139.4Y-108.1
X139.4Y-111.3
X139.8Y-113.8
X140.1Y-111.5
X140.725Y-111.8
X140.8Y-113.0
X141.2Y-103.6
X142.497Y-106.016
X142.5Y-123.6
X142.6Y-105.4
X143.1Y-111.1
X143.2Y-119.4
X143.3Y-113.4
X143.6Y-110.6
X144.2Y-119.4
X144.5Y-110.8
X144.9Y-102.6
X145.7Y-113.7
X146.2Y-105.0
X146.3Y-106.6
X146.3Y-110.9
X146.6Y-115.9
X147.2Y-110.9
X147.816Y-111.003
X148.1Y-109.0
X148.3Y-116.4
X149.0Y-111.5
X150.1Y-111.6
X150.7Y-103.4
X150.8Y-107.3
X151.5Y-107.9
X152.012Y-105.287
X152.4Y-102.5
X152.4Y-103.9
X152.4Y-108.9
X152.537Y-110.694
X153.5Y-109.4
X153.6Y-103.0
X155.1Y-109.5
X155.4Y-103.0
X155.7Y-100.3
X156.3Y-106.9
T3
X134.9Y-118.65
X136.9Y-118.65
T4
X119.92Y-90.0
X122.46Y-90.0
X125.0Y-90.0
X164.92Y-90.0
X167.46Y-90.0
X170.0Y-90.0
T5
X135.0Y-87.42
X135.0Y-89.96
X135.0Y-92.5
X135.0Y-95.04
X138.675Y-99.975
X141.215Y-99.975
X143.725Y-95.1
X143.755Y-99.975
X146.265Y-95.1
X146.295Y-99.975
X148.835Y-99.975
X151.375Y-99.975
X153.6Y-112.96
X153.6Y-115.5
X153.6Y-118.04
X153.6Y-120.58
X153.6Y-123.12
X155.0Y-87.38
X155.0Y-89.92
X155.0Y-92.46
X155.0Y-95.0
T2
X140.68Y-118.745G85X140.68Y-117.645
G05
X140.68Y-122.775G85X140.68Y-121.975
G05
X149.32Y-118.745G85X149.32Y-117.645
G05
X149.32Y-122.775G85X149.32Y-121.975
G05
M30
