%TF.GenerationSoftware,KiCad,Pcbnew,9.0.4*%
%TF.CreationDate,2026-04-15T21:57:54-05:00*%
%TF.ProjectId,controller,636f6e74-726f-46c6-9c65-722e6b696361,A*%
%TF.SameCoordinates,Original*%
%TF.FileFunction,Soldermask,Top*%
%TF.FilePolarity,Negative*%
%FSLAX46Y46*%
G04 Gerber Fmt 4.6, Leading zero omitted, Abs format (unit mm)*
G04 Created by KiCad (PCBNEW 9.0.4) date 2026-04-15 21:57:54*
%MOMM*%
%LPD*%
G01*
G04 APERTURE LIST*
G04 Aperture macros list*
%AMRoundRect*
0 Rectangle with rounded corners*
0 $1 Rounding radius*
0 $2 $3 $4 $5 $6 $7 $8 $9 X,Y pos of 4 corners*
0 Add a 4 corners polygon primitive as box body*
4,1,4,$2,$3,$4,$5,$6,$7,$8,$9,$2,$3,0*
0 Add four circle primitives for the rounded corners*
1,1,$1+$1,$2,$3*
1,1,$1+$1,$4,$5*
1,1,$1+$1,$6,$7*
1,1,$1+$1,$8,$9*
0 Add four rect primitives between the rounded corners*
20,1,$1+$1,$2,$3,$4,$5,0*
20,1,$1+$1,$4,$5,$6,$7,0*
20,1,$1+$1,$6,$7,$8,$9,0*
20,1,$1+$1,$8,$9,$2,$3,0*%
G04 Aperture macros list end*
%ADD10RoundRect,0.218750X-0.256250X0.218750X-0.256250X-0.218750X0.256250X-0.218750X0.256250X0.218750X0*%
%ADD11R,2.180000X1.600000*%
%ADD12C,1.440000*%
%ADD13R,1.700000X1.700000*%
%ADD14C,1.700000*%
%ADD15C,0.650000*%
%ADD16O,1.000000X1.800000*%
%ADD17O,1.000000X2.100000*%
%ADD18RoundRect,0.250000X0.350000X0.625000X-0.350000X0.625000X-0.350000X-0.625000X0.350000X-0.625000X0*%
%ADD19O,1.200000X1.750000*%
G04 APERTURE END LIST*
D10*
%TO.C,D107*%
X143400000Y-121612500D03*
X143400000Y-123187500D03*
%TD*%
D11*
%TO.C,SW101*%
X140410000Y-104950000D03*
X149590000Y-104950000D03*
%TD*%
D12*
%TO.C,RV102*%
X164920000Y-90000000D03*
X167460000Y-90000000D03*
X170000000Y-90000000D03*
%TD*%
%TO.C,RV101*%
X119920000Y-90000000D03*
X122460000Y-90000000D03*
X125000000Y-90000000D03*
%TD*%
D13*
%TO.C,J104*%
X135000000Y-87420000D03*
D14*
X135000000Y-89960000D03*
X135000000Y-92500000D03*
X135000000Y-95040000D03*
%TD*%
%TO.C,J103*%
X155000000Y-95000000D03*
X155000000Y-92460000D03*
X155000000Y-89920000D03*
D13*
X155000000Y-87380000D03*
%TD*%
D11*
%TO.C,SW103*%
X119590000Y-105000000D03*
X110410000Y-105000000D03*
%TD*%
D10*
%TO.C,D105*%
X146600000Y-121612500D03*
X146600000Y-123187500D03*
%TD*%
%TO.C,D106*%
X145000000Y-121612500D03*
X145000000Y-123187500D03*
%TD*%
D11*
%TO.C,SW104*%
X170410000Y-105000000D03*
X179590000Y-105000000D03*
%TD*%
D10*
%TO.C,D103*%
X144200000Y-115312500D03*
X144200000Y-116887500D03*
%TD*%
D11*
%TO.C,SW102*%
X140410000Y-110000000D03*
X149590000Y-110000000D03*
%TD*%
D10*
%TO.C,D104*%
X142600000Y-115312500D03*
X142600000Y-116887500D03*
%TD*%
D13*
%TO.C,J102*%
X143725000Y-95100000D03*
D14*
X146265000Y-95100000D03*
%TD*%
D13*
%TO.C,J106*%
X153600000Y-112960000D03*
D14*
X153600000Y-115500000D03*
X153600000Y-118040000D03*
X153600000Y-120580000D03*
X153600000Y-123120000D03*
%TD*%
%TO.C,J101*%
X151375000Y-99975000D03*
X148835000Y-99975000D03*
X146295000Y-99975000D03*
X143755000Y-99975000D03*
X141215000Y-99975000D03*
D13*
X138675000Y-99975000D03*
%TD*%
D10*
%TO.C,D102*%
X145800000Y-115312500D03*
X145800000Y-116887500D03*
%TD*%
%TO.C,D101*%
X147400000Y-115312500D03*
X147400000Y-116887500D03*
%TD*%
D15*
%TO.C,J105*%
X147890000Y-118695000D03*
X142110000Y-118695000D03*
D16*
X149320000Y-122375000D03*
D17*
X149320000Y-118195000D03*
D16*
X140680000Y-122375000D03*
D17*
X140680000Y-118195000D03*
%TD*%
D18*
%TO.C,J107*%
X136900000Y-118650000D03*
D19*
X134900000Y-118650000D03*
%TD*%
M02*
